<?xml version="1.0" encoding="UTF-8" standalone="no"?>
<svg
   xmlns:dc="http://purl.org/dc/elements/1.1/"
   xmlns:cc="http://creativecommons.org/ns#"
   xmlns:rdf="http://www.w3.org/1999/02/22-rdf-syntax-ns#"
   xmlns:svg="http://www.w3.org/2000/svg"
   xmlns="http://www.w3.org/2000/svg"
   xmlns:sodipodi="http://sodipodi.sourceforge.net/DTD/sodipodi-0.dtd"
   xmlns:inkscape="http://www.inkscape.org/namespaces/inkscape"
   sodipodi:docname="Dallas Stars.svg"
   inkscape:version="1.0beta1 (32d4812, 2019-09-19)"
   id="svg3075"
   version="1.1"
   viewBox="0 0 763 633"
   height="633pt"
   width="763pt">
  <metadata
     id="metadata3113">
    <rdf:RDF>
      <cc:Work
         rdf:about="">
        <dc:format>image/svg+xml</dc:format>
        <dc:type
           rdf:resource="http://purl.org/dc/dcmitype/StillImage" />
        <dc:title></dc:title>
      </cc:Work>
    </rdf:RDF>
  </metadata>
  <defs
     id="defs3111" />
  <sodipodi:namedview
     inkscape:document-rotation="0"
     inkscape:current-layer="#0b714cff"
     inkscape:window-maximized="0"
     inkscape:window-y="23"
     inkscape:window-x="0"
     inkscape:cy="560"
     inkscape:cx="400"
     inkscape:zoom="0.35"
     showgrid="false"
     id="namedview3109"
     inkscape:window-height="907"
     inkscape:window-width="1600"
     inkscape:pageshadow="2"
     inkscape:pageopacity="0"
     guidetolerance="10"
     gridtolerance="10"
     objecttolerance="10"
     borderopacity="1"
     bordercolor="#666666"
     pagecolor="#ffffff" />
  <g
     id="#0b714cff">
    <path
       sodipodi:nodetypes="ccccccccccccccccccccccccccccccccccccccccccccccccc"
       inkscape:connector-curvature="0"
       id="path3091"
       d="m 409.52,4.18 c 1.27,7.85 1.68,15.82 2.6,23.73 5.94,58.37 11.66,116.77 17.74,175.13 29.46,2.83 59.4,13.57 80.09,35.48 90.99732,0.6962 172.98137,-0.78026 253.05,-0.26 v 0.28 c -80.2,42.85 -160.33,85.88 -240.51,128.76 -15.37,32.51 -38.25,61.84 -67.86,82.5 5.68,55.89 11.25,111.78 16.91,167.66 -52.65,-42.2 -105.09,-84.67 -157.69,-126.94 -7.78,0.72 -15.69,0.1 -23.4,1.1 C 204.11,537.71 117.93,584.14 31.55,630.16 59.4,583.81 87.5,537.6 115.35,491.25 94.6,491.23 73.84,491.29 53.09,491.22 81.37,443.74 109.74,396.32 138.1,348.88 92.42,312.1 46.76,275.28 1.08,238.5 c 67.64,-0.01 135.29,0.01 202.94,-0.01 7.31,-12.15 14.55,-24.33 21.81,-36.5 21.43,0.03 42.86,0 64.29,0.01 C 329.88,136.04 369.8,70.17 409.52,4.18 m -10.93,43.48 c -33.5,55.77 -67.38,111.31 -100.78,167.14 -21.52,0.58 -43.09,-0.15 -64.62,0.36 -6.61,11.32 -13.46,22.5 -20.11,33.8 -0.74,1.09 -1.38,2.9 -3.07,2.53 -57.29,-0.06 -114.58,0.08 -171.87,-0.07 38.59,31.29 77.35,62.37 116.02,93.56 1.54,0.93 -0.15,2.49 -0.57,3.57 -25.86,43.07 -51.49,86.29 -77.38,129.34 20.76,0.3 41.53,-0.04 62.29,0.16 -1.84,3.84 -4.38,7.28 -6.46,10.98 -19.55,32.46 -39.2,64.86 -58.74,97.32 -1.84,3.14 -4.02,6.09 -5.38,9.49 73.41,-39.11 146.59,-78.67 220.04,-117.68 9.31,-0.25 18.66,-0.25 27.98,-0.86 2.79,-0.64 4.59,1.85 6.57,3.31 30.97,25.01 62.01,49.94 92.97,74.95 13.29,10.46 26.19,21.44 39.65,31.67 -0.04,-0.8 -0.11,-2.39 -0.15,-3.19 -4.73,-46.98 -9.53,-93.95 -14.14,-140.93 31.66,-19.88 55.71,-50.38 71.03,-84.21 0.92,-1.82 3.15,-2.32 4.77,-3.34 64.11,-34.31 128.2,-68.66 192.3,-102.98 0.26,-0.28 0.79,-0.84 1.05,-1.12 -68.66,0 -137.31,0.1 -205.96,-0.05 -8.1,-9.27 -17.91,-17.06 -28.97,-22.52 -17.66,-9.04 -37.54,-12.55 -57.18,-13.73 -5.9,-56.72 -11.43,-113.48 -17.24,-170.21 -0.74,0.86 -1.47,1.74 -2.05,2.71 z"
       opacity="1.00"
       fill="#0b714c" />
  </g>
  <g
     id="#231f1fff">
    <path
       id="path3094"
       d=" M 398.59 47.66 C 399.17 46.69 399.90 45.81 400.64 44.95 C 406.45 101.68 411.98 158.44 417.88 215.16 C 437.52 216.34 457.40 219.85 475.06 228.89 C 486.12 234.35 495.93 242.14 504.03 251.41 C 572.68 251.56 641.33 251.46 709.99 251.46 C 709.73 251.74 709.20 252.30 708.94 252.58 C 644.84 286.90 580.75 321.25 516.64 355.56 C 515.02 356.58 512.79 357.08 511.87 358.90 C 496.55 392.73 472.50 423.23 440.84 443.11 C 445.45 490.09 450.25 537.06 454.98 584.04 C 455.02 584.84 455.09 586.43 455.13 587.23 C 441.67 577.00 428.77 566.02 415.48 555.56 C 384.52 530.55 353.48 505.62 322.51 480.61 C 320.53 479.15 318.73 476.66 315.94 477.30 C 306.62 477.91 297.27 477.91 287.96 478.16 C 214.51 517.17 141.33 556.73 67.92 595.84 C 69.28 592.44 71.46 589.49 73.30 586.35 C 92.84 553.89 112.49 521.49 132.04 489.03 C 134.12 485.33 136.66 481.89 138.50 478.05 C 117.74 477.85 96.97 478.19 76.21 477.89 C 102.10 434.84 127.73 391.62 153.59 348.55 C 154.01 347.47 155.70 345.91 154.16 344.98 C 115.49 313.79 76.73 282.71 38.14 251.42 C 95.43 251.57 152.72 251.43 210.01 251.49 C 211.70 251.86 212.34 250.05 213.08 248.96 C 219.73 237.66 226.58 226.48 233.19 215.16 C 254.72 214.65 276.29 215.38 297.81 214.80 C 331.21 158.97 365.09 103.43 398.59 47.66 M 375.57 136.62 C 354.47 171.50 333.48 206.44 312.31 241.28 C 290.95 241.23 269.59 241.24 248.23 241.27 C 240.98 253.42 233.68 265.54 226.47 277.73 C 189.28 277.87 152.08 277.56 114.89 277.88 C 114.44 277.77 113.54 277.56 113.09 277.46 C 114.08 279.56 116.32 280.62 117.98 282.13 C 141.82 301.36 165.73 320.51 189.51 339.82 C 174.86 363.74 160.70 387.98 146.21 412.02 C 138.50 425.18 130.34 438.09 122.92 451.40 L 122.37 451.70 C 155.91 451.81 189.45 451.72 222.99 451.75 C 225.26 451.85 227.68 451.29 229.81 452.33 C 225.69 453.23 221.70 454.62 217.57 455.45 L 217.38 455.68 C 203.63 459.22 189.96 463.09 176.22 466.69 C 170.01 476.97 163.79 487.24 157.61 497.54 C 151.76 507.46 145.35 517.09 139.95 527.26 C 141.04 526.62 142.12 525.95 143.29 525.48 C 146.16 524.42 148.74 522.76 151.45 521.38 C 186.82 502.40 222.22 483.49 257.59 464.51 C 265.73 460.38 273.58 455.54 281.88 451.80 C 296.85 451.83 311.85 451.62 326.78 450.27 C 357.95 475.58 389.27 500.70 420.54 525.88 L 420.49 526.21 C 421.28 526.76 422.11 527.31 422.91 527.87 C 420.05 500.81 417.52 473.70 414.35 446.68 C 403.22 448.10 391.98 448.03 380.78 448.04 C 371.76 447.97 362.74 447.53 353.74 446.97 C 378.17 442.78 402.42 435.62 423.79 422.80 C 442.44 411.80 458.31 396.38 470.58 378.59 C 482.04 361.92 491.78 343.59 495.79 323.60 C 498.08 313.02 497.72 302.14 495.96 291.52 C 498.88 295.19 501.42 299.15 503.68 303.26 C 507.84 311.29 510.25 320.12 511.36 329.08 C 541.60 312.80 571.78 296.40 602.00 280.09 C 602.39 279.73 603.17 279.02 603.56 278.66 C 603.93 278.62 604.67 278.52 605.04 278.48 C 604.88 278.30 604.57 277.96 604.42 277.79 C 566.41 277.74 528.39 277.69 490.37 277.81 L 490.27 277.60 C 482.77 263.95 469.55 254.24 455.15 248.85 C 435.75 241.35 414.62 240.91 394.10 241.35 C 390.11 203.89 386.83 166.33 382.52 128.91 C 382.43 127.93 382.34 126.94 382.26 125.96 C 379.73 129.32 377.86 133.10 375.57 136.62 Z"
       opacity="1.00"
       fill="#231f1f" />
    <path
       id="path3096"
       d=" M 267.95 298.13 C 301.30 297.83 334.66 298.09 368.02 298.00 C 379.19 298.48 391.01 299.27 400.84 305.14 C 405.96 308.09 409.43 313.36 410.66 319.09 C 412.53 328.94 409.28 338.97 404.66 347.60 C 394.08 366.57 375.67 381.06 354.72 386.82 C 343.12 390.08 331.03 391.11 319.02 391.48 C 294.65 391.58 270.28 391.37 245.92 391.59 C 246.76 389.38 248.16 387.46 249.40 385.47 C 263.31 362.59 277.42 339.83 291.29 316.93 C 283.56 310.59 275.75 304.37 267.95 298.13 Z"
       opacity="1.00"
       fill="#231f1f" />
  </g>
  <g
     id="#a7aaacff">
    <path
       id="path3099"
       d=" M 381.25 129.76 C 381.57 129.55 382.20 129.13 382.52 128.91 C 386.83 166.33 390.11 203.89 394.10 241.35 C 381.06 241.71 368.00 241.37 354.96 241.53 C 355.51 237.24 356.80 233.09 357.72 228.87 C 365.58 195.84 373.32 162.76 381.25 129.76 Z"
       opacity="1.00"
       fill="#a7aaac" />
    <path
       id="path3101"
       d=" M 269.65 277.64 C 271.29 274.84 272.87 271.99 274.82 269.40 C 313.54 269.62 352.25 269.43 390.97 269.49 C 405.43 269.74 420.49 271.44 433.25 278.78 C 440.64 282.96 446.45 289.57 450.09 297.21 C 463.53 290.75 476.92 284.21 490.27 277.60 L 490.37 277.81 C 492.56 282.24 494.05 286.96 495.96 291.52 C 497.72 302.14 498.08 313.02 495.79 323.60 C 491.78 343.59 482.04 361.92 470.58 378.59 C 458.31 396.38 442.44 411.80 423.79 422.80 C 402.42 435.62 378.17 442.78 353.74 446.97 C 344.76 448.15 335.76 449.16 326.78 450.27 C 311.85 451.62 296.85 451.83 281.88 451.80 C 273.58 455.54 265.73 460.38 257.59 464.51 C 222.22 483.49 186.82 502.40 151.45 521.38 C 148.74 522.76 146.16 524.42 143.29 525.48 C 142.97 524.28 143.75 523.40 144.61 522.70 C 166.43 502.82 188.18 482.87 209.97 462.95 C 212.51 460.60 215.25 458.43 217.38 455.68 L 217.57 455.45 C 221.70 454.62 225.69 453.23 229.81 452.33 C 227.68 451.29 225.26 451.85 222.99 451.75 C 189.45 451.72 155.91 451.81 122.37 451.70 L 122.92 451.40 C 143.14 441.45 163.48 431.66 183.61 421.55 C 193.79 405.30 203.30 388.61 213.25 372.21 C 232.04 340.68 250.86 309.17 269.65 277.64 M 267.95 298.13 C 275.75 304.37 283.56 310.59 291.29 316.93 C 277.42 339.83 263.31 362.59 249.40 385.47 C 248.16 387.46 246.76 389.38 245.92 391.59 C 225.66 401.65 205.17 411.26 185.03 421.52 C 225.32 421.46 265.61 421.51 305.90 421.49 C 332.04 421.85 358.61 418.15 382.75 407.76 C 411.27 395.71 435.32 372.58 446.67 343.58 C 452.38 329.21 455.16 312.75 449.86 297.83 C 436.68 304.10 423.63 310.65 410.46 316.96 C 410.51 317.49 410.61 318.56 410.66 319.09 C 409.43 313.36 405.96 308.09 400.84 305.14 C 391.01 299.27 379.19 298.48 368.02 298.00 C 334.66 298.09 301.30 297.83 267.95 298.13 Z"
       opacity="1.00"
       fill="#a7aaac" />
    <path
       id="path3103"
       d=" M 113.09 277.46 C 113.54 277.56 114.44 277.77 114.89 277.88 C 115.67 278.23 117.24 278.92 118.03 279.26 C 148.32 288.80 178.70 298.05 208.96 307.68 C 202.42 318.36 196.33 329.32 189.51 339.82 C 165.73 320.51 141.82 301.36 117.98 282.13 C 116.32 280.62 114.08 279.56 113.09 277.46 Z"
       opacity="1.00"
       fill="#a7aaac" />
    <path
       id="path3105"
       d=" M 590.38 281.53 C 594.76 280.53 599.05 279.04 603.56 278.66 C 603.17 279.02 602.39 279.73 602.00 280.09 C 571.78 296.40 541.60 312.80 511.36 329.08 C 510.25 320.12 507.84 311.29 503.68 303.26 C 532.55 295.91 561.48 288.79 590.38 281.53 Z"
       opacity="1.00"
       fill="#a7aaac" />
    <path
       id="path3107"
       d=" M 380.78 448.04 C 391.98 448.03 403.22 448.10 414.35 446.68 C 417.52 473.70 420.05 500.81 422.91 527.87 C 422.11 527.31 421.28 526.76 420.49 526.21 L 420.54 525.88 C 420.87 524.83 420.75 523.85 420.20 522.93 C 407.05 497.97 393.69 473.12 380.78 448.04 Z"
       opacity="1.00"
       fill="#a7aaac" />
  </g>
  <path
     transform="scale(0.8,0.8)"
     inkscape:connector-curvature="0"
     id="path3000"
     d="m 155.93974,560.98563 c 0.646,-1.05943 4.76405,-8.06057 9.15122,-15.55808 7.35597,-12.5711 63.62038,-106.37548 86.5594,-144.31239 5.41801,-8.96037 9.66092,-16.46852 9.42869,-16.68476 -0.23222,-0.21625 -25.75967,-8.29136 -56.72766,-17.94471 -30.96799,-9.65334 -56.83886,-17.79636 -57.49082,-18.09559 -0.74324,-0.34112 9.42598,-0.59057 27.26369,-0.66876 15.64698,-0.0686 46.6909,-0.28668 68.98647,-0.48463 l 40.53741,-0.35992 13.38383,-22.374 13.38383,-22.37401 40.03005,0 40.03004,0 40.5464,-67.122 c 47.19637,-78.13062 46.47326,-76.96409 46.76594,-75.44437 0.11987,0.62246 -0.16687,1.41608 -0.63721,1.7636 -0.87053,0.64322 -33.62071,136.94293 -33.64432,140.02095 -0.004,0.52949 10.56497,0.76078 43.40908,0.94999 46.10303,0.2656 46.99794,0.31461 62.1701,3.40479 27.33541,5.56753 49.36416,19.27662 61.36412,38.18858 1.03665,1.63378 1.83678,3.00959 1.77806,3.05736 -0.2622,0.21329 -49.16282,23.93301 -49.34035,23.93301 -0.10953,0 -1.14529,-1.61436 -2.3017,-3.58746 -10.85114,-18.51466 -30.58991,-28.17574 -61.68002,-30.18911 -4.93113,-0.31934 -41.4755,-0.58039 -82.19536,-0.58717 l -73.31677,-0.0122 -1.7255,2.51892 c -0.94902,1.38541 -23.59823,39.19155 -50.33157,84.01364 -26.73333,44.8221 -51.64051,86.48362 -55.34927,92.58117 l -6.7432,11.08645 -27.85638,13.76366 c -29.98132,14.81357 -45.71162,22.44329 -46.2717,22.44329 -0.19308,0 0.1775,-0.86681 0.8235,-1.92624 z"
     style="fill:#ffffff;fill-opacity:0;stroke:#000000;stroke-width:5.92688799000000000;stroke-linecap:butt;stroke-linejoin:miter;stroke-miterlimit:4;stroke-opacity:0;stroke-dasharray:none" />
  <path
     transform="scale(0.8,0.8)"
     inkscape:connector-curvature="0"
     id="path3002"
     d="m 628.0912,375.77037 c -0.89487,-1.5484 -3.02232,-4.8156 -4.72765,-7.26044 -2.56002,-3.67016 -5.536,-9.9399 -9.21339,-19.41056 l -0.5178,-1.33355 70.36713,0.0888 c 38.70192,0.0488 69.56699,0.20017 68.58906,0.3363 -0.97794,0.13612 -28.90542,7.03061 -62.06107,15.3211 -33.15564,8.29049 -60.40139,15.07361 -60.54611,15.07361 -0.14471,0 -0.99529,-1.26687 -1.89017,-2.81527 z"
     style="fill:#ffffff;fill-opacity:0;stroke:#000000;stroke-width:5.92688799;stroke-linecap:butt;stroke-linejoin:miter;stroke-miterlimit:4;stroke-opacity:0;stroke-dasharray:none" />
  <path
     transform="scale(0.8,0.8)"
     inkscape:connector-curvature="0"
     id="path3004"
     d="m 245.24692,520.43121 c 6.84555,-3.46486 23.61997,-11.75062 37.27649,-18.4128 l 24.83002,-12.11305 48.95973,-0.26164 c 56.54643,-0.3022 65.16656,-0.77337 81.26128,-4.44167 35.1422,-8.00962 63.92243,-33.00754 74.48141,-64.69305 1.49257,-4.47893 1.63158,-5.67888 1.69027,-14.59002 l 0.064,-9.70972 24.14728,-11.73831 c 15.0667,-7.32412 24.23467,-11.4736 24.37968,-11.03439 4.02813,12.20139 4.12796,26.32362 0.29337,41.50687 -9.20554,36.44991 -36.78366,70.07115 -72.96903,88.95854 -21.24623,11.08972 -45.73443,18.04214 -75.58947,21.46053 -7.80978,0.89421 -18.49417,1.02777 -95.03524,1.18797 l -86.23622,0.18049 12.44647,-6.29975 0,0 z"
     style="fill:#ffffff;fill-opacity:0;stroke:#000000;stroke-width:5.92688799;stroke-linecap:butt;stroke-linejoin:miter;stroke-miterlimit:4;stroke-opacity:0;stroke-dasharray:none" />
  <path
     transform="scale(0.8,0.8)"
     inkscape:connector-curvature="0"
     id="path3006"
     d="m 467.29166,609.80531 c -31.7374,-25.60443 -57.43933,-46.64186 -57.11538,-46.74984 0.32395,-0.10798 7.75457,-1.06269 16.5125,-2.12157 13.5322,-1.63611 16.9471,-1.86214 22.73944,-1.50507 3.74875,0.23109 10.04589,0.44253 13.99363,0.46988 3.94775,0.0273 8.3746,0.21376 9.83745,0.41427 l 2.65973,0.36456 9.64984,18.45331 c 5.30741,10.14932 16.43867,31.30805 24.73613,47.0194 8.29747,15.71135 14.99737,28.93565 14.88867,29.38733 -0.1205,0.50073 -22.71805,-17.3473 -57.90201,-45.73227 l 0,0 z"
     style="fill:#ffffff;fill-opacity:0;stroke:#000000;stroke-width:5.92688799;stroke-linecap:butt;stroke-linejoin:miter;stroke-miterlimit:4;stroke-opacity:0;stroke-dasharray:none" />
  <path
     transform="scale(0.8,0.8)"
     inkscape:connector-curvature="0"
     id="path3008"
     d="m 178.32634,653.74143 c 1.22633,-2.20036 8.93391,-15.06912 17.12795,-28.59724 8.19405,-13.52812 17.12455,-28.33052 19.84556,-32.89423 2.72102,-4.5637 4.99348,-8.36423 5.04992,-8.44563 0.26242,-0.37842 49.10519,-13.21824 49.6242,-13.04524 0.32466,0.10822 -0.57203,1.2367 -1.99267,2.50773 -23.4032,20.9386 -88.88728,81.39108 -89.17898,82.32675 -0.39348,1.26209 -1.28226,2.12244 -2.21014,2.13943 -0.27254,0.005 0.50783,-1.79121 1.73416,-3.99157 l 0,0 z"
     style="fill:#ffffff;fill-opacity:0;stroke:#000000;stroke-width:5.92688799;stroke-linecap:butt;stroke-linejoin:miter;stroke-miterlimit:4;stroke-opacity:0;stroke-dasharray:none" />
  <path
     transform="scale(0.8,0.8)"
     inkscape:connector-curvature="0"
     id="path3005"
     d="m 504.63648,640.16392 c -11.40984,-9.21548 -37.48275,-30.26853 -57.93979,-46.78457 -20.45704,-16.51603 -37.19446,-30.1284 -37.19428,-30.2497 1.8e-4,-0.12131 7.49673,-1.12236 16.659,-2.22456 l 16.65866,-2.00401 8.17234,0.44662 c 4.49479,0.24564 11.93538,0.58167 16.53465,0.74673 l 8.36231,0.3001 10.62717,20.32607 c 5.84495,11.17934 16.94713,32.2651 24.67152,46.85723 11.82769,22.34368 15.38588,29.62697 14.3532,29.37972 -0.0878,-0.021 -9.49494,-7.57815 -20.90478,-16.79363 z"
     style="fill:#ffffff;fill-opacity:1;stroke:#000000;stroke-width:4.19094276000000040;stroke-linecap:butt;stroke-linejoin:miter;stroke-miterlimit:4;stroke-opacity:0;stroke-dasharray:none" />
  <path
     transform="scale(0.8,0.8)"
     inkscape:connector-curvature="0"
     id="path3775"
     d="m 478.19912,618.51822 c -25.57225,-20.63541 -51.45119,-41.54521 -57.50876,-46.46623 l -11.01376,-8.94732 15.3757,-1.89141 c 13.62041,-1.67548 17.39069,-1.82124 33.02628,-1.27678 l 17.65057,0.61463 5.35139,10.16068 c 35.42692,67.26505 44.07513,83.94071 43.8629,84.5774 -0.13712,0.41137 -21.17207,-16.13557 -46.74432,-36.77097 z"
     style="fill:#ffffff;fill-opacity:1;stroke:#000000;stroke-width:8.38188553;stroke-linecap:butt;stroke-linejoin:miter;stroke-miterlimit:4;stroke-opacity:0;stroke-dasharray:none" />
  <path
     transform="scale(0.8,0.8)"
     inkscape:connector-curvature="0"
     id="path3777"
     d="m 178.99026,653.75117 c 0,-0.35595 0.99523,-2.37766 2.21163,-4.49268 2.1794,-3.78945 38.90433,-64.78498 39.31434,-65.29622 0.54309,-0.67718 49.02504,-13.2328 48.81681,-12.64235 -0.13063,0.37042 -16.83364,15.83526 -37.1178,34.36632 -20.28417,18.53105 -40.55785,37.07216 -45.05264,41.20247 -4.49479,4.13031 -8.17234,7.21842 -8.17234,6.86246 z"
     style="fill:#ffffff;fill-opacity:1;stroke:#000000;stroke-width:8.38188553;stroke-linecap:butt;stroke-linejoin:miter;stroke-miterlimit:4;stroke-opacity:0;stroke-dasharray:none" />
  <path
     transform="scale(0.8,0.8)"
     inkscape:connector-curvature="0"
     id="path3779"
     d="m 155.52098,562.3174 c 0,-0.75885 23.52338,-40.30604 59.51071,-100.04861 46.27429,-76.81995 46.44504,-77.11178 45.58779,-77.91496 -0.40921,-0.38341 -25.82681,-8.51295 -56.48356,-18.06564 -30.65675,-9.5527 -56.30532,-17.69068 -56.99682,-18.0844 -0.70295,-0.40023 29.09919,-0.72709 67.59339,-0.74134 l 68.85066,-0.0255 13.32761,-22.42155 13.3276,-22.42154 40.20643,-0.21748 40.20643,-0.21747 42.31066,-70.0069 c 23.27086,-38.50379 42.42351,-69.66834 42.56144,-69.25457 0.13792,0.41378 -6.76765,30.31741 -15.34573,66.45252 -8.57808,36.13511 -15.89913,67.30324 -16.269,69.2625 l -0.6725,3.5623 37.81983,0.0132 c 40.22952,0.0141 52.8199,0.64684 66.45569,3.3397 9.17446,1.81183 23.15661,6.38124 29.99315,9.80186 12.12881,6.06858 26.13172,17.94806 31.86875,27.03609 2.39203,3.78923 2.57707,4.70566 1.07432,5.32077 -0.57625,0.23588 -11.48429,5.52249 -24.24009,11.74802 l -23.19237,11.31916 -3.42386,-5.29425 c -9.31839,-14.40884 -23.76998,-22.79943 -46.53484,-27.01814 -6.7004,-1.2417 -17.1399,-1.43942 -88.89625,-1.68369 -77.31607,-0.26321 -81.34953,-0.20336 -82.2265,1.21991 -0.50721,0.82321 -23.76099,39.78098 -51.67507,86.57286 -68.03928,114.05303 -59.90298,101.27271 -66.65365,104.69817 -17.30211,8.77955 -68.08422,33.44473 -68.08422,33.06892 z"
     style="fill:#ffffff;fill-opacity:1;stroke:#000000;stroke-width:8.38188553;stroke-linecap:butt;stroke-linejoin:miter;stroke-miterlimit:4;stroke-opacity:0;stroke-dasharray:none" />
  <path
     transform="scale(0.8,0.8)"
     inkscape:connector-curvature="0"
     id="path3781"
     d="m 155.52098,562.33258 c 0,-0.75629 10.98893,-19.23647 58.90641,-99.06339 26.19241,-43.6346 46.61486,-78.50564 46.19701,-78.88076 -0.41192,-0.36978 -25.83173,-8.50349 -56.48848,-18.07493 -30.65675,-9.57143 -56.30532,-17.72277 -56.99682,-18.11408 -0.69703,-0.39444 29.4217,-0.72284 67.58966,-0.73697 l 68.84694,-0.0255 13.31953,-22.42155 13.31953,-22.42154 40.20906,-0.21842 40.20906,-0.21841 42.32048,-70.00399 c 23.27627,-38.5022 42.43191,-69.66972 42.5681,-69.26116 0.13619,0.40855 -6.56176,29.46613 -14.88433,64.57239 -8.32256,35.10626 -15.64512,66.27777 -16.27235,69.27003 l -1.14041,5.44046 37.82568,0.0132 c 51.3015,0.018 64.14517,1.25048 83.60026,8.02235 16.06948,5.59342 27.42054,12.68257 37.34727,23.32474 6.1497,6.59293 10.28856,12.55246 9.36147,13.47955 -0.59398,0.59398 -46.78495,23.06906 -47.86051,23.28743 -0.50125,0.10176 -1.85606,-1.5123 -3.01069,-3.58682 -3.33086,-5.98452 -13.93729,-15.97634 -20.6574,-19.46037 -7.68401,-3.98375 -16.71998,-6.97011 -26.47295,-8.74924 -7.02149,-1.28085 -16.82572,-1.47417 -88.81347,-1.75127 -77.23279,-0.29729 -80.98069,-0.24242 -82.23739,1.20413 -0.72419,0.83362 -24.138,39.79991 -52.03069,86.59179 -27.89269,46.79187 -53.03738,88.84799 -55.87708,93.45802 l -5.16311,8.38189 -7.31124,3.69654 c -19.01913,9.61598 -66.40354,32.62604 -66.40354,32.24582 z"
     style="fill:#ffffff;fill-opacity:1;stroke:#000000;stroke-width:8.38188553;stroke-linecap:butt;stroke-linejoin:miter;stroke-miterlimit:4;stroke-opacity:0;stroke-dasharray:none" />
  <path
     transform="scale(0.8,0.8)"
     inkscape:connector-curvature="0"
     id="path3783"
     d="m 625.18838,371.12212 c -3.89883,-5.77025 -11.17825,-20.92518 -11.17825,-23.27185 0,-0.22732 31.77783,-0.37787 70.61739,-0.33455 60.78833,0.0678 69.85906,0.23257 65.16916,1.18385 -4.59219,0.93145 -114.25912,28.17598 -118.27876,29.38396 -0.96404,0.28971 -2.77854,-1.70593 -6.32954,-6.96141 l 0,0 z"
     style="fill:#ffffff;fill-opacity:1;stroke:#000000;stroke-width:8.38188553;stroke-linecap:butt;stroke-linejoin:miter;stroke-miterlimit:4;stroke-opacity:0;stroke-dasharray:none" />
  <path
     transform="scale(0.8,0.8)"
     inkscape:connector-curvature="0"
     id="path3785"
     d="m 269.93372,508.35649 36.8803,-18.30485 46.60729,-0.0613 c 57.85627,-0.0761 72.52283,-1.11589 91.27473,-6.47086 38.42294,-10.9724 71.00924,-48.33448 69.37883,-79.54682 l -0.39624,-7.58574 23.87483,-11.53867 c 13.13117,-6.34626 24.17232,-11.23075 24.5359,-10.85441 0.36359,0.37634 1.25614,3.59154 1.98345,7.14488 6.96071,34.00712 -16.07992,81.00552 -53.57896,109.29061 -22.54144,17.00275 -51.48236,28.29872 -85.57182,33.39966 -16.0744,2.40527 -37.90242,2.95579 -114.75526,2.89418 l -77.11334,-0.0619 36.88029,-18.30484 0,-10e-6 z"
     style="fill:#ffffff;fill-opacity:1;stroke:#000000;stroke-width:8.38188553;stroke-linecap:butt;stroke-linejoin:miter;stroke-miterlimit:4;stroke-opacity:0;stroke-dasharray:none" />
  <path
     transform="scale(0.8,0.8)"
     inkscape:connector-curvature="0"
     id="path3787"
     d="m 482.39077,621.89119 c -23.26762,-18.77794 -49.15158,-39.64948 -57.5199,-46.38119 -8.36832,-6.73172 -15.15765,-12.30057 -15.08739,-12.37524 0.0702,-0.0747 6.91706,-0.96185 15.21513,-1.97152 13.21761,-1.60825 17.2953,-1.7617 32.90313,-1.23815 l 17.81573,0.59762 4.51937,8.49851 c 20.56139,38.66496 44.91288,85.64911 44.7087,86.26167 -0.1375,0.4125 -19.28715,-14.61376 -42.55477,-33.3917 z"
     style="fill:#ffffff;fill-opacity:1;stroke:#000000;stroke-width:8.38188553;stroke-linecap:butt;stroke-linejoin:miter;stroke-miterlimit:4;stroke-opacity:0;stroke-dasharray:none" />
  <path
     transform="scale(0.8,0.8)"
     inkscape:connector-curvature="0"
     id="path3789"
     d="m 178.99026,653.74968 c 0,-0.35514 0.9969,-2.37617 2.21534,-4.49119 2.38225,-4.13523 38.92932,-64.85874 39.2992,-65.29622 0.58427,-0.69106 49.03507,-13.22781 48.82824,-12.63441 -0.19602,0.5624 -24.53174,22.95129 -83.00863,76.36801 -4.03378,3.68473 -7.33415,6.40894 -7.33415,6.05381 z"
     style="fill:#ffffff;fill-opacity:1;stroke:#000000;stroke-width:8.38188553;stroke-linecap:butt;stroke-linejoin:miter;stroke-miterlimit:4;stroke-opacity:0;stroke-dasharray:none" />
</svg>
