<?xml version="1.0" encoding="UTF-8" standalone="no"?>
<svg
   xmlns:dc="http://purl.org/dc/elements/1.1/"
   xmlns:cc="http://creativecommons.org/ns#"
   xmlns:rdf="http://www.w3.org/1999/02/22-rdf-syntax-ns#"
   xmlns:svg="http://www.w3.org/2000/svg"
   xmlns="http://www.w3.org/2000/svg"
   xmlns:sodipodi="http://sodipodi.sourceforge.net/DTD/sodipodi-0.dtd"
   xmlns:inkscape="http://www.inkscape.org/namespaces/inkscape"
   width="1000"
   height="1000"
   viewBox="0 0 1000 1000"
   version="1.1"
   id="svg73"
   sodipodi:docname="Denver_Nuggets_2018_Global.svg"
   inkscape:version="0.92.3 (2405546, 2018-03-11)">
  <metadata
     id="metadata77">
    <rdf:RDF>
      <cc:Work
         rdf:about="">
        <dc:format>image/svg+xml</dc:format>
        <dc:type
           rdf:resource="http://purl.org/dc/dcmitype/StillImage" />
        <dc:title>DEN</dc:title>
      </cc:Work>
    </rdf:RDF>
  </metadata>
  <sodipodi:namedview
     pagecolor="#ffffff"
     bordercolor="#666666"
     borderopacity="1"
     objecttolerance="10"
     gridtolerance="10"
     guidetolerance="10"
     inkscape:pageopacity="0"
     inkscape:pageshadow="2"
     inkscape:window-width="1680"
     inkscape:window-height="931"
     id="namedview75"
     showgrid="false"
     inkscape:zoom="0.472"
     inkscape:cx="250"
     inkscape:cy="249.99999"
     inkscape:window-x="0"
     inkscape:window-y="1"
     inkscape:window-maximized="1"
     inkscape:current-layer="svg73"
     fit-margin-top="0"
     fit-margin-left="0"
     fit-margin-right="0"
     fit-margin-bottom="0" />
  <!-- Generator: Sketch 50.2 (55047) - http://www.bohemiancoding.com/sketch -->
  <title
     id="title2">DEN</title>
  <desc
     id="desc4">Created with Sketch.</desc>
  <defs
     id="defs6" />
  <g
     id="DEN"
     transform="matrix(2.0043663,0,0,2.0043663,-0.30238186,-0.30238186)"
     style="fill:none;fill-rule:evenodd;stroke:none;stroke-width:1">
    <g
       id="1Asset-1"
       style="fill-rule:nonzero">
      <path
         d="M 249.66262,499.06166 C 148.75921,499.08298 57.780537,438.31382 19.156624,345.09531 -19.467288,251.87679 1.8713951,144.57037 73.220881,73.220881 144.57037,1.8713951 251.87679,-19.467288 345.09531,19.156624 438.31382,57.780537 499.08298,148.75921 499.06166,249.66262 498.88739,387.32966 387.32966,498.88739 249.66262,499.06166"
         id="Shape"
         inkscape:connector-curvature="0"
         style="fill:#ffc52f" />
      <path
         d="m 249.66262,12.915402 c 130.75187,0 236.74721,105.995338 236.74721,236.747218 0,130.75187 -105.99534,236.74721 -236.74721,236.74721 -130.75188,0 -236.747218,-105.99534 -236.747218,-236.74721 C 13.176428,119.01901 119.01901,13.176428 249.66262,12.915402"
         id="path9"
         inkscape:connector-curvature="0"
         style="fill:#8a2433" />
      <path
         d="m 474.23246,250.34792 c 0,124.4341 -100.87377,225.30787 -225.30787,225.30787 -124.43409,0 -225.307856,-100.87377 -225.307856,-225.30787 0,-124.43409 100.873766,-225.307856 225.307856,-225.307856 59.75965,-0.01399 117.07572,23.719246 159.33217,65.975698 42.25645,42.256448 65.98968,99.572518 65.9757,159.332158"
         id="path11"
         inkscape:connector-curvature="0"
         style="fill:#0a233f" />
      <path
         d="m 248.87188,416.19222 c 90.45096,0 163.77867,-73.31985 163.78837,-163.77081 0.01,-90.45096 -73.30228,-163.786531 -163.75324,-163.805937 -90.45096,-0.01941 -163.794396,73.284697 -163.823508,163.735657 0.02908,90.45431 73.334078,163.78291 163.788378,163.84109"
         id="path13"
         inkscape:connector-curvature="0"
         style="fill:#8a2433" />
      <path
         d="m 95.995698,252.35113 c 0,-84.43118 68.445002,-152.876181 152.876182,-152.876181 84.43118,0 152.87618,68.445001 152.87618,152.876181 0,84.43118 -68.445,152.87618 -152.87618,152.87618 -84.43118,0 -152.876182,-68.445 -152.876182,-152.87618"
         id="path15"
         inkscape:connector-curvature="0"
         style="fill:#0a233f" />
      <path
         d="m 383.29749,286.93278 c 0,-26.35797 -13.91701,-62.20479 -26.35797,-86.19054 l -18.556,10.54318 -1.84506,-2.89937 -4.69172,2.95209 -184.50573,115.97503 -8.38183,10.27961 v -0.3163 c -7.34711,-3.2985 -12.11687,-10.55593 -12.2301,-18.60872 v -0.31629 l 12.70454,-3.42654 94.88866,-61.67763 -63.83898,-40.01139 -7.96011,-4.95529 -1.89777,2.89937 -18.50329,-10.54318 c -12.65182,23.98574 -26.72697,59.99072 -26.35796,86.19053 -9.75245,-30.31165 0.26358,-71.74637 13.917,-98.52606 l -3.42653,-1.95049 11.01763,-17.07996 3.21567,2.3195 c 18.50329,-23.5113 51.71432,-49.76383 83.23844,-53.71752 -23.8276,10.85948 -50.44914,38.53534 -66.89651,59.88529 l 17.34354,12.49367 -2.05592,3.16296 4.42814,2.89937 72.95884,47.44433 71.95724,-46.75902 5.27159,-3.58468 -2.05592,-3.16296 17.13267,-12.49367 c -16.34193,-21.34995 -43.06891,-49.02581 -66.84379,-59.88529 31.62956,3.95369 64.73516,30.25894 83.39659,53.82296 l 3.11024,-2.21407 10.96492,17.02724 -3.21568,1.89777 c 13.70614,26.77969 23.88032,68.21441 14.12787,98.52607 z m -23.88032,27.99215 -87.45572,-56.40604 -15.28761,9.06714 94.83594,59.46356 8.32912,10.54319 v -0.3163 c 3.75237,-1.34387 6.85892,-4.05505 8.69813,-7.59109 2.33113,-3.16153 3.47007,-7.04512 3.21567,-10.96491 v -0.3163 z"
         id="path17"
         inkscape:connector-curvature="0"
         style="fill:#ffc52f" />
      <polygon
         id="polygon19"
         points="248.71373,220.1417 279.23625,181.0792 309.96964,188.98659 264.37036,133.10771 257.83359,141.7004 248.71373,119.98144 "
         style="fill:#ffc52f" />
      <polygon
         id="polygon21"
         points="264.37036,156.5663 264.37036,133.10771 257.83359,141.7004 "
         style="fill:#ffffff" />
      <polygon
         id="polygon23"
         points="193.36201,187.51054 217.8222,181.29006 248.76645,220.1417 248.76645,119.98144 "
         style="fill:#ffffff" />
      <path
         d="m 214.87011,374.49393 c 7.93978,-7.66965 18.26314,-12.39422 29.25734,-13.38985 v -15.28762 h -42.17274 c 0.91928,10.74959 5.47487,20.86484 12.9154,28.67747"
         id="path25"
         inkscape:connector-curvature="0"
         style="fill:#ffc52f" />
      <path
         d="m 244.12745,388.77994 v -18.13428 c -8.23959,0.98224 -15.9642,4.52192 -22.08798,10.12146 6.60813,4.41433 14.18656,7.16355 22.08798,8.01282"
         id="path27"
         inkscape:connector-curvature="0"
         style="fill:#ffc52f" />
      <path
         d="m 253.51088,294.78745 v 18.08156 c 8.18808,-0.92521 15.86896,-4.43331 21.92982,-10.01602 -6.52324,-4.47467 -14.0618,-7.24726 -21.92982,-8.06554"
         id="path29"
         inkscape:connector-curvature="0"
         style="fill:#ffffff" />
      <path
         d="m 282.66279,309.02075 c -7.93372,7.61653 -18.20473,12.33413 -29.15191,13.38984 v 13.96972 h 42.17274 c -1.23317,-10.2979 -5.80678,-19.90805 -13.02083,-27.35956"
         id="path31"
         inkscape:connector-curvature="0"
         style="fill:#ffffff" />
      <path
         d="m 244.12745,312.86901 v -18.08156 c -7.88225,0.82715 -15.43577,3.59858 -21.98254,8.06554 6.08112,5.58358 13.77884,9.09093 21.98254,10.01602"
         id="path33"
         inkscape:connector-curvature="0"
         style="fill:#ffffff" />
      <path
         d="m 253.51088,345.81646 v 15.34034 c 10.95588,0.98377 21.24421,5.69073 29.15191,13.33713 7.60146,-7.74642 12.2463,-17.91284 13.12626,-28.73018 z"
         id="path35"
         inkscape:connector-curvature="0"
         style="fill:#ffc52f" />
      <path
         d="m 201.95471,336.3276 h 42.17274 v -13.91701 c -10.97569,-1.06483 -21.27729,-5.77944 -29.25734,-13.38984 -7.1652,7.45208 -11.70028,17.04055 -12.9154,27.30685"
         id="path37"
         inkscape:connector-curvature="0"
         style="fill:#ffffff" />
      <path
         d="m 253.51088,388.77994 c 7.85631,-0.83266 15.38735,-3.58439 21.92982,-8.01282 -6.05101,-5.61495 -13.7312,-9.15965 -21.92982,-10.12146 z"
         id="path39"
         inkscape:connector-curvature="0"
         style="fill:#ffc52f" />
      <polygon
         id="polygon41"
         points="441.91759,235.27117 430.58367,229.99958 436.54057,240.22647 421.78011,254.03804 440.96871,246.86867 447.03104,257.25371 447.97993,245.60349 460.7899,244.81275 450.29943,238.38141 463.21483,218.19121 "
         style="fill:#ffc52f" />
      <polygon
         id="polygon43"
         points="56.037028,235.11302 67.370951,229.78871 61.414052,240.06832 76.174511,253.82718 57.03863,246.71053 50.976299,257.09556 49.974696,245.44534 37.164727,244.60189 47.707912,238.22326 34.79251,217.98035 "
         style="fill:#ffc52f" />
      <path
         d="m 99.949393,157.19889 -29.731782,-21.08637 6.589491,-9.38344 c 1.154534,-1.51761 2.442413,-2.92898 3.848262,-4.21727 0.837828,-0.74267 1.737232,-1.41281 2.688512,-2.00321 l 0.52716,-0.57987 c 0.09956,-0.13291 0.187738,-0.27399 0.263579,-0.42173 l 0.316296,-0.63259 26.463399,18.39786 c -0.19201,1.81561 -0.65398,3.59238 -1.37062,5.27159 -0.67435,1.66602 -1.52249,3.25629 -2.53036,4.74443 z M 81.287955,130.20833 c -0.575174,0.84251 -0.575174,1.95144 0,2.79395 0.09797,0.19141 0.243118,0.3547 0.421728,0.47444 l 18.23971,12.96812 c 0.951937,0.1924 1.926857,-0.20171 2.477647,-1.00161 0.80686,-1.00173 0.69119,-2.45918 -0.26358,-3.3211 L 84.556343,129.41759 c -1.086766,-0.64403 -2.485917,-0.34585 -3.215672,0.68531 z"
         id="path45"
         inkscape:connector-curvature="0"
         style="fill:#ffffff" />
      <polygon
         id="polygon47"
         points="149.18607,86.348684 143.07102,90.40781 148.9752,99.316802 158.25321,93.201754 161.36345,97.893472 144.12534,109.2274 127.20353,83.502024 125.4639,84.661775 122.35366,79.970057 141.33139,67.476383 144.44163,72.1681 135.11091,78.283148 140.27707,86.085105 147.39372,81.393387 "
         style="fill:#ffffff" />
      <polygon
         id="polygon49"
         points="209.49308,56.353323 210.17839,56.037028 207.43716,42.805331 216.02986,41.012989 223.41009,76.70167 214.97554,78.494011 207.59531,66.211201 206.91,66.474781 209.65123,79.601046 201.00582,81.340671 194.78534,51.134447 192.88757,51.503458 191.78053,46.021002 200.90039,44.175945 "
         style="fill:#ffffff" />
      <path
         d="m 273.06849,76.43809 0.84345,-36.901147 8.11826,1.370614 -1.15975,22.562416 h 0.79073 l 6.64221,-21.666245 8.11825,1.317898 c -3.21567,9.752446 -11.12306,32.103998 -12.12466,34.950658 z"
         id="path51"
         inkscape:connector-curvature="0"
         style="fill:#ffffff" />
      <path
         d="m 402.2225,139.11732 -2.0032,-2.58308 -10.54319,8.06554 -5.27159,-6.74764 28.88833,-22.29883 6.9585,9.06714 c 1.12474,1.50807 2.11268,3.11348 2.95209,4.79714 0.48112,1.00508 0.88641,2.04472 1.21247,3.11024 l 0.42172,0.63259 0.3163,0.3163 0.52716,0.57988 -15.39305,11.80836 c -0.90466,-0.41139 -1.76936,-0.90551 -2.58308,-1.47604 h -0.3163 l -8.11825,12.49367 -5.27159,-6.43134 z m 13.60071,-11.2812 c -0.51014,-0.82956 -1.45894,-1.28334 -2.42493,-1.15975 h -0.52716 l -6.74764,5.3243 c -0.39938,0.38723 -0.6248,0.91977 -0.6248,1.47605 0,0.55628 0.22542,1.08882 0.6248,1.47605 0.89617,1.15975 2.21407,1.52876 3.00481,0.94888 l 6.9585,-5.27159 c 0.76679,-0.87495 0.76679,-2.18257 0,-3.05752 z"
         id="path53"
         inkscape:connector-curvature="0"
         style="fill:#ffffff" />
      <polygon
         id="polygon55"
         points="356.14878,91.251265 349.87559,87.455719 344.49857,96.311994 354.04015,102.11075 351.08806,106.96061 333.48094,96.259278 349.45386,69.8486 347.66152,68.794281 350.5609,63.997132 370.01307,75.752783 367.1137,80.549932 357.57211,74.803897 352.8804,82.553138 360.20791,86.981275 "
         style="fill:#ffffff" />
      <path
         d="m 187.51054,456.04546 c -1.9498,-0.61331 -3.82426,-1.44444 -5.58789,-2.47765 -1.67008,-0.8908 -3.18359,-2.04819 -4.48085,-3.42653 l 9.38344,-31.1024 c 1.8467,-0.43388 3.74991,-0.57618 5.6406,-0.42172 2.03804,0.14519 4.05362,0.51648 6.00961,1.10703 1.83021,0.61732 3.59578,1.41182 5.2716,2.37222 l 2.3195,1.52876 c 0.38775,0.2729 0.81421,0.48613 1.26518,0.63259 h 0.47444 0.73803 v 0.84346 l -2.74123,9.22528 -8.2764,-2.53036 1.15975,-3.9537 c 0.26278,-1.09726 -0.32143,-2.22075 -1.37062,-2.63579 h -0.47444 c -0.5868,-0.24225 -1.24621,-0.23919 -1.83074,0.008 -0.58452,0.24768 -1.04539,0.71931 -1.2795,1.3094 l -6.80035,22.29884 c -0.18271,0.47505 -0.18271,1.00099 0,1.47605 0.40269,0.6454 1.01791,1.13011 1.73962,1.37061 1.22255,0.47378 2.60027,-0.11 3.11024,-1.3179 l 2.89938,-9.43615 -2.68851,-1.37061 2.74123,-4.48086 9.85787,3.00481 -5.48245,18.66144 c -1.84898,0.4197 -3.75271,0.54424 -5.64061,0.36901 -2.01951,-0.12166 -4.01831,-0.47542 -5.9569,-1.05432"
         id="path57"
         inkscape:connector-curvature="0"
         style="fill:#ffffff" />
      <path
         d="m 260.36395,464.37458 c -2.02448,0.11912 -4.05583,0.0308 -6.06233,-0.26358 -1.83899,-0.29397 -3.61884,-0.88132 -5.27159,-1.73963 l -1.79234,-32.42029 c 1.62198,-1.04985 3.40175,-1.83295 5.27159,-2.3195 3.90589,-1.12379 8.01695,-1.34017 12.01923,-0.63259 0.90843,0.15484 1.80634,0.36611 2.68851,0.63259 0.45077,0.10559 0.91984,0.10559 1.37061,0 h 0.47445 0.73802 v 0.84345 l 0.52716,9.27801 -8.69813,0.47444 v -4.11184 c -0.15302,-1.11713 -1.08725,-1.96239 -2.21407,-2.00321 h -0.89617 c -1.3001,-0.031 -2.3932,0.96906 -2.47765,2.26679 l 1.21247,23.30044 c 0.0511,0.51089 0.29642,0.98265 0.68531,1.31789 0.56519,0.49574 1.30632,0.74278 2.05592,0.68531 1.3001,0.031 2.3932,-0.96906 2.47765,-2.26678 l -0.47445,-9.85788 -3.0048,-0.42173 1.05432,-5.27159 10.2796,-0.57988 1.10704,19.71576 c -1.6363,1.02305 -3.41185,1.80429 -5.2716,2.3195 -1.9656,0.52973 -3.97846,0.86521 -6.00961,1.0016"
         id="path59"
         inkscape:connector-curvature="0"
         style="fill:#ffffff" />
      <path
         d="m 121.87922,422.67628 c -1.60577,-1.22621 -3.05722,-2.64227 -4.32271,-4.21727 -1.22496,-1.45707 -2.22045,-3.09251 -2.95209,-4.84987 l 17.71255,-22.77328 -1.52876,-1.21246 3.42653,-4.42814 8.32912,6.53677 -18.71415,24.1439 c -0.69702,1.10663 -0.36689,2.56864 0.73802,3.26838 0.93333,0.87703 2.38777,0.87703 3.3211,0 l 18.71416,-24.09117 6.90578,5.27159 -21.08637,27.25413 c -1.82931,-0.30531 -3.60487,-0.87349 -5.27159,-1.68691 -1.86565,-0.86202 -3.63304,-1.92245 -5.27159,-3.16295"
         id="path61"
         inkscape:connector-curvature="0"
         style="fill:#ffffff" />
      <polygon
         id="polygon63"
         points="363.84531,392.31191 358.521,396.89819 354.8836,392.6282 372.43801,377.7096 376.0754,381.92687 370.69838,386.51316 390.73043,409.91903 383.93008,415.7705 "
         style="fill:#ffffff" />
      <path
         d="m 429.05491,365.26864 c -1.08088,1.67374 -2.33545,3.22869 -3.74283,4.639 -1.3219,1.32167 -2.83183,2.44079 -4.48085,3.3211 l -7.48567,-4.74443 4.58629,-7.32751 3.95369,2.47765 c 0.52939,0.2721 1.15753,0.2721 1.68691,0 0.60423,-0.22085 1.10923,-0.65104 1.42333,-1.21247 0.6663,-1.06077 0.41498,-2.45445 -0.57987,-3.21567 l -8.38183,-5.27159 -4.63901,7.90738 c -0.89155,2.01933 -3.23335,2.95605 -5.27159,2.10864 l -0.73802,-0.47444 -11.80837,-7.38023 c 0.1136,-1.80129 0.48645,-3.57677 1.10704,-5.27159 1.16788,-3.93283 3.28615,-7.51759 6.16776,-10.43776 0.74098,-0.7407 1.53372,-1.42774 2.37222,-2.05592 0.24041,-0.21905 0.45288,-0.46693 0.63259,-0.73802 v -0.42173 l 0.36901,-0.6853 8.59269,5.27159 -4.58628,7.38023 -3.53197,-2.21407 h -0.52716 c -1.03553,-0.12663 -2.0483,0.36943 -2.58308,1.26518 -0.6995,1.07178 -0.44564,2.50266 0.57988,3.26839 l 5.9569,3.74283 5.42974,-7.06394 c 1.02057,-2.09071 3.49881,-3.01716 5.6406,-2.10863 l 1.47605,0.94889 h 0.31629 l 11.49207,7.38022 c -0.0952,1.79888 -0.45028,3.5745 -1.05431,5.2716 -0.66758,1.84556 -1.53369,3.61312 -2.58309,5.27159"
         id="path65"
         inkscape:connector-curvature="0"
         style="fill:#ffffff" />
      <polygon
         id="polygon67"
         points="325.20454,432.69231 329.21095,442.28661 339.43784,438.01662 341.59919,443.28821 322.62146,451.1956 310.76037,422.729 308.80989,423.51974 306.70125,418.35358 327.62947,409.60273 329.79082,414.76889 319.51122,419.03888 322.99047,427.42071 330.89786,424.15233 331.95218,429.89836 "
         style="fill:#ffffff" />
      <polygon
         id="polygon69"
         points="91.883856,357.83569 92.463731,358.36285 103.69222,350.82448 108.5948,358.09927 78.335864,378.44762 73.538715,371.33097 82.078694,359.8389 81.604251,359.31174 70.481191,366.7974 65.57861,359.5226 91.198549,342.2845 90.091515,340.6503 94.730516,337.59278 99.949393,345.28931 "
         style="fill:#ffffff" />
    </g>
  </g>
</svg>
