<?xml version="1.0" encoding="UTF-8" standalone="no"?>
<svg
   xmlns:dc="http://purl.org/dc/elements/1.1/"
   xmlns:cc="http://creativecommons.org/ns#"
   xmlns:rdf="http://www.w3.org/1999/02/22-rdf-syntax-ns#"
   xmlns:svg="http://www.w3.org/2000/svg"
   xmlns="http://www.w3.org/2000/svg"
   xmlns:sodipodi="http://sodipodi.sourceforge.net/DTD/sodipodi-0.dtd"
   xmlns:inkscape="http://www.inkscape.org/namespaces/inkscape"
   width="1315.7335"
   height="1000"
   version="1.2"
   id="svg2"
   inkscape:version="0.91 r13725"
   sodipodi:docname="Los Angeles Clippers 2015.svg">
  <metadata
     id="metadata208">
    <rdf:RDF>
      <cc:Work
         rdf:about="">
        <dc:format>image/svg+xml</dc:format>
        <dc:type
           rdf:resource="http://purl.org/dc/dcmitype/StillImage" />
        <dc:title />
      </cc:Work>
    </rdf:RDF>
  </metadata>
  <sodipodi:namedview
     pagecolor="#ffffff"
     bordercolor="#666666"
     borderopacity="1"
     objecttolerance="10"
     gridtolerance="10"
     guidetolerance="10"
     inkscape:pageopacity="0"
     inkscape:pageshadow="2"
     inkscape:window-width="1920"
     inkscape:window-height="1017"
     id="namedview206"
     showgrid="false"
     units="px"
     fit-margin-top="0"
     fit-margin-left="0"
     fit-margin-right="0"
     fit-margin-bottom="0"
     inkscape:zoom="0.4218755"
     inkscape:cx="53.340599"
     inkscape:cy="864.47907"
     inkscape:window-x="-8"
     inkscape:window-y="-8"
     inkscape:window-maximized="1"
     inkscape:current-layer="svg2" />
  <desc
     id="desc4">Created by EvoPdf</desc>
  <defs
     id="defs6" />
  <g
     style="fill:#000000;fill-opacity:1;fill-rule:evenodd;stroke:#000000;stroke-width:1;stroke-linecap:square;stroke-linejoin:miter;stroke-miterlimit:2;stroke-opacity:1"
     id="g10"
     stroke-miterlimit="2"
     transform="matrix(4.7922551,0,0,4.7922551,0.0351097,-0.00423954)" />
  <g
     style="fill:#000000;fill-opacity:1;fill-rule:evenodd;stroke:#000000;stroke-width:1;stroke-linecap:square;stroke-linejoin:miter;stroke-miterlimit:2;stroke-opacity:1"
     id="g12"
     stroke-miterlimit="2"
     transform="matrix(4.7922551,0,0,4.7922551,0.0351097,-0.00423954)" />
  <g
     style="fill:#000000;fill-opacity:1;fill-rule:evenodd;stroke:#000000;stroke-width:1;stroke-linecap:square;stroke-linejoin:miter;stroke-miterlimit:2;stroke-opacity:1"
     id="g14"
     stroke-miterlimit="2"
     transform="matrix(4.7922551,0,0,4.7922551,0.0351097,-0.00423954)" />
  <g
     style="fill:#000000;fill-opacity:1;fill-rule:evenodd;stroke:#000000;stroke-width:1;stroke-linecap:square;stroke-linejoin:miter;stroke-miterlimit:2;stroke-opacity:1"
     id="g16"
     stroke-miterlimit="2"
     transform="matrix(4.7922551,0,0,4.7922551,0.0351097,-0.00423954)" />
  <g
     style="fill:#000000;fill-opacity:1;fill-rule:evenodd;stroke:#000000;stroke-width:1;stroke-linecap:square;stroke-linejoin:miter;stroke-miterlimit:2;stroke-opacity:1"
     id="g18"
     transform="matrix(4.7920251,0,0,4.7920251,0.0351097,2.0804653e-4)"
     stroke-miterlimit="2" />
  <g
     style="fill:#000000;fill-opacity:1;fill-rule:evenodd;stroke:none;stroke-width:1;stroke-linecap:square;stroke-linejoin:bevel"
     id="g20"
     transform="matrix(4.7920251,0,0,4.7920251,0.0351097,2.0804653e-4)">
    <path
       style="fill-rule:nonzero"
       inkscape:connector-curvature="0"
       id="path22"
       d="M 3.96,90.48 C 1.32583,92.8645 -0.123034,96.289 -7.18941e-7,99.84 L 0,168.6 c -0.123632,3.586 1.32236,7.048 3.96,9.48 2.64094,2.381 6.1964,3.479 9.72,3 6.24,-0.48 12.36,-0.96 18.48,-1.44 l 0,-12.96 c -6.12,0.36 -12.24,0.72 -18.48,1.08 l 0,-67.08 c 6.24,0.36 12.36,0.72 18.48,1.08 l 0,-13.08 C 26.04,88.2 19.92,87.72 13.68,87.24 10.12,86.8267 6.56001,88.0134 3.96,90.48 l 0,0"
       vector-effect="none" />
  </g>
  <g
     style="fill:#000000;fill-opacity:1;fill-rule:evenodd;stroke:#000000;stroke-width:1;stroke-linecap:square;stroke-linejoin:miter;stroke-miterlimit:2;stroke-opacity:1"
     id="g24"
     transform="matrix(4.7920251,0,0,4.7920251,0.0351097,2.0804653e-4)"
     stroke-miterlimit="2" />
  <g
     style="fill:#000000;fill-opacity:1;fill-rule:evenodd;stroke:none;stroke-width:1;stroke-linecap:square;stroke-linejoin:bevel"
     id="g26"
     transform="matrix(4.7920251,0,0,4.7920251,0.0351097,2.0804653e-4)">
    <path
       style="fill-rule:nonzero"
       inkscape:connector-curvature="0"
       id="path28"
       d="M 48.72,89.76 C 44.16,89.4 39.6,89.16 35.04,88.8 l 0,90.72 c 9.96,-0.72 20.04,-1.32 30,-1.8 l 0,-12.48 c -5.4,0.24 -10.92,0.36 -16.32,0.6 l 0,-76.08"
       vector-effect="none" />
  </g>
  <g
     style="fill:#000000;fill-opacity:1;fill-rule:evenodd;stroke:#000000;stroke-width:1;stroke-linecap:square;stroke-linejoin:miter;stroke-miterlimit:2;stroke-opacity:1"
     id="g30"
     transform="matrix(4.7920251,0,0,4.7920251,0.0351097,2.0804653e-4)"
     stroke-miterlimit="2" />
  <g
     style="fill:#000000;fill-opacity:1;fill-rule:evenodd;stroke:none;stroke-width:1;stroke-linecap:square;stroke-linejoin:bevel"
     id="g32"
     transform="matrix(4.7920251,0,0,4.7920251,0.0351097,2.0804653e-4)">
    <path
       style="fill-rule:nonzero"
       inkscape:connector-curvature="0"
       id="path34"
       d="m 67.68,177.6 c 4.68,-0.24 9.48,-0.48 14.04,-0.6 l 0,-85.68 C 77.16,91.2 72.36,90.96 67.68,90.72 l 0,86.88"
       vector-effect="none" />
  </g>
  <g
     style="fill:#000000;fill-opacity:1;fill-rule:evenodd;stroke:#000000;stroke-width:1;stroke-linecap:square;stroke-linejoin:miter;stroke-miterlimit:2;stroke-opacity:1"
     id="g36"
     transform="matrix(4.7920251,0,0,4.7920251,0.0351097,2.0804653e-4)"
     stroke-miterlimit="2" />
  <g
     style="fill:#000000;fill-opacity:1;fill-rule:evenodd;stroke:none;stroke-width:1;stroke-linecap:square;stroke-linejoin:bevel"
     id="g38"
     transform="matrix(4.7920251,0,0,4.7920251,0.0351097,2.0804653e-4)">
    <path
       style="fill-rule:nonzero"
       inkscape:connector-curvature="0"
       id="path40"
       d="m 107.76,128.16 -9.48,0 0,-24.12 c 3.24,0 6.24,0 9.48,0.12 l 0,24 m 0,-36.12 c -7.8,-0.12 -15.48,-0.36 -23.28,-0.6 l 0,85.44 c 4.68,-0.24 9.24,-0.36 13.8,-0.48 l 0,-36.24 9.48,0 c 3.519,0.06 6.937,-1.179 9.6,-3.48 2.622,-2.001 4.172,-5.102 4.2,-8.4 l 0,-24 c -0.028,-3.298 -1.578,-6.3988 -4.2,-8.4 -2.595,-2.4542 -6.028,-3.8273 -9.6,-3.84 l 0,0"
       vector-effect="none" />
  </g>
  <g
     style="fill:#000000;fill-opacity:1;fill-rule:evenodd;stroke:#000000;stroke-width:1;stroke-linecap:square;stroke-linejoin:miter;stroke-miterlimit:2;stroke-opacity:1"
     id="g42"
     transform="matrix(4.7920251,0,0,4.7920251,0.0351097,2.0804653e-4)"
     stroke-miterlimit="2" />
  <g
     style="fill:#000000;fill-opacity:1;fill-rule:evenodd;stroke:none;stroke-width:1;stroke-linecap:square;stroke-linejoin:bevel"
     id="g44"
     transform="matrix(4.7920251,0,0,4.7920251,0.0351097,2.0804653e-4)">
    <path
       style="fill-rule:nonzero"
       inkscape:connector-curvature="0"
       id="path46"
       d="m 210.36,103.08 c 3.12,-0.12 6.12,-0.24 9.36,-0.48 l 0,25.2 c -3.12,0 -6.24,0.12 -9.36,0.12 l 0,-24.84 m 18.96,33.72 c 2.583,-2.269 4.032,-5.563 3.96,-9 l 0,-25.68 c 0.069,-3.3678 -1.386,-6.5867 -3.96,-8.76 -2.639,-2.4005 -6.168,-3.5768 -9.72,-3.24 -7.68,0.48 -15.36,0.84 -23.04,1.08 l 0,85.92 c 4.56,0.12 9.12,0.36 13.8,0.6 l 0,-36.96 c 3.72,12.36 7.56,24.84 11.4,37.56 4.56,0.36 9.12,0.48 13.68,0.84 -3.96,-13.32 -8.04,-26.4 -12,-39.24 2.22,-0.451 4.262,-1.534 5.88,-3.12 l 0,0"
       vector-effect="none" />
  </g>
  <g
     style="fill:#000000;fill-opacity:1;fill-rule:evenodd;stroke:#000000;stroke-width:1;stroke-linecap:square;stroke-linejoin:miter;stroke-miterlimit:2;stroke-opacity:1"
     id="g48"
     transform="matrix(4.7920251,0,0,4.7920251,0.0351097,2.0804653e-4)"
     stroke-miterlimit="2" />
  <g
     style="fill:#000000;fill-opacity:1;fill-rule:evenodd;stroke:none;stroke-width:1;stroke-linecap:square;stroke-linejoin:bevel"
     id="g50"
     transform="matrix(4.7920251,0,0,4.7920251,0.0351097,2.0804653e-4)">
    <path
       style="fill-rule:nonzero"
       inkscape:connector-curvature="0"
       id="path52"
       d="m 147.36,128.16 -9.36,0 0,-23.88 9.36,0 0,23.88 m 0,-35.88 c -7.68,0.12 -15.48,0.12 -23.16,0 l 0,83.76 c 4.56,-0.12 9.24,-0.12 13.8,-0.12 l 0,-35.88 9.36,0 c 3.544,0.123 7.008,-1.074 9.72,-3.36 2.56,-2.144 4.051,-5.302 4.08,-8.64 l 0,-24 c -0.005,-3.276 -1.508,-6.3703 -4.08,-8.4 -2.74,-2.2357 -6.184,-3.4264 -9.72,-3.36"
       vector-effect="none" />
  </g>
  <g
     style="fill:#000000;fill-opacity:1;fill-rule:evenodd;stroke:#000000;stroke-width:1;stroke-linecap:square;stroke-linejoin:miter;stroke-miterlimit:2;stroke-opacity:1"
     id="g54"
     transform="matrix(4.7920251,0,0,4.7920251,0.0351097,2.0804653e-4)"
     stroke-miterlimit="2" />
  <g
     style="fill:#000000;fill-opacity:1;fill-rule:evenodd;stroke:none;stroke-width:1;stroke-linecap:square;stroke-linejoin:bevel"
     id="g56"
     transform="matrix(4.7920251,0,0,4.7920251,0.0351097,2.0804653e-4)">
    <path
       style="fill-rule:nonzero"
       inkscape:connector-curvature="0"
       id="path58"
       d="m 163.92,176.16 c 10.08,0.12 20.16,0.48 30.12,0.84 l 0,-12.24 c -5.4,-0.12 -10.92,-0.36 -16.32,-0.36 l 0,-24.24 c 3.24,0 8.76,0 11.76,0.12 l 0,-12.24 c -3.12,0 -8.64,0 -11.76,0.12 l 0,-24.24 c 5.52,-0.12 10.92,-0.24 16.32,-0.36 l 0,-12.24 c -10.08,0.36 -20.16,0.72 -30.12,0.84 l 0,84"
       vector-effect="none" />
  </g>
  <g
     style="fill:#000000;fill-opacity:1;fill-rule:evenodd;stroke:#000000;stroke-width:1;stroke-linecap:square;stroke-linejoin:miter;stroke-miterlimit:2;stroke-opacity:1"
     id="g60"
     transform="matrix(4.7920251,0,0,4.7920251,0.0351097,2.0804653e-4)"
     stroke-miterlimit="2" />
  <g
     style="fill:#000000;fill-opacity:1;fill-rule:evenodd;stroke:none;stroke-width:1;stroke-linecap:square;stroke-linejoin:bevel"
     id="g62"
     transform="matrix(4.7920251,0,0,4.7920251,0.0351097,2.0804653e-4)">
    <path
       style="fill-rule:nonzero"
       inkscape:connector-curvature="0"
       id="path64"
       d="m 274.44,113.52 0,-13.8 c 0.134,-3.5436 -1.371,-6.9515 -4.08,-9.24 -2.543,-2.4805 -6.074,-3.6723 -9.6,-3.24 -3.84,0.24 -7.68,0.6 -11.52,0.84 -3.696,0.2524 -7.163,1.8791 -9.72,4.56 -2.555,2.4396 -3.989,5.8271 -3.96,9.36 l 0,25.68 c -0.073,3.472 1.373,6.803 3.96,9.12 2.599,2.524 6.098,3.906 9.72,3.84 3.84,0.12 7.68,0.12 11.52,0.24 l 0,26.76 c -3.84,-0.24 -7.68,-0.36 -11.52,-0.6 l 0,-13.2 -13.68,-0.36 0,12.84 c -0.029,3.533 1.405,6.92 3.96,9.36 2.536,2.692 6.025,4.286 9.72,4.44 3.84,0.36 7.68,0.6 11.52,0.96 3.497,0.359 6.983,-0.774 9.6,-3.12 2.737,-2.371 4.24,-5.863 4.08,-9.48 l 0,-27.48 c 0.09,-3.674 -1.395,-7.211 -4.08,-9.72 -2.502,-2.597 -5.998,-3.995 -9.6,-3.84 -3.84,0 -7.68,0 -11.52,0.12 l 0,-26.28 11.52,-0.72 0,13.44 c 4.56,-0.12 9.12,-0.36 13.68,-0.48"
       vector-effect="none" />
  </g>
  <g
     style="fill:#000000;fill-opacity:1;fill-rule:evenodd;stroke:#000000;stroke-width:1;stroke-linecap:square;stroke-linejoin:miter;stroke-miterlimit:2;stroke-opacity:1"
     id="g66"
     transform="matrix(4.7920251,0,0,4.7920251,0.0351097,2.0804653e-4)"
     stroke-miterlimit="2" />
  <g
     style="fill:#bec0c2;fill-opacity:1;fill-rule:evenodd;stroke:none;stroke-width:1;stroke-linecap:square;stroke-linejoin:bevel"
     id="g68"
     transform="matrix(4.7920251,0,0,4.7920251,0.0351097,2.0804653e-4)">
    <path
       style="fill-rule:nonzero"
       inkscape:connector-curvature="0"
       id="path70"
       d="m 14.52,88.68 c 5.4,0.48 11.04,0.96 16.8,1.32 l 0,-0.48 C 25.44,89.04 19.56,88.68 13.68,88.2001 13.2474,88.1007 12.8034,88.0604 12.36,88.08 c -2.89402,-0.0684 -5.69776,1.0099 -7.8,3 -2.40358,2.2667 -3.715186,5.4583 -3.599999,8.76 L 0.96,168.6 c -0.109594,2.686 0.74125,5.324 2.4,7.44 -1.22263,-1.981 -1.84764,-4.273 -1.8,-6.6 l 0,-68.76 c -0.12803,-3.3634 1.23296,-6.6121 3.72,-8.88 2.05835,-2.0714 4.8809,-3.2004 7.8,-3.12 l 1.44,0"
       vector-effect="none" />
  </g>
  <g
     style="fill:#000000;fill-opacity:1;fill-rule:evenodd;stroke:#000000;stroke-width:1;stroke-linecap:square;stroke-linejoin:miter;stroke-miterlimit:2;stroke-opacity:1"
     id="g72"
     transform="matrix(4.7920251,0,0,4.7920251,0.0351097,2.0804653e-4)"
     stroke-miterlimit="2" />
  <g
     style="fill:#bec0c2;fill-opacity:1;fill-rule:evenodd;stroke:none;stroke-width:1;stroke-linecap:square;stroke-linejoin:bevel"
     id="g74"
     transform="matrix(4.7920251,0,0,4.7920251,0.0351097,2.0804653e-4)">
    <path
       style="fill-rule:nonzero"
       inkscape:connector-curvature="0"
       id="path76"
       d="m 47.76,91.2 0,-0.6 C 43.8,90.48 39.84,90.12 35.88,89.88 l 0,88.68 0.6,-0.12 0,-87.96 c 3.72,0.12 7.44,0.36 11.28,0.72"
       vector-effect="none" />
  </g>
  <g
     style="fill:#000000;fill-opacity:1;fill-rule:evenodd;stroke:#000000;stroke-width:1;stroke-linecap:square;stroke-linejoin:miter;stroke-miterlimit:2;stroke-opacity:1"
     id="g78"
     transform="matrix(4.7920251,0,0,4.7920251,0.0351097,2.0804653e-4)"
     stroke-miterlimit="2" />
  <g
     style="fill:#bec0c2;fill-opacity:1;fill-rule:evenodd;stroke:none;stroke-width:1;stroke-linecap:square;stroke-linejoin:bevel"
     id="g80"
     transform="matrix(4.7920251,0,0,4.7920251,0.0351097,2.0804653e-4)">
    <path
       style="fill-rule:nonzero"
       inkscape:connector-curvature="0"
       id="path82"
       d="m 80.88,92.76 0,-0.6 C 76.92,92.04 72.72,91.8 68.76,91.68 l 0,84.84 0.6,0 0,-84.24 c 3.72,0.12 7.56,0.36 11.52,0.48"
       vector-effect="none" />
  </g>
  <g
     style="fill:#000000;fill-opacity:1;fill-rule:evenodd;stroke:#000000;stroke-width:1;stroke-linecap:square;stroke-linejoin:miter;stroke-miterlimit:2;stroke-opacity:1"
     id="g84"
     transform="matrix(4.7920251,0,0,4.7920251,0.0351097,2.0804653e-4)"
     stroke-miterlimit="2" />
  <g
     style="fill:#bec0c2;fill-opacity:1;fill-rule:evenodd;stroke:none;stroke-width:1;stroke-linecap:square;stroke-linejoin:bevel"
     id="g86"
     transform="matrix(4.7920251,0,0,4.7920251,0.0351097,2.0804653e-4)">
    <path
       style="fill-rule:nonzero"
       inkscape:connector-curvature="0"
       id="path88"
       d="m 108.48,93.6 c 2.621,-0.0239 5.197,0.6825 7.44,2.04 -2.43,-1.7104 -5.309,-2.67 -8.28,-2.76 -7.32,-0.1201 -14.88,-0.36 -22.2,-0.6 l 0,83.52 0.6,0 0,-82.8 0.12,0 c 7.32,0.24 15,0.48 22.32,0.6"
       vector-effect="none" />
  </g>
  <g
     style="fill:#000000;fill-opacity:1;fill-rule:evenodd;stroke:#000000;stroke-width:1;stroke-linecap:square;stroke-linejoin:miter;stroke-miterlimit:2;stroke-opacity:1"
     id="g90"
     transform="matrix(4.7920251,0,0,4.7920251,0.0351097,2.0804653e-4)"
     stroke-miterlimit="2" />
  <g
     style="fill:#bec0c2;fill-opacity:1;fill-rule:evenodd;stroke:none;stroke-width:1;stroke-linecap:square;stroke-linejoin:bevel"
     id="g92"
     transform="matrix(4.7920251,0,0,4.7920251,0.0351097,2.0804653e-4)">
    <path
       style="fill-rule:nonzero"
       inkscape:connector-curvature="0"
       id="path94"
       d="m 221.4,91.56 c 2.327,-0.0476 4.619,0.5774 6.6,1.8 -2.07,-1.6572 -4.67,-2.5096 -7.32,-2.4 l -0.96,0 c -7.2,0.36 -14.76,0.72 -22.2,1.08 l 0,84.24 0.6,0 0,-83.64 c 7.56,-0.24 15.12,-0.6 22.44,-0.96 0.269,-0.0984 0.555,-0.1392 0.84,-0.12"
       vector-effect="none" />
  </g>
  <g
     style="fill:#000000;fill-opacity:1;fill-rule:evenodd;stroke:#000000;stroke-width:1;stroke-linecap:square;stroke-linejoin:miter;stroke-miterlimit:2;stroke-opacity:1"
     id="g96"
     transform="matrix(4.7920251,0,0,4.7920251,0.0351097,2.0804653e-4)"
     stroke-miterlimit="2" />
  <g
     style="fill:#bec0c2;fill-opacity:1;fill-rule:evenodd;stroke:none;stroke-width:1;stroke-linecap:square;stroke-linejoin:bevel"
     id="g98"
     transform="matrix(4.7920251,0,0,4.7920251,0.0351097,2.0804653e-4)">
    <path
       style="fill-rule:nonzero"
       inkscape:connector-curvature="0"
       id="path100"
       d="m 138.12,93.84 10.2,0 c 2.623,-0.0402 5.204,0.6674 7.44,2.04 -2.372,-1.8104 -5.298,-2.7432 -8.28,-2.64 l -22.32,0 0,81.84 0.6,0 0,-81.24 12.36,0"
       vector-effect="none" />
  </g>
  <g
     style="fill:#000000;fill-opacity:1;fill-rule:evenodd;stroke:#000000;stroke-width:1;stroke-linecap:square;stroke-linejoin:miter;stroke-miterlimit:2;stroke-opacity:1"
     id="g102"
     transform="matrix(4.7920251,0,0,4.7920251,0.0351097,2.0804653e-4)"
     stroke-miterlimit="2" />
  <g
     style="fill:#bec0c2;fill-opacity:1;fill-rule:evenodd;stroke:none;stroke-width:1;stroke-linecap:square;stroke-linejoin:bevel"
     id="g104"
     transform="matrix(4.7920251,0,0,4.7920251,0.0351097,2.0804653e-4)">
    <path
       style="fill-rule:nonzero"
       inkscape:connector-curvature="0"
       id="path106"
       d="m 193.08,92.28 c -9.36,0.36 -18.72,0.6 -28.2,0.72 l 0,82.32 0.6,0 0,-81.72 c 9.12,-0.12 18.48,-0.36 27.6,-0.72 l 0,-0.6"
       vector-effect="none" />
  </g>
  <g
     style="fill:#000000;fill-opacity:1;fill-rule:evenodd;stroke:#000000;stroke-width:1;stroke-linecap:square;stroke-linejoin:miter;stroke-miterlimit:2;stroke-opacity:1"
     id="g108"
     transform="matrix(4.7920251,0,0,4.7920251,0.0351097,2.0804653e-4)"
     stroke-miterlimit="2" />
  <g
     style="fill:#bec0c2;fill-opacity:1;fill-rule:evenodd;stroke:none;stroke-width:1;stroke-linecap:square;stroke-linejoin:bevel"
     id="g110"
     transform="matrix(4.7920251,0,0,4.7920251,0.0351097,2.0804653e-4)">
    <path
       style="fill-rule:nonzero"
       inkscape:connector-curvature="0"
       id="path112"
       d="m 261.6,88.68 1.2,0 c 2.107,-0.0549 4.187,0.4858 6,1.56 -1.977,-1.4587 -4.384,-2.2185 -6.84,-2.16 l -1.2,0 c -3.84,0.36 -7.68,0.6 -11.52,0.96 -3.466,0.1796 -6.73,1.6831 -9.12,4.2 -2.412,2.2303 -3.801,5.3548 -3.84,8.64 l 0,25.8 c -0.013,2.525 0.834,4.979 2.4,6.96 -1.22,-1.849 -1.848,-4.025 -1.8,-6.24 l 0,-25.68 c -0.042,-3.3369 1.357,-6.5298 3.84,-8.76 2.407,-2.578 5.718,-4.1258 9.24,-4.32 3.96,-0.24 7.8,-0.6 11.64,-0.96"
       vector-effect="none" />
  </g>
  <g
     style="fill:#000000;fill-opacity:1;fill-rule:evenodd;stroke:#000000;stroke-width:1;stroke-linecap:square;stroke-linejoin:miter;stroke-miterlimit:2;stroke-opacity:1"
     id="g114"
     transform="matrix(4.7920251,0,0,4.7920251,0.0351097,2.0804653e-4)"
     stroke-miterlimit="2" />
  <g
     style="fill:#006bb6;fill-opacity:1;fill-rule:evenodd;stroke:none;stroke-width:1;stroke-linecap:square;stroke-linejoin:bevel"
     id="g116"
     transform="matrix(4.7920251,0,0,4.7920251,0.0351097,2.0804653e-4)">
    <path
       style="fill-rule:nonzero"
       inkscape:connector-curvature="0"
       id="path118"
       d="m 0.12,196.08 c 91.1248,-11.4 183.315,-11.4 274.44,0 l 0,-4.8 c -91.175,-10.56 -183.2647,-10.56 -274.439965,0 l -3.5e-5,4.8"
       vector-effect="none" />
  </g>
  <g
     style="fill:#000000;fill-opacity:1;fill-rule:evenodd;stroke:#000000;stroke-width:1;stroke-linecap:square;stroke-linejoin:miter;stroke-miterlimit:2;stroke-opacity:1"
     id="g120"
     transform="matrix(4.7920251,0,0,4.7920251,0.0351097,2.0804653e-4)"
     stroke-miterlimit="2" />
  <g
     style="fill:#ed174c;fill-opacity:1;fill-rule:evenodd;stroke:none;stroke-width:1;stroke-linecap:square;stroke-linejoin:bevel"
     id="g122"
     transform="matrix(4.7920251,0,0,4.7920251,0.0351097,2.0804653e-4)">
    <path
       style="fill-rule:nonzero"
       inkscape:connector-curvature="0"
       id="path124"
       d="m 33.12,208.68 c 68.264,-17.76 139.936,-17.76 208.2,0 l 0,-4.44 c -68.309,-17.4 -139.891,-17.4 -208.2,0 l 0,4.44"
       vector-effect="none" />
  </g>
  <g
     style="fill:#000000;fill-opacity:1;fill-rule:evenodd;stroke:#000000;stroke-width:1;stroke-linecap:square;stroke-linejoin:miter;stroke-miterlimit:2;stroke-opacity:1"
     id="g126"
     transform="matrix(4.7920251,0,0,4.7920251,0.0351097,2.0804653e-4)"
     stroke-miterlimit="2" />
  <g
     style="fill:#006bb6;fill-opacity:1;fill-rule:evenodd;stroke:none;stroke-width:1;stroke-linecap:square;stroke-linejoin:bevel"
     id="g128"
     transform="matrix(4.7920251,0,0,4.7920251,0.0351097,2.0804653e-4)">
    <path
       style="fill-rule:nonzero"
       inkscape:connector-curvature="0"
       id="path130"
       d="M 110.04,78.84 C 73.2854,77.9847 36.5981,75.2612 0.120051,70.6799 L 0.12,75.48 c 38.76,4.56 77.76,7.08 116.88,7.8 -2.398,-1.3546 -4.721,-2.8367 -6.96,-4.44"
       vector-effect="none" />
  </g>
  <g
     style="fill:#000000;fill-opacity:1;fill-rule:evenodd;stroke:#000000;stroke-width:1;stroke-linecap:square;stroke-linejoin:miter;stroke-miterlimit:2;stroke-opacity:1"
     id="g132"
     transform="matrix(4.7920251,0,0,4.7920251,0.0351097,2.0804653e-4)"
     stroke-miterlimit="2" />
  <g
     style="fill:#006bb6;fill-opacity:1;fill-rule:evenodd;stroke:none;stroke-width:1;stroke-linecap:square;stroke-linejoin:bevel"
     id="g134"
     transform="matrix(4.7920251,0,0,4.7920251,0.0351097,2.0804653e-4)">
    <path
       style="fill-rule:nonzero"
       inkscape:connector-curvature="0"
       id="path136"
       d="m 164.52,78.84 c -2.174,1.6636 -4.505,3.1105 -6.96,4.32 39,-0.72 78.12,-3.24 116.88,-7.68 l 0,-4.8 c -36.478,4.5814 -73.165,7.3049 -109.92,8.16 l 0,0"
       vector-effect="none" />
  </g>
  <g
     style="fill:#000000;fill-opacity:1;fill-rule:evenodd;stroke:#000000;stroke-width:1;stroke-linecap:square;stroke-linejoin:miter;stroke-miterlimit:2;stroke-opacity:1"
     id="g138"
     transform="matrix(4.7920251,0,0,4.7920251,0.0351097,2.0804653e-4)"
     stroke-miterlimit="2" />
  <g
     style="fill:#ed174c;fill-opacity:1;fill-rule:evenodd;stroke:none;stroke-width:1;stroke-linecap:square;stroke-linejoin:bevel"
     id="g140"
     transform="matrix(4.7920251,0,0,4.7920251,0.0351097,2.0804653e-4)">
    <path
       style="fill-rule:nonzero"
       inkscape:connector-curvature="0"
       id="path142"
       d="M 100.92,69.72 C 78.0433,67.6731 55.3694,63.7804 33.12,58.08 l 0,4.44 c 23.4966,5.9768 47.4658,9.9114 71.64,11.76 -1.378,-1.4343 -2.661,-2.9576 -3.84,-4.56"
       vector-effect="none" />
  </g>
  <g
     style="fill:#000000;fill-opacity:1;fill-rule:evenodd;stroke:#000000;stroke-width:1;stroke-linecap:square;stroke-linejoin:miter;stroke-miterlimit:2;stroke-opacity:1"
     id="g144"
     transform="matrix(4.7920251,0,0,4.7920251,0.0351097,2.0804653e-4)"
     stroke-miterlimit="2" />
  <g
     style="fill:#ed174c;fill-opacity:1;fill-rule:evenodd;stroke:none;stroke-width:1;stroke-linecap:square;stroke-linejoin:bevel"
     id="g146"
     transform="matrix(4.7920251,0,0,4.7920251,0.0351097,2.0804653e-4)">
    <path
       style="fill-rule:nonzero"
       inkscape:connector-curvature="0"
       id="path148"
       d="m 173.64,69.72 c -1.221,1.6036 -2.543,3.1268 -3.96,4.56 24.161,-1.9566 48.121,-5.8898 71.64,-11.76 l 0,-4.44 c -22.209,5.7002 -44.843,9.593 -67.68,11.64 l 0,0"
       vector-effect="none" />
  </g>
  <g
     style="fill:#000000;fill-opacity:1;fill-rule:evenodd;stroke:#000000;stroke-width:1;stroke-linecap:square;stroke-linejoin:miter;stroke-miterlimit:2;stroke-opacity:1"
     id="g150"
     transform="matrix(4.7920251,0,0,4.7920251,0.0351097,2.0804653e-4)"
     stroke-miterlimit="2" />
  <g
     style="fill:#ffffff;fill-opacity:1;fill-rule:evenodd;stroke:none;stroke-width:1;stroke-linecap:square;stroke-linejoin:bevel"
     id="g152"
     transform="matrix(4.7920251,0,0,4.7920251,0.0351097,2.0804653e-4)">
    <path
       style="fill-rule:nonzero"
       inkscape:connector-curvature="0"
       id="path154"
       d="M 94.92,42.36 C 94.8869,18.9984 113.798,0.0332174 137.16,8.82447e-5 160.522,-0.0330388 179.487,18.8784 179.52,42.24 179.553,65.6017 160.642,84.5668 137.28,84.6 113.948,84.5616 95.0246,65.6919 94.92,42.36"
       vector-effect="none" />
  </g>
  <g
     style="fill:#000000;fill-opacity:1;fill-rule:evenodd;stroke:#000000;stroke-width:1;stroke-linecap:square;stroke-linejoin:miter;stroke-miterlimit:2;stroke-opacity:1"
     id="g156"
     transform="matrix(4.7920251,0,0,4.7920251,0.0351097,2.0804653e-4)"
     stroke-miterlimit="2" />
  <g
     style="fill:#000000;fill-opacity:1;fill-rule:evenodd;stroke:none;stroke-width:1;stroke-linecap:square;stroke-linejoin:bevel"
     id="g158"
     transform="matrix(4.7920251,0,0,4.7920251,0.0351097,2.0804653e-4)">
    <path
       style="fill-rule:nonzero"
       inkscape:connector-curvature="0"
       id="path160"
       d="m 167.88,65.88 c -4.839,-6.2377 -7.608,-13.8316 -7.92,-21.72 l 15.96,0 c -0.446,7.8814 -3.247,15.4475 -8.04,21.72 m -28.8,15 0,-11.04 -3.6,0 0,11.04 c -10.002,-0.4732 -19.427,-4.8199 -26.28,-12.1201 5.628,-6.9564 8.868,-15.5396 9.24,-24.48 l 0,-3.7199 C 118.089,31.6154 114.847,23.0258 109.2,16.08 116.009,8.7021 125.451,4.30445 135.48,3.84 l 0,11.04 3.6,0 0,-11.04 c 10.021,0.39438 19.474,4.75422 26.28,12.12 -5.628,6.9565 -8.868,15.5397 -9.24,24.48 l 0,3.72 c 0.351,8.9446 3.593,17.5342 9.24,24.48 -6.794,7.3987 -16.245,11.8006 -26.28,12.24 l 0,0 m -32.4,-15 C 101.841,59.6423 99.072,52.0484 98.76,44.16 l 15.96,0 c -0.391,7.8929 -3.197,15.4751 -8.04,21.72 l 0,0 m 0,-47.04 c 4.789,6.2652 7.552,13.8427 7.92,21.72 l -15.96,0 c 0.4671,-7.877 3.266,-15.4374 8.04,-21.72 l 0,0 m 61.2,0 c 4.789,6.2652 7.552,13.8427 7.92,21.72 l -15.96,0 c 0.356,-7.9 3.166,-15.4925 8.04,-21.72 l 0,0 M 137.28,0 C 113.918,-0.0331119 94.9532,18.8784 94.9201,42.24 94.887,65.6016 113.798,84.5668 137.16,84.5999 160.522,84.6331 179.487,65.7216 179.52,42.36 179.482,19.0279 160.612,0.104613 137.28,0"
       vector-effect="none" />
  </g>
  <g
     style="fill:#000000;fill-opacity:1;fill-rule:evenodd;stroke:#000000;stroke-width:1;stroke-linecap:square;stroke-linejoin:miter;stroke-miterlimit:2;stroke-opacity:1"
     id="g162"
     transform="matrix(4.7920251,0,0,4.7920251,0.0351097,2.0804653e-4)"
     stroke-miterlimit="2" />
  <g
     style="fill:#ed174c;fill-opacity:1;fill-rule:evenodd;stroke:none;stroke-width:1;stroke-linecap:square;stroke-linejoin:bevel"
     id="g164"
     transform="matrix(4.7920251,0,0,4.7920251,0.0351097,2.0804653e-4)">
    <path
       style="fill-rule:nonzero"
       inkscape:connector-curvature="0"
       id="path166"
       d="m 127.8,24.6 0,35.28 18.96,0 0,-4.8 -13.8,0 0,-30.48 -5.16,0"
       vector-effect="none" />
  </g>
  <g
     style="fill:#000000;fill-opacity:1;fill-rule:evenodd;stroke:#000000;stroke-width:1;stroke-linecap:square;stroke-linejoin:miter;stroke-miterlimit:2;stroke-opacity:1"
     id="g168"
     transform="matrix(4.7920251,0,0,4.7920251,0.0351097,2.0804653e-4)"
     stroke-miterlimit="2" />
  <g
     style="fill:#006bb6;fill-opacity:1;fill-rule:evenodd;stroke:none;stroke-width:1;stroke-linecap:square;stroke-linejoin:bevel"
     id="g170"
     transform="matrix(4.7920251,0,0,4.7920251,0.0351097,2.0804653e-4)">
    <path
       style="fill-rule:nonzero"
       inkscape:connector-curvature="0"
       id="path172"
       d="m 153.12,36.48 0,-14.52 c 0,-2.16 -0.96,-3.1201 -3,-3.1201 l -25.68,0 c -2.16,0 -3,0.96 -3,3.1201 l 0,40.92 c 0,2.16 0.84,3 3,3 l 25.68,0 c 2.16,0 3,-0.84 3,-3 l 0,-14.64 -5.16,0 0,13.2 -21.48,0 0,-38.16 21.48,0 0,13.2 5.16,0"
       vector-effect="none" />
  </g>
  <g
     style="fill:#000000;fill-opacity:1;fill-rule:evenodd;stroke:#000000;stroke-width:1;stroke-linecap:square;stroke-linejoin:miter;stroke-miterlimit:2;stroke-opacity:1"
     id="g174"
     transform="matrix(4.7920251,0,0,4.7920251,0.0351097,2.0804653e-4)"
     stroke-miterlimit="2" />
  <g
     style="fill:#ed174c;fill-opacity:1;fill-rule:evenodd;stroke:none;stroke-width:1;stroke-linecap:square;stroke-linejoin:bevel"
     id="g176"
     transform="matrix(4.7920251,0,0,4.7920251,0.0351097,2.0804653e-4)">
    <path
       style="fill-rule:nonzero"
       inkscape:connector-curvature="0"
       id="path178"
       d="m 141.72,39.84 -2.4,0 0,-10.32 2.4,0 0,10.32 m 5.04,13.92 0,-29.16 -12.24,0 -0.24,29.16 4.92,0 0.12,-9.12 2.4,0 0,9.12 5.04,0"
       vector-effect="none" />
  </g>
  <g
     style="fill:#000000;fill-opacity:1;fill-rule:evenodd;stroke:#000000;stroke-width:1;stroke-linecap:square;stroke-linejoin:miter;stroke-miterlimit:2;stroke-opacity:1"
     id="g180"
     transform="matrix(4.7920251,0,0,4.7920251,0.0351097,2.0804653e-4)"
     stroke-miterlimit="2" />
  <g
     style="fill:#000000;fill-opacity:1;fill-rule:evenodd;stroke:#000000;stroke-width:1;stroke-linecap:square;stroke-linejoin:miter;stroke-miterlimit:2;stroke-opacity:1"
     id="g182"
     transform="matrix(4.7920251,0,0,4.7920251,0.0351097,2.0804653e-4)"
     stroke-miterlimit="2" />
  <g
     style="fill:#000000;fill-opacity:1;fill-rule:evenodd;stroke:#000000;stroke-width:1;stroke-linecap:square;stroke-linejoin:miter;stroke-miterlimit:2;stroke-opacity:1"
     id="g184"
     stroke-miterlimit="2"
     transform="matrix(4.7922551,0,0,4.7922551,0.0351097,-0.00423954)" />
  <g
     style="fill:#000000;fill-opacity:1;fill-rule:evenodd;stroke:#000000;stroke-width:1;stroke-linecap:square;stroke-linejoin:miter;stroke-miterlimit:2;stroke-opacity:1"
     id="g186"
     stroke-miterlimit="2"
     transform="matrix(4.7922551,0,0,4.7922551,0.0351097,-0.00423954)" />
  <g
     style="fill:#000000;fill-opacity:1;fill-rule:evenodd;stroke:#000000;stroke-width:1;stroke-linecap:square;stroke-linejoin:miter;stroke-miterlimit:2;stroke-opacity:1"
     id="g188"
     stroke-miterlimit="2"
     transform="matrix(4.7922551,0,0,4.7922551,0.0351097,-0.00423954)" />
  <g
     style="fill:#000000;fill-opacity:1;fill-rule:evenodd;stroke:#000000;stroke-width:1;stroke-linecap:square;stroke-linejoin:miter;stroke-miterlimit:2;stroke-opacity:1"
     id="g190"
     stroke-miterlimit="2"
     transform="matrix(4.7922551,0,0,4.7922551,0.0351097,-0.00423954)" />
  <g
     style="fill:#000000;fill-opacity:1;fill-rule:evenodd;stroke:#000000;stroke-width:1;stroke-linecap:square;stroke-linejoin:miter;stroke-miterlimit:2;stroke-opacity:1"
     id="g192"
     transform="matrix(4.7920251,0,0,4.7920251,0.0351097,2.0804653e-4)"
     stroke-miterlimit="2" />
  <g
     style="fill:#000000;fill-opacity:1;fill-rule:evenodd;stroke:#000000;stroke-width:1;stroke-linecap:square;stroke-linejoin:miter;stroke-miterlimit:2;stroke-opacity:1"
     id="g194"
     stroke-miterlimit="2"
     transform="matrix(4.7922551,0,0,4.7922551,0.0351097,-0.00423954)" />
  <g
     style="fill:#000000;fill-opacity:1;fill-rule:evenodd;stroke:#000000;stroke-width:1;stroke-linecap:square;stroke-linejoin:miter;stroke-miterlimit:2;stroke-opacity:1"
     id="g196"
     stroke-miterlimit="2"
     transform="matrix(4.7922551,0,0,4.7922551,0.0351097,-0.00423954)" />
  <g
     style="fill:#000000;fill-opacity:1;fill-rule:evenodd;stroke:#000000;stroke-width:1;stroke-linecap:square;stroke-linejoin:miter;stroke-miterlimit:2;stroke-opacity:1"
     id="g198"
     stroke-miterlimit="2"
     transform="matrix(4.7922551,0,0,4.7922551,0.0351097,-0.00423954)" />
  <g
     style="fill:#000000;fill-opacity:1;fill-rule:evenodd;stroke:#000000;stroke-width:1;stroke-linecap:square;stroke-linejoin:miter;stroke-miterlimit:2;stroke-opacity:1"
     id="g200"
     stroke-miterlimit="2"
     transform="matrix(4.7922551,0,0,4.7922551,0.0351097,-0.00423954)" />
  <g
     style="fill:#000000;fill-opacity:1;fill-rule:evenodd;stroke:#000000;stroke-width:1;stroke-linecap:square;stroke-linejoin:miter;stroke-miterlimit:2;stroke-opacity:1"
     id="g202"
     stroke-miterlimit="2"
     transform="matrix(4.7922551,0,0,4.7922551,0.0351097,-0.00423954)" />
  <g
     style="fill:#000000;fill-opacity:1;fill-rule:evenodd;stroke:#000000;stroke-width:1;stroke-linecap:square;stroke-linejoin:miter;stroke-miterlimit:2;stroke-opacity:1"
     id="g204"
     stroke-miterlimit="2"
     transform="matrix(4.7922551,0,0,4.7922551,0.0351097,-0.00423954)" />
</svg>
