<?xml version="1.0" encoding="UTF-8" standalone="no"?>
<!-- Created with Inkscape (http://www.inkscape.org/) -->

<svg
   xmlns:dc="http://purl.org/dc/elements/1.1/"
   xmlns:cc="http://creativecommons.org/ns#"
   xmlns:rdf="http://www.w3.org/1999/02/22-rdf-syntax-ns#"
   xmlns:svg="http://www.w3.org/2000/svg"
   xmlns="http://www.w3.org/2000/svg"
   xmlns:sodipodi="http://sodipodi.sourceforge.net/DTD/sodipodi-0.dtd"
   xmlns:inkscape="http://www.inkscape.org/namespaces/inkscape"
   version="1.1"
   id="svg10"
   width="479.69861"
   height="211.52415"
   viewBox="0 0 479.69862 211.52416"
   sodipodi:docname="Los_Angeles_Chargers_logo.svg"
   inkscape:version="0.92.4 (5da689c313, 2019-01-14)">
  <metadata
     id="metadata16">
    <rdf:RDF>
      <cc:Work
         rdf:about="">
        <dc:format>image/svg+xml</dc:format>
        <dc:type
           rdf:resource="http://purl.org/dc/dcmitype/StillImage" />
        <dc:title></dc:title>
      </cc:Work>
    </rdf:RDF>
  </metadata>
  <defs
     id="defs14" />
  <sodipodi:namedview
     pagecolor="#ffffff"
     bordercolor="#666666"
     borderopacity="1"
     objecttolerance="10"
     gridtolerance="10"
     guidetolerance="10"
     inkscape:pageopacity="0"
     inkscape:pageshadow="2"
     inkscape:window-width="1920"
     inkscape:window-height="1017"
     id="namedview12"
     showgrid="false"
     inkscape:zoom="0.77025841"
     inkscape:cx="-201.66974"
     inkscape:cy="22.422106"
     inkscape:window-x="-8"
     inkscape:window-y="-8"
     inkscape:window-maximized="1"
     inkscape:current-layer="svg10"
     fit-margin-top="0"
     fit-margin-left="0"
     fit-margin-right="0"
     fit-margin-bottom="0" />
  <g
     style="fill:none;fill-rule:evenodd"
     id="g853">
    <g
       id="g874">
      <path
         id="path847"
         d="M 478.71584,211.52416 C 452.11761,175.70244 405.69351,131.94639 350.38629,107.38161 l 11.29558,26.02597 C 314.65184,109.72177 262.37423,92.718546 203.11231,92.987844 l 12.62961,13.674386 C 106.27325,110.94982 42.05174,165.23345 0,211.52416 0.98368831,148.84488 45.894234,92.241039 105.0614,57.684779 L 92.883117,46.380468 C 136.91719,15.903584 198.67636,7.3521039 250.80187,13.372675 L 243.38992,0 c 172.67533,12.831584 245.81486,141.69974 235.32592,211.52416"
         inkscape:connector-curvature="0"
         style="fill:#ffffff" />
      <path
         id="path849"
         d="M 202.30442,101.36852 189.03771,87.003429 c 50.27782,-1.671897 101.10671,5.898389 160.23523,33.689771 L 338.38005,95.593558 C 382.89538,112.8399 432.21693,145.03231 473.57423,194.96603 469.93247,119.35792 393.57506,21.385558 254.69299,7.3757922 l 7.72239,13.9312208 c -56.13258,-9.536416 -119.20333,0.38774 -159.3413,25.981091 l 12.55231,11.649662 C 55.208727,91.339636 15.520831,142.88166 7.0017662,194.96603 56.868156,142.88166 121.69933,106.90784 202.30442,101.36852"
         inkscape:connector-curvature="0"
         style="fill:#0080c6" />
      <path
         id="path851"
         d="M 451.90067,154.37548 C 428.36696,91.029195 357.58379,36.413922 278.12447,23.339221 l 9.33319,16.632935 C 239.59979,25.168208 170.0534,26.064623 124.33746,49.918753 L 137.4508,62.090805 C 95.549922,80.046545 51.337558,118.50016 33.83813,153.83314 62.537143,127.94556 124.97704,97.981091 176.1999,91.613922 l -12.72811,-13.78161 c 49.2293,-9.758338 114.84094,-0.09974 161.61663,18.893298 l -9.07388,-20.909298 c 34.45029,7.06161 98.47232,37.842698 135.88613,78.559168"
         inkscape:connector-curvature="0"
         style="fill:#ffc20e" />
    </g>
  </g>
</svg>
