<?xml version="1.0" encoding="UTF-8" standalone="no"?>
<!-- Created with Inkscape (http://www.inkscape.org/) -->

<svg
   xmlns:dc="http://purl.org/dc/elements/1.1/"
   xmlns:cc="http://creativecommons.org/ns#"
   xmlns:rdf="http://www.w3.org/1999/02/22-rdf-syntax-ns#"
   xmlns:svg="http://www.w3.org/2000/svg"
   xmlns="http://www.w3.org/2000/svg"
   xmlns:sodipodi="http://sodipodi.sourceforge.net/DTD/sodipodi-0.dtd"
   xmlns:inkscape="http://www.inkscape.org/namespaces/inkscape"
   id="svg2985"
   version="1.1"
   inkscape:version="0.48.2 r9819"
   width="999.99939"
   height="727.54706"
   xml:space="preserve"
   sodipodi:docname="MD.svg"><metadata
     id="metadata2991"><rdf:RDF><cc:Work
         rdf:about=""><dc:format>image/svg+xml</dc:format><dc:type
           rdf:resource="http://purl.org/dc/dcmitype/StillImage" /><dc:title></dc:title></cc:Work></rdf:RDF></metadata><defs
     id="defs2989"><clipPath
       clipPathUnits="userSpaceOnUse"
       id="clipPath3001"><path
         d="M 14,783 598,783 598,9 14,9 14,783 z"
         id="path3003"
         inkscape:connector-curvature="0" /></clipPath><clipPath
       clipPathUnits="userSpaceOnUse"
       id="clipPath3007"><path
         d="m 0,792.03 612,0 0,-792 -612,0 0,792 z"
         id="path3009"
         inkscape:connector-curvature="0" /></clipPath><clipPath
       clipPathUnits="userSpaceOnUse"
       id="clipPath3065"><path
         d="M 14,783 598,783 598,9 14,9 14,783 z"
         id="path3067"
         inkscape:connector-curvature="0" /></clipPath><clipPath
       clipPathUnits="userSpaceOnUse"
       id="clipPath3071"><path
         d="m 0,792.03 612,0 0,-792 -612,0 0,792 z"
         id="path3073"
         inkscape:connector-curvature="0" /></clipPath><clipPath
       clipPathUnits="userSpaceOnUse"
       id="clipPath3388"><path
         inkscape:connector-curvature="0"
         d="m 37.398,188.54 21.819,0 0,24.526 -21.819,0 0,-24.526 z"
         id="path3390" /></clipPath><clipPath
       clipPathUnits="userSpaceOnUse"
       id="clipPath3396"><path
         inkscape:connector-curvature="0"
         d="m 37.398,192.801 21.8262,0 0,16.009 -21.8262,0 0,-16.009 z"
         id="path3398" /></clipPath><clipPath
       clipPathUnits="userSpaceOnUse"
       id="clipPath3428"><path
         inkscape:connector-curvature="0"
         d="m 37.9974,192.896 20.1369,0 0,15.914 -20.1369,0 0,-15.914 z"
         id="path3430" /></clipPath></defs><sodipodi:namedview
     pagecolor="#ffffff"
     bordercolor="#666666"
     borderopacity="1"
     objecttolerance="10"
     gridtolerance="10"
     guidetolerance="10"
     inkscape:pageopacity="0"
     inkscape:pageshadow="2"
     inkscape:window-width="1305"
     inkscape:window-height="1034"
     id="namedview2987"
     showgrid="false"
     fit-margin-left="0.5"
     fit-margin-bottom="0.5"
     fit-margin-top="0.5"
     fit-margin-right="0.5"
     inkscape:zoom="0.67425131"
     inkscape:cx="615.0474"
     inkscape:cy="310.64179"
     inkscape:window-x="609"
     inkscape:window-y="-12"
     inkscape:window-maximized="0"
     inkscape:current-layer="g3386" /><g
     id="g2993"
     inkscape:groupmode="layer"
     inkscape:label="maintenanceform"
     transform="matrix(1.25,0,0,-1.25,-420.23531,2468.8652)"><g
       id="g3159"
       transform="matrix(5.468538,0,0,5.468538,-58.317439,-2517.8087)"><g
         transform="matrix(7.2575766,0,0,7.2575766,-204.80848,-689.80983)"
         id="g3384"><g
           id="g3386"
           clip-path="url(#clipPath3388)"><path
             inkscape:connector-curvature="0"
             d="m 53.525926,205.0622 c 0,0 0.05023,-0.5198 0.240439,-0.70634 0.02402,0.034 0.04671,0.0611 0.06574,0.0756 0,0 0.256963,0.29645 0.782082,0.25777 -0.0174,-0.0268 -0.03236,-0.0641 -0.01547,-0.10105 2.03e-4,-6.1e-4 5.09e-4,-0.001 8.14e-4,-0.002 0.0024,-0.005 0.0052,-0.0102 0.0088,-0.0147 9.16e-4,-0.001 0.0016,-0.002 0.0026,-0.004 l 0.305145,-0.11458 0.729938,0.29449 c 0,0 0.566328,0.41032 0.557576,0.43088"
             style="fill:#22547a;fill-opacity:1;fill-rule:nonzero;stroke:none"
             id="path3400"
             sodipodi:nodetypes="ccccccccccc" /><path
             inkscape:connector-curvature="0"
             d="m 54.358753,198.30772 c -0.11174,-0.22643 0.178602,-0.92638 0.443808,-1.1346 -0.194071,0.0581 -1.208386,0.34672 -1.371113,-0.0285 -0.179009,-0.41276 0.812512,-1.92666 0.924965,-2.20937 -0.457038,0.45338 -1.708879,1.47003 -1.88626,1.35371 -0.177482,-0.11621 -0.133722,-0.68286 -0.08762,-0.97106 -0.171886,0.20954 -0.466909,0.54517 -0.72204,0.44472 -0.254826,-0.10044 -0.22338,-1.07334 -0.239866,-1.48773 -0.210353,0.48756 -0.553717,1.46921 -0.871435,1.43339 -0.318023,-0.0357 -0.674514,-0.70382 -0.742291,-0.95906 -0.04865,0.25564 -0.256454,0.8175 -0.571017,0.8175 -0.314767,0 -1.046068,-1.48713 -1.267208,-1.97042 -9.16e-4,0.374 0.08874,2.19828 -0.109502,2.28875 -0.198447,0.0906 -0.867364,-0.32535 -1.011161,-0.51443 0.05333,0.23945 0.09861,1.04962 -0.07979,1.14763 -0.1785,0.098 -0.687337,0.12873 -1.607213,-0.72184 0.152651,0.32627 0.40422,0.68143 0.465179,1.02561 0.381017,0.0197 0.758167,0.0631 1.138574,0.13729 0.829913,-0.60074 1.850335,-0.95519 2.953392,-0.95519 2.785782,0 5.0439,2.25822 5.0439,5.0439 0,0.21819 -0.01404,0.43322 -0.04091,0.64378 0.186947,0.17605 0.366057,0.34621 0.532854,0.50517 -0.03816,-0.0912 -0.05923,-0.2014 -0.05577,-0.33726 0.01089,-0.42518 1.112521,-0.51596 1.698091,-0.56328 -0.653957,-0.0886 -1.796602,-0.56186 -1.57943,-0.81597 0.217069,-0.25381 0.850063,-0.60277 0.939923,-0.64673 -0.301638,0 -1.29326,-0.10258 -1.403983,-0.38367 -0.11113,-0.28118 1.434921,-1.22334 2.000849,-1.44479 -0.704027,0.19804 -2.383291,0.52899 -2.49493,0.30245"
             style="fill:#f47216;fill-opacity:1;fill-rule:nonzero;stroke:none"
             id="path3404" /><path
             inkscape:connector-curvature="0"
             d="m 53.505128,205.55703 c -0.329726,-0.0646 -0.670139,-0.15947 -1.021949,-0.29055 -0.793989,0.52135 -1.74409,0.82513 -2.765021,0.82513 -2.785476,0 -5.043695,-2.25822 -5.043695,-5.04349 0,-0.67075 0.131076,-1.31046 0.368703,-1.89552 -0.287086,-0.2127 -0.561959,-0.38132 -0.843652,-0.51138 0.205978,0.24526 0.384885,0.71664 0.152244,0.84243 -0.15896,0.086 -0.897894,0.12018 -0.897894,0.12018 0,0 0.832153,0.55912 0.812613,0.96354 -0.01923,0.40412 -1.346281,0.61142 -1.870994,0.72753 0.46294,0.0976 1.962076,0.43628 2.026393,0.73802 0.06472,0.30123 -0.468435,0.51535 -0.692425,0.62058 0.250958,-0.003 0.887412,-0.10971 0.973202,0.20089 0.09821,0.35618 -1.469115,1.2842 -1.826319,1.41284 0.07979,-0.0188 1.572714,-0.36728 2.118391,-0.24913 0.406256,0.0881 -0.06717,0.63482 -0.145426,0.69945 0.119882,-0.0584 0.804268,-0.19947 1.000171,0.12527 0.1958,0.32495 -0.468843,1.61892 -0.841006,2.16714 0.330642,-0.32942 1.839548,-1.40307 2.064759,-1.2204 0.22511,0.18278 0.05302,0.77283 -0.06768,0.96761 0.243224,-0.22765 0.482683,-0.53204 0.791649,-0.52553 0.154686,0.003 0.349469,0.51495 0.381526,1.67133 0.209335,-0.64795 0.709319,-1.52855 1.076394,-1.47512 0.367482,0.0532 0.492961,0.5986 0.543845,0.83103 0.04223,-0.24933 0.235184,-0.89046 0.480342,-0.91387 0.300621,-0.0469 0.876014,1.29153 1.085553,1.89634 0.03155,-0.29869 -0.187455,-1.83284 0.136776,-1.96025 0.324027,-0.12782 0.859833,0.518 1.163812,0.87998 -0.184403,-0.35008 -0.544965,-1.19698 -0.330337,-1.3996 0.214831,-0.20272 0.957224,0.0102 1.246346,0.24811 -0.08101,-0.17749 -0.09821,-0.31925 -0.07633,-0.45256"
             style="fill:#f47216;fill-opacity:1;fill-rule:nonzero;stroke:none"
             id="path3406" /><path
             inkscape:connector-curvature="0"
             d="m 49.453893,202.36905 -0.224422,0.58934 c -0.188269,-0.0606 -0.333695,-0.0964 -0.470674,-0.12069 -0.31151,-0.0616 -0.537332,-0.0455 -1.183453,-0.13026 -1.014724,-0.13362 -1.489367,-0.45175 -1.622479,-0.57458 -0.0401,-0.0371 -0.07103,-0.0692 -0.113165,-0.12803 -0.0289,-0.0403 -0.04936,-0.0881 -0.05251,-0.097 l 2.115453,-0.066"
             style="fill:#22547a;fill-opacity:1;fill-rule:nonzero;stroke:none"
             id="path3422"
             sodipodi:nodetypes="cccccccc" /><path
             inkscape:connector-curvature="0"
             d="m 53.414258,199.74631 -0.889492,-1.23977 -0.332234,-0.15149 c -0.03745,0.0226 -0.05139,0.0701 -0.05251,0.11927 -0.0019,0.0874 0.190203,0.53865 0.265714,1.48845 l 0.405745,0.90867 c 0,0 0.927698,0.2414 1.178249,0.46683"
             style="fill:#349099;fill-opacity:1;fill-rule:nonzero;stroke:none"
             id="path3414"
             sodipodi:nodetypes="ccccccc" /><path
             inkscape:connector-curvature="0"
             d="m 58.20658,204.82583 c -3.06e-4,0 -3.06e-4,-2.1e-4 -3.06e-4,-2.1e-4 0,0 -0.03145,-0.0464 -0.136572,-0.1383 -0.104922,-0.092 -0.283422,-0.22898 -0.577428,-0.40982 -0.281387,-0.1731 -1.065607,-0.70341 -1.667866,-1.25998 -0.02239,-0.0207 -1.632146,-1.54005 -1.672548,-1.57739 -0.0043,-0.0142 -0.213203,-0.79186 -0.711965,-1.80353 -0.349367,-0.70891 -0.871129,-1.1517 -1.056244,-1.25306 -0.0117,-0.006 -0.11917,-0.0743 -0.191119,-0.0284 0.224702,0.16272 0.651209,0.58648 0.974932,1.20004 0.272228,0.51637 0.494589,1.12677 0.639404,1.57332 -0.250551,-0.22541 -0.502934,-0.44584 -0.747888,-0.64968 -0.192646,-0.16008 -0.41053,-0.3339 -0.653246,-0.51606 0,-0.001 -0.521659,-0.38377 -0.81648,-0.57997 0,0 -3.05e-4,0 -3.05e-4,-3.1e-4 -0.165067,-0.1095 -0.921504,-0.58089 -1.380272,-0.83124 -0.389463,-0.21259 -1.205129,-0.5992 -1.20747,-0.60022 l -3.05e-4,0 c -0.424778,-0.35883 -0.757557,-0.52624 -0.846604,-0.50375 -0.05455,0.0134 -0.07337,0.0777 -0.07459,0.0811 0.153363,0.0812 0.921595,1.48712 0.921595,1.48712 l 0.676452,2.13018 3.311192,2.74436 1.166582,-0.10215 c 0.0054,0.003 0.0095,0.005 0.01089,0.005 -0.561044,-0.32026 -1.12972,-0.68937 -1.500663,-1.04332 -0.718681,-0.67177 -0.964551,-1.45629 -1.676618,-2.52821 l -0.01791,-0.0279 c 2.398862,1.8194 4.252657,3.92639 6.169243,4.59948 0.06096,0.0214 0.118864,0.0415 0.174328,0.0603 0.0023,7.1e-4 0.0048,0.001 0.0068,0.002 0.652329,0.22073 0.915907,0.25503 0.935141,0.1323 0.0085,-0.0534 -0.0344,-0.13321 -0.05017,-0.16222"
             style="fill:#22547a;fill-opacity:1;fill-rule:nonzero;stroke:none"
             id="path3418"
             sodipodi:nodetypes="ccccccccccccccccccccccccccccccccc" /><path
             inkscape:connector-curvature="0"
             d="m 48.817008,199.65014 c -0.02799,-0.13342 -0.128125,-0.57987 -0.316293,-1.04709 -0.666475,-0.35364 -1.731878,-0.80701 -2.695616,-1.03283 -1.897861,-0.44503 -3.113269,-0.059 -3.321485,0.009 l -0.02961,0.009 c 0.04641,-0.0102 0.507515,-0.03 0.507515,-0.03 0.09963,-0.002 1.395231,-0.053 2.817736,0.48096 1.162795,0.42457 2.306254,1.11801 3.037758,1.61036"
             style="fill:#ffffff;fill-opacity:1;fill-rule:nonzero;stroke:none"
             id="path3410" /><path
             inkscape:connector-curvature="0"
             d="m 49.700182,200.17682 -0.883276,-0.52688 c -0.731402,-0.49215 -1.874759,-1.18549 -3.037656,-1.61027 -1.422607,-0.53387 -2.718208,-0.48299 -2.817635,-0.48085 l 1.322887,0.69984 4.447599,2.63884"
             style="fill:#22547a;fill-opacity:1;fill-rule:nonzero;stroke:none"
             id="path3412"
             sodipodi:nodetypes="cccccc" /><path
             inkscape:connector-curvature="0"
             d="m 42.593726,199.00117 c -2.03e-4,-0.0601 -0.0085,-0.12141 -0.02442,-0.1841 -0.029,-0.10675 -0.08538,-0.2361 -0.176363,-0.36941 -0.05536,-0.0814 -0.146342,-0.1842 -0.147563,-0.18532 -0.01496,-9.2e-4 -0.08508,-0.004 -0.144102,0.002 -0.05943,0.006 -0.122528,0.0165 -0.148683,0.0215 l 0,3.1e-4 -0.191573,0.27542 0.745595,0.53434 c 0.0116,0.002 0.08365,0.0179 0.08711,-0.0946"
             style="fill:#22547a;fill-opacity:1;fill-rule:nonzero;stroke:none"
             id="path3416"
             sodipodi:nodetypes="cccccccccc" /><path
             inkscape:connector-curvature="0"
             d="m 41.952591,198.28605 0,-3.1e-4 c -0.483802,0.0931 -1.050036,0.42244 -1.225788,0.52238 0.06025,0.0585 0.208623,0.16435 0.489603,0.14705 0.386105,-0.0237 0.812613,-0.0553 1.012179,0.005 0.171579,0.0514 0.204145,0.12619 0.277621,0.13586 l 3.05e-4,0 c 0.211778,-0.25788 -0.570101,-0.78778 -0.55392,-0.80977"
             style="fill:#349099;fill-opacity:1;fill-rule:nonzero;stroke:none"
             id="path3420" /><g
             id="g3424"
             transform="matrix(1.0176743,0,0,1.0176743,-0.6746295,-3.4216754)"><path
               id="path3432"
               style="fill:#22547a;fill-opacity:1;fill-rule:nonzero;stroke:none"
               d="m 47.8993,197.5103 c 0,-0.007 3e-4,-0.0123 0.001,-0.0174 -1.5204,-0.594 -2.7603,-0.566 -2.7649,-0.5663 -2.0909,-0.099 -3.7361,0.7522 -3.7361,0.7522 0,0 0,2e-4 -2e-4,2e-4 -0.0043,0 -0.0159,-2e-4 -0.0335,-2e-4 -0.1963,0 -1.1672,0.015 -1.8048,0.311 -0.6973,0.3236 -1.0985,0.8308 -1.2731,1.212 -0.1299,0.2839 -0.1363,0.3747 -0.0949,0.4121 0.0034,0.003 0.0074,0.006 0.0115,0.009 0,0 3e-4,0 3e-4,4e-4 0.0124,0.007 0.0277,0.0126 0.0445,0.0171 l 0.513032,-0.58062 c 0.695685,-0.35701 1.898016,-0.47858 1.898016,-0.47858 0,0 1.755727,-0.79558 1.717352,-1.0609 7e-4,-3e-4 0.0012,-3e-4 0.0021,-6e-4 l 2e-4,0 0.002,-6e-4 0.0269,-0.008 c 0.2046,-0.067 1.3989,-0.4465 3.2638,-0.009 0.947,0.2219 1.9939,0.6674 2.6488,1.0149 0,-3e-4 0.252541,-0.41647 0.252541,-0.41647"
               inkscape:connector-curvature="0"
               sodipodi:nodetypes="ccccsscccccccccccccccc" /></g><path
             inkscape:connector-curvature="0"
             d="m 55.594922,204.86908 c -0.194884,-0.0799 -0.373893,-0.12874 -0.662811,-0.20038 -0.13301,-0.0402 -0.321382,-0.10065 -0.321382,-0.10065 -8.14e-4,0.001 -0.0014,0.002 -0.0022,0.004 -0.326164,-0.11093 -0.87754,-0.32983 -1.053089,-0.58883 0.007,0.0142 0.118966,0.24374 0.210964,0.37288 0.07602,0.11663 0.246074,0.33797 0.498966,0.44818 0.352726,0.15398 0.582516,0.12996 0.744937,0.12996 0.162421,0 0.543133,0.0117 0.69782,0.0489 0.154788,0.0374 0.220631,0.085 0.229282,0.0642 0.009,-0.0208 -0.07622,-0.0687 -0.342448,-0.1781 m 1.869162,0.71105 c -0.384579,-0.0382 -1.155365,-0.31568 -1.155365,-0.31568 -1.407342,0.36545 -3.077651,0.40656 -5.126636,-0.8404 -0.382442,-0.23294 -0.731911,-0.47372 -1.05543,-0.71939 -0.32301,-0.24546 -0.619967,-0.4953 -0.896978,-0.74626 -0.119882,-0.10808 -0.273551,-0.24679 -0.405035,-0.37969 -0.664948,-0.22176 -0.960277,-0.0146 -1.874047,-0.13464 -0.723057,-0.0952 -1.003935,-0.34194 -1.163201,-0.53581 -0.02056,-0.0559 -0.01842,-0.10482 0.01913,-0.13484 0.0863,-0.0693 0.219817,-0.0346 0.472913,-0.0158 0.252994,0.0184 0.63625,0.0123 0.889142,-0.14573 0.163032,-0.10137 0.236915,-0.34632 0.264087,-0.48177 -0.18939,-0.20099 -0.375522,-0.39557 -0.563181,-0.58099 -1.154348,-1.14193 -1.931139,-1.82276 -2.80064,-2.16287 -1.886259,-0.73842 -2.949017,0.12884 -3.37471,0.38469 l -2.03e-4,-5.1e-4 c -0.516266,0.33135 -1.201365,0.44075 -1.568745,0.50975 -0.367482,0.0691 -0.568371,0.24679 -0.646732,0.31344 -0.07846,0.0669 -0.138811,0.17891 -0.228061,0.15367 -0.0229,-0.006 -0.04295,-0.0134 -0.05719,-0.0271 0.01425,0.0133 0.0343,0.0204 0.05719,0.0267 0.01384,-0.15937 0.548934,-1.48998 2.248755,-1.73158 0.485838,-0.0691 0.640422,-0.0474 0.731097,-0.0407 -0.285763,0.25126 -0.521253,0.60164 -0.541301,0.6221 0.06493,-0.0564 0.129754,-0.11011 0.194783,-0.16161 0.507311,-0.5416 1.083721,-0.76508 1.568134,-0.84579 0.03175,-0.0102 0.509753,-0.0305 0.509753,-0.0305 0.557482,0.0118 1.30588,0.17545 2.000443,0.37715 2.039419,0.59168 4.006787,2.35918 4.006787,2.35918 0,0 -0.109298,-0.47638 -0.151837,-0.64511 -0.02799,-0.13331 -0.128024,-0.57977 -0.316395,-1.04708 0,-2.1e-4 -0.05648,-0.14105 -0.138404,-0.31345 -0.121001,-0.25492 -0.290953,-0.576 -0.290953,-0.71003 0,-0.007 2.04e-4,-0.0125 0.001,-0.0177 0,0 0.0015,-0.0147 0.0075,-0.0335 0.153261,0.0813 0.361681,0.22237 0.598799,0.42234 0.37135,0.30957 0.84182,0.78066 1.386378,1.45252 1.223753,1.50952 1.418129,2.54277 2.278573,3.34673 0.364225,0.34082 1.321551,0.86706 1.811969,1.03792 0.0054,0.003 0.0094,0.005 0.01089,0.005 3.05e-4,0 3.05e-4,3.1e-4 5.09e-4,0 l 4.07e-4,3.1e-4 c 0.828183,0.47281 1.639269,0.83856 1.770753,0.89179 0.484616,0.19498 2.189221,0.76101 2.368637,0.47952 l 3.05e-4,0 c -0.07521,0.32434 -0.463856,0.45317 -0.84294,0.41532"
             style="fill:#349099;fill-opacity:1;fill-rule:nonzero;stroke:none"
             id="path3408" /></g></g></g></g></svg>