<?xml version="1.0" encoding="UTF-8" standalone="no"?>
<svg xmlns:rdf="http://www.w3.org/1999/02/22-rdf-syntax-ns#" xmlns="http://www.w3.org/2000/svg" xml:space="preserve" height="150.01" viewBox="0 0 150 150.00687" width="150" version="1.1" xmlns:cc="http://creativecommons.org/ns#" xmlns:xlink="http://www.w3.org/1999/xlink" xmlns:dc="http://purl.org/dc/elements/1.1/"><g transform="matrix(1.25 0 0 -1.25 -176 484.63)"><g><path d="m200.66 386.98c-32.642-0.004-59.199-26.564-59.201-59.205 0.002-32.642 26.559-59.199 59.201-59.201 32.64 0.002 59.197 26.559 59.199 59.199-0.002 32.644-26.559 59.203-59.199 59.208" fill="#fff"/><path d="m200.84 383.79c-31.081 0-56.274-25.198-56.274-56.278 0-31.081 25.193-56.272 56.274-56.274 31.081 0.002 56.272 25.193 56.274 56.274-0.002 31.081-25.193 56.278-56.274 56.278" fill="#002b5c"/><path d="m200.84 382.06c-30.123 0-54.541-24.425-54.544-54.548 0.002-30.123 24.42-54.539 54.544-54.541 30.123 0.002 54.541 24.418 54.541 54.541s-24.418 54.548-54.541 54.548" fill="#fff"/><path d="m238.32 364.99c-9.5938 9.5938-22.839 15.525-37.477 15.525-14.64 0-27.886-5.9311-37.477-15.525-9.5938-9.596-15.525-22.842-15.525-37.482 0-14.638 5.9311-27.883 15.523-37.477 9.5938-9.5916 22.839-15.523 37.479-15.523 14.638 0 27.883 5.9311 37.477 15.523 9.5938 9.5938 15.523 22.839 15.525 37.477-0.002 14.64-5.9311 27.886-15.525 37.482" fill="#002b5c"/><path d="m74.08 15.16l-0.008 0.276-0.01 0.175 0.17 0.061c0.335 0.112 0.396 0.416 0.405 0.849 0 0.157-0.009 0.314-0.014 0.459l-0.133 4.17c-0.011 0.547-0.01 1.187-0.47 1.272l-0.174 0.045-0.008 0.209-0.01 0.244 5.973 0.193 0.863-1.9-0.396-0.018-0.08-0.002-0.067 0.045c-0.524 0.36-1.23 0.553-1.93 0.553-0.134 0-0.268-0.007-0.4-0.018l-1.471-0.166 0.069-2.156 0.75 0.024c0.422-0.003 0.916 0.069 0.982 0.234l0.068 0.109 0.168 0.004 0.241 0.006 0.052-1.65-0.277-0.01h-0.049l-0.047 0.014c-0.06 0.027-0.173 0.04-0.302 0.037-0.064 0-0.129-0.002-0.198-0.002l-1.347-0.047 0.052-1.606c0.193-0.013 0.393-0.021 0.602-0.021 0.17 0 0.346 0.005 0.521 0.012 0.613 0.019 1.076 0.087 1.397 0.422l0.068 0.072 0.141 0.002 0.238 0.004 0.055-1.772-0.277-0.012h-0.051l-0.047 0.02c-0.047 0.019-0.121 0.027-0.217 0.027-0.093 0-0.201-0.006-0.316-0.009l-4.516-0.149zm-6.795 0.408l-2.765 0.592 0.052 0.268 0.032 0.15 0.152 0.033c0.648 0.176 0.631 0.401 0.787 1.037l0.75 3.516-5.355-3.646-0.217-0.168c-0.113-0.075-0.135-0.083-0.176-0.141l-0.041-0.197-2.381 0.508 0.057 0.265 0.029 0.149 0.15 0.039c0.637 0.175 0.638 0.403 0.789 1.037l0.922 4.32c0.05 0.231 0.088 0.426 0.088 0.588-0.009 0.247-0.06 0.419-0.4 0.693l-0.121 0.094 0.041 0.178 0.049 0.236 2.787-0.592-0.061-0.267-0.031-0.147-0.145-0.037c-0.656-0.186-0.64-0.415-0.797-1.049l-0.765-3.603 4.99 3.42c0.706 0.497 1.268 0.809 2.295 0.867l0.314 0.023-1.357-6.388c-0.052-0.236-0.092-0.43-0.092-0.592 0.005-0.244 0.061-0.41 0.391-0.676l0.121-0.094-0.039-0.179-0.053-0.237zm21.561 1.161c-1.085-0.009-2.143 0.365-2.414 1.441-0.041 0.151-0.061 0.302-0.061 0.447 0.019 1.12 1.018 1.821 1.918 2.449 0.928 0.615 1.746 1.213 1.707 1.709 0 0.053-0.005 0.106-0.019 0.161-0.066 0.348-0.593 0.557-1.194 0.554-0.233 0-0.462-0.027-0.648-0.074-0.961-0.239-1.901-0.827-2.494-1.527l-0.442-0.518 0.063 2.25 0.113 0.068c0.708 0.426 1.499 0.729 2.309 0.932 0.469 0.118 0.926 0.17 1.357 0.17 1.482-0.002 2.688-0.649 2.965-1.703 0.03-0.124 0.047-0.247 0.047-0.365-0.028-1.052-1.03-1.739-1.936-2.387-0.936-0.626-1.775-1.264-1.728-1.684 0-0.038 0.005-0.077 0.013-0.115 0.08-0.338 0.407-0.472 0.907-0.48 0.236 0 0.491 0.04 0.718 0.097 0.678 0.165 1.384 0.598 1.733 1.092l0.301 0.422 0.127-0.504 0.351-1.394-0.166-0.092c-0.604-0.327-1.265-0.573-1.93-0.74-0.527-0.132-1.076-0.209-1.597-0.209zm-37.293 3.13l-2.516 1.307 0.127 0.244 0.07 0.139 0.161-0.01c0.016-0.002 0.04-0.004 0.068-0.004 0.593 0.019 0.656 0.239 0.961 0.791l1.66 3.19-6.135-2.086-0.254-0.104c-0.129-0.038-0.151-0.044-0.209-0.088l-0.091-0.179-2.161 1.125 0.129 0.246 0.073 0.138 0.158-0.013c0.011-0.003 0.031-0.002 0.052-0.002 0.599 0.019 0.672 0.242 0.977 0.791l2.041 3.916c0.165 0.315 0.277 0.547 0.272 0.75 0 0.153-0.05 0.32-0.231 0.57l-0.092 0.121 0.086 0.162 0.11 0.213 2.527-1.314-0.125-0.241-0.068-0.13h-0.141c-0.03-0.003-0.052 0-0.068 0-0.623-0.02-0.681-0.241-0.989-0.795l-1.701-3.27 5.723 1.963c0.546 0.192 0.998 0.33 1.547 0.33 0.271 0 0.56-0.037 0.892-0.105l0.313-0.067-3.016-5.787c-0.167-0.318-0.278-0.549-0.275-0.752 0.002-0.148 0.05-0.315 0.228-0.551l0.09-0.119-0.084-0.166-0.109-0.213zm49.927 1.754c-1.521-0.002-2.891 0.658-3.552 1.879-0.294 0.535-0.432 1.108-0.432 1.682 0.005 1.702 1.186 3.368 2.984 4.346 0.95 0.51 1.96 0.767 2.92 0.767 1.5 0 2.88-0.641 3.59-1.945 0.27-0.497 0.4-1.049 0.4-1.612 0-1.592-1.02-3.277-2.92-4.292-0.98-0.56-2.02-0.825-2.99-0.825zm0.51 1.407c0.56 0 1.17 0.155 1.79 0.496 1.18 0.642 1.69 1.664 1.7 2.672 0 0.485-0.12 0.966-0.36 1.394-0.46 0.854-1.26 1.324-2.23 1.324-0.54 0-1.13-0.146-1.74-0.478-1.196-0.651-1.731-1.742-1.734-2.772 0-0.464 0.112-0.91 0.32-1.295v-0.002c0.474-0.864 1.274-1.334 2.254-1.339zm-63.994 5.003l-2.332 1.916 0.176 0.213 0.115 0.139 0.168-0.072c0.071-0.033 0.137-0.041 0.197-0.041 0.313-0.025 0.664 0.421 0.942 0.783l2.65 3.225c0.255 0.299 0.596 0.696 0.582 0.984 0 0.088-0.022 0.175-0.088 0.273l-0.101 0.151 0.138 0.168 0.153 0.177 2.33-1.916-0.172-0.211-0.113-0.134-0.162 0.066c-0.077 0.03-0.142 0.041-0.2 0.041-0.313 0.022-0.672-0.417-0.941-0.771l-2.649-3.227c-0.26-0.305-0.604-0.702-0.587-0.996 0-0.088 0.02-0.173 0.084-0.271l0.099-0.151-0.135-0.162-0.154-0.184zm37.414 0.026c-13.233-0.005-26.437 5.496-35.857 16.222-3.352 3.816-5.978 8.021-7.905 12.446 0.08-0.011 0.16-0.023 0.237-0.033 0.645-0.077 1.275-0.144 1.898-0.196 1.804-3.897 4.183-7.607 7.158-10.994 2.839-3.233 6.029-5.967 9.465-8.201 7.568-4.941 16.327-7.451 25.108-7.451 10.754-0.003 21.566 3.763 30.276 11.416 3.79 3.329 6.9 7.149 9.32 11.277 0.53-0.208 1.1-0.357 1.7-0.426h0.02c-2.56-4.476-5.88-8.612-9.96-12.197-9.048-7.952-20.294-11.866-31.46-11.863zm38.47 0.74l-1.68 0.9 0.28 0.254 0.06 0.055 0.08 0.01c0.44 0.033 0.93 0.316 1.34 0.683l0.69 0.631-3.17 3.473c-0.28 0.324-0.65 0.739-0.95 0.717-0.07 0-0.14-0.015-0.23-0.051l-0.15-0.072-0.14 0.15-0.17 0.178 2.32 2.111 0.18-0.203 0.1-0.113-0.06-0.141c-0.07-0.184-0.09-0.321-0.09-0.433-0.01-0.275 0.17-0.475 0.49-0.821l3.23-3.555 0.71 0.651c0.27 0.239 0.52 0.548 0.5 0.746 0 0.036 0 0.069-0.01 0.102l-0.05 0.148 0.14 0.133 0.13 0.117 1.64-0.934-0.27-0.252-0.03-0.029-0.04-0.017c-0.12-0.047-0.28-0.165-0.44-0.311l-3.93-3.586c-0.11-0.126-0.22-0.234-0.28-0.338l-0.02-0.033-0.05-0.055-0.13-0.115zm-37.423 2.902c-16.7-0.356-32.774 8.87-40.506 24.637 2.353-0.134 4.357-0.138 5.611-0.14 9.004-0.017 15.01-2.259 15.1-6.684l2.49 0.816c0.005 0.269-0.006 0.529-0.017 0.789l1.328 0.444c-0.179 12.456-16.196 14.964-22.01 15.236h-0.002v2.1c2.597-0.84 8.099-2.559 10.41-3.264v1.83c0.363-0.11 0.696-0.211 1.006-0.305v-1.822c2.333-0.678 8.453-2.385 10.838-3.033v1.84c0.365-0.099 0.699-0.189 1.006-0.272v-1.832c2.564-0.664 8.233-2.06 10.805-2.67v1.844c0.362-0.085 0.695-0.165 1.007-0.236v-1.838l1.27-0.289c2.564-0.577 5.157-1.133 7.699-1.649l1.955-0.398v1.85l1.004-0.198v-1.849c2.602-0.492 6.703-1.242 9.229-1.662l4.726-0.748c2.674-0.401 4.754 0.482 6.154 1.632 0.43 0.357 0.79 0.749 1.1 1.166 0.22 0.146 0.43 0.3 0.62 0.459 2.18 1.801 2.63 4.534 2.62 6.51v13.863c0 0.311-0.01 0.623 0.07 0.942l0.27 0.129v0.429c0.19 0.278 0.49 0.55 0.95 0.819v-10.526c2.77 0.305 4.61 1.564 5.74 3.11 0.21 0.142 0.39 0.302 0.58 0.459 0.73 0.634 1.29 1.363 1.71 2.134 0.59-0.34 1.17-0.957 1.12-2.14-0.01-0.242-0.1-0.552-0.41-0.981-0.38-0.524-1.1-1.238-2.42-2.248-0.65-0.497-1.45-1.061-2.42-1.715-0.23-0.151-0.44-0.31-0.65-0.472-2.43-1.878-3.78-4.465-3.92-7.545v-0.371c0-2.396 1.05-4.888 2.97-6.387-4.55-7.773-11.52-14.229-20.41-18.1-5.421-2.36-11.056-3.545-16.623-3.664zm-46.297 3.348l-1.691 2.223 0.195 0.154c0.137 0.102 0.243 0.273 0.361 0.498l2.166 4.172-4.925-0.873c-0.19-0.028-0.349-0.055-0.407-0.108l-0.011-0.011-0.194-0.137-1.703 2.236 0.217 0.168 0.123 0.096 0.141-0.076c0.134-0.072 0.226-0.094 0.3-0.094 0.171-0.005 0.302 0.147 0.475 0.342l3.234 3.416c0.409 0.447 0.711 0.764 0.713 1.332v0.037 0.119l0.121 0.09 0.194 0.147 1.611-2.112-0.217-0.168-0.133-0.103-0.142 0.09c-0.132 0.082-0.225 0.104-0.299 0.107-0.176 0.016-0.426-0.204-0.769-0.574l-2.817-2.953 4.785 0.871c0.305 0.052 0.554 0.093 0.815 0.093 0.329 0 0.661-0.066 1.09-0.228l0.255-0.096-2.992-5.752 4.008 2.235c0.178 0.14 0.274 0.267 0.272 0.418 0 0.057-0.011 0.125-0.049 0.218l-0.069 0.172 0.172 0.133 0.194 0.145 1.851-2.436-0.217-0.164-0.109-0.084-0.129 0.053c-0.192 0.079-0.332 0.107-0.447 0.107-0.192 0-0.367-0.079-0.658-0.238l-4.862-2.592c-0.093-0.071-0.189-0.215-0.183-0.316 0-0.028 0.004-0.06 0.021-0.098l0.076-0.174-0.175-0.135-0.192-0.15zm93.92 4.621l-0.22 0.162-0.15 0.106 0.06 0.174c0.03 0.082 0.04 0.147 0.04 0.185-0.01 0.08-0.01 0.078-0.11 0.139-0.11 0.049-0.29 0.079-0.47 0.109l-5.06 0.826c-0.36 0.063-0.68 0.134-0.98 0.131-0.3-0.002-0.58-0.059-0.89-0.254l-0.14-0.092-0.16 0.12-0.18 0.138 1.68 2.407 0.23-0.161 0.14-0.103-0.05-0.168c-0.04-0.115-0.05-0.198-0.05-0.256-0.02-0.14 0.07-0.191 0.64-0.307l1.53-0.298 1.76 2.502-0.79 1.357c-0.14 0.241-0.24 0.416-0.31 0.51-0.06 0.085-0.07 0.076-0.07 0.082 0 0.005-0.12-0.034-0.31-0.168l-0.14-0.096-0.17 0.115-0.19 0.139 1.85 2.635 0.22-0.155 0.14-0.093-0.04-0.157c-0.03-0.129-0.04-0.244-0.04-0.357 0-0.513 0.26-0.933 0.55-1.449l3.12-5.674-1.44-2.049zm-0.58 2.209l-1.09 1.902-1.08-1.531 2.17-0.371zm-37.332 17.233v22.222c0 0.643 0.061 1.156 0.187 1.576 0.151 0.042 0.308 0.076 0.481 0.106v0.752c0.31 0.324 0.738 0.537 1.314 0.68v-22.629c0.009-0.733-0.014-1.925-1.982-2.707zm12.129 2.306c0 2.58-0.014 23.717-0.014 23.717l-8.416 1.418v-1.824l-1.314 0.224v1.836l-2.887 0.58c-2.21 0.374-3.797 0.032-5.314-1.134-0.396-0.302-0.725-0.642-1.01-1.004-0.239-0.143-0.475-0.295-0.711-0.473-2.342-1.787-2.613-4.871-2.613-7.037l0.002-13.502c0.011-0.719-0.038-1.829-1.784-2.639v22.201c0 0.632 0.041 1.126 0.145 1.518 0.167 0.044 0.345 0.086 0.543 0.121v0.795c0.368 0.313 0.914 0.503 1.719 0.662v2.344c-7.936 1.79-16.543 4.066-24.385 6.377-2.391 0.711-5.134 0.371-7.074-1.024-0.313-0.219-0.593-0.486-0.862-0.771-0.299-0.151-0.588-0.318-0.857-0.508-1.946-1.389-3.044-3.976-3.035-7.066 0 0 0.006-12.569 0.006-12.643 0-0.675-0.064-1.456-1.983-2.101v23.714c0 0.267 0.061 0.496 0.154 0.702 0.357 0.104 0.633 0.139 0.661 0.142v0.623c0.719 0.508 1.666 0.629 1.718 0.637v1.961c-0.171 0.061-1.021 0.382-2.216 0.836 4.537 6.86 11.037 12.54 19.142 16.07 22.313 9.72 48.278-0.5 57.988-22.818 1.53-3.514 2.57-7.117 3.14-10.735-2.41 0.215-5.12 0.462-6.13 0.569v-1.842c-0.32 0.033-0.63 0.069-0.95 0.102v1.849c-2.65 0.247-7.7 0.954-10.48 1.365v-1.855c-0.63 0.096-1.22 0.181-1.722 0.258v-18.672c0-1.167-0.163-2.108-0.473-2.824-0.335-0.099-0.672-0.141-0.988-0.149zm-35.869 3.131v18.096c0 0.949 0.126 1.716 0.379 2.301 0.406 0.076 0.845 0.085 1.279 0.046 0-2.36 0.004-18.066 0.004-18.14 0-0.651-0.169-1.581-1.662-2.303zm-11.848 3.256v18.119c0 0.942 0.134 1.701 0.395 2.277 0.411 0.077 0.858 0.085 1.3 0.049 0-2.374 0.004-18.167 0.004-18.238 0-0.64-0.165-1.559-1.699-2.207zm72.06 14.49c-0.42 0.038-1.04 0.097-1.72 0.158-1.24 8.47-4.86 16.702-10.93 23.607-0.01 0.02-0.03 0.03-0.04 0.05-9.07 10.3-21.739 15.57-34.462 15.57h-0.008c-10.084 0-20.227-3.31-28.634-10.04-0.577-0.46-1.149-0.93-1.711-1.43-0.338-0.3-0.665-0.61-0.994-0.91-0.053-0.05-0.107-0.1-0.157-0.15-0.365-0.34-0.721-0.69-1.072-1.04-0.03-0.03-0.061-0.06-0.092-0.09-2.223-2.25-4.174-4.67-5.845-7.23-0.56 0.22-1.151 0.44-1.752 0.68 1.885 2.94 4.114 5.72 6.697 8.26 0.648 0.64 1.305 1.27 1.994 1.87 9.047 7.95 20.293 11.87 31.459 11.86h0.02c13.227 0 26.417-5.49 35.837-16.22 6.4-7.286 10.18-15.997 11.41-24.945zm-1.72 0.158v-0.002c-0.06 0.006-0.12 0.013-0.17 0.018 0.07-0.006 0.1-0.01 0.17-0.016zm-0.04 22.957c-0.67 0-1.38 0.51-2.03 1.43l-1.68 2.36 0.14 0.09 0.09 0.06 0.08-0.06c0.11-0.08 0.2-0.11 0.31-0.11 0.28-0.01 0.62 0.27 0.89 0.46l2.95 2.11c0.34 0.23 0.78 0.52 0.76 0.86 0 0.05 0 0.11-0.02 0.17l-0.04 0.1 0.11 0.08 0.12 0.08 1.19-1.68c0.51-0.7 1.08-1.44 1.29-2.33 0.06-0.23 0.08-0.47 0.08-0.7 0-0.62-0.21-1.22-0.7-1.57-0.28-0.2-0.6-0.29-0.91-0.29-0.49 0-0.98 0.22-1.43 0.56 0.02-0.11 0.03-0.22 0.03-0.32 0-0.41-0.15-0.81-0.52-1.07-0.22-0.16-0.46-0.23-0.71-0.23zm-90.362 0.21l-0.137 0.1-0.082 0.07 0.033 0.1c0.028 0.07 0.035 0.13 0.035 0.18 0.014 0.33-0.411 0.63-0.726 0.86l-2.891 2.2c-0.266 0.21-0.619 0.5-0.904 0.49-0.099 0-0.19-0.02-0.291-0.1l-0.084-0.05-0.108 0.07-0.117 0.09 1.246 1.64c0.527 0.69 1.064 1.45 1.852 1.92 0.411 0.25 0.882 0.4 1.332 0.4 0.365 0 0.718-0.1 1.012-0.32 0.436-0.33 0.632-0.82 0.626-1.33 0-0.32-0.069-0.66-0.193-0.98 0.244 0.12 0.496 0.18 0.748 0.19 0.253 0 0.503-0.08 0.731-0.25 0.324-0.25 0.496-0.62 0.494-1.04-0.003-0.56-0.284-1.22-0.824-1.94l-1.752-2.3zm89.902 1.25h0.01c0.13 0 0.26 0.04 0.39 0.12 0.18 0.14 0.25 0.32 0.25 0.55 0.01 0.4-0.27 0.95-0.54 1.33l-0.13 0.19-1.32-0.93 0.33-0.56c0.24-0.4 0.65-0.7 1.01-0.7zm-89.449 0.9l0.433 0.48c0.245 0.27 0.401 0.63 0.399 0.93 0 0.24-0.08 0.43-0.27 0.58-0.118 0.09-0.236 0.12-0.359 0.12-0.433 0.01-1.007-0.49-1.342-0.95l-0.143-0.19 1.282-0.97zm92.069 0.15h0.01c0.18 0 0.36 0.05 0.53 0.18 0.28 0.2 0.39 0.46 0.39 0.76 0 0.41-0.22 0.88-0.55 1.28l-0.56 0.67-1.72-1.22 0.37-0.56c0.39-0.62 1-1.11 1.53-1.11zm-94.083 1.38l0.434 0.51c0.378 0.45 0.638 1.02 0.638 1.49-0.002 0.31-0.107 0.57-0.365 0.77-0.184 0.14-0.368 0.19-0.555 0.19-0.472 0.01-1.002-0.4-1.353-0.95l-0.477-0.74 1.678-1.27zm86.683 1.77l-1.73 1.72 0.12 0.13 0.08 0.07 0.1-0.05c0.07-0.04 0.15-0.06 0.23-0.06 0.3-0.01 0.63 0.35 0.89 0.61l2.05 2.05c0.25 0.26 0.37 0.36 0.4 0.7v0.11c0 0.51-0.27 1.05-0.68 1.45-0.41 0.41-0.81 0.6-1.2 0.6s-0.79-0.19-1.23-0.62l-1.82-1.82c-0.26-0.25-0.61-0.59-0.6-0.89 0-0.08 0.01-0.15 0.06-0.24l0.05-0.09-0.1-0.1-0.1-0.1-1.77 1.76 0.13 0.12 0.07 0.08 0.1-0.05c0.09-0.05 0.16-0.07 0.24-0.07 0.3-0.01 0.63 0.35 0.88 0.61l1.82 1.82c0.46 0.47 0.93 0.97 1.76 0.97h0.1c0.76-0.03 1.5-0.49 2.06-1.04 0.51-0.52 0.98-1.22 1.08-1.94l0.22 0.22 0.1 0.11 1.42-1.42-0.13-0.12-0.07-0.07-0.1 0.05c-0.09 0.05-0.17 0.06-0.24 0.06-0.31 0.01-0.64-0.34-0.89-0.6l-2.56-2.57c-0.27-0.26-0.63-0.59-0.61-0.89 0-0.08 0.01-0.16 0.06-0.25l0.07-0.14-0.17-0.07-0.09-0.04zm-78.062 2.91l-0.117 0.13-0.074 0.07 0.058 0.1c0.066 0.1 0.082 0.17 0.082 0.22 0.025 0.11-0.204 0.24-0.498 0.34l-4.146 1.62c-0.406 0.17-0.761 0.33-1.143 0.33-0.159 0-0.323-0.02-0.51-0.09l-0.087-0.03-0.086 0.09-0.098 0.1 1.773 1.65 0.118-0.12 0.074-0.08-0.053-0.1c-0.08-0.13-0.106-0.22-0.103-0.28-0.017-0.12 0.136-0.23 0.537-0.39l1.279-0.55 2.008 1.86-0.438 1.33c-0.167 0.53-0.225 0.64-0.291 0.62-0.049 0-0.154-0.03-0.31-0.09l-0.092-0.04-0.088 0.1-0.098 0.1 1.954 1.82 0.117-0.13 0.062-0.07-0.035-0.09c-0.099-0.21-0.135-0.41-0.135-0.61 0-0.34 0.121-0.68 0.237-1.06l1.619-5.35-1.516-1.4zm0 1.77l-0.652 2.04-1.34-1.24 1.992-0.8zm68.722 3.61l-2.03 1.45 0.1 0.14 0.06 0.09 0.1-0.03c0.06-0.02 0.12-0.03 0.18-0.03 0.33-0.02 0.63 0.42 0.85 0.75l2.12 2.95c0.19 0.26 0.46 0.61 0.46 0.89-0.01 0.11-0.03 0.21-0.12 0.31l-0.06 0.09 0.08 0.11 0.08 0.12 4.07-2.92-0.32-1.7-0.21 0.15-0.04 0.03-0.01 0.04c-0.23 0.64-0.63 1.19-1.27 1.6l-1.22 0.78-2.36-3.3c-0.2-0.27-0.48-0.62-0.47-0.91 0-0.1 0.03-0.19 0.11-0.3l0.06-0.09-0.08-0.11-0.08-0.11zm-62.661 0.25c-0.516 0-0.996 0.19-1.301 0.65-0.173 0.26-0.254 0.54-0.254 0.82 0.033 1.43 1.928 2.84 1.887 3.76 0 0.13-0.032 0.24-0.106 0.35-0.118 0.18-0.317 0.26-0.584 0.26-0.379 0-0.848-0.18-1.15-0.38-0.728-0.48-1.337-1.24-1.625-1.99l-0.145-0.38-0.533 1.65 0.053 0.06c0.45 0.55 1.003 1.02 1.601 1.41 0.769 0.51 1.566 0.75 2.26 0.75 0.703 0 1.309-0.25 1.633-0.74 0.143-0.22 0.207-0.46 0.207-0.69-0.03-1.37-1.963-2.93-1.922-3.8 0-0.1 0.025-0.19 0.082-0.28 0.118-0.18 0.277-0.24 0.494-0.25 0.316 0 0.723 0.18 1.035 0.38 0.517 0.34 0.976 0.91 1.127 1.43l0.086 0.3 0.174-0.26 0.66-1-0.076-0.08c-0.392-0.44-0.859-0.83-1.353-1.15-0.709-0.47-1.526-0.82-2.25-0.82zm58.451 2.68l-0.12 0.03c-0.67 0.19-1.37 0.42-2.013 0.75-1.611 0.81-2.568 2.12-2.57 3.53 0 0.48 0.118 0.97 0.357 1.45 0.585 1.16 1.641 1.78 2.926 1.78h0.01c0.83 0 1.75-0.24 2.71-0.73 0.55-0.27 1.07-0.62 1.48-1.07l0.03-0.04 0.04-1.56-0.24 0.12-0.04 0.01-0.02 0.03c-0.48 0.63-1.13 1.23-1.88 1.61-0.48 0.24-0.95 0.35-1.39 0.35-0.99 0-1.836-0.53-2.251-1.35-0.165-0.33-0.242-0.66-0.242-0.98 0-0.84 0.538-1.66 1.533-2.17 0.63-0.31 1.33-0.45 2-0.45h0.1l0.24 0.01-0.11-0.22-0.55-1.1zm-51.938 0.9l-0.074 0.15-0.049 0.1 0.082 0.07c0.132 0.12 0.173 0.25 0.176 0.4 0.003 0.26-0.173 0.59-0.297 0.86l-1.531 3.29c-0.173 0.39-0.397 0.92-0.789 0.9-0.028 0-0.058 0-0.088-0.01l-0.105-0.01-0.059 0.12-0.061 0.13 4.602 2.14 1.234-1.13-0.224-0.11-0.045-0.02-0.047 0.01c-0.165 0.03-0.335 0.05-0.508 0.05-0.532 0-1.095-0.15-1.578-0.42l-1.168-0.66 0.844-1.82 0.646 0.3c0.335 0.15 0.73 0.36 0.741 0.57l0.011 0.08 0.102 0.04 0.129 0.07 0.552-1.19-0.16-0.08-0.027-0.01h-0.027c-0.107 0-0.267-0.07-0.432-0.15l-1.123-0.52 0.642-1.38c0.313 0.1 0.638 0.24 0.961 0.39 0.484 0.23 0.851 0.45 1.004 0.85l0.02 0.05 0.086 0.05 0.131 0.06 0.599-1.29-0.166-0.07-0.027-0.02h-0.029c-0.107 0.01-0.271-0.08-0.457-0.17l-3.491-1.62zm7.203 3.16l-0.046 0.17-0.03 0.1 0.088 0.06c0.187 0.12 0.236 0.27 0.238 0.47 0.003 0.25-0.102 0.54-0.173 0.78l-1.004 3.48c-0.127 0.46-0.261 1.05-0.725 1.04h-0.103l-0.041 0.12-0.041 0.14 1.978 0.58c0.725 0.2 1.49 0.45 2.277 0.45 0.118 0 0.241 0 0.356-0.02 0.87-0.08 1.696-0.54 1.93-1.33 0.043-0.15 0.062-0.3 0.062-0.44-0.002-0.69-0.456-1.27-1.096-1.68 0.536-0.1 0.989-0.37 1.151-0.92 0.033-0.12 0.049-0.24 0.049-0.35-0.009-0.82-0.788-1.47-2.092-1.85l-2.778-0.8zm1.645 1.46l0.633 0.12c0.56 0.11 1.047 0.52 1.033 0.94 0 0.06-0.009 0.13-0.025 0.19-0.105 0.37-0.459 0.49-0.934 0.5-0.31 0-0.648-0.06-0.928-0.14l-0.226-0.07 0.447-1.54zm27.016 0.37l-2.448 0.51 0.034 0.17 0.021 0.11h0.107c0.475 0.03 0.563 0.62 0.657 1.09l0.738 3.55c0.044 0.21 0.112 0.47 0.109 0.7-0.002 0.24-0.057 0.42-0.277 0.54l-0.094 0.05 0.026 0.13 0.027 0.14 4.898-1.02 0.405-1.68-0.256 0.05-0.043 0.01-0.033 0.03c-0.464 0.49-1.06 0.84-1.809 0.96l-1.426 0.21-0.828-3.98c-0.046-0.22-0.117-0.48-0.117-0.71 0.003-0.24 0.059-0.41 0.273-0.53l0.094-0.05-0.025-0.14-0.033-0.14zm-18.032 0.65l-0.017 0.17-0.014 0.11 0.104 0.04c0.208 0.09 0.221 0.15 0.226 0.22 0.005 0.1-0.105 0.3-0.221 0.48l-2.357 3.78c-0.321 0.54-0.547 0.99-1.184 1.18l-0.091 0.03-0.016 0.12-0.014 0.15 2.409 0.26 0.019-0.17 0.014-0.11-0.1-0.04c-0.255-0.12-0.288-0.19-0.291-0.28-0.002-0.09 0.084-0.28 0.235-0.53l0.697-1.21 2.719 0.3 0.449 1.32c0.107 0.31 0.175 0.52 0.17 0.6 0 0.07-0.001 0.09-0.338 0.19l-0.096 0.02-0.014 0.13-0.017 0.14 2.652 0.29 0.02-0.17 0.008-0.1-0.082-0.04c-0.571-0.32-0.707-0.82-0.918-1.41l-1.897-5.25-2.055-0.22zm10.137 0.37l-2.498 0.15 0.008 0.17 0.006 0.1 0.103 0.03c0.467 0.1 0.468 0.69 0.492 1.16l0.211 3.63c0.005 0.14 0.022 0.31 0.022 0.47-0.005 0.35-0.066 0.62-0.373 0.73l-0.098 0.04 0.004 0.13 0.01 0.15 4.992-0.29 0.643-1.62-0.258 0.02h-0.047l-0.033 0.03c-0.536 0.42-1.17 0.67-1.928 0.68l-1.439 0.01-0.241-4.06c-0.008-0.15-0.027-0.33-0.027-0.5 0.005-0.34 0.067-0.6 0.369-0.71l0.096-0.04-0.006-0.14-0.008-0.14zm-19.824 1.04l0.656 0.15c0.854 0.2 1.619 0.75 1.606 1.39 0 0.08-0.014 0.16-0.041 0.26-0.146 0.49-0.554 0.69-1.092 0.7-0.283 0-0.594-0.06-0.891-0.18l-0.82-0.3 0.582-2.02zm10.748 0.01l0.697 2.03-1.818-0.2 1.121-1.83z" transform="matrix(.8 0 0 -.8 140.8 387.7)" fill="#fff"/><path d="m82.697 48.498c0.706 0.741 1.141 1.746 1.141 2.85 0 2.289-1.864 4.15-4.15 4.15-0.528 0-1.032-0.104-1.499-0.285 0.758 0.779 1.809 1.27 2.975 1.275 2.284 0.014 4.147-1.838 4.147-4.125 0-1.743-1.085-3.247-2.614-3.865zm-23.56 2.609c-0.437 11.987-16.714 13.811-22.405 14.108v28.726c0 1.205 1.123 1.73 1.875 1.95-0.093-0.206-0.154-0.433-0.154-0.7v-23.716c-0.134-0.047-0.276-0.091-0.43-0.135v-2.311c0.132-0.044 0.276-0.093 0.43-0.142v-2.1c5.814-0.272 21.833-2.78 22.012-15.236l-1.328-0.444zm69.783 2.016c-0.55 0.03-1.13 0.064-1.72 0.1v10.029c-1.72-0.264-3.06-0.819-4.09-1.549 1.09 1.548 2.9 2.834 5.81 3.295v-11.875zm-22.26 3.861c1.23 1.68 1.53 3.749 1.52 5.33v13.864c-0.01 0.823-0.02 1.677 1.63 2.498l0.17 0.08c-0.09-0.316-0.08-0.629-0.08-0.94v-13.861c0.01-1.976-0.44-4.709-2.62-6.51-0.19-0.159-0.4-0.312-0.62-0.461zm13.46 0.086c-1.2 0.379-1 2.242-1 2.332 0.03 0.769 0.33 1.812 2.21 3.19-0.09-0.132-0.16-0.26-0.21-0.383v-0.004c-0.09-0.285-0.17-0.57-0.25-0.85v-0.007c-0.02-0.085-0.02-0.168-0.03-0.244 0-0.064-0.09-0.939 0.22-1.612-0.46-0.779-0.76-1.609-0.94-2.422zm-34.665 1.375l-1.004 0.198v21.169c0 1.922 0.507 2.718 1.904 3.088-0.126-0.42-0.187-0.933-0.187-1.576v-22.222c-0.214-0.086-0.447-0.17-0.713-0.245v-0.412zm11.125 1.389c0 2.58-0.014 23.715-0.014 23.715l-6.699 1.17v1.828l8.416-1.422s0.014-21.136 0.014-23.719c0.316 0.012 0.653 0.056 0.988 0.155-0.208-0.481-0.483-0.859-0.826-1.133-0.571-0.448-1.272-0.583-1.879-0.594zm-23.055 1.133c-0.313 0.074-0.645 0.151-1.007 0.236v21.125c0 1.941 0.364 2.577 1.863 2.961-0.107-0.392-0.145-0.886-0.145-1.518v-22.201c-0.211-0.099-0.444-0.19-0.711-0.281v-0.322zm-11.812 2.896c-0.305 0.083-0.642 0.171-1.004 0.27v17.121c0 1.608 0.361 2.704 1.08 3.256 0.283 0.217 0.638 0.351 1.02 0.426-0.253-0.585-0.379-1.352-0.379-2.301v-18.096c-0.212-0.104-0.448-0.202-0.717-0.295v-0.381zm-33.486 2.397c-3.813 0.579-7.593 1.9-7.598 4.094v0.011c0 1.757 1.513 2.493 2.185 2.655-0.274-0.387-0.464-0.879-0.464-1.497v-0.013c0.005-1.894 2.366-2.942 5.879-3.455 0-0.621 0-1.224-0.002-1.795zm21.64 0.89c-0.307 0.094-0.641 0.193-1.006 0.305v17.145c0 1.55 0.356 2.613 1.059 3.154 0.294 0.225 0.662 0.363 1.055 0.439-0.258-0.579-0.393-1.337-0.393-2.281v-18.119c-0.211-0.091-0.449-0.172-0.715-0.252v-0.391zm77.253 0.307c1.53 1.869 1.84 3.468 1.84 5.359 0 3.396-2.52 7.318-6.39 7.618-2.73 0.211-6.33 0.546-9.66 0.9v1.842c1.01-0.107 3.72-0.354 6.13-0.569 0.59-0.054 1.18-0.106 1.71-0.15 0.76-0.069 1.43-0.129 1.89-0.17 0.4-0.033 0.65-0.058 0.69-0.058 4.17-0.393 7.11-4.262 7.11-7.655 0-2.448-0.39-4.416-3.32-7.117zm-10.19 5.262c0.69 0.93 1.12 1.963 1.34 2.957 0.23-0.058 0.59-0.16 0.95-0.364-0.41-0.771-0.98-1.503-1.71-2.134-0.18-0.157-0.37-0.317-0.58-0.459zm-93.95 0.515v1.518c-0.406 0.17-1.599 0.483-2.472 0.475-0.887-0.003-1.659-0.167-2.334-0.442 0.941 0.955 2.282 1.578 4.053 1.6 0.872 0.011 2.066-0.294 2.472-0.461v-1.699c-0.329-0.044-1.142-0.329-1.719-0.991zm87.26 6.084v2.321c-2.17 0.214-5.94 0.739-8.76 1.154v1.855c2.78-0.411 7.83-1.114 10.48-1.361v-1.851c-0.26 0.032-0.52 0.059-0.77 0.084v-1.383c-0.46-0.269-0.76-0.541-0.95-0.819zm-23.404 4.442v1.496l-2.895 0.596c-1.866 0.326-3.289 0.135-4.601-0.631 0.285 0.362 0.616 0.702 1.012 1.004 1.517 1.166 3.105 1.508 5.312 1.134l2.891-0.58v-1.834l-0.407 0.073v-0.58c-0.573-0.146-1.005-0.354-1.312-0.678zm-11.91 2.445v1.549c-7.938 1.836-16.548 4.158-24.387 6.516-2.059 0.62-4.375 0.461-6.217-0.475 0.269 0.285 0.549 0.549 0.862 0.771 1.94 1.395 4.683 1.732 7.074 1.024 7.842-2.311 16.449-4.587 24.385-6.379v-2.342c-0.805-0.159-1.349-0.348-1.717-0.664zm37.034 0.031c-0.57 0.052-1.14 0.105-1.72 0.162v2.967c-16.7 1.924-39.392 8.551-48.535 18.675l1.588 1.2c9.143-10.078 31.964-16.637 48.667-18.47v-4.534zm-72.692 10.418v1.342c-2.995 1.082-8.126 3.024-11.551 4.504v1.96c0.952-0.45 4.373-1.79 7.508-3 0.601-0.24 1.19-0.46 1.75-0.68 0.65-0.25 1.257-0.48 1.795-0.69 1.196-0.452 2.047-0.774 2.214-0.834v-1.965c-0.049-0.005-0.995-0.129-1.716-0.637z" transform="matrix(.8 0 0 -.8 140.8 387.7)" fill="#b3b5b7"/><path d="m79.688 47.203c-2.287 0-4.145 1.858-4.145 4.145 0 1.759 1.101 3.264 2.646 3.865 0.467 0.181 0.971 0.285 1.499 0.285 2.286 0 4.15-1.861 4.15-4.15 0-1.104-0.435-2.108-1.141-2.852-0.76-0.796-1.826-1.293-3.009-1.293zm20.692 6.893c-0.31 0.012-0.637 0.041-0.972 0.092l-4.726 0.746c-2.526 0.42-6.624 1.17-9.229 1.664v1.847 0.412c0.266 0.077 0.5 0.159 0.717 0.245 1.965 0.782 1.989 1.972 1.978 2.705v22.632 0.579l0.407-0.071 1.312-0.228 6.697-1.17s0.014-21.135 0.014-23.715c0.607 0.011 1.31 0.144 1.881 0.592 0.346 0.274 0.618 0.654 0.826 1.135 0.31 0.713 0.473 1.655 0.473 2.822v18.67c0.502-0.077 1.092-0.162 1.722-0.258 2.82-0.417 6.6-0.944 8.76-1.158v-2.317-0.433l-0.26-0.131-0.17-0.082c-1.65-0.821-1.64-1.674-1.63-2.494v-13.866c0.01-1.583-0.28-3.65-1.52-5.33-0.3-0.417-0.66-0.81-1.1-1.164-1.22-1.008-2.97-1.808-5.18-1.724zm-15.931 2.697l-1.953 0.398c-2.544 0.516-5.135 1.074-7.699 1.651l-1.272 0.287v1.84 0.318c0.267 0.091 0.5 0.187 0.711 0.283 1.746 0.813 1.795 1.918 1.784 2.637l-0.002 13.506c0 2.166 0.269 5.248 2.613 7.035 0.236 0.181 0.472 0.332 0.711 0.475 1.312 0.765 2.733 0.954 4.599 0.631l2.897-0.598v-1.496-0.752c-0.176-0.03-0.332-0.066-0.483-0.108-1.397-0.37-1.906-1.169-1.906-3.088v-21.167-1.852zm-11.931 2.566c-2.572 0.61-8.241 2.008-10.805 2.672v1.83 0.383c0.266 0.094 0.506 0.192 0.715 0.293 1.496 0.725 1.66 1.654 1.66 2.305v18.142c-0.434 0.036-0.873 0.028-1.279-0.046-0.382-0.077-0.735-0.209-1.018-0.426-0.719-0.552-1.084-1.65-1.084-3.256v-17.123-1.842c-2.385 0.651-8.502 2.356-10.838 3.037v1.822 0.393c0.266 0.077 0.5 0.159 0.711 0.25 1.534 0.651 1.699 1.569 1.699 2.209 0 0.071-0.002 15.866-0.002 18.24-0.442 0.036-0.889 0.026-1.3-0.051-0.396-0.074-0.761-0.212-1.055-0.437-0.706-0.541-1.061-1.604-1.061-3.154v-17.145-1.834c-2.311 0.708-7.811 2.425-10.408 3.268-0.154 0.049-0.298 0.097-0.43 0.138v2.315c0.154 0.044 0.296 0.088 0.43 0.135 1.919 0.645 1.983 1.427 1.983 2.099 0 0.077-0.006 12.645-0.006 12.645-0.009 3.088 1.091 5.677 3.037 7.066 0.269 0.189 0.556 0.357 0.855 0.508 1.842 0.936 4.158 1.095 6.217 0.475 7.842-2.361 16.451-4.68 24.387-6.516v-1.549-0.793c-0.198-0.038-0.378-0.077-0.545-0.121-1.499-0.387-1.863-1.023-1.863-2.961v-21.125-1.846zm37.722 25.465c-25.23 2.421-57.748 11.684-66.306 15.082v1.994c3.266-0.08 8.865 0.8 14.451 3.97 1.114 0.63 2.226 1.35 3.318 2.17 9.146-10.124 31.835-16.751 48.537-18.675v-2.967-1.574z" transform="matrix(.8 0 0 -.8 140.8 387.7)" fill="#002b5c"/><path d="m73.396 36.488l-0.068 0.018c-1.479 0.779-2.027 2.043-2.23 2.76-0.014 0.044-0.006 0.088 0.021 0.127 0.028 0.035 0.07 0.054 0.113 0.054 0.225 0 0.447 0.001 0.672-0.002 0.05 1.952 0.662 3.703 1.233 4.922 0.019 0.05 0.065 0.079 0.117 0.082 0.354 0.03 0.72 0.061 1.066 0.094 0.005 0 0.011 0.002 0.016 0.002 0.041 0 0.08-0.02 0.107-0.053 0.03-0.035 0.041-0.082 0.028-0.129-0.56-2.014-0.678-3.998-0.7-4.967 0-0.076-0.063-0.137-0.14-0.14-0.291-0.009-0.584-0.009-0.875-0.012 0.346-1.106 1.079-1.956 1.672-2.494 0.044-0.041 0.056-0.102 0.037-0.16-0.022-0.052-0.073-0.088-0.131-0.088-0.313-0.005-0.627-0.011-0.938-0.014zm-3.998 0.084c-0.321 0.022-0.636 0.047-0.955 0.074l-0.068 0.028c-1.584 1.139-1.936 2.276-1.982 2.896-0.005 0.044 0.011 0.085 0.041 0.116 0.024 0.024 0.064 0.039 0.099 0.039h0.014c0.206-0.022 0.414-0.04 0.623-0.059-0.071 0.327-0.109 0.65-0.109 0.969 0 1.268 0.33 2.294 0.722 3.109 0.022 0.05 0.07 0.127 0.125 0.127 0.332 0.003 0.811 0.101 1.168 0.109h0.002c0.044 0 0.082-0.021 0.11-0.054 0.027-0.033 0.038-0.079 0.027-0.123-0.321-1.279-0.422-2.253-0.422-2.989 0-0.639 0.077-1.101 0.156-1.439 0.011-0.044-0.003-0.09-0.031-0.123-0.03-0.036-0.073-0.054-0.117-0.049-0.253 0.017-0.506 0.038-0.756 0.057 0.178-1.115 0.893-1.948 1.459-2.44 0.047-0.041 0.059-0.104 0.037-0.162-0.025-0.057-0.082-0.091-0.143-0.086zm8.877 0.123l-0.076 0.02c-1.702 0.955-2.245 2.025-2.404 2.676-0.011 0.038-0.003 0.086 0.021 0.119 0.025 0.033 0.067 0.054 0.108 0.056 0.324 0.02 0.654 0.039 0.98 0.061 0.173 1.987 0.786 4.09 1.135 5.152 0.017 0.055 0.064 0.091 0.119 0.096 0.379 0.044 0.753 0.096 1.123 0.148h0.018c0.035 0 0.069-0.013 0.099-0.041 0.031-0.033 0.047-0.074 0.041-0.121l-0.664-5.271c-0.011-0.063-0.063-0.116-0.129-0.121-0.345-0.033-0.686-0.056-1.029-0.08 0.384-1.194 1.193-1.955 1.783-2.362 0.05-0.035 0.075-0.094 0.059-0.152-0.017-0.058-0.067-0.103-0.127-0.105-0.349-0.028-0.703-0.053-1.057-0.075zm-13.615 0.264c-0.436 0.082-0.861 0.173-1.287 0.264l-0.061 0.029c-1.185 0.972-1.531 2.21-1.624 2.768-0.009 0.046 0.012 0.092 0.044 0.125 0.028 0.024 0.06 0.039 0.096 0.039 0.011 0 0.022 0 0.033-0.002 0.116-0.028 0.282-0.054 0.457-0.078-0.071 0.225-0.109 0.463-0.109 0.705 0.005 1.043 0.428 2.114 0.799 2.767 0.025 0.044 0.071 0.069 0.123 0.069h0.012c0.244-0.02 0.678 0.011 0.925 0 0.044-0.003 0.085-0.025 0.11-0.063 0.024-0.036 0.033-0.082 0.019-0.123-0.225-0.694-0.355-1.319-0.355-1.865 0-0.873 0.213-1.543 0.402-1.971 0.022-0.049 0.014-0.103-0.019-0.144-0.033-0.042-0.086-0.061-0.135-0.053-0.233 0.038-0.465 0.088-0.701 0.129 0.085-1.002 0.703-1.856 1.381-2.342 0.052-0.038 0.072-0.109 0.044-0.172-0.024-0.06-0.091-0.093-0.154-0.082zm18.543 0.008l-0.08 0.015c-1.705 0.958-2.244 2.03-2.406 2.68-0.011 0.039-0.003 0.082 0.021 0.117 0.025 0.033 0.064 0.056 0.108 0.059 0.398 0.019 0.799 0.043 1.203 0.07-0.005 0.019-0.021 0.034-0.018 0.053 0.157 2.017 0.497 3.948 0.86 5.049 0.016 0.052 0.063 0.09 0.115 0.095 0.379 0.044 0.755 0.097 1.123 0.149h0.019c0.036 0 0.073-0.015 0.098-0.039 0.03-0.03 0.048-0.074 0.045-0.115l-0.453-4.965c-0.005-0.069-0.06-0.124-0.129-0.129-0.423-0.039-0.816-0.116-1.238-0.162 0.002-0.009 0.011-0.015 0.013-0.024 0.357-1.29 1.222-2.096 1.842-2.521 0.05-0.036 0.071-0.097 0.057-0.154-0.019-0.061-0.069-0.101-0.129-0.104-0.346-0.03-0.702-0.052-1.051-0.074zm-22.781 0.689c-0.401 0.077-0.791 0.164-1.178 0.246l-0.055 0.028c-1.087 0.892-1.405 2.031-1.49 2.539-0.009 0.041 0.009 0.088 0.041 0.115 0.022 0.022 0.053 0.031 0.086 0.031 0.011 0 0.021 0.001 0.029-0.002 0.121-0.027 0.295-0.051 0.479-0.076-0.11 0.255-0.16 0.528-0.16 0.805 0.002 0.958 0.286 2.031 0.627 2.627 0.022 0.041 0.062 0.064 0.111 0.064h0.012c0.225-0.019 0.686-0.079 0.908-0.09 0.041-0.002 0.077-0.025 0.102-0.058 0.022-0.033 0.028-0.074 0.017-0.115-0.206-0.635-0.281-1.207-0.281-1.704 0-0.801 0.195-1.42 0.365-1.812 0.022-0.044 0.014-0.095-0.014-0.131-0.03-0.038-0.075-0.059-0.125-0.051-0.214 0.039-0.479 0.084-0.693 0.125 0.019-0.988 0.67-1.833 1.32-2.302 0.05-0.036 0.067-0.106 0.045-0.161-0.024-0.054-0.086-0.089-0.146-0.078zm27.488 0.139l-0.098 0.027c-1.158 0.81-1.827 1.844-2.189 2.576-0.019 0.042-0.018 0.092 0.004 0.133s0.061 0.065 0.107 0.071l0.002 0.002c0.44 0.049 0.874 0.106 1.311 0.164-0.022 0.03-0.03 0.065-0.022 0.103 0.541 2.182 0.75 4.392 0.827 5.363 0.005 0.066 0.054 0.121 0.117 0.129 0.461 0.072 0.939 0.152 1.406 0.235 0.009 0.002 0.016 0.002 0.027 0.002 0.028 0 0.056-0.01 0.08-0.026 0.033-0.025 0.052-0.053 0.055-0.092 0.058-0.365 0.086-0.737 0.086-1.113 0-1.608-0.449-3.291-0.74-4.287-0.014-0.055-0.061-0.096-0.115-0.102-0.431-0.063-0.843-0.156-1.274-0.23 0.009-0.009 0.022-0.016 0.027-0.029 0.621-1.513 1.152-2.018 1.786-2.506 0.044-0.033 0.065-0.095 0.048-0.147-0.011-0.057-0.059-0.099-0.117-0.107-0.447-0.058-0.88-0.117-1.328-0.166zm-31.769 0.851c-0.343 0.105-0.679 0.216-1.008 0.334v0.002l-0.051 0.032c-0.977 0.958-1.206 2.117-1.264 2.658-0.005 0.049 0.017 0.095 0.055 0.125 0.022 0.019 0.055 0.031 0.088 0.031 0.014 0 0.031-0.003 0.045-0.01 0.055-0.016 0.134-0.037 0.224-0.056-0.082 0.288-0.132 0.571-0.132 0.838 0 0.941 0.428 1.616 0.798 2.113 0.025 0.036 0.07 0.057 0.114 0.057 0.009 0 0.02 0 0.025-0.002 0.313-0.061 0.628-0.159 0.944-0.211 0.043-0.009 0.082-0.037 0.101-0.078 0.022-0.039 0.022-0.084 0.002-0.125-0.263-0.547-0.352-0.924-0.352-1.393 0-0.747 0.232-1.37 0.37-1.795 0.013-0.049 0.003-0.105-0.036-0.141-0.035-0.038-0.092-0.053-0.144-0.037-0.168 0.05-0.392 0.097-0.625 0.149 0.14-0.909 0.418-1.768 0.98-2.248 0.053-0.044 0.067-0.116 0.034-0.176-0.033-0.058-0.102-0.089-0.168-0.067zm36.226 0.014l-0.129 0.041c-0.735 0.711-1.233 2.047-1.631 2.752-0.024 0.044-0.024 0.103 0 0.147 0.022 0.043 0.068 0.076 0.118 0.082 0.623 0.063 0.952 0.133 1.584 0.213v0.001h0.017c0.061 0 0.114-0.032 0.139-0.087 0.659-1.419 0.785-1.609 1.137-2.776 0.011-0.044 0.002-0.088-0.02-0.127-0.022-0.038-0.059-0.063-0.105-0.068l-1.11-0.178zm4.08 0.861c-0.041-0.011-0.086 0.002-0.119 0.024-0.033 0.027-0.052 0.064-0.055 0.105-0.049 1.26-0.724 2.139-0.845 2.748-0.014 0.075 0.033 0.147 0.107 0.166 0.426 0.107 0.742 0.157 1.096 0.231-0.03 0.047-0.036 0.104-0.012 0.15 1.087 2.248 0.801 4.214 0.889 5.241 0.005 0.068 0.061 0.125 0.133 0.136l1.357 0.196c0.005 0.002 0.018 0.002 0.023 0.002 0.072 0 0.135-0.05 0.149-0.122 0.104-0.469 0.146-0.945 0.146-1.418 0-2.075-0.823-3.966-0.826-3.974-0.025-0.052-0.07-0.086-0.125-0.094-0.604-0.069-0.774-0.086-1.103-0.127 0.002-0.005 0.011-0.01 0.011-0.015 0.012-0.895 0.324-1.856 0.327-2.608 0-0.126-0.01-0.247-0.032-0.359-0.011-0.055-0.051-0.097-0.103-0.114-0.415-0.107-0.633-0.082-1.018-0.168zm-43.818 0.383c-0.032-0.008-0.066-0.005-0.098 0.01-0.255 0.124-0.502 0.242-0.758 0.371l-0.041 0.033c-1.045 1.15-1.429 2.306-1.586 2.891-0.016 0.055 0.001 0.11 0.047 0.148 0.025 0.02 0.057 0.03 0.09 0.03 0.019 0 0.041-0.003 0.063-0.014 0.022-0.014 0.05-0.021 0.072-0.035-0.017 0.143-0.027 0.285-0.027 0.42 0 0.933 0.38 1.656 0.748 2.131 0.027 0.038 0.068 0.056 0.115 0.056 0.014 0 0.031-0.001 0.045-0.007 0.318-0.11 0.592-0.224 0.924-0.329 0.038-0.013 0.071-0.037 0.088-0.076 0.016-0.038 0.016-0.077 0-0.115-0.294-0.642-0.391-1.191-0.391-1.652 0-0.623 0.092-1.087 0.24-1.383 0.025-0.055 0.018-0.121-0.023-0.162-0.041-0.044-0.105-0.058-0.16-0.033-0.198 0.082-0.258 0.098-0.51 0.21 0.203-0.853 0.622-1.643 1.228-2.255 0.047-0.05 0.052-0.127 0.014-0.182-0.021-0.029-0.049-0.048-0.08-0.057zm47.661 0.643c-0.04-0.009-0.08 0-0.12 0.027-0.03 0.025-0.05 0.064-0.05 0.108-0.05 1.292-0.191 2.207-0.29 2.748-0.011 0.074 0.036 0.141 0.108 0.16 0.232 0.057 0.412 0.096 0.592 0.135 0 0.002-0.01 0.005-0.01 0.011 0.03 0.127 0.07 0.114 0.08 0.127v0.004c1.08 1.046 1.37 2.131 1.37 3.08 0 0.673-0.15 1.271-0.27 1.727-0.01 0.041 0 0.087 0.02 0.123 0.02 0.038 0.06 0.062 0.11 0.07l1.62 0.24c0 0.003 0.01 0.004 0.02 0.004 0.07 0 0.13-0.049 0.15-0.121 0.12-0.502 0.17-0.969 0.17-1.4-0.01-2.251-1.35-3.506-1.36-3.52l-0.07-0.037s-0.38-0.096-0.78-0.203c0.01-0.014 0.02-0.023 0.02-0.039v-0.16c0-1.04-0.16-2.109-0.3-2.801-0.01-0.055-0.05-0.099-0.1-0.113-0.41-0.105-0.52-0.082-0.91-0.17zm-51.431 1.047c-0.036-0.003-0.074 0.008-0.107 0.031-0.115 0.082-0.221 0.169-0.328 0.254l-0.022 0.023c-1.238 1.447-1.748 2.721-1.949 3.424-0.019 0.066 0.005 0.138 0.061 0.176 0.027 0.016 0.059 0.029 0.09 0.029 0.033 0 0.142-0.068 0.164-0.088-0.017 0.113 0.011 0.222 0.019 0.327 0.06 0.752 0.313 1.202 0.678 1.712 0.022 0.031 0.07 0.041 0.105 0.041 0.031 0 0.057-0.014 0.084-0.025 0.313-0.145 0.588-0.323 0.867-0.482 0.039-0.02 0.068-0.055 0.079-0.096 0.011-0.038 0.004-0.084-0.018-0.119-0.387-0.675-0.359-1.226-0.359-1.811 0-0.252 0.021-0.487 0.048-0.687 0.009-0.063-0.017-0.124-0.072-0.157-0.052-0.033-0.122-0.032-0.172 0.006-0.153 0.105-0.257 0.173-0.408 0.286 0.198-0.964 0.801-1.906 1.35-2.592 0.046-0.061 0.042-0.148-0.01-0.205-0.027-0.028-0.063-0.044-0.1-0.047zm43.707 0.23c-0.052-0.005-0.103 0.015-0.136 0.053s-0.048 0.091-0.032 0.141c0.396 1.386 0.471 3.057 0.471 4.089 0 0.593-0.025 0.968-0.025 0.971-0.005 0.08 0.053 0.151 0.133 0.162 0.527 0.074 0.981 0.155 1.525 0.242 0.009 0 0.016 0.002 0.021 0.002 0.075 0 0.139-0.054 0.153-0.129 0.093-0.518 0.131-1.044 0.131-1.566 0-1.386-0.281-2.713-0.588-3.633-0.019-0.055-0.066-0.093-0.123-0.101-0.621-0.083-0.907-0.157-1.53-0.231zm11.184 0.721c-0.03-0.002-0.06 0.007-0.09 0.027-0.05 0.039-0.07 0.11-0.05 0.17 0.19 0.437 0.25 0.784 0.25 1.045 0 0.168-0.03 0.302-0.06 0.399-0.01 0.038 0 0.078 0.02 0.111s0.05 0.056 0.08 0.064c0.24 0.061 0.46 0.116 0.66 0.168 1.79 1.601 2.17 2.995 2.17 3.928 0 0.34-0.05 0.62-0.11 0.826-0.01 0.041 0 0.084 0.02 0.119 0.03 0.033 0.06 0.053 0.1 0.059 0.42 0.047 0.84 0.114 1.25 0.166 0.01 0.002 0.01 0.002 0.02 0.002 0.06 0 0.12-0.04 0.13-0.104 0.09-0.329 0.13-0.652 0.13-0.964-0.01-1.96-1.59-3.497-2.62-4.37l-0.07-0.033c-0.16-0.025-0.32-0.045-0.48-0.07-0.02-0.132-0.05-0.265-0.08-0.397l-0.04-0.06c-0.37-0.357-0.75-0.708-1.14-1.051-0.03-0.022-0.06-0.033-0.09-0.035zm-58.084 1.365c-0.037 0.005-0.074 0.023-0.1 0.053-0.057 0.071-0.122 0.139-0.191 0.213-0.626 1.087-1.006 1.807-1.195 2.367-0.121 0.123-0.247 0.24-0.36 0.363l-0.021 0.033c-0.069 0.127-0.11 0.248-0.143 0.358l-0.054 0.521c-0.003 0.055-0.004 0.094-0.004 0.129 0 0.648 0.275 1.084 0.574 1.477 0.025 0.038 0.069 0.06 0.113 0.062h0.014c0.041 0 0.08-0.013 0.107-0.043 0.223-0.214 0.586-0.391 0.803-0.586 0.049-0.043 0.07-0.115 0.045-0.175-0.214-0.555-0.475-1.005-0.475-1.43 0-0.288 0.041-0.529 0.088-0.746 0.047-0.044 0.095-0.096 0.139-0.137l0.053-0.107c0.043-0.805 0.436-1.461 0.771-2.125 0.036-0.069 0.012-0.157-0.055-0.203-0.033-0.021-0.072-0.029-0.109-0.024zm-2.777 2.522c-0.034 0.005-0.067 0.023-0.09 0.05-0.052 0.064-0.112 0.12-0.172 0.186-0.587 1.016-0.939 1.721-1.104 2.24-0.09 0.094-0.184 0.182-0.269 0.276l-0.022 0.027c-0.063 0.115-0.096 0.227-0.127 0.32 0 0-0.048 0.555-0.048 0.588 0 0.582 0.249 1.056 0.515 1.41 0.025 0.033 0.065 0.052 0.106 0.055h0.008c0.035 0 0.074-0.012 0.101-0.037 0.198-0.19 0.401-0.393 0.596-0.568 0.044-0.039 0.06-0.102 0.035-0.157-0.189-0.499-0.301-0.946-0.301-1.33 0-0.28 0.039-0.509 0.088-0.715 0.028-0.024 0.057-0.055 0.082-0.08l0.043-0.095c0.044-0.722 0.406-1.373 0.705-1.963 0.033-0.066 0.012-0.145-0.049-0.184-0.028-0.02-0.064-0.029-0.097-0.023zm36.799 2.4c-1.389 0-2.516 1.124-2.516 2.516 0 1.391 1.127 2.517 2.516 2.517 1.391 0 2.517-1.126 2.517-2.517 0-1.392-1.126-2.516-2.517-2.516zm-39.639 1.488c-0.034 0.01-0.065 0.032-0.084 0.065l-0.85 1.494c-0.175 0.491-0.23 0.845-0.23 1.117-0.009 0.653 0.358 0.84 0.396 0.848 0.017 0.005 0.035 0.01 0.051 0.01 0.047 0 0.088-0.023 0.115-0.059l0.551-0.766c0.03-0.038 0.036-0.096 0.014-0.142-0.11-0.225-0.155-0.489-0.155-0.764 0-0.785 0.365-1.605 0.362-1.607 0.03-0.069 0.002-0.151-0.067-0.184v-0.002c-0.033-0.016-0.07-0.019-0.103-0.01zm17.408 1.727c-1.027 3.623-7.136 5.755-15.895 5.771-6.088 0.009-25.234 0.183-25.234 11.168 0 1.183 0.429 4.588 4.19 4.61-0.67-0.508-1.518-1.721-1.518-3.231v-0.019c0.014-4.452 7.769-5.641 10.857-5.932 0 0 0.009 31.933 0 31.873 0.003 0.003-0.273 3.206-2.156 4.443 2.811-1.209 6.085-2.5 9.772-3.834-0.659-0.024-2.369-0.691-2.369-2.953v-30.3c3.595-0.058 21.019-0.902 22.353-11.596zm68.113 1.064c-3.16 0.19-5.45 0.358-8.56 0.616-3.37 0.34-4.98 3.675-4.86 6.412 0.09 2.067 0.87 4.739 3.85 6.732 5.1 3.417 5.91 4.882 5.97 6.225 0.15 3.2-2.66 4.419-5.09 4.394-0.05-1.15-0.38-4.542-4.06-5.873 0.02 0.481-0.03 7.421 0 8.102 3.43-0.382 6.25-0.656 9.73-0.914 2.99-0.33 5.02-3.541 4.76-6.453-0.19-2.122-0.37-3.941-6.54-8.155-2.61-1.781-3.22-3.375-3.28-4.72-0.14-3.198 1.59-4.285 4.01-4.225 0.06 1.15 0.38 4.551 4.07 5.937-0.02-0.477 0.03-7.279 0-8.078zm-25.31 2.637c-0.23 0.009-0.469 0.03-0.703 0.064-1.548 0.234-3.086 0.476-4.612 0.731-2.602 0.434-5.162 0.893-7.681 1.371 2.799 1.331 2.5 3.316 2.513 4.158v21.004c1.71-0.307 3.434-0.61 5.168-0.898v-23.809c1.439-0.34 6.445-0.854 6.445 6.014v16.785c2.54-0.371 5.11-0.72 7.69-1.033-2.81-1.392-2.52-3.377-2.53-4.225v-13.599c0.01-1.642-0.36-3.866-2.02-5.233-1.03-0.84-2.63-1.392-4.27-1.33zm-17.442 3.039c-2.615 0.533-5.174 1.085-7.664 1.645 2.775 1.21 2.481 3.201 2.492 4.041v13.238c0 2.764 0.54 4.644 1.975 5.742 1.169 0.892 2.31 1.096 4.039 0.791 0.502-0.099 1.012-0.2 1.52-0.299-2.114-0.466-2.362-2.408-2.362-4.134v-21.024zm-11.931 2.637c-2.663 0.628-5.238 1.27-7.705 1.912 2.816 1.136 2.524 3.151 2.535 3.996v19.025c-0.074 0.009-6.641 2.119-6.641-5.103v-16.83c-2.717 0.733-5.286 1.456-7.68 2.156 2.792 1.051 2.497 3.064 2.508 3.906v19.133c-0.071 0.005-6.675 2.088-6.675-5.021v-16.776c-2.907 0.881-5.481 1.702-7.682 2.424 2.797 0.955 2.503 2.98 2.514 3.822v12.153c-0.009 2.555 0.843 4.652 2.355 5.742 1.548 1.114 3.632 1.292 5.646 0.746 6.992-2.146 14.825-4.282 23.254-6.23-2.179-0.437-2.429-2.405-2.429-4.151v-20.904zm45.223 23.142c-0.02 0.007-0.05 0.021-0.06 0.041-0.27 0.311-0.54 0.626-0.83 0.95-0.02 0.033-0.03 0.075-0.03 0.113 0.01 0.041 0.04 0.071 0.08 0.09 1.04 0.486 1.08 0.417 2.16 0.601 0.01 0.003 0.02 0.002 0.02 0.002 0.06 0 0.11-0.032 0.13-0.084 0.15-0.384 0.28-0.769 0.41-1.148 0-0.009 0.01-0.02 0.01-0.033 0-0.033-0.01-0.069-0.03-0.096-0.01-0.019-0.04-0.032-0.06-0.043-0.01-0.003-0.02-0.006-0.03-0.006-1.09-0.129-0.63 0.036-1.69-0.381-0.02-0.011-0.05-0.012-0.08-0.006zm-7.5 2.071c-24.404 2.563-55.191 11.369-61.803 13.873 1.218-0.15 7.465 0.58 14.668 5.41 9.027-9.397 30.068-15.786 47.135-17.99v-1.293zm5.38 1.689c-0.05-0.025-0.11-0.018-0.15 0.018-0.4 0.321-0.48 0.686-0.83 0.941-0.04 0.03-0.06 0.077-0.06 0.123 0 0.047 0.03 0.091 0.07 0.115 1.15 0.654 1.66 1.009 2.89 1.319 0.02 0.002 0.03 0.002 0.04 0.002 0.05 0 0.1-0.031 0.13-0.08 0.2-0.423 0.39-0.842 0.56-1.256 0.02-0.039 0.01-0.084 0-0.119-0.03-0.039-0.06-0.066-0.1-0.075-1.17-0.236-1.37-0.389-2.55-0.988zm-4.12 3.752c-0.05-0.025-0.11-0.019-0.16 0.014-0.41 0.32-0.84 0.655-1.29 0.992-0.04 0.027-0.06 0.074-0.06 0.123 0 0.047 0.03 0.091 0.07 0.115 1.35 0.766 2.01 0.976 3.46 1.344 0.02 0.003 0.26 0.051 0.27 0.051 0.04 0 0.07-0.01 0.1-0.037 0.25-0.225 0.49-0.407 0.74-0.594 0.38 0.2 0.95 0.357 1.38 0.555 0.01 0.011 0.03 0.013 0.06 0.013 0.04 0 0.09-0.025 0.11-0.066 0.16-0.247 0.43-0.738 0.6-1.01 0.04-0.055 0.03-0.118-0.01-0.17-0.13-0.203-0.83-0.426-1.33-0.607-0.07-0.025-0.14-0.046-0.19 0.01-0.19 0.186-0.36 0.356-0.55 0.535-1.15-0.289-2.02-0.672-3.2-1.268zm-4.03 3.055c-0.03 0.003-0.06 0.014-0.08 0.035-0.45 0.371-0.91 0.742-1.38 1.115-0.03 0.03-0.06 0.074-0.05 0.117 0 0.044 0.02 0.089 0.06 0.114 1.79 1.205 2.79 1.841 3.97 2.058l0.11-0.027c0.16-0.118 0.45-0.28 0.6-0.399 0.99 0.868 1.86 0.981 2.17 0.981 0.02 0.011 0.04 0.014 0.06 0.014 0.04 0 0.07-0.014 0.1-0.041 0.26-0.261 0.8-0.913 1.04-1.176 0.03-0.028 0.09-0.192 0.08-0.231 0-0.041-0.01-0.098-0.05-0.101-0.33-0.028-1.66-0.343-2.25-0.821-0.04-0.024-0.06-0.055-0.1-0.066-0.04-0.005-0.08 0.005-0.11 0.033-0.15 0.118-0.3 0.237-0.45 0.358-1.92-0.676-2.55-1.346-3.64-1.948-0.03-0.013-0.06-0.018-0.08-0.015zm-3.72 3.568c-0.03 0.002-0.05 0.012-0.08 0.031-0.45 0.374-0.91 0.744-1.38 1.118-0.03 0.03-0.05 0.07-0.05 0.117 0 0.043 0.03 0.083 0.06 0.113 1.78 1.2 2.25 1.53 3.41 1.73l0.11-0.02c0.15-0.12 0.3-0.23 0.45-0.35 1.06 1.18 2.7 1.03 3.02 1.13 0.02 0.01 0.04 0.01 0.06 0.01 0.04 0 0.08-0.01 0.1-0.04 0.24-0.24 0.87-0.83 1.14-1.11 0.04-0.04 0.05-0.09 0.03-0.14-0.02-0.06-0.06-0.09-0.12-0.1 0 0-2.15 0.07-2.8-1.03-0.03-0.06-0.11-0.08-0.17-0.06 0 0-0.01 0.01-0.02 0.01-0.02 0.01-0.04 0.03-0.05 0.05 0 0-0.01 0.03-0.02 0.04 0 0-0.28 0.31-0.34 0.3-2.09-0.45-2.15-1.169-3.27-1.781-0.02-0.014-0.05-0.02-0.08-0.018zm-4.475 3.099c-0.044-0.02-0.098-0.03-0.145 0-0.417 0.27-0.939 0.77-1.334 1.01-0.041 0.02-0.066 0.07-0.068 0.11 0 0.05 0.021 0.1 0.056 0.12 1.999 1.46 2.573 1.58 3.791 1.66l0.085-0.02c0.12-0.08 0.36-0.22 0.5-0.32 0.79 1.06 2.19 1.6 3.01 1.89l0.12-0.02c0.36-0.24 1.21-0.84 1.24-0.86v0c0-0.01 0.01-0.01 0.01-0.01 0-0.01 0.01-0.01 0.01-0.01 0.01-0.02 0.02-0.03 0.02-0.04l0.01-0.01c0.02-0.07-0.01-0.14-0.08-0.17-0.01 0-0.01-0.01-0.01-0.01h-0.01c-2.31-0.79-2.47-1.46-2.53-2.12-0.01-0.08-0.11-0.12-0.19-0.09-0.07 0.03-0.73 0.58-0.79 0.57-2.449-0.38-2.562-1.03-3.695-1.68zm-5.002 3.04c-0.387 0.21-1.477 0.78-1.524 0.85-0.019 0.02-0.027 0.05-0.027 0.08 0 0.04 0.022 0.09 0.06 0.11 1.675 1.21 2.564 1.7 3.881 1.78l0.067-0.01c0.167-0.08 0.374-0.18 0.586-0.29 0.642 1.23 2.682 1.78 3.398 1.99l0.088-0.01c0.357-0.15 1.598-0.91 1.618-0.99 0.02-0.07-0.03-0.15-0.1-0.17h-0.01c-2.282-0.59-3.161-1.64-3.133-2.01 0.005-0.05-0.019-0.1-0.063-0.13-0.041-0.03-0.096-0.03-0.14-0.01-0.302 0.15-0.595 0.4-0.965 0.59-2.394-0.54-2.883-1.17-3.58-1.77-0.044-0.03-0.107-0.04-0.156-0.01zm-4.25 2.63c-0.401 0.22-1.033 0.53-1.442 0.73-0.044 0.02-0.076 0.06-0.082 0.11-0.005 0.05 0.016 0.1 0.055 0.13 1.493 1.15 2.563 1.58 3.543 1.81-0.08 0.03-0.162 0.06-0.231 0.09-0.068 0.02-0.109 0.09-0.095 0.16 0.282 1.22 2.504 1.79 3.478 2.03h0.07c0.409-0.11 1.07-0.47 1.446-0.59 0.063-0.01 0.1-0.07 0.097-0.13 0-0.07-0.043-0.12-0.103-0.14-1.938-0.49-3.038-1.14-3.197-1.58 0.28-0.13 0.647-0.3 0.847-0.39 0.061-0.03 0.095-0.09 0.084-0.15-0.011-0.07-0.06-0.12-0.123-0.13-2.498-0.32-3.369-1.27-4.187-1.93-0.047-0.04-0.108-0.04-0.16-0.02zm-40.995 0.69c-0.028 0-0.056 0.01-0.08 0.02-0.049 0.04 0.379 1.13 0.379 1.13l0.041 0.07c0.005 0 0.434 0.51 1.266 1.02 0.025 0.01 0.049 0.02 0.074 0.02 0.041 0 0.083-0.02 0.113-0.06 0.044-0.05 0.038-0.13-0.011-0.18-0.266-0.26-0.512-1.16-0.516-1.16l-0.059-0.08-1.125-0.76c-0.024-0.02-0.053-0.02-0.082-0.02zm36.465 1.56c-0.027-0.01-0.057 0-0.082 0.01-0.381 0.21-0.973 0.38-1.404 0.58-0.044 0.02-0.077 0.06-0.082 0.11-0.003 0.05 0.016 0.1 0.055 0.13 1.518 1.16 2.812 1.62 3.882 1.85-0.079 0.03-0.155 0.06-0.232 0.08-0.069 0.03-0.107 0.1-0.094 0.17 0.264 1.2 1.865 1.69 2.834 1.92h0.069c0.392-0.1 0.784-0.22 1.173-0.34 0.058-0.02 0.103-0.07 0.1-0.14 0-0.06-0.044-0.11-0.107-0.13-2.007-0.53-2.382-1.24-2.44-1.66 0.357-0.16 0.743-0.34 1.006-0.46 0.058-0.02 0.094-0.09 0.086-0.15-0.011-0.06-0.06-0.11-0.123-0.12-2.506-0.32-3.769-1.18-4.565-1.82-0.021-0.02-0.048-0.03-0.076-0.03zm-33.175 0.44c-0.05-0.03-0.107-0.03-0.157 0-0.044 0.03-0.067 0.09-0.056 0.15 0.046 0.22 0.235 0.81 0.414 1.13 0 0 1.709 1.23 1.795 1.28 0.024 0.01 0.052 0.02 0.08 0.02 0.041 0 0.082-0.01 0.109-0.05 0.047-0.06 0.043-0.14-0.012-0.19-0.392-0.38-0.599-1.03-0.675-1.44h0.002l-0.067-0.1c-0.604-0.36-0.695-0.32-1.285-0.7l-0.008-0.01c-0.044-0.03-0.091-0.06-0.14-0.09zm28.876 1.28c-0.409 0.11-0.981 0.34-1.363 0.42-0.052 0.01-0.094 0.05-0.105 0.11-0.014 0.05 0.01 0.11 0.05 0.14 1.37 1.08 2.462 1.64 3.28 1.91-0.126 0.03-0.258 0.06-0.393 0.08-0.044 0-0.079 0.03-0.101 0.07s-0.027 0.08-0.008 0.12c0.376 0.93 1.356 1.4 2.092 1.63h0.048c0.44-0.02 0.975-0.15 1.409-0.18 0.066-0.01 0.119-0.06 0.125-0.13 0.011-0.06-0.026-0.13-0.092-0.15-1.222-0.43-1.807-0.93-1.947-1.33 0.313-0.07 0.651-0.18 0.892-0.23 0.066-0.01 0.115-0.07 0.115-0.14s-0.045-0.13-0.111-0.14c-1.831-0.36-3.123-1.48-3.752-2.15-0.035-0.03-0.092-0.05-0.139-0.03zm-25.476 0.31c-0.047 0.03-0.074 0.07-0.074 0.12v0.01c0.049 0.24 0.329 0.93 0.507 1.25l0.014 0.02c0.576 0.73 1.62 1.13 1.694 1.17 0.024 0.01 0.048 0.02 0.076 0.02 0.041 0 0.086-0.02 0.113-0.05 0.044-0.06 0.038-0.14-0.014-0.19-0.392-0.38-0.599-1.03-0.675-1.44l-0.067-0.1c-0.604-0.36-0.694-0.32-1.281-0.7h-0.006c-0.047-0.04-0.095-0.08-0.145-0.11-0.043-0.02-0.098-0.03-0.142 0zm21.695 1.05c-0.488 0.1-0.98 0.22-1.461 0.28-0.055 0.01-0.102 0.05-0.119 0.1-0.016 0.06 0.002 0.12 0.049 0.15 1.139 0.96 2.318 1.56 3.26 1.84-0.261 0.02-0.509 0.05-0.77 0.06-0.06 0-0.112 0.05-0.129 0.1-0.011 0.05-0.006 0.05-0.006 0.05 0.017 0.65 0.83 1.15 1.395 1.42l0.057 0.02c0.348 0.01 0.552-0.09 0.892-0.09 0.085 0 0.259-0.04 0.344-0.04 0.063 0 0.121-0.05 0.135-0.11 0.019-0.06-0.01-0.13-0.065-0.16-0.7-0.41-0.944-0.68-0.941-0.87 0-0.09 0.088-0.3 0.074-0.34 0.187-0.03 0.371-0.04 0.555-0.07 0.066 0 0.118-0.06 0.121-0.12 0.005-0.07-0.037-0.13-0.1-0.15-1.474-0.45-2.618-1.52-3.164-2.03l-0.127-0.04zm-23.318 0.07l0.004 0.01-0.004-0.01zm5.601 0.24c-0.052-0.03-0.112-0.01-0.156 0.02-0.038 0.04-0.054 0.1-0.035 0.15 0.272 0.77 0.751 1.35 1.242 1.76 0.541 0.23 1.03 0.42 1.522 0.6 0.013 0.01 0.03 0.01 0.047 0.01 0.049 0 0.1-0.02 0.125-0.07 0.033-0.06 0.016-0.14-0.041-0.19-0.958-0.7-1.23-1.29-1.301-1.63-0.009-0.04-0.043-0.08-0.084-0.1-0.437-0.17-0.879-0.36-1.319-0.55zm13.489 0.53c-0.486 0.09-0.978 0.12-1.461 0.18-0.058 0.01-0.101 0.05-0.117 0.1-0.017 0.05 0.001 0.11 0.043 0.15 1.067 0.89 2.023 1.44 2.929 1.74-0.203 0.01-0.403 0.03-0.609 0.04-0.063 0-0.113 0.05-0.129 0.11-0.011 0.03-0.006 0.05-0.006 0.05 0.082 0.45 0.69 1 1.258 1.28l0.057 0.01c0.343 0 1.194 0.01 1.279 0.01 0.063 0 0.118-0.04 0.135-0.1 0.016-0.07-0.011-0.13-0.063-0.17-0.7-0.41-0.85-0.68-0.848-0.87h-0.002c0-0.09 0.03-0.16 0.071-0.23 0.005-0.01 0.401-0.08 0.594-0.1 0.065-0.01 0.119-0.06 0.125-0.13 0.005-0.06-0.04-0.12-0.1-0.14-1.477-0.45-2.483-1.38-3.029-1.9l-0.127-0.03zm-9.784 0.17c-0.057-0.01-0.116 0.02-0.146 0.07s-0.026 0.11 0.01 0.16c0.406 0.54 0.912 1.05 1.373 1.44l-0.024-0.01c-0.057-0.01-0.115 0.02-0.148 0.07-0.03 0.05-0.029 0.11 0.006 0.16 0.002 0 0.146 0.3 0.377 0.51l0.054 0.03c0.231 0.07 0.597 0.13 0.817 0.2 0.014 0 0.027 0.01 0.041 0.01 0.038 0 0.079-0.02 0.103-0.05 0.039-0.04 0.051-0.09 0.032-0.14-0.009-0.02-0.151-0.14-0.151-0.16s0.009-0.03 0.014-0.05c0.269 0.03 0.56 0.06 0.758 0.09h0.021c0.061 0 0.113-0.04 0.135-0.09 0.022-0.06 0-0.14-0.055-0.17-0.875-0.57-1.475-1.36-1.769-1.8l-0.102-0.07c-0.439-0.05-0.89-0.12-1.346-0.2zm5.733 0.28c-0.316 0.01-0.626 0.02-0.934 0.02-0.181 0-0.364-0.01-0.543-0.01-0.057 0-0.114 0.03-0.138 0.09-0.022 0.05-0.008 0.11 0.031 0.15 0.719 0.72 1.455 1.21 2.111 1.54l-0.445-0.03c-0.06-0.01-0.115 0.02-0.137 0.07-0.027 0.06-0.015 0.12 0.024 0.16 0.005 0.01 0.319 0.38 0.863 0.73l0.051 0.02c0.233 0.04 0.834 0.12 1.056 0.15 0.005 0.01 0.014 0.01 0.02 0.01 0.049 0 0.096-0.03 0.123-0.07 0.03-0.05 0.029-0.11-0.004-0.16-0.071-0.11-0.418-0.23-0.418-0.31-0.002-0.07 0.022-0.13 0.047-0.17 0.351 0 0.712 0.01 1.06 0.01h0.235c0.068 0 0.13-0.06 0.14-0.12 0.012-0.08-0.029-0.14-0.097-0.16-1.507-0.47-2.465-1.34-2.932-1.88h-0.002l-0.111-0.04z" transform="matrix(.8 0 0 -.8 140.8 387.7)" fill="#d31145"/></g></g></svg>
