<?xml version="1.0" encoding="UTF-8" standalone="no"?>
<svg
   xmlns:dc="http://purl.org/dc/elements/1.1/"
   xmlns:cc="http://creativecommons.org/ns#"
   xmlns:rdf="http://www.w3.org/1999/02/22-rdf-syntax-ns#"
   xmlns:svg="http://www.w3.org/2000/svg"
   xmlns="http://www.w3.org/2000/svg"
   viewBox="0 0 6379.4399 3807.5781"
   height="3807.5781"
   width="6379.4399"
   xml:space="preserve"
   id="svg2"
   version="1.1"><metadata
     id="metadata8"><rdf:RDF><cc:Work
         rdf:about=""><dc:format>image/svg+xml</dc:format><dc:type
           rdf:resource="http://purl.org/dc/dcmitype/StillImage" /></cc:Work></rdf:RDF></metadata><defs
     id="defs6" /><g
     transform="matrix(1.3333333,0,0,-1.3333333,-0.74948045,3809.6619)"
     id="g10"><g
       transform="scale(0.1)"
       id="g12"><g
         transform="scale(2.93567)"
         id="g14"><path
           id="path16"
           style="fill:#ffffff;fill-opacity:1;fill-rule:nonzero;stroke:none"
           d="m 6966.98,3916.77 c 266.38,137.71 532.2,214.46 746.64,248.85 l 8.44,17.52 -1329.57,0.02 145.59,265.8 1295.73,0.02 274.26,514.67 -1295.13,0.01 145.55,257.33 1286.7,0.01 283.34,531.54 -2513.62,0.02 -1123.56,-2110.06 1638.24,0.01 c 128.68,94.22 274.87,188.49 437.39,274.26 z m -1166.51,1835.77 -1295.13,0.02 -703.17,-1346.48 c -94.8,-180.05 -171.55,-274.85 -309.26,-274.85 -94.26,0 -137.16,51.91 -137.16,128.65 0,51.94 26.01,128.67 60.42,189.08 l 274.26,523.12 -1106.69,0.02 -137.11,-257.36 c -120.23,-214.44 -163.12,-351.55 -163.12,-549.12 0,-386 351.61,-591.97 1209.4,-591.97 617.98,0 1029.35,128.68 1278.21,377.53 171.55,171.56 274.86,343.11 437.38,660.86 z m 7042.43,51.38 c -780.5,0 -1097.7,-119.64 -1329.6,-351.61 -162.5,-163.06 -248.3,-359.99 -248.3,-523.11 0,-240.42 128.7,-326.19 574.5,-437.34 471.8,-120.23 566,-146.19 566,-248.9 0,-111.73 -102.7,-180 -282.7,-180 -163.1,0 -240.4,51.33 -240.4,137.11 0,59.81 16.9,111.75 42.9,171.56 l -1055.4,0.01 c -51.3,-111.76 -76.7,-206.02 -76.7,-300.24 0,-326.19 274.3,-480.22 1217.8,-480.22 798,0 1115.2,137.11 1329.6,351.55 171.6,171.56 257.4,369.09 257.4,574.49 0,240.42 -163.1,343.13 -609,446.43 -446.4,102.65 -532.1,137.1 -532.1,205.96 0,85.78 94.8,162.52 283.3,162.52 154.6,0 240.4,-51.37 240.4,-128.67 0,-59.82 -17.5,-102.71 -42.9,-154.03 h 1037.8 c 42.9,102.66 59.8,188.43 59.8,300.23 -16.9,317.1 -325.6,454.26 -1192.4,454.26 z M 8528.53,2682.01 c -8.49,-9.04 -17.53,-17.53 -26.02,-25.96 -34.39,0 -59.75,0 -94.21,0 -8.44,8.43 -16.92,16.92 -25.97,25.96 9.04,162.52 9.04,325.59 0,488.71 9.04,8.44 17.53,16.92 25.97,25.96 34.46,0 59.82,0 94.21,0 8.49,-9.04 17.53,-17.52 26.02,-25.96 16.88,-163.12 16.88,-326.19 0,-488.71 z m -291.79,0 c -8.44,-9.04 -16.93,-17.53 -25.96,-25.96 -33.85,0 -59.81,0 -94.27,0 -8.44,8.43 -16.88,16.92 -25.37,25.96 0,162.52 0,325.59 0,488.71 8.49,8.44 16.93,16.92 25.37,25.96 34.46,0 60.42,0 94.27,0 9.03,-9.04 17.52,-17.52 25.96,-25.96 8.45,-163.12 8.45,-326.19 0,-488.71 z m -291.78,0 c -8.45,-9.04 -16.89,-17.53 -25.38,-25.96 -34.39,0 -60.41,0 -94.8,0 -8.49,8.43 -16.93,16.92 -25.38,25.96 -17.52,162.52 -17.52,325.59 0,488.71 8.44,8.44 16.89,16.92 25.38,25.96 34.39,0 60.41,0 94.8,0 8.49,-9.04 16.93,-17.52 25.38,-25.96 -8.45,-163.12 -8.45,-326.19 0,-488.71 z m 849.35,505.63 c 8.44,-8.48 16.92,-16.92 34.44,-25.36 8.44,-51.37 16.89,-103.31 25.38,-146.19 94.8,0 189.08,0 283.3,-8.49 308.67,-8.44 608.89,-16.87 917.57,-42.89 l 52,68.9 c 0,8.44 0,16.88 0,25.36 -68.9,231.98 -360.68,514.68 -814.94,755.1 -411.97,214.45 -883.76,274.25 -1115.13,274.25 0,0 0,0 -9.04,0 -231.38,0 -703.16,-59.8 -1115.14,-274.25 -454.26,-240.42 -746.05,-523.12 -814.89,-755.1 0,-8.48 0,-8.48 0,-16.92 l 51.92,-68.85 c 308.71,17.53 608.94,34.4 917.6,42.89 102.71,0 214.46,9.03 317.17,9.03 0,51.38 9.03,94.26 25.96,145.6 8.44,8.44 16.93,16.92 34.45,25.96 34.4,0 59.77,0 94.22,0 8.44,-9.04 16.93,-17.52 16.93,-25.96 -25.38,-163.12 -25.38,-317.15 0,-480.23 -8.49,-8.48 -16.93,-17.52 -16.93,-26.01 -34.45,0 -59.82,0 -94.22,0 -8.49,8.49 -17.52,17.53 -34.45,26.01 -8.45,51.33 -16.93,94.22 -25.96,145.55 -102.71,0 -214.46,0 -317.17,8.49 -308.66,9.04 -608.89,17.52 -917.6,42.89 l -51.92,-59.81 c 68.84,-231.39 360.63,-514.69 814.89,-755.09 411.98,-222.94 883.76,-274.27 1115.14,-274.27 0,0 0,0 9.04,0 239.81,0 703.16,59.81 1115.13,274.27 454.26,240.4 746.04,523.7 814.94,755.09 l -52,59.81 c -308.68,-16.93 -608.9,-33.85 -917.57,-42.89 -94.22,0 -188.5,-8.49 -283.3,-8.49 0,-51.33 -8.49,-102.65 -25.38,-145.55 -8.49,-8.48 -17.52,-17.52 -34.44,-26.01 -34.45,0 -59.82,0 -94.23,0 -8.47,8.49 -17.52,17.53 -17.52,26.01 25.97,163.08 25.97,317.11 0,480.23 9.05,8.44 17.52,16.92 17.52,25.96 25.38,-9.04 59.78,-9.04 94.23,-9.04 z m 7068.29,1681.74 c 0,-137.7 -8.4,-274.86 -34.4,-403.53 C 15553.9,3548.28 14353,2458.52 12620,1540.91 11084.4,734.45 9274.54,451.734 8185.41,451.734 c -8.48,0 -8.48,0 -17.52,0 l -16.92,0.013 C 7061.79,451.734 5234.46,734.45 3690.43,1540.91 1957.92,2450.04 757,3539.81 482.149,4465.85 c -25.373,128.67 -34.398,265.83 -34.398,403.53 0,137.15 9.025,274.26 34.398,402.93 C 757,6198.97 1948.89,7288.13 3690.43,8197.26 c 1535.6,806.46 3345.4,1089.76 4434.57,1089.76 9.04,0 9.04,0 17.51,0 h 16.89 c 8.49,0 17.53,0 17.53,0 1089.16,0 2898.97,-283.3 4434.57,-1089.76 1732.5,-909.13 2933.4,-1998.29 3208.3,-2924.95 25.3,-128.67 42.8,-265.78 42.8,-402.93 z m 394.5,497.15 -8.5,26.01 c -308.6,1046.24 -1561.5,2212.74 -3431.1,3199.21 -1604.4,840.87 -3500.08,1141.09 -4640.57,1141.09 -9.04,0 -17.53,0 -17.53,0 l -16.87,0.02 c -8.49,-0.02 -8.49,-0.02 -17.53,-0.02 -1140.5,0 -3036.13,-300.22 -4640.58,-1141.09 C 1605.76,7605.28 361.969,6438.78 53.2513,5392.54 l -8.4374,-26.01 C 18.8549,5203.46 1.91476,5040.94 1.91476,4869.38 c 0,-171.57 16.94014,-334.63 42.89914,-497.75 l 8.4374,-25.96 C 361.969,3299.39 1614.8,2132.93 3484.42,1146.46 5088.87,305.552 6984.5,5.3238 8125,5.3238 c 9.04,0 17.51,0 17.51,0 l 16.89,0.01464 c 8.49,-0.01464 8.49,-0.01464 17.53,-0.01464 1140.49,0 3036.17,300.2282 4640.57,1141.1362 1869.6,986.47 3122.5,2152.93 3431.1,3199.21 l 8.5,25.96 c 34.4,163.12 42.9,334.67 42.9,497.75 0,171.56 -16.9,334.08 -42.9,497.15 z m -12215.11,1398.48 77.34,-360.64 402.93,0.01 411.97,772 -377.56,0.02 -171.55,-334.09 -68.26,343.11 -428.9,0.01 -411.97,-772.02 377.56,0.01 z m 7394.51,-1012.47 -2693.52,0.02 -283.35,-540.06 712.24,0.01 -557.56,-1055.33 c 214.44,-42.89 471.79,-111.74 729.13,-240.41 128.65,-68.26 248.85,-145.6 359.99,-222.93 l 806.47,1509.62 643.3,0.02 z m 377,651.83 180.6,343.12 25.4,-343.12 463.3,0.01 -51.3,395.04 428.9,376.96 -437.4,0.02 -386,-351.62 188.5,351.6 -471.8,0.02 -412,-772.03 z m -6176.1,0 103.3,197.52 -489.31,0.01 51.92,94.21 445.84,0.01 102.69,189.07 -445.82,0.02 51.34,94.25 h 471.78 l 103.31,196.92 -918.22,0.02 -411.37,-772.03 z m 2848.24,0 128.67,240.42 617.33,531.59 -437.33,0.02 -240.41,-239.83 9.04,239.81 -471.8,0.02 33.86,-523.18 -137.16,-257.34 497.8,0.02 z m 994.9,309.26 102.71,196.94 c 17.52,34.44 34.4,60.4 60.42,77.33 16.87,16.93 42.88,25.96 68.24,25.96 42.9,0 60.41,-17.52 60.41,-51.92 0,-16.93 -8.47,-42.89 -26,-68.26 l -102.65,-197.57 c -17.53,-34.4 -34.46,-59.77 -51.38,-77.28 -17.53,-16.94 -42.9,-25.38 -77.3,-25.38 -42.9,0 -60.41,16.89 -60.41,51.34 0,8.43 9.04,34.45 25.96,68.84 z m -428.89,94.28 c -34.46,-77.35 -51.34,-137.16 -51.34,-197.57 0,-77.3 34.41,-128.67 111.15,-163.08 77.29,-33.85 205.96,-59.81 386.01,-59.81 248.85,0 420.41,51.33 523.73,145.59 51.4,51.92 111.1,137.71 162.5,248.85 34.4,77.34 51.9,137.16 51.9,197.57 0,77.29 -34.4,128.68 -111.7,163.07 -77.4,33.85 -206.02,59.83 -386.01,59.83 -248.91,0 -420.47,-51.34 -523.13,-145.61 -51.37,-60.41 -111.78,-137.7 -163.11,-248.84 z m -2607.84,-403.54 257.34,300.23 -68.26,-300.23 462.76,0.01 695.26,772 -420.41,0.02 -283.34,-360.05 103.3,360.03 -437.94,0.02 -265.81,-360.05 94.26,360.03 -445.83,0.02 -145.59,-772.03 z m 4417.59,583.53 68.9,0.01 c 34.5,-0.01 51.4,-8.45 51.4,-34.46 0,-8.44 0,-25.36 -8.5,-42.88 l -17.5,-34.42 c -25.4,-42.88 -51.4,-68.24 -94.3,-68.24 h -85.7 z m -308.6,-583.53 137.1,248.85 68.9,0.02 c 42.9,-0.02 59.8,-16.9 59.8,-51.35 0,-16.93 -8.5,-34.45 -16.9,-51.32 l -77.4,-154.69 471.8,0.02 59.8,120.22 c 17.6,34.45 26,68.84 26,94.22 0,51.37 -34.4,85.77 -111.7,103.29 51.9,8.5 85.7,16.93 120.1,33.86 34.5,17.52 60.5,34.4 85.8,60.42 51.4,51.32 77.4,120.18 77.4,196.92 0,51.92 -17,85.78 -42.9,111.74 -34.5,34.45 -102.7,51.32 -197.5,51.32 l -720.1,0.02 -412,-772.03 471.8,0.02 z" /></g><g
         transform="scale(2.93567)"
         id="g18"><path
           id="path20"
           style="fill:#ffffff;fill-opacity:1;fill-rule:nonzero;stroke:none"
           d="m 6966.98,3916.77 c 266.36,137.71 532.2,214.46 746.64,248.85 l 8.44,17.52 -1329.57,0.02 145.59,265.8 1295.73,0.02 274.26,514.67 -1295.13,0.01 145.55,257.33 1286.7,0.01 283.34,531.54 -2513.62,0.02 -1123.56,-2110.06 1638.24,0.01 c 128.68,94.22 274.87,188.49 437.39,274.26 m 0,0 C 6804.46,3831 6658.27,3736.73 6529.59,3642.51 l -1638.24,-0.01 1123.56,2110.06 2513.62,-0.02 -283.34,-531.54 -1286.7,-0.01 -145.55,-257.33 1295.13,-0.01 -274.26,-514.67 -1295.73,-0.02 -145.59,-265.8 1329.57,-0.02 -8.44,-17.52 c -214.44,-34.39 -480.28,-111.14 -746.64,-248.85 z m -1166.51,1835.77 -1295.13,0.02 -703.17,-1346.48 c -94.8,-180.05 -171.55,-274.85 -309.26,-274.85 -94.26,0 -137.16,51.91 -137.16,128.65 0,51.94 26.01,128.67 60.42,189.08 l 274.26,523.12 -1106.69,0.02 -137.11,-257.36 c -120.23,-214.44 -163.12,-351.55 -163.12,-549.12 0,-386 351.61,-591.97 1209.4,-591.97 617.98,0 1029.35,128.68 1278.21,377.53 171.55,171.56 274.86,343.11 437.38,660.86 l 591.97,1140.5 m 0,0 -591.97,-1140.5 c -162.52,-317.75 -265.83,-489.3 -437.38,-660.86 -248.86,-248.85 -660.23,-377.53 -1278.21,-377.53 -857.79,0 -1209.4,205.97 -1209.4,591.97 0,197.57 42.89,334.68 163.12,549.12 l 137.11,257.36 1106.69,-0.02 -274.26,-523.12 c -34.41,-60.41 -60.42,-137.14 -60.42,-189.08 0,-76.74 42.9,-128.65 137.16,-128.65 137.71,0 214.46,94.8 309.26,274.85 l 703.17,1346.48 z m 7042.43,51.38 c -780.5,0 -1097.7,-119.64 -1329.6,-351.61 -162.5,-163.06 -248.3,-359.99 -248.3,-523.11 0,-240.42 128.7,-326.19 574.5,-437.34 471.8,-120.23 566,-146.19 566,-248.9 0,-111.73 -102.7,-180 -282.7,-180 -163.1,0 -240.4,51.33 -240.4,137.11 0,59.82 16.9,111.73 42.9,171.56 l -1055.4,0.01 c -51.3,-111.75 -76.7,-206.02 -76.7,-300.24 0,-326.19 274.3,-480.22 1217.8,-480.22 798,0 1115.2,137.11 1329.6,351.55 171.6,171.56 257.4,369.09 257.4,574.49 0,240.42 -163.1,343.13 -609,446.43 -446.4,102.65 -532.1,137.1 -532.1,205.96 0,85.78 94.8,162.52 283.3,162.52 154.6,0 240.4,-51.37 240.4,-128.67 0,-59.82 -17.5,-102.71 -42.9,-154.03 h 1037.8 c 42.9,102.66 59.8,188.43 59.8,300.23 -16.9,317.1 -325.6,454.26 -1192.4,454.26 m 0,0 c 866.8,0 1175.5,-137.16 1192.4,-454.26 0,-111.8 -16.9,-197.57 -59.8,-300.23 h -1037.8 c 25.4,51.32 42.9,94.21 42.9,154.03 0,77.3 -85.8,128.67 -240.4,128.67 -188.5,0 -283.3,-76.74 -283.3,-162.52 0,-68.86 85.7,-103.31 532.1,-205.96 445.9,-103.3 609,-206.01 609,-446.43 0,-205.4 -85.8,-402.93 -257.4,-574.49 -214.4,-214.44 -531.6,-351.55 -1329.6,-351.55 -943.5,0 -1217.8,154.03 -1217.8,480.22 0,94.22 25.4,188.49 76.7,300.24 l 1055.4,-0.01 c -26,-59.83 -42.9,-111.74 -42.9,-171.56 0,-85.78 77.3,-137.11 240.4,-137.11 180,0 282.7,68.27 282.7,180 0,102.71 -94.2,128.67 -566,248.9 -445.8,111.15 -574.5,196.92 -574.5,437.34 0,163.12 85.8,360.05 248.3,523.11 231.9,231.97 549.1,351.61 1329.6,351.61 z M 8528.53,2682.01 c -5.84,-6.23 -11.95,-12.19 -17.95,-18.06 -2.68,-2.61 -5.46,-5.32 -8.07,-7.9 h -94.21 l -20.65,20.64 -3.75,3.76 -1.57,1.56 c 9.04,162.51 9.04,325.6 0,488.71 9.02,8.42 17.54,16.94 25.97,25.96 h 94.21 c 5.87,-6.24 11.95,-12.18 17.98,-18.06 2.7,-2.63 5.42,-5.29 8.04,-7.9 16.88,-163.12 16.88,-326.19 0,-488.71 m 0,0 c 16.88,162.52 16.88,325.59 0,488.71 -2.62,2.61 -5.34,5.27 -8.04,7.9 -6.03,5.88 -12.11,11.82 -17.98,18.06 h -94.21 c -8.43,-9.02 -16.95,-17.54 -25.97,-25.96 9.04,-163.11 9.04,-326.2 0,-488.71 l 1.57,-1.56 3.75,-3.76 20.65,-20.64 h 94.21 c 2.61,2.58 5.39,5.29 8.07,7.9 6,5.87 12.11,11.83 17.95,18.06 z m -291.79,0 c -8.43,-9.02 -16.94,-17.54 -25.96,-25.96 h -94.27 c -8.43,8.42 -16.89,16.94 -25.37,25.96 v 488.71 c 8.5,8.45 16.91,16.91 25.37,25.96 h 94.27 l 25.96,-25.96 c 8.45,-163.11 8.45,-326.2 0,-488.71 m 0,0 c 8.45,162.51 8.45,325.6 0,488.71 l -25.96,25.96 h -94.27 c -8.46,-9.05 -16.87,-17.51 -25.37,-25.96 v -488.71 c 8.48,-9.02 16.94,-17.54 25.37,-25.96 h 94.27 c 9.02,8.42 17.53,16.94 25.96,25.96 z m -291.78,0 -0.02,-0.01 c -8.44,-9.05 -16.87,-17.52 -25.36,-25.95 h -94.8 c -8.48,8.42 -16.94,16.94 -25.38,25.96 -17.52,162.53 -17.52,325.58 0,488.71 8.44,8.44 16.89,16.94 25.38,25.96 h 94.8 c 8.48,-9.02 16.95,-17.54 25.38,-25.96 -8.45,-163.13 -8.45,-326.18 0,-488.71 m 0,0 c -8.45,162.53 -8.45,325.58 0,488.71 -8.43,8.42 -16.9,16.94 -25.38,25.96 h -94.8 c -8.49,-9.02 -16.94,-17.52 -25.38,-25.96 -17.52,-163.13 -17.52,-326.18 0,-488.71 8.44,-9.02 16.9,-17.54 25.38,-25.96 h 94.8 c 8.49,8.43 16.92,16.9 25.36,25.95 z m 849.35,505.63 c 8.43,-8.47 16.93,-16.92 34.44,-25.36 l 1.41,-8.55 1.4,-8.55 c 7.52,-45.72 15.01,-90.93 22.57,-129.09 94.8,0 189.08,0 283.3,-8.49 308.67,-8.44 608.89,-16.87 917.57,-42.89 l 52,68.9 v 25.36 c -68.9,231.97 -360.68,514.68 -814.94,755.1 -411.97,214.45 -883.76,274.25 -1115.13,274.25 h -9.04 c -231.38,0 -703.16,-59.8 -1115.14,-274.25 -454.26,-240.42 -746.05,-523.12 -814.89,-755.1 v -16.92 l 51.92,-68.85 0.5,0.03 c 308.53,17.51 608.61,34.38 917.1,42.86 51.37,0 104.98,2.26 158.59,4.52 53.62,2.25 107.2,4.51 158.58,4.51 0,51.38 9.03,94.28 25.96,145.6 8.44,8.44 16.93,16.92 34.45,25.96 h 94.22 c 0.43,-0.45 1.15,-1.23 1.57,-1.68 0.2,-0.21 1.37,-1.46 1.56,-1.66 7.28,-7.8 13.8,-15.22 13.8,-22.62 -25.38,-163.12 -25.38,-317.15 0,-480.23 -8.49,-8.48 -16.93,-17.52 -16.93,-26.01 h -94.22 c -8.49,8.49 -17.52,17.53 -34.45,26.01 -5.18,31.48 -10.42,60.01 -15.74,89.03 -3.34,18.23 -6.75,36.75 -10.22,56.52 -102.71,0 -214.46,0 -317.17,8.49 l -0.53,0.01 -16.01,0.47 -15.98,0.47 c -297.27,8.7 -587.23,17.47 -885.08,41.94 l -51.92,-59.81 c 68.84,-231.39 360.63,-514.69 814.89,-755.09 411.98,-222.94 883.76,-274.27 1115.14,-274.27 h 9.04 c 239.81,0 703.16,59.81 1115.13,274.27 454.26,240.4 746.04,523.7 814.94,755.09 l -52,59.81 -48.8,-2.68 -48.68,-2.67 c -274.69,-15.07 -544.01,-29.46 -820.09,-37.54 -47.05,0 -94.09,-2.12 -141.2,-4.23 -47.28,-2.13 -94.62,-4.26 -142.1,-4.26 0,-51.33 -8.49,-102.65 -25.38,-145.55 -8.49,-8.48 -17.52,-17.52 -34.44,-26.01 h -94.23 c -8.49,8.49 -17.52,17.53 -17.52,26.01 25.97,163.08 25.97,317.11 0,480.23 9.03,8.44 17.52,16.92 17.52,25.96 25.38,-9.04 59.78,-9.04 94.23,-9.04 m 0,0 c -34.45,0 -68.85,0 -94.23,9.04 0,-9.04 -8.49,-17.52 -17.52,-25.96 25.97,-163.12 25.97,-317.15 0,-480.23 0,-8.48 9.03,-17.52 17.52,-26.01 h 94.23 c 16.92,8.49 25.95,17.53 34.44,26.01 16.89,42.9 25.38,94.22 25.38,145.55 47.48,0 94.82,2.13 142.1,4.26 47.11,2.11 94.15,4.23 141.2,4.23 276.08,8.08 545.4,22.47 820.09,37.54 l 48.68,2.67 48.8,2.68 52,-59.81 c -68.9,-231.39 -360.68,-514.69 -814.94,-755.09 -411.97,-214.46 -875.32,-274.27 -1115.13,-274.27 h -9.04 c -231.38,0 -703.16,51.33 -1115.14,274.27 -454.26,240.4 -746.05,523.7 -814.89,755.09 l 51.92,59.81 c 297.85,-24.47 587.81,-33.24 885.08,-41.94 l 15.98,-0.47 16.01,-0.47 0.53,-0.01 c 102.71,-8.49 214.46,-8.49 317.17,-8.49 3.47,-19.77 6.88,-38.29 10.22,-56.52 5.32,-29.02 10.56,-57.55 15.74,-89.03 16.93,-8.48 25.96,-17.52 34.45,-26.01 h 94.22 c 0,8.49 8.44,17.53 16.93,26.01 -25.38,163.08 -25.38,317.11 0,480.23 0,7.4 -6.52,14.82 -13.8,22.62 -0.19,0.2 -1.36,1.45 -1.56,1.66 -0.42,0.45 -1.14,1.23 -1.57,1.68 h -94.22 c -17.52,-9.04 -26.01,-17.52 -34.45,-25.96 -16.93,-51.32 -25.96,-94.22 -25.96,-145.6 -51.38,0 -104.96,-2.26 -158.58,-4.51 -53.61,-2.26 -107.22,-4.52 -158.59,-4.52 -308.49,-8.48 -608.57,-25.35 -917.1,-42.86 l -0.5,-0.03 -51.92,68.85 v 16.92 c 68.84,231.98 360.63,514.68 814.89,755.1 411.98,214.45 883.76,274.25 1115.14,274.25 h 9.04 c 231.37,0 703.16,-59.8 1115.13,-274.25 454.26,-240.42 746.04,-523.13 814.94,-755.1 v -25.36 l -52,-68.9 c -308.68,26.02 -608.9,34.45 -917.57,42.89 -94.22,8.49 -188.5,8.49 -283.3,8.49 -7.56,38.16 -15.05,83.37 -22.57,129.09 l -1.4,8.55 -1.41,8.55 c -17.51,8.44 -26.01,16.89 -34.44,25.36 z m 7068.29,1681.74 c 0,-137.7 -8.4,-274.87 -34.4,-403.53 C 15553.9,3548.28 14353,2458.52 12620,1540.91 11084.4,734.45 9274.54,451.734 8185.41,451.734 h -17.52 l -16.92,0.013 C 7061.79,451.734 5234.46,734.45 3690.43,1540.91 1957.92,2450.04 757,3539.81 482.149,4465.85 c -25.373,128.67 -34.398,265.83 -34.398,403.53 0,137.15 9.025,274.26 34.398,402.93 C 757,6198.97 1948.89,7288.13 3690.43,8197.26 5226.01,9003.72 7035.83,9287.02 8125,9287.02 h 34.4 c 8.49,0 17.53,0 17.53,0 1089.17,0 2898.97,-283.3 4434.57,-1089.76 1732.5,-909.13 2933.4,-1998.31 3208.3,-2924.95 25.3,-128.64 42.8,-265.79 42.8,-402.93 m 0,0 c 0,137.14 -17.5,274.29 -42.8,402.93 -274.9,926.64 -1475.8,2015.82 -3208.3,2924.95 -1535.6,806.46 -3345.4,1089.76 -4434.57,1089.76 0,0 -9.04,0 -17.53,0 H 8125 c -1089.17,0 -2898.99,-283.3 -4434.57,-1089.76 C 1948.89,7288.13 757,6198.97 482.149,5272.31 c -25.373,-128.67 -34.398,-265.78 -34.398,-402.93 0,-137.7 9.025,-274.86 34.398,-403.53 C 757,3539.81 1957.92,2450.04 3690.43,1540.91 5234.46,734.45 7061.79,451.734 8150.97,451.747 l 16.92,-0.013 h 17.52 c 1089.13,0 2898.99,282.716 4434.59,1089.176 1733,917.61 2933.9,2007.37 3208.2,2924.94 26,128.66 34.4,265.83 34.4,403.53 z m 394.5,497.15 -8.5,26.01 C 15940,6438.78 14687.1,7605.28 12817.5,8591.75 11213.1,9432.62 9317.42,9732.84 8176.93,9732.84 h -17.53 l -16.87,0.02 c -8.49,-0.02 -8.49,-0.02 -17.53,-0.02 -1140.5,0 -3036.13,-300.22 -4640.58,-1141.09 C 1605.76,7605.28 361.969,6438.78 53.2513,5392.54 l -8.4374,-26.01 C 18.8549,5203.46 1.91476,5040.94 1.91476,4869.38 c 0,-171.57 16.94014,-334.63 42.89914,-497.75 l 8.4374,-25.96 C 361.969,3299.39 1614.8,2132.93 3484.42,1146.46 5088.87,305.552 6984.5,5.3238 8125,5.3238 h 17.51 l 16.89,0.01464 c 8.49,-0.01464 8.49,-0.01464 17.53,-0.01464 1140.49,0 3036.17,300.2282 4640.57,1141.1362 1869.6,986.47 3122.5,2152.93 3431.1,3199.21 l 8.5,25.96 c 34.4,163.12 42.9,334.67 42.9,497.75 0,171.57 -16.9,334.07 -42.9,497.15 m 0,0 c 26,-163.08 42.9,-325.58 42.9,-497.15 0,-163.08 -8.5,-334.63 -42.9,-497.75 l -8.5,-25.96 C 15940,3299.39 14687.1,2132.93 12817.5,1146.46 11213.1,305.552 9317.42,5.3238 8176.93,5.3238 c -9.04,0 -9.04,0 -17.53,0.01464 L 8142.51,5.3238 H 8125 C 6984.5,5.3238 5088.87,305.552 3484.42,1146.46 1614.8,2132.93 361.969,3299.39 53.2513,4345.67 l -8.4374,25.96 c -25.959,163.12 -42.89914,326.18 -42.89914,497.75 0,171.56 16.94014,334.08 42.89914,497.15 l 8.4374,26.01 C 361.969,6438.78 1605.76,7605.28 3484.42,8591.75 5088.87,9432.62 6984.5,9732.84 8125,9732.84 c 9.04,0 9.04,0 17.53,0.02 l 16.87,-0.02 h 17.53 c 1140.49,0 3036.17,-300.22 4640.57,-1141.09 1869.6,-986.47 3122.5,-2152.97 3431.1,-3199.21 z m -12215.11,1398.48 77.34,-360.64 402.93,0.01 411.97,772 -377.56,0.02 -171.55,-334.09 -68.26,343.11 -428.9,0.01 -411.97,-772.02 377.56,0.01 188.44,351.59 m 0,0 -188.44,-351.59 -377.56,-0.01 411.97,772.02 428.9,-0.01 68.26,-343.11 171.55,334.09 377.56,-0.02 -411.97,-772 -402.93,-0.01 z m 7394.51,-1012.47 -2693.52,0.02 -283.35,-540.06 712.24,0.01 -557.56,-1055.33 c 214.44,-42.89 471.79,-111.74 729.13,-240.41 128.65,-68.25 248.85,-145.6 359.99,-222.93 l 806.47,1509.62 643.3,0.02 283.3,549.06 m 0,0 -283.3,-549.06 -643.3,-0.02 -806.47,-1509.62 c -111.14,77.33 -231.34,154.68 -359.99,222.93 -257.34,128.67 -514.69,197.52 -729.13,240.41 l 557.56,1055.33 -712.24,-0.01 283.35,540.06 z m 377,651.83 180.6,343.12 25.4,-343.12 463.3,0.01 -51.3,395.04 428.9,376.96 -437.4,0.02 -386,-351.62 188.5,351.6 -471.8,0.02 -412,-772.03 h 471.8 m 0,0 h -471.8 l 412,772.03 471.8,-0.02 -188.5,-351.6 386,351.62 437.4,-0.02 -428.9,-376.96 51.3,-395.04 -463.3,-0.01 -25.4,343.12 z m -6176.1,0 103.3,197.52 -489.31,0.01 51.92,94.21 445.84,0.01 102.69,189.07 -445.82,0.02 51.34,94.25 h 471.78 l 103.31,196.92 -918.22,0.02 -411.37,-772.03 h 934.54 m 0,0 h -934.54 l 411.37,772.03 918.22,-0.02 -103.31,-196.92 h -471.78 l -51.34,-94.25 445.82,-0.02 -102.69,-189.07 -445.84,-0.01 -51.92,-94.21 489.31,-0.01 z m 2848.24,0 128.67,240.42 617.33,531.59 -437.33,0.02 -240.41,-239.83 9.04,239.81 -471.8,0.02 33.86,-523.18 -137.16,-257.34 497.8,0.02 v 8.47 m 0,0 v -8.47 l -497.8,-0.02 137.16,257.34 -33.86,523.18 471.8,-0.02 -9.04,-239.81 240.41,239.83 437.33,-0.02 -617.33,-531.59 z m 994.9,309.26 102.71,196.94 c 17.52,34.44 34.4,60.4 60.42,77.33 16.87,16.93 42.88,25.96 68.24,25.96 42.9,0 60.41,-17.52 60.41,-51.92 0,-16.93 -8.47,-42.9 -26,-68.26 l -102.65,-197.57 c -17.53,-34.4 -34.46,-59.76 -51.38,-77.28 -17.53,-16.94 -42.9,-25.38 -77.3,-25.38 -42.9,0 -60.41,16.89 -60.41,51.34 0,8.43 9.02,34.43 25.96,68.84 m 0,0 c -16.94,-34.41 -25.96,-60.41 -25.96,-68.84 0,-34.45 17.51,-51.34 60.41,-51.34 34.4,0 59.77,8.44 77.3,25.38 16.92,17.52 33.85,42.88 51.38,77.28 l 102.65,197.57 c 17.53,25.36 26,51.33 26,68.26 0,34.4 -17.51,51.92 -60.41,51.92 -25.36,0 -51.37,-9.03 -68.24,-25.96 -26.02,-16.93 -42.9,-42.89 -60.42,-77.33 z m -428.89,94.28 c -34.46,-77.34 -51.34,-137.16 -51.34,-197.57 0,-77.3 34.41,-128.67 111.15,-163.08 77.29,-33.85 205.96,-59.81 386.01,-59.81 248.85,0 420.41,51.33 523.73,145.59 51.4,51.92 111.1,137.71 162.5,248.85 34.4,77.34 51.9,137.15 51.9,197.57 0,77.3 -34.4,128.68 -111.7,163.07 -77.4,33.85 -206.02,59.83 -386.01,59.83 -248.91,0 -420.47,-51.34 -523.13,-145.61 -51.37,-60.4 -111.79,-137.71 -163.11,-248.84 m 0,0 c 51.32,111.13 111.74,188.44 163.11,248.84 102.66,94.27 274.22,145.61 523.13,145.61 179.99,0 308.61,-25.98 386.01,-59.83 77.3,-34.39 111.7,-85.77 111.7,-163.07 0,-60.42 -17.5,-120.23 -51.9,-197.57 -51.4,-111.14 -111.1,-196.93 -162.5,-248.85 -103.32,-94.26 -274.88,-145.59 -523.73,-145.59 -180.05,0 -308.72,25.96 -386.01,59.81 -76.74,34.41 -111.15,85.78 -111.15,163.08 0,60.41 16.88,120.23 51.34,197.57 z m -2607.84,-403.54 257.34,300.23 -68.26,-300.23 462.76,0.01 695.26,772 -420.41,0.02 -283.34,-360.05 103.3,360.03 -437.94,0.02 -265.81,-360.05 94.26,360.03 -445.83,0.02 -145.59,-772.03 h 454.26 m 0,0 h -454.26 l 145.59,772.03 445.83,-0.02 -94.26,-360.03 265.81,360.05 437.94,-0.02 -103.3,-360.03 283.34,360.05 420.41,-0.02 -695.26,-772 -462.76,-0.01 68.26,300.23 z m 4417.59,583.53 68.9,0.01 c 34.5,-0.01 51.4,-8.45 51.4,-34.46 0,-8.44 0,-25.37 -8.5,-42.88 l -17.5,-34.42 c -25.4,-42.88 -51.4,-68.24 -94.3,-68.24 h -85.7 l 85.7,179.99 m 0,0 -85.7,-179.99 h 85.7 c 42.9,0 68.9,25.36 94.3,68.24 l 17.5,34.42 c 8.5,17.51 8.5,34.44 8.5,42.88 0,26.01 -16.9,34.45 -51.4,34.46 z m -308.6,-583.53 137.1,248.85 68.9,0.02 c 42.9,-0.02 59.8,-16.9 59.8,-51.35 0,-16.91 -8.5,-34.45 -16.9,-51.32 l -77.4,-154.69 471.8,0.02 59.8,120.22 c 17.6,34.45 26,68.84 26,94.22 0,51.37 -34.4,85.77 -111.7,103.29 51.9,8.5 85.7,16.93 120.1,33.86 34.5,17.52 60.5,34.4 85.8,60.42 51.4,51.32 77.4,120.17 77.4,196.92 0,51.93 -17,85.78 -42.9,111.74 -34.5,34.45 -102.7,51.32 -197.5,51.32 l -720.1,0.02 -412,-772.03 471.8,0.02 v 8.47 m 0,0 v -8.47 l -471.8,-0.02 412,772.03 720.1,-0.02 c 94.8,0 163,-16.87 197.5,-51.32 25.9,-25.96 42.9,-59.81 42.9,-111.74 0,-76.75 -26,-145.6 -77.4,-196.92 -25.3,-26.02 -51.3,-42.9 -85.8,-60.42 -34.4,-16.93 -68.2,-25.36 -120.1,-33.86 77.3,-17.52 111.7,-51.92 111.7,-103.29 0,-25.38 -8.4,-59.77 -26,-94.22 l -59.8,-120.22 -471.8,-0.02 77.4,154.69 c 8.4,16.87 16.9,34.41 16.9,51.32 0,34.45 -16.9,51.33 -59.8,51.35 l -68.9,-0.02 z" /></g><g
         transform="scale(1.97631)"
         id="g22"><path
           id="path24"
           style="fill:#125740;fill-opacity:1;fill-rule:nonzero;stroke:none"
           d="m 16261.4,10201.5 26,51.1 c 12.6,25.2 12.6,51.2 12.6,63.7 0,38.6 -26,51.2 -76.3,51.2 h -102.3 l -152.6,-267.4 h 127.5 c 76.3,12.6 127.4,37.6 165.1,101.4 z" /></g><g
         transform="scale(1.97631)"
         id="g26"><path
           id="path28"
           style="fill:#000000;fill-opacity:1;fill-rule:nonzero;stroke:none"
           d="m 16261.4,10201.5 26,51.1 c 12.6,25.2 12.6,51.2 12.6,63.7 v 0 c 0,38.6 -26,51.2 -76.3,51.2 h -102.3 l -152.6,-267.4 h 127.5 c 76.3,12.6 127.4,37.6 165.1,101.4 m 0,0 c -37.7,-63.8 -88.8,-88.8 -165.1,-101.4 h -127.5 l 152.6,267.4 h 102.3 c 50.3,0 76.3,-12.6 76.3,-51.2 v 0 c 0,-12.5 0,-38.5 -12.6,-63.7 z" /></g><g
         transform="scale(2.85773)"
         id="g30"><path
           id="path32"
           style="fill:#125740;fill-opacity:1;fill-rule:nonzero;stroke:none"
           d="m 3996.84,7376.65 433.85,-0.01 69.36,-348.66 c 0.39,-1.98 1.99,-3.48 3.99,-3.77 0.23,-0.03 0.45,-0.04 0.67,-0.04 1.75,0 3.39,0.99 4.21,2.57 l 174.93,340.64 377.04,-0.02 -418.14,-783.57 -407.24,-0.01 -78.64,366.73 c -0.42,1.94 -2,3.43 -3.97,3.7 -0.23,0.03 -0.45,0.04 -0.67,0.04 -1.72,0 -3.35,-0.94 -4.19,-2.5 l -192.24,-358.68 -377.1,-0.01 z m 1259.73,-9.27 932.54,-0.02 -101.14,-192.79 -481.78,-0.01 -4.17,-2.48 -52.73,-96.83 c -0.8,-1.46 -0.77,-3.25 0.09,-4.69 0.85,-1.45 2.41,-2.32 4.08,-2.32 l 450.01,-0.02 -100.36,-184.73 h -455.17 l -4.15,-2.46 -53.34,-96.78 c -0.8,-1.48 -0.77,-3.27 0.07,-4.7 0.86,-1.45 2.41,-2.34 4.09,-2.34 l 494.82,-0.01 -101.15,-193.46 -949.25,0.04 z m 2317.26,0 418.9,-0.02 -705.68,-783.57 -467.32,-0.01 68.81,302.62 c 0.48,2.13 -0.55,4.31 -2.5,5.29 -0.67,0.34 -1.41,0.51 -2.13,0.51 -1.35,0 -2.68,-0.58 -3.6,-1.66 l -262.94,-306.8 -458.74,0.04 147.77,783.6 447.9,-0.02 -95.27,-363.91 c -0.58,-2.2 0.49,-4.52 2.54,-5.48 0.65,-0.32 1.35,-0.47 2.03,-0.47 1.48,0 2.91,0.67 3.83,1.93 l 271.65,367.95 441.18,-0.02 -104.35,-363.77 c -0.42,-1.44 -0.14,-2.98 0.77,-4.18 0.9,-1.18 2.29,-1.88 3.78,-1.88 l 3.73,1.8 z m 5189.77,0 434.9,-0.02 -431.1,-378.95 -1.6,-4.17 52.1,-400.45 -466.2,-0.01 -25.8,348.08 c -0.1,2.12 -1.6,3.87 -3.7,4.3 -0.3,0.07 -0.7,0.1 -1,0.1 -1.7,0 -3.3,-0.95 -4.2,-2.54 l -184.2,-349.98 -473.8,0.04 418.1,783.6 473.9,-0.02 -189.9,-354.21 c -1.1,-2.03 -0.6,-4.56 1.3,-5.98 0.8,-0.67 1.8,-1 2.9,-1 1.1,0 2.3,0.41 3.2,1.24 z m -3727.48,0 434.51,-0.02 -624.49,-537.75 -1.07,-1.36 -132.19,-246.97 -0.57,-2.24 v -3.97 l -498.7,-0.01 137.17,257.39 0.54,2.53 -34.46,532.4 474.68,-0.02 -9.09,-241.44 c -0.08,-1.94 1.05,-3.73 2.83,-4.52 0.61,-0.26 1.27,-0.4 1.9,-0.4 1.24,0 2.44,0.48 3.36,1.4 z m 1745.88,-8.73 736.9,-0.01 c 97.2,0 165.6,-17.4 199.5,-51.34 25.8,-25.76 42.7,-59.33 42.7,-111.43 0,-77.74 -26.3,-147.21 -78.1,-198.94 v -0.04 c -25.6,-26.22 -51.8,-43.29 -86.9,-61.14 -34.7,-17.06 -68.9,-25.65 -122.1,-34.33 -2.2,-0.37 -3.9,-2.27 -3.9,-4.54 -0.1,-2.26 1.5,-4.27 3.7,-4.77 78.4,-17.79 111.1,-51.98 111.1,-101.49 0,-25.15 -8.5,-59.76 -26.2,-94.65 v -0.02 l -60.2,-120.88 -474,-0.01 76,152.04 v -0.01 c 8.6,17.12 17.9,36.14 17.9,54.85 0,38.52 -20,57.48 -66.2,57.49 l -70.8,-0.01 -4.1,-2.46 -140.9,-255.62 -0.6,-2.3 v -3.97 l -472,-0.01 z m -778.5,35.38 c 184.5,0 316,-26.63 394.6,-61.05 77.9,-34.65 111.9,-85.83 111.9,-163.17 0,-61.09 -17.7,-121.83 -52.9,-201.03 -52.6,-113.76 -113.7,-201.39 -166,-254.23 v 0 c -104.9,-95.55 -279.6,-148.16 -534.61,-148.16 -184.56,0 -316.01,26.63 -394.58,61.03 h -0.02 c -77.28,34.66 -111.36,85.82 -111.36,163.2 0,61.1 17.05,121.82 52.28,200.96 52.36,113.36 113.95,192.3 166.52,254.14 h -0.04 c 104.16,95.64 278.94,148.31 534.21,148.31 z M 8984.29,5904.7 l 2756.41,-0.01 -286.2,-554.56 -658,-0.01 -4.2,-2.52 -825.91,-1546.08 c -113.04,78.49 -235.2,156.92 -365.92,226.27 l -0.09,0.05 c -262.35,131.17 -524.55,201.89 -743.82,246.08 h -0.16 l 569.81,1078.54 c 0.78,1.46 0.73,3.24 -0.13,4.66 -0.86,1.42 -2.4,2.29 -4.07,2.29 l -723.82,-0.01 z m -2802.48,0 2571.41,-0.01 -286.02,-536.56 -1318.93,-0.01 -4.13,-2.4 -149.53,-264.35 c -0.83,-1.48 -0.81,-3.27 0.05,-4.73 0.84,-1.47 2.4,-2.35 4.08,-2.35 l 1322.55,-0.01 -276.68,-519.22 H 6716.39 l -4.16,-2.48 -149.57,-273.05 c -0.81,-1.48 -0.77,-3.27 0.08,-4.7 0.86,-1.45 2.41,-2.33 4.09,-2.33 l 1358.28,-0.01 -4.33,-9 h -0.17 c -220.29,-35.62 -492.77,-114.53 -765.81,-255.73 h -0.05 l -0.07,-0.01 C 6988.1,3939.81 6838.1,3843.16 6706.13,3746.6 H 5032.65 Z m 7011.29,52.76 c 891.9,0 1203.1,-141.5 1220.3,-462.16 -0.1,-113.03 -17,-199.91 -59.9,-303.4 h -0.2 l -1055.2,-0.02 c 24.4,50.02 41.2,93.65 41.2,153.49 0,84.15 -93.1,136.93 -251.7,136.93 -194.1,0 -295.8,-79.21 -295.8,-171.7 0,-75.63 95,-111.47 550.4,-216.2 v 0 c 458.4,-106.23 621.9,-211.07 621.9,-453.98 0,-209.59 -87.5,-411.33 -263,-586.8 -219,-218.96 -543.2,-359.76 -1362.5,-359.76 -970.7,0 -1246.3,158.8 -1246.3,488.58 0,95.11 25.4,190.48 77.1,303.68 h 0.2 l 1073.9,-0.01 h -0.2 c -25.2,-58.93 -41.6,-111.33 -41.6,-171.49 0,-92.68 84,-145.59 251.7,-145.59 185.4,0 295.2,70.55 295.2,189.64 0,110.28 -103.4,137.55 -585.1,260.29 v 0.02 c -458.3,114.24 -586.5,201.63 -586.5,444.65 0,166.04 87.4,367.18 253.6,534.02 236.9,236.93 561.1,359.81 1362.5,359.81 z m -8562.02,-52.76 1319.78,-0.01 -604.52,-1164.68 -0.01,-0.02 c -166.91,-326.34 -272.75,-502.01 -448.44,-677.7 -254.33,-254.33 -675.35,-386.43 -1309.72,-386.43 -881.75,0 -1237.64,211.78 -1237.64,603.37 0,201.93 43.73,341.97 166.97,561.79 l 0.04,0.08 139.52,261.85 1126.18,-0.01 -278.11,-530.43 c -35.51,-62.41 -62.6,-141.99 -62.6,-196.45 0,-81.44 46.17,-136.92 145.64,-136.92 144.55,0 224.57,100.07 321.9,284.89 l 0.01,0.03 z M 8399.93,4195.08 c 237.15,0 721.01,-61.34 1143.35,-281.2 466.42,-246.85 764.62,-536.45 834.82,-772.81 h -0.2 v -23.14 l -50.8,-67.41 c -316.4,26.56 -623.8,35.19 -940,43.85 h -0.14 c -95.67,8.61 -191.28,8.72 -287.28,8.72 h -0.18 c -7.98,40.87 -15.88,88.97 -23.85,137.52 l -1.42,8.68 -2.63,3.51 c -17.29,8.33 -25.52,16.53 -34.09,25.13 l -3.36,1.39 c -35.67,0 -70.08,0.07 -95.19,9.01 -0.52,0.19 -1.07,0.27 -1.6,0.27 -0.96,0 -1.93,-0.28 -2.74,-0.86 -1.25,-0.88 -2.01,-2.33 -2.01,-3.88 0,-6.78 -6.65,-14.01 -16.5,-23.19 l -1.43,-4.23 c 26.59,-167.06 26.59,-324.8 0,-491.83 l -0.07,-0.75 c 0,-11.1 11.28,-21.95 19.24,-29.96 h 0.01 l 0.15,-0.15 3.35,-1.39 96.79,0.05 2.13,0.49 c 17.69,8.87 27.38,18.39 36.02,27.03 h -0.12 l 1.77,2.2 c 17.09,43.38 25.86,94.89 26.37,146.52 h -0.18 c 47.42,0.13 94.57,2.25 141.64,4.37 48.47,2.17 96.6,4.35 144.85,4.35 h 0.25 l 0.16,0.01 h -0.01 c 300.49,8.79 592.38,24.84 891.97,41.28 l 48.2,2.64 50.3,-57.88 h -0.2 c -71.6,-235.26 -369.4,-524.26 -834.05,-770.18 C 9120.92,1913.4 8645.78,1852.04 8399.96,1852 l -9.28,0.04 h -0.03 c -237.21,0 -721.02,52.66 -1143.29,281.17 l -0.03,0.03 c -464.72,245.93 -762.45,534.95 -834.02,770.21 h -0.15 l 50.15,57.78 h 0.15 c 310.71,-25.44 612.99,-34.3 923.22,-43.36 l 17.13,-0.5 h -0.02 c 104.29,-8.62 217.92,-8.72 322.16,-8.77 h -0.16 c 3.36,-19.05 6.53,-36.32 9.8,-54.14 3.37,-18.38 6.57,-35.8 9.86,-54.51 2.1,-11.81 4.23,-24.28 6.29,-36.85 l 2.56,-3.47 c 16.69,-8.37 25.51,-17.19 34.16,-25.87 l 3.36,-1.4 96.79,0.05 c 2.61,0 4.75,2.12 4.75,4.74 0,6.32 6.72,14.09 15.99,23.36 l 1.34,4.09 c -25.99,167.02 -25.99,324.79 0,491.87 l 0.05,0.72 c 0,10.2 -9.07,19.7 -16.48,27.56 0,0 -1.34,1.42 -2.2,2.32 l -3.45,1.49 -96.79,0.04 -2.19,-0.51 c -18.66,-9.63 -27.77,-18.75 -36.56,-27.55 l -1.15,-1.86 c -16.97,-51.48 -26.34,-94.97 -26.89,-146.31 h -0.16 c -51.29,-0.14 -104.97,-2.41 -158.22,-4.65 -55.18,-2.32 -109.97,-4.63 -162.7,-4.63 h -0.13 c -316.22,-8.7 -624.1,-25.97 -940.24,-43.92 l -50.86,67.43 v 14.61 h -0.15 c 70.25,236.33 368.4,525.86 834.73,772.67 422.35,219.86 906.21,281.2 1143.35,281.2 z m -18.01,5349.98 -17.34,-0.07 -17.99,0.06 C 7227.11,9545.05 5367.16,9253.91 3788.88,8425.02 1999.7,7491.02 773.698,6371.39 490.747,5417.45 l -0.096,-0.42 c -26.149,-132.58 -35.43,-273.76 -35.43,-414.84 0,-141.66 9.281,-282.89 35.43,-415.46 l 0.096,-0.44 C 773.698,3632.97 2009,2512.72 3788.88,1578.74 l 0.01,-0.01 C 5375.81,749.861 7253.7,459.326 8373.18,459.326 h 0.07 l 17.38,-0.07 h 0.03 l 18.01,0.056 h -0.02 c 1119.42,0 2979.45,290.535 4557.65,1119.428 h 0.1 c 1780.4,942.69 3015.7,2062.95 3298,3007.55 l 0.2,0.43 c 26.7,132.58 35.4,273.84 35.4,415.47 0,141.27 -18,282.45 -44.2,414.84 v 0.42 c -283,953.94 -1518.3,2073.59 -3298.2,3007.57 v 0 C 11379.4,9253.91 9519.4,9545.05 8399.93,9545.05 h -3.62 c -2.75,0 -6.85,0 -14.38,0.01 z" /></g><g
         transform="scale(1.76012)"
         id="g34"><path
           id="path36"
           style="fill:#125740;fill-opacity:1;fill-rule:nonzero;stroke:none"
           d="m 16198.3,11699.2 c -42.5,0 -86.1,-15.1 -114.5,-43.6 v 0 c -43.5,-28.3 -71.7,-71.8 -100.9,-129.2 l -171.3,-328.4 0.9,-0.3 -0.9,0.3 c -28.2,-57.4 -43.4,-100.9 -43.4,-115.3 0,-58.1 29.7,-86.5 101.7,-86.5 57.5,0 100.1,14.1 129.5,42.5 v 0.1 c 28.4,29.3 56.7,71.7 85.9,129.1 l 171.2,329.5 c 29.3,42.4 43.5,85.8 43.5,114.3 0,58 -29.7,87.5 -101.7,87.5 z" /></g><g
         transform="scale(1.43098)"
         id="g38"><path
           id="path40"
           style="fill:#125740;fill-opacity:1;fill-rule:nonzero;stroke:none"
           d="m 16052.6,6558.89 -0.7,-0.27 c -17.2,-18.43 -34.8,-36.04 -52,-53.26 l -0.2,-0.52 c -36,-334.67 -36,-669.34 0,-1002.78 l 0.2,-0.49 0.1,-0.08 v -0.03 c 17.2,-18.38 34.7,-36.03 52,-53.26 l 0.6,-0.25 194.5,0.09 0.6,0.24 c 17.4,17.25 34.8,34.8 52.1,53.29 l 0.2,0.63 c -17.3,333.43 -17.3,667.86 0,1002.51 l -0.2,0.65 -0.6,0.52 c -17.3,17.33 -34,34.17 -51.5,52.74 l -0.6,0.27 z" /></g><g
         transform="scale(1.48504)"
         id="g42"><path
           id="path44"
           style="fill:#125740;fill-opacity:1;fill-rule:nonzero;stroke:none"
           d="m 16044.9,6320 -0.5,-0.2 c -16.4,-17.55 -33.7,-34.94 -50.2,-51.32 l -0.2,-0.54 v -966.08 l 0.2,-0.53 c 16.7,-17.81 33.5,-34.7 50.2,-51.42 l 0.5,-0.21 186.3,0.07 0.6,0.22 c 17.9,16.78 34.5,33.4 51.3,51.34 l 0.2,0.47 c 16.7,321.34 16.7,643.69 0,966.17 l -0.2,0.51 -51.3,51.32 -0.6,0.2 z" /></g><g
         transform="scale(1.53912)"
         id="g46"><path
           id="path48"
           style="fill:#125740;fill-opacity:1;fill-rule:nonzero;stroke:none"
           d="m 16037.8,6097.97 -0.6,-0.2 c -16,-17.16 -32.3,-33.48 -49.5,-49.52 l -0.2,-0.55 c 17.3,-311.16 17.3,-622.04 0,-932.08 l 0.2,-0.53 c 1.4,-1.35 8.9,-8.89 8.9,-8.89 12.8,-12.79 28.6,-28.6 40.6,-40.73 l 0.6,-0.2 179.7,0.07 0.5,0.22 c 5.2,5.24 9.9,9.78 15.3,15.06 5.1,5.02 10.6,10.37 15.8,15.51 6.5,6.44 12.2,12.25 18.5,18.96 l 0.2,0.43 c 32.2,310.01 32.2,621.14 0,932.3 l -0.2,0.43 c -5,4.92 -10.3,10.13 -15.4,15.08 -5.4,5.27 -10.3,10.15 -15.8,15.53 -6,6.01 -12.5,12.67 -18.4,18.91 l -0.5,0.2 z" /></g></g></g></svg>