<?xml version="1.0" encoding="UTF-8" standalone="no"?>
<svg xmlns:rdf="http://www.w3.org/1999/02/22-rdf-syntax-ns#" xmlns="http://www.w3.org/2000/svg" xml:space="preserve" height="148.02" viewBox="0 0 190.89259 148.01559" width="190.89" version="1.1" xmlns:cc="http://creativecommons.org/ns#" xmlns:dc="http://purl.org/dc/elements/1.1/"><g transform="matrix(1.25 0 0 -1.25 -286.34 564.06)"><g style="" transform="matrix(.25 0 0 .25 229.07 294.03)"><path d="m610.83 256.15-0.2509 368.66h-102.23v-214.6c0-2.5885-0.0501-5.1669-0.1805-7.6952-0.0402-1.0033-0.1004-1.9865-0.1806-2.9697-0.9933-7.8055-5.7187-14.467-12.441-18.33-3.9228-2.2473-8.4677-3.5616-13.344-3.5616-14.076 0-26.005 10.745-25.955 24.079l0.1304 223.08h-141.22v-83.573h26.045c7.0029 0 12.671-5.6886 12.671-12.702v-163.42c1.6755-26.908 17.658-51.518 37.974-63.056 20.447-16.173 70.049-23.577 96.836-14.126 0 0 12.37 3.8927 19.333 8.5379v-20.738c0-4.9462-0.3813-8.0363-1.7257-11.889-3.4011-7.3339-10.866-11.186-22.714-11.478l-436.83 0.0201v-97.178h473.46c14.407 0.7424 27.971 2.3678 39.379 5.5883 15.591 4.7656 51.278 21.49 51.278 74.353 0 0.7725-0.0101 20.216-0.0301 20.999" fill="#a71930"/><path d="m398.8 314.32 0.933-0.5418 0.8528-0.6521c16.885-13.354 61.31-19.704 83.382-11.889l0.4515 0.1305c4.0633 1.2942 11.939 4.2739 15.741 6.8423l21.942 14.678v-47.154c0-5.7689-0.4213-10.575-2.5182-16.554l-0.2107-0.6421-0.311-0.6321c-4.0131-8.6583-13.364-19.102-35.496-19.644h-422.73v-68.955c26.477-0.0502 457.96 0 458.89 0 13.243 0.6922 25.684 2.147 35.717 4.9562 15.42 4.7355 41.305 18.942 41.305 60.889 0 0-0.2408 349.48-0.2609 375.56h-74.052v-200.5l-0.1806-8.4075-0.2408-3.6118-0.0602-0.4013c-1.4848-11.909-8.7586-22.674-19.393-28.814-6.1903-3.5516-13.233-5.4277-20.367-5.4277-10.896 0-21.5 4.3442-29.075 11.969-7.0832 7.1132-10.996 16.384-10.996 26.095 0 0.0401 0.1304 184.34 0.1404 209.09h-113.01v-55.371h11.939c14.768 0 26.778-12.029 26.778-26.798v-107.43-55.361c1.3745-21.069 13.735-41.716 30.831-51.428" fill="#0b2265"/><path d="m310.13 371.58c-7.0029 0-12.692 5.6685-12.692 12.681v1.7558c-0.01 0.1806-0.02 0.3411-0.02 0.5317 0.01 2.9497 0.01 5.9796 0.02 9.0295v60.959c-0.01 7.3741-0.02 11.939-0.02 11.939l0.02 19.173v72.447c-0.1404 2.1169-0.4916 5.3274-1.3343 9.2-1.4548 6.6016-4.3342 15.119-10.103 23.547-12.039 17.557-27.339 27.129-47.927 32.496-32.596 8.2369-67.661 1.7457-91.489-16.474v15.952h-146.56l-0.03-83.82h34.101c7.023 0 12.702-5.6987 12.702-12.702v-237.77h99.836v222.17l0.01 2.3376h0.0101c0.01 13.304 11.277 24.099 25.192 24.099 13.705 0 24.841-10.514 25.142-23.587v-181.21c0-5.2973 1.0032-10.334 2.7389-15.009 6.11-16.434 21.862-28.152 40.402-28.152h93.666v80.393l-1.9665 0.01h-21.701" fill="#a71930"/><path d="m283.35 384.26v1.4046c-0.0101 0.301-0.0201 0.602-0.0201 0.602l0.0201 9.3104v60.929s-0.0201 11.919-0.0201 11.999l0.0201 19.142v71.704c-0.1004 0.6321-1.0033 6.9126-1.0033 6.9126-1.5049 6.8123-4.1837 13.063-7.9761 18.591-9.6214 14.036-21.55 22.062-39.74 26.808-28.363 7.1734-58.802 1.7858-79.47-14.006l-22.654-17.347v30.399h-118.39c0-15.571-0.01003-40.051-0.01003-55.612h19.995c14.778 0 26.788-12.019 26.788-26.798v-223.66h71.644v208.14s0.01 2.3477 0.0301 2.2574c0.0201 21.059 17.628 38.195 39.288 38.195 21.169 0 38.777-16.765 39.248-37.683v-181.21c0-3.3911 0.622-6.8022 1.856-10.093 4.2138-11.347 15.14-18.962 27.179-18.962h79.56v52.181h-9.5613c-14.768 0-26.788 12.029-26.788 26.798" fill="#0b2265"/></g></g></svg>
