<?xml version="1.0" encoding="UTF-8" standalone="no"?>
<svg
   xmlns:dc="http://purl.org/dc/elements/1.1/"
   xmlns:cc="http://creativecommons.org/ns#"
   xmlns:rdf="http://www.w3.org/1999/02/22-rdf-syntax-ns#"
   xmlns:svg="http://www.w3.org/2000/svg"
   xmlns="http://www.w3.org/2000/svg"
   xmlns:sodipodi="http://sodipodi.sourceforge.net/DTD/sodipodi-0.dtd"
   xmlns:inkscape="http://www.inkscape.org/namespaces/inkscape"
   version="1.1"
   id="svg51418"
   viewBox="0 0 300 300"
   height="300"
   width="300"
   inkscape:version="0.91 r13725"
   sodipodi:docname="New_York_Mets.svg">
  <sodipodi:namedview
     pagecolor="#ffffff"
     bordercolor="#666666"
     borderopacity="1"
     objecttolerance="10"
     gridtolerance="10"
     guidetolerance="10"
     inkscape:pageopacity="0"
     inkscape:pageshadow="2"
     inkscape:window-width="640"
     inkscape:window-height="480"
     id="namedview170"
     showgrid="false"
     inkscape:zoom="0.78666667"
     inkscape:cx="150"
     inkscape:cy="150"
     inkscape:window-x="0"
     inkscape:window-y="0"
     inkscape:window-maximized="0"
     inkscape:current-layer="g50920" />
  <defs
     id="defs51420">
    <clipPath
       id="clipPath51222"
       clipPathUnits="userSpaceOnUse">
      <path
         id="path51224"
         d="M 0,0 792,0 792,612 0,612 0,0 Z" />
    </clipPath>
    <clipPath
       id="clipPath51186"
       clipPathUnits="userSpaceOnUse">
      <path
         id="path51188"
         d="M 0,0 792,0 792,612 0,612 0,0 Z" />
    </clipPath>
    <clipPath
       id="clipPath50922"
       clipPathUnits="userSpaceOnUse">
      <path
         id="path50924"
         d="M 0,0 792,0 792,612 0,612 0,0 Z" />
    </clipPath>
  </defs>
  <metadata
     id="metadata51423">
    <rdf:RDF>
      <cc:Work
         rdf:about="">
        <dc:format>image/svg+xml</dc:format>
        <dc:type
           rdf:resource="http://purl.org/dc/dcmitype/StillImage" />
        <dc:title />
      </cc:Work>
    </rdf:RDF>
  </metadata>
  <g
     transform="translate(-474.04464,-409.74612)"
     id="layer1">
    <g
       id="g50918"
       transform="matrix(3.8954248,0,0,-3.8954248,-42.999724,2656.4593)">
      <g
         clip-path="url(#clipPath50922)"
         id="g50920">
        <g
           transform="translate(171.2387,501.0759)"
           id="g50926">
          <path
             id="path50928"
             style="fill:#ffffff;fill-opacity:1;fill-rule:nonzero;stroke:none"
             d="M 0,0 C 20.531,0 37.175,16.645 37.175,37.175 37.175,57.706 20.531,74.351 0,74.351 -20.532,74.351 -37.176,57.706 -37.176,37.175 -37.176,16.645 -20.532,0 0,0" />
        </g>
        <g
           transform="translate(132.9879,538.2512)"
           id="g50930">
          <path
             id="path50932"
             style="fill:#ff5910;fill-opacity:1;fill-rule:nonzero;stroke:none"
             d="M 0,0 C 0,-21.092 17.159,-38.251 38.251,-38.251 59.342,-38.251 76.5,-21.092 76.5,0 76.5,21.092 59.342,38.249 38.251,38.249 17.159,38.249 0,21.092 0,0 m 2.149,0 c 0,19.906 16.196,36.099 36.102,36.099 19.906,0 36.101,-16.193 36.101,-36.099 0,-19.906 -16.195,-36.101 -36.101,-36.101 C 18.345,-36.101 2.149,-19.906 2.149,0" />
        </g>
        <g
           transform="translate(207.0454,543.2967)"
           id="g50934">
          <path
             id="path50936"
             style="fill:#ff5910;fill-opacity:1;fill-rule:nonzero;stroke:none"
             d="m 0,0 c -0.226,-0.379 -0.688,-0.998 -0.688,-0.998 l -0.075,0.418 c 0.228,0.151 0.612,1.337 0.612,1.337 L 0,0 Z" />
        </g>
        <g
           transform="translate(206.7042,545.4167)"
           id="g50938">
          <path
             id="path50940"
             style="fill:#ff5910;fill-opacity:1;fill-rule:nonzero;stroke:none"
             d="m 0,0 c -0.416,-0.871 -0.914,-1.49 -0.914,-1.49 l -0.076,0.569 c 0.304,0.68 0.694,1.305 0.77,1.986 L 0,0 Z" />
        </g>
        <g
           transform="translate(205.9249,548.4652)"
           id="g50942">
          <path
             id="path50944"
             style="fill:#ff5910;fill-opacity:1;fill-rule:nonzero;stroke:none"
             d="m 0,0 c 0.009,-0.259 -0.103,-0.386 -0.224,-0.658 0.015,-0.455 -0.554,-1.723 -0.554,-1.723 l -0.341,0.947 c 0.19,0.416 0.496,0.869 0.356,1.503 0.312,0.293 0.37,1.234 0.37,1.234 L 0,0 Z" />
        </g>
        <g
           transform="translate(204.9254,551.4708)"
           id="g50946">
          <path
             id="path50948"
             style="fill:#ff5910;fill-opacity:1;fill-rule:nonzero;stroke:none"
             d="m 0,0 c -0.056,-0.25 -0.073,-0.584 -0.302,-0.884 0.009,-0.701 -0.479,-1.967 -0.651,-2.081 l -0.376,0.948 c 0.281,0.492 0.585,1.165 0.445,1.825 0.3,0.375 0.431,1.176 0.431,1.176 L 0,0 Z" />
        </g>
        <g
           transform="translate(203.6743,554.1633)"
           id="g50950">
          <path
             id="path50952"
             style="fill:#ff5910;fill-opacity:1;fill-rule:nonzero;stroke:none"
             d="m 0,0 c -0.028,-0.328 0.177,-0.839 -0.177,-1.098 0.052,-0.573 -0.302,-1.606 -0.772,-2.174 l -0.302,1.021 c 0.272,0.47 0.677,1.265 0.585,1.975 0.304,0.153 0.039,1.363 0.039,1.521 L 0,0 Z" />
        </g>
        <g
           transform="translate(202.1193,556.4157)"
           id="g50954">
          <path
             id="path50956"
             style="fill:#ff5910;fill-opacity:1;fill-rule:nonzero;stroke:none"
             d="m 0,0 c -0.028,-0.33 -0.121,-0.291 -0.211,-0.589 0.053,-0.573 -0.113,-1.68 -0.47,-2.4 L -1.4,-2.118 c 0.274,0.47 0.488,1.262 0.399,1.974 0.302,0.153 0.281,1.196 0.281,1.356 L 0,0 Z" />
        </g>
        <g
           transform="translate(199.3188,560.2771)"
           id="g50958">
          <path
             id="path50960"
             style="fill:#ff5910;fill-opacity:1;fill-rule:nonzero;stroke:none"
             d="m 0,0 c -0.114,-0.418 -0.453,-0.567 -0.794,-0.833 0.19,-0.832 0.566,-2.044 0.341,-3.254 l 0.831,-0.871 c 0.189,1.361 0.077,2.801 -0.151,3.52 0.265,0.189 0.53,0.605 0.53,0.605 L 0,0 Z" />
        </g>
        <g
           transform="translate(196.6319,562.5854)"
           id="g50962">
          <path
             id="path50964"
             style="fill:#ff5910;fill-opacity:1;fill-rule:nonzero;stroke:none"
             d="m 0,0 c -0.114,-0.418 -0.567,-0.569 -0.908,-0.833 0.378,-0.681 0.681,-2.195 0.53,-3.746 l 1.06,-0.757 c 0.075,2.345 -0.264,3.292 -0.643,4.01 0.416,0.267 0.643,0.644 0.643,0.644 L 0,0 Z" />
        </g>
        <g
           transform="translate(193.6058,564.5152)"
           id="g50966">
          <path
             id="path50968"
             style="fill:#ff5910;fill-opacity:1;fill-rule:nonzero;stroke:none"
             d="M 0,0 C -0.267,-0.53 -0.606,-0.492 -0.947,-0.757 -0.569,-1.438 0.149,-2.84 0,-4.391 L 1.057,-5.148 C 0.908,-2.724 0.641,-1.4 0.075,-1.249 0.49,-0.984 0.908,-0.53 0.908,-0.53 L 0,0 Z" />
        </g>
        <g
           transform="translate(190.7661,566.1802)"
           id="g50970">
          <path
             id="path50972"
             style="fill:#ff5910;fill-opacity:1;fill-rule:nonzero;stroke:none"
             d="m 0,0 c -0.265,-0.378 -0.945,-0.643 -1.287,-0.908 0.379,-0.682 1.099,-1.553 0.946,-3.105 l 1.212,-0.68 c -0.077,1.967 -0.53,3.218 -1.098,3.367 0.568,0.267 1.249,0.948 1.249,0.948 L 0,0 Z" />
        </g>
        <g
           transform="translate(187.7772,567.6178)"
           id="g50974">
          <path
             id="path50976"
             style="fill:#ff5910;fill-opacity:1;fill-rule:nonzero;stroke:none"
             d="m 0,0 c -0.265,-0.529 -0.945,-0.641 -1.288,-0.908 0.38,-0.681 1.061,-1.704 0.909,-3.256 l 1.211,-0.604 c -0.075,1.893 -0.53,3.179 -1.097,3.33 0.757,0.342 1.401,1.061 1.401,1.061 L 0,0 Z" />
        </g>
        <g
           transform="translate(184.2197,568.9416)"
           id="g50978">
          <path
             id="path50980"
             style="fill:#ff5910;fill-opacity:1;fill-rule:nonzero;stroke:none"
             d="m 0,0 c -0.265,-0.529 -0.947,-0.794 -1.287,-1.057 0.379,-0.683 0.983,-1.514 0.832,-3.067 l 1.136,-0.455 c -0.228,2.347 -0.455,2.953 -1.022,3.104 0.682,0.379 1.514,1.173 1.514,1.173 L 0,0 Z" />
        </g>
        <g
           transform="translate(180.8896,570.1163)"
           id="g50982">
          <path
             id="path50984"
             style="fill:#ff5910;fill-opacity:1;fill-rule:nonzero;stroke:none"
             d="m 0,0 c -0.265,-0.531 -0.947,-0.794 -1.288,-1.059 0.378,-0.683 1.061,-1.816 0.908,-3.369 L 0.794,-4.77 c -0.227,2.271 -0.492,3.256 -1.059,3.407 0.416,0.265 1.438,1.173 1.438,1.173 L 0,0 Z" />
        </g>
        <g
           transform="translate(177.332,571.0244)"
           id="g50986">
          <path
             id="path50988"
             style="fill:#ff5910;fill-opacity:1;fill-rule:nonzero;stroke:none"
             d="m 0,0 c -0.455,-0.53 -1.324,-0.947 -1.667,-1.212 0.381,-0.681 1.363,-1.779 1.212,-3.33 l 1.059,-0.151 c -0.302,2.498 -0.757,2.877 -1.324,3.028 0.416,0.265 1.967,1.477 1.967,1.477 L 0,0 Z" />
        </g>
        <g
           transform="translate(174.0765,571.7049)"
           id="g50990">
          <path
             id="path50992"
             style="fill:#ff5910;fill-opacity:1;fill-rule:nonzero;stroke:none"
             d="m 0,0 c -0.794,-0.908 -1.514,-1.249 -1.853,-1.514 0.604,-0.302 1.096,-1.324 0.945,-2.875 l 1.212,-0.302 c -0.077,1.967 -0.531,2.724 -1.098,2.875 0.415,0.265 2.043,1.704 2.043,1.704 L 0,0 Z" />
        </g>
        <g
           transform="translate(169.2324,572.1599)"
           id="g50994">
          <path
             id="path50996"
             style="fill:#ff5910;fill-opacity:1;fill-rule:nonzero;stroke:none"
             d="m 0,0 c -0.19,-0.455 -1.589,-1.324 -1.93,-1.59 0.065,-0.053 0.286,-0.124 0.472,-0.275 0.336,-0.272 0.811,-1.057 0.778,-2.772 l 1.059,-0.075 c -0.056,1.967 -0.549,2.596 -0.743,2.756 -0.139,0.153 -0.44,0.177 -0.581,0.215 0.798,0.317 2.043,1.627 2.043,1.627 L 0,0 Z" />
        </g>
        <g
           transform="translate(162.08,572.0089)"
           id="g50998">
          <path
             id="path51000"
             style="fill:#ff5910;fill-opacity:1;fill-rule:nonzero;stroke:none"
             d="m 0,0 c -0.114,-0.606 -0.455,-1.363 -0.794,-1.628 0.378,-0.68 0.378,-1.665 -0.228,-2.914 l 1.136,0.074 c 0.606,1.516 0.455,2.272 0.113,2.803 0.416,0.265 0.908,1.777 0.908,1.777 L 0,0 Z" />
        </g>
        <g
           transform="translate(165.5238,572.0834)"
           id="g51002">
          <path
             id="path51004"
             style="fill:#ff5910;fill-opacity:1;fill-rule:nonzero;stroke:none"
             d="m 0,0 c -0.265,-0.53 -0.984,-1.324 -1.324,-1.589 0.358,-0.151 0.643,-0.492 0.567,-2.953 l 1.193,0.076 C 0.358,-1.74 -0.151,-1.74 -0.339,-1.74 0.076,-1.475 1.326,0.19 1.326,0.19 L 0,0 Z" />
        </g>
        <g
           transform="translate(158.9401,571.4028)"
           id="g51006">
          <path
             id="path51008"
             style="fill:#ff5910;fill-opacity:1;fill-rule:nonzero;stroke:none"
             d="m 0,0 c -0.153,-0.681 -0.455,-1.135 -0.796,-1.4 0.362,-0.121 0.184,-0.56 -0.047,-1.132 -0.203,-0.509 -0.462,-0.893 -0.747,-1.479 l 1.135,0.075 c 0.757,1.287 1.324,2.536 0.757,2.687 0.416,0.265 0.945,1.59 0.945,1.59 L 0,0 Z" />
        </g>
        <g
           transform="translate(156.1601,570.8416)"
           id="g51010">
          <path
             id="path51012"
             style="fill:#ff5910;fill-opacity:1;fill-rule:nonzero;stroke:none"
             d="m 0,0 c -0.201,-0.55 -0.496,-0.981 -0.871,-1.257 0.099,-0.589 -0.106,-1.118 -0.966,-2.42 l 1.065,0.136 c 1.039,1.337 0.947,1.965 0.936,2.424 0.448,0.272 0.968,1.33 0.968,1.33 L 0,0 Z" />
        </g>
        <g
           transform="translate(152.8319,569.2922)"
           id="g51014">
          <path
             id="path51016"
             style="fill:#ff5910;fill-opacity:1;fill-rule:nonzero;stroke:none"
             d="m 0,0 c -0.975,-1.15 -1.104,-1.889 -1.46,-2.733 l 1.141,0.289 c 0.205,0.73 0.763,2.241 1.811,3.305 L 0,0 Z" />
        </g>
        <g
           transform="translate(139.8271,553.0109)"
           id="g51018">
          <path
             id="path51020"
             style="fill:#ff5910;fill-opacity:1;fill-rule:nonzero;stroke:none"
             d="M 0,0 0.764,-0.214 C 0.536,-1.124 0,-2.347 0.379,-3.634 -0.378,-4.24 -1.018,-5.06 -1.095,-5.892 l -0.598,0.379 c 0.378,1.135 0.861,1.501 1.466,2.107 C -0.454,-2.498 -0.604,-1.288 0,0" />
        </g>
        <g
           transform="translate(138.3085,553.2608)"
           id="g51022">
          <path
             id="path51024"
             style="fill:#ff5910;fill-opacity:1;fill-rule:nonzero;stroke:none"
             d="M 0,0 0.501,-0.127 C 0.274,-1.037 -0.297,-1.764 0.081,-3.05 -0.448,-3.656 -1.082,-4.682 -1.241,-5.472 l -0.494,0.302 c 0.255,0.971 0.681,1.665 1.287,2.271 C -0.675,-1.991 -0.606,-1.286 0,0" />
        </g>
        <g
           transform="translate(141.7206,552.4814)"
           id="g51026">
          <path
             id="path51028"
             style="fill:#ff5910;fill-opacity:1;fill-rule:nonzero;stroke:none"
             d="M 0,0 0.874,-0.337 C 0.646,-1.247 0.227,-2.65 0.604,-3.938 -0.228,-4.164 -1.019,-5.286 -1.322,-6.119 l -0.75,0.384 c 0.377,1.135 1.239,1.571 1.844,2.176 C -0.455,-2.65 -0.407,-1.378 0,0" />
        </g>
        <g
           transform="translate(150.6895,568.1473)"
           id="g51030">
          <path
             id="path51032"
             style="fill:#ff5910;fill-opacity:1;fill-rule:nonzero;stroke:none"
             d="m 0,0 c -0.682,-0.681 -1.704,-2.383 -1.704,-2.383 l -0.529,-0.341 c 0.226,0.757 0.984,1.93 0.984,1.93 L 0,0 Z" />
        </g>
        <g
           transform="translate(139.1839,533.7465)"
           id="g51034">
          <path
             id="path51036"
             style="fill:#002d72;fill-opacity:1;fill-rule:nonzero;stroke:none"
             d="m 0,0 0,5.45 -0.265,0 -0.682,5.931 -0.34,0.011 -0.717,-5.942 -0.417,0 0,-4.352 -0.871,0 c 0,0 -0.543,-0.458 -0.516,-0.688 2.016,-18.03 17.292,-32.048 35.859,-32.048 17.532,0 32.149,12.497 35.423,29.067 l -0.375,0.869 -1.667,0 0,3.634 -1.816,0 0,-2.12 -1.512,0 0,19.376 -4.238,0 0,-9.839 -3.181,0 0,11.504 -0.575,0.496 0,1.363 -1.241,0.563 0,1.66 -2.072,0 0,-1.66 -1.24,-0.563 0,-1.363 -0.576,-0.496 0,-2.271 -3.076,0 0,6.66 -2.572,0 0,3.179 -1.666,0 0,1.667 -3.784,0 0,-1.667 -1.363,0 0,-5.297 -2.052,0 0,6.177 -0.784,0.528 0,2.65 -1.208,0.908 0,3.688 -0.451,0.529 -0.185,1.772 -0.251,0 -0.224,-1.772 -0.487,-0.529 0,-3.688 -1.21,-0.908 0,-2.65 -0.783,-0.528 0,-5.377 -3.416,0 0,4.195 -4.995,0 0,-4.087 -1.059,-0.455 0,-7.417 -3.632,0 0,6.207 -0.38,0.379 0,3.255 -0.379,0 -1.04,3.992 -1.08,-3.992 -0.377,0 0,-3.255 -0.378,-0.379 0,-6.751 -4.012,0 0,4.993 c 0,0.68 -0.984,0.699 -0.984,0.699 l 0,1.216 L 6.321,22.751 6.245,23.275 6.018,23.35 5.79,23.275 5.716,22.751 4.882,22.524 l 0,-1.216 c 0,0 -0.983,0.058 -0.983,-0.776 l 0,-6.505 -1.59,-1.046 0,-3.86 L 1.703,8.78 1.703,5.829 1.135,5.489 1.135,0 1.023,0 0,0 Z" />
        </g>
        <g
           transform="translate(153.1526,562.8353)"
           id="g51038">
          <path
             id="path51040"
             style="fill:#002d72;fill-opacity:1;fill-rule:nonzero;stroke:none"
             d="M 0,0 C 0.119,0 0.214,0.418 0.214,0.936 0.214,1.452 0.119,1.654 0,1.654 -0.117,1.654 -0.214,1.452 -0.214,0.936 -0.214,0.418 -0.117,0 0,0" />
        </g>
        <g
           transform="translate(143.9906,547.766)"
           id="g51046">
          <path
             id="path51048"
             style="fill:#ff5910;fill-opacity:1;fill-rule:nonzero;stroke:none"
             d="M 0,0 C -0.151,1.512 -0.343,2.491 0.111,3.778 L 0.984,3.33 C 0.756,2.42 0.531,0.832 0.909,-0.455 L 0,0 Z" />
        </g>
        <g
           transform="translate(145.1262,547.1824)"
           id="g51050">
          <path
             id="path51052"
             style="fill:#ff5910;fill-opacity:1;fill-rule:nonzero;stroke:none"
             d="m 0,0 c -0.833,-0.227 -2.119,-1.286 -2.422,-2.118 l -0.757,0.604 c 0.377,1.136 1.589,1.438 2.194,2.044 L 0,0 Z" />
        </g>
        <g
           transform="translate(145.9578,546.6696)"
           id="g51054">
          <path
             id="path51056"
             style="fill:#ff5910;fill-opacity:1;fill-rule:nonzero;stroke:none"
             d="M 0,0 C -0.047,1.104 -0.04,2.333 0.565,3.621 L 1.363,3.138 C 1.135,2.228 0.537,0.714 0.833,-0.531 L 0,0 Z" />
        </g>
        <g
           transform="translate(147.0187,545.9704)"
           id="g51058">
          <path
             id="path51060"
             style="fill:#ff5910;fill-opacity:1;fill-rule:nonzero;stroke:none"
             d="m 0,0 c -0.833,-0.226 -2.196,-1.361 -2.498,-2.195 l -0.758,0.606 c 0.379,1.136 1.287,1.363 2.423,2.119 L 0,0 Z" />
        </g>
        <g
           transform="translate(148.3798,544.9114)"
           id="g51062">
          <path
             id="path51064"
             style="fill:#ff5910;fill-opacity:1;fill-rule:nonzero;stroke:none"
             d="M 0,0 C -0.453,0.228 0.227,2.338 0.758,3.563 L 1.555,2.877 C 1.253,2.044 0.53,0.453 0.606,-0.757 L 0,0 Z" />
        </g>
        <g
           transform="translate(149.2127,543.8523)"
           id="g51066">
          <path
             id="path51068"
             style="fill:#ff5910;fill-opacity:1;fill-rule:nonzero;stroke:none"
             d="m 0,0 c -1.438,-0.378 -2.766,-1.025 -2.904,-1.613 l -0.716,0.647 c 0.215,0.89 2.032,1.345 3.015,1.723 L 0,0 Z" />
        </g>
        <g
           transform="translate(150.4993,542.7168)"
           id="g51070">
          <path
             id="path51072"
             style="fill:#ff5910;fill-opacity:1;fill-rule:nonzero;stroke:none"
             d="M 0,0 C -0.228,0.984 0.117,2.016 0.798,3.983 L 1.589,3.179 C 1.287,2.347 0.606,0.604 0.759,-0.833 L 0,0 Z" />
        </g>
        <g
           transform="translate(151.4838,541.6559)"
           id="g51074">
          <path
             id="path51076"
             style="fill:#ff5910;fill-opacity:1;fill-rule:nonzero;stroke:none"
             d="m 0,0 c -1.059,-0.151 -2.649,-0.983 -3.179,-1.74 l -0.593,0.811 c 0.681,1.059 2.411,1.535 3.015,1.762 L 0,0 Z" />
        </g>
        <g
           transform="translate(152.6938,539.7652)"
           id="g51078">
          <path
             id="path51080"
             style="fill:#ff5910;fill-opacity:1;fill-rule:nonzero;stroke:none"
             d="M 0,0 C -0.075,0.908 0.77,2.452 1.596,3.645 L 2.277,2.655 C 1.596,1.898 0.681,0.377 0.759,-0.833 L 0,0 Z" />
        </g>
        <g
           transform="translate(151.2433,535.4451)"
           id="g51082">
          <path
             id="path51084"
             style="fill:#ff5910;fill-opacity:1;fill-rule:nonzero;stroke:none"
             d="m 0,0 0.164,0.082 c 0.759,0.379 1.591,0.606 2.12,0.755 L 2.21,-0.108 C 1.536,-0.213 0.832,-0.459 0.336,-0.796 L 0,0 Z" />
        </g>
        <g
           transform="translate(153.6784,538.7043)"
           id="g51086">
          <path
             id="path51088"
             style="fill:#ff5910;fill-opacity:1;fill-rule:nonzero;stroke:none"
             d="m 0,0 c -1.059,-0.151 -2.989,-0.528 -3.518,-1.286 l -0.675,0.99 c 1.059,0.833 1.885,0.788 3.436,1.129 L 0,0 Z" />
        </g>
        <g
           transform="translate(162.686,525.3094)"
           id="g51090">
          <path
             id="path51092"
             style="fill:#ff5910;fill-opacity:1;fill-rule:nonzero;stroke:none"
             d="M 0,0 0.53,-0.833 C 0.302,-1.363 0.302,-2.271 0.302,-2.271 l -0.604,0.755 C -0.455,-0.91 -0.228,-0.608 0,0" />
        </g>
        <g
           transform="translate(159.7344,522.5834)"
           id="g51094">
          <path
             id="path51096"
             style="fill:#ff5910;fill-opacity:1;fill-rule:nonzero;stroke:none"
             d="M 0,0 C 0.606,0 2.724,0.075 3.481,-0.153 L 3.026,0.757 C 2.118,0.908 1.514,0.871 0.606,0.794 L 0,0 Z" />
        </g>
        <g
           transform="translate(164.3529,520.3851)"
           id="g51098">
          <path
             id="path51100"
             style="fill:#ff5910;fill-opacity:1;fill-rule:nonzero;stroke:none"
             d="m 0,0 c -0.007,0.503 0.839,1.609 1.553,2.39 0,0 0.768,-0.154 1.261,-0.031 C 2.157,1.622 1.495,0.914 1.128,0.423 0.759,-0.069 0.66,-0.606 0.824,-1.016 L 0,0 Z" />
        </g>
        <g
           transform="translate(165.4623,519.0427)"
           id="g51102">
          <path
             id="path51104"
             style="fill:#ff5910;fill-opacity:1;fill-rule:nonzero;stroke:none"
             d="m 0,0 c -0.755,0.151 -3.487,0.11 -4.244,0.034 l -0.548,0.874 c 1.44,0.151 3.366,0.259 3.97,0.106 L 0,0 Z" />
        </g>
        <g
           transform="translate(168.6712,520.7729)"
           id="g51106">
          <path
             id="path51108"
             style="fill:#ff5910;fill-opacity:1;fill-rule:nonzero;stroke:none"
             d="m 0,0 0.628,-0.94 c -1.363,-1.383 -1.728,-2.116 -1.997,-2.549 -0.169,-0.272 0.506,-0.872 0.465,-0.831 -0.757,0.151 -3.957,0.035 -4.716,-0.041 l -0.716,1.023 c 1.44,0.153 4.197,0.004 4.74,-0.3 0.533,-0.3 0.039,0 0.039,0 L -2.09,-3.459 C -2.469,-2.551 -0.302,-0.455 0,0" />
        </g>
        <g
           transform="translate(170.7856,517.9183)"
           id="g51110">
          <path
             id="path51112"
             style="fill:#ff5910;fill-opacity:1;fill-rule:nonzero;stroke:none"
             d="M 0,0 0.563,-0.681 C 0.185,-1.287 -0.455,-1.995 -0.984,-2.373 l -0.834,0.378 C -1.061,-1.466 -0.076,-0.302 0,0" />
        </g>
        <g
           transform="translate(166.458,512.0246)"
           id="g51114">
          <path
             id="path51116"
             style="fill:#ff5910;fill-opacity:1;fill-rule:nonzero;stroke:none"
             d="m 0,0 0.694,-0.794 c 1.437,-0.077 3.102,0.076 4.314,0.376 L 4.553,0.151 C 2.888,-0.075 0.908,-0.151 0,0" />
        </g>
        <g
           transform="translate(168.2982,509.7889)"
           id="g51118">
          <path
             id="path51120"
             style="fill:#ff5910;fill-opacity:1;fill-rule:nonzero;stroke:none"
             d="m 0,0 0.768,-0.757 c 2.42,0.075 3.08,0.229 4.291,0.533 L 4.415,0.38 C 3.886,0.155 3.242,-0.036 0,0" />
        </g>
        <g
           transform="translate(170.366,507.7137)"
           id="g51122">
          <path
             id="path51124"
             style="fill:#ff5910;fill-opacity:1;fill-rule:nonzero;stroke:none"
             d="m 0,0 0.983,-0.681 c 1.363,-0.076 3.056,0.42 4.268,0.722 L 4.494,0.571 C 3.282,0.155 1.21,-0.151 0,0" />
        </g>
        <g
           transform="translate(173.0175,505.7764)"
           id="g51126">
          <path
             id="path51128"
             style="fill:#ff5910;fill-opacity:1;fill-rule:nonzero;stroke:none"
             d="m 0,0 0.876,-0.526 c 1.591,0.077 3.627,1.212 3.248,1.589 L 3.634,1.328 C 2.648,0.496 1.514,0.153 0,0" />
        </g>
        <g
           transform="translate(175.2679,504.5701)"
           id="g51130">
          <path
             id="path51132"
             style="fill:#ff5910;fill-opacity:1;fill-rule:nonzero;stroke:none"
             d="M 0,0 0.88,-0.296 C 3.226,0.157 4.07,1.286 3.539,1.361 L 3.237,1.589 C 2.935,1.21 2.499,0.529 0,0" />
        </g>
        <g
           transform="translate(177.429,503.7422)"
           id="g51134">
          <path
             id="path51136"
             style="fill:#ff5910;fill-opacity:1;fill-rule:nonzero;stroke:none"
             d="m 0,0 1.029,-0.22 c 1.3,0.151 2.696,1.426 2.241,1.577 L 2.817,1.508 C 2.426,0.994 1.783,0.407 0,0" />
        </g>
        <g
           transform="translate(174.7329,513.3017)"
           id="g51138">
          <path
             id="path51140"
             style="fill:#ff5910;fill-opacity:1;fill-rule:nonzero;stroke:none"
             d="M 0,0 0.621,-0.641 C 0.093,-1.475 -1.149,-2.64 -1.98,-3.093 l -0.606,0.529 C -1.602,-2.109 -0.379,-0.68 0,0" />
        </g>
        <g
           transform="translate(176.8137,511.3271)"
           id="g51142">
          <path
             id="path51144"
             style="fill:#ff5910;fill-opacity:1;fill-rule:nonzero;stroke:none"
             d="M 0,0 0.531,-0.61 C 0,-1.484 -1.046,-2.59 -1.878,-3.043 L -2.56,-2.59 C -1.576,-2.135 -0.296,-0.475 0,0" />
        </g>
        <g
           transform="translate(178.6502,509.5857)"
           id="g51146">
          <path
             id="path51148"
             style="fill:#ff5910;fill-opacity:1;fill-rule:nonzero;stroke:none"
             d="M 0,0 0.606,-0.53 C 0.075,-1.361 -0.979,-2.107 -1.81,-2.56 l -0.606,0.378 C -1.432,-1.728 -0.38,-0.681 0,0" />
        </g>
        <g
           transform="translate(180.4608,508.2171)"
           id="g51150">
          <path
             id="path51152"
             style="fill:#ff5910;fill-opacity:1;fill-rule:nonzero;stroke:none"
             d="M 0,0 0.604,-0.419 C 0.075,-1.251 -0.82,-1.797 -1.654,-2.252 l -0.68,0.382 C -1.35,-1.415 -0.379,-0.681 0,0" />
        </g>
        <g
           transform="translate(182.1723,507.1898)"
           id="g51154">
          <path
             id="path51156"
             style="fill:#ff5910;fill-opacity:1;fill-rule:nonzero;stroke:none"
             d="M 0,0 0.53,-0.302 C -0.302,-1.287 -0.867,-1.577 -1.7,-2.031 l -0.606,0.26 C -1.169,-1.316 -0.757,-0.908 0,0" />
        </g>
        <g
           transform="translate(183.7274,506.4029)"
           id="g51158">
          <path
             id="path51160"
             style="fill:#ff5910;fill-opacity:1;fill-rule:nonzero;stroke:none"
             d="m 0,0 0.53,-0.153 c -0.908,-0.982 -1.136,-1.21 -1.968,-1.663 l -0.531,0.224 C -0.984,-1.139 -0.529,-0.681 0,0" />
        </g>
        <g
           transform="translate(185.206,505.8286)"
           id="g51162">
          <path
             id="path51164"
             style="fill:#ff5910;fill-opacity:1;fill-rule:nonzero;stroke:none"
             d="M 0,0 0.488,-0.125 C -0.42,-1.108 -0.571,-1.031 -1.404,-1.486 L -2.387,-1.637 C -1.251,-1.182 -0.606,-0.608 0,0" />
        </g>
        <g
           transform="translate(182.0269,504.639)"
           id="g51166">
          <path
             id="path51168"
             style="fill:#ff5910;fill-opacity:1;fill-rule:nonzero;stroke:none"
             d="m 0,0 0.565,-0.22 -0.74,-0.71 -1.606,-0.485 C -0.763,-0.897 -0.297,-0.442 0,0" />
        </g>
      </g>
    </g>
    <g
       transform="matrix(3.8954248,0,0,-3.8954248,515.92203,658.32567)"
       id="g51170">
      <path
         id="path51172"
         style="fill:#ffffff;fill-opacity:1;fill-rule:nonzero;stroke:none"
         d="M 0,0 55.08,-0.075 55.082,1.59 0.003,1.665 0,0 Z" />
    </g>
    <path
       id="path51174"
       style="fill:#ffffff;fill-opacity:1;fill-rule:nonzero;stroke:none"
       d="m 737.57716,642.73889 6.48588,0 0,-28.57294 -6.48588,0 0,28.57294 z" />
    <path
       id="path51176"
       style="fill:#ffffff;fill-opacity:1;fill-rule:nonzero;stroke:none"
       d="m 504.43988,644.48015 6.48588,0 0,-28.39765 -6.48588,0 0,28.39765 z" />
    <path
       id="path51178"
       style="fill:#ffffff;fill-opacity:1;fill-rule:nonzero;stroke:none"
       d="m 725.54419,653.72789 2.36453,0 0,-32.74884 -2.36453,0 0,32.74884 z" />
    <path
       id="path51180"
       style="fill:#ffffff;fill-opacity:1;fill-rule:nonzero;stroke:none"
       d="m 520.9409,654.62773 2.35673,0 0,-30.52065 -2.35673,0 0,30.52065 z" />
    <g
       id="g51182"
       transform="matrix(3.8954248,0,0,-3.8954248,-42.999724,2656.4593)">
      <g
         clip-path="url(#clipPath51186)"
         id="g51184">
        <g
           transform="translate(202.2909,524.696)"
           id="g51190">
          <path
             id="path51192"
             style="fill:#ffffff;fill-opacity:1;fill-rule:nonzero;stroke:none"
             d="m 0,0 -2.167,0 -0.084,-0.076 c -6.291,-5.484 -19.92,-9.085 -28.704,-9.008 -7.604,0.069 -21.541,2.364 -28.778,8.407 l -0.084,0.071 -2.16,0 -0.088,-0.082 c -0.01,-0.009 -1.022,-0.949 -1.897,-1.475 l 0.311,-0.518 c 0.79,0.473 1.642,1.227 1.911,1.469 l 1.711,0 c 7.382,-6.091 21.409,-8.407 29.068,-8.476 8.853,-0.08 22.582,3.548 29.014,9.082 l 1.82,0 c 0.051,-0.05 0.103,-0.103 0.103,-0.103 0.406,-0.41 1.087,-1.096 1.581,-1.521 L 1.95,-1.769 C 1.475,-1.361 0.805,-0.686 0.405,-0.282 L 0.125,0 0,0 Z" />
        </g>
      </g>
    </g>
    <path
       id="path51194"
       style="fill:#ffffff;fill-opacity:1;fill-rule:nonzero;stroke:none"
       d="m 714.34485,654.9121 2.36062,0 0,-27.44717 -2.36062,0 0,27.44717 z" />
    <path
       id="path51196"
       style="fill:#ffffff;fill-opacity:1;fill-rule:nonzero;stroke:none"
       d="m 703.13771,654.61604 2.36063,0 0,-22.14159 -2.36063,0 0,22.14159 z" />
    <path
       id="path51198"
       style="fill:#ffffff;fill-opacity:1;fill-rule:nonzero;stroke:none"
       d="m 691.93836,654.9121 2.35284,0 0,-18.30461 -2.35284,0 0,18.30461 z" />
    <path
       id="path51200"
       style="fill:#ffffff;fill-opacity:1;fill-rule:nonzero;stroke:none"
       d="m 680.73123,654.9121 2.36062,0 0,-14.76756 -2.36062,0 0,14.76756 z" />
    <path
       id="path51202"
       style="fill:#ffffff;fill-opacity:1;fill-rule:nonzero;stroke:none"
       d="m 669.52798,655.21204 2.35674,0 0,-12.11477 -2.35674,0 0,12.11477 z" />
    <path
       id="path51204"
       style="fill:#ffffff;fill-opacity:1;fill-rule:nonzero;stroke:none"
       d="m 658.32474,654.9121 2.35284,0 0,-9.16983 -2.35284,0 0,9.16983 z" />
    <path
       id="path51206"
       style="fill:#ffffff;fill-opacity:1;fill-rule:nonzero;stroke:none"
       d="m 532.14414,654.61604 2.35673,0 0,-24.76321 -2.35673,0 0,24.76321 z" />
    <path
       id="path51208"
       style="fill:#ffffff;fill-opacity:1;fill-rule:nonzero;stroke:none"
       d="m 543.34349,654.78355 2.36452,0 0,-20.11987 -2.36452,0 0,20.11987 z" />
    <path
       id="path51210"
       style="fill:#ffffff;fill-opacity:1;fill-rule:nonzero;stroke:none"
       d="m 554.55452,654.70174 2.35284,0 0,-16.21665 -2.35284,0 0,16.21665 z" />
    <path
       id="path51212"
       style="fill:#ffffff;fill-opacity:1;fill-rule:nonzero;stroke:none"
       d="m 565.75387,654.32389 2.36062,0 0,-12.75362 -2.36062,0 0,12.75362 z" />
    <path
       id="path51214"
       style="fill:#ffffff;fill-opacity:1;fill-rule:nonzero;stroke:none"
       d="m 576.961,654.61604 2.36453,0 0,-10.45142 -2.36453,0 0,10.45142 z" />
    <path
       id="path51216"
       style="fill:#ffffff;fill-opacity:1;fill-rule:nonzero;stroke:none"
       d="m 588.16035,654.78355 2.36063,0 0,-8.62447 -2.36063,0 0,8.62447 z" />
    <g
       id="g51218"
       transform="matrix(3.8954248,0,0,-3.8954248,-42.999724,2656.4593)">
      <g
         clip-path="url(#clipPath51222)"
         id="g51220">
        <g
           transform="translate(132.9879,538.2512)"
           id="g51226">
          <path
             id="path51228"
             style="fill:#ff5910;fill-opacity:1;fill-rule:nonzero;stroke:none"
             d="M 0,0 C 0,-21.092 17.159,-38.251 38.251,-38.251 59.342,-38.251 76.5,-21.092 76.5,0 76.5,21.092 59.342,38.249 38.251,38.249 17.159,38.249 0,21.092 0,0 m 2.149,0 c 0,19.906 16.196,36.099 36.102,36.099 19.906,0 36.101,-16.193 36.101,-36.099 0,-19.906 -16.195,-36.101 -36.101,-36.101 C 18.345,-36.101 2.149,-19.906 2.149,0" />
        </g>
        <g
           transform="translate(188.4969,529.7843)"
           id="g51230">
          <path
             id="path51232"
             style="fill:#ff5910;fill-opacity:1;fill-rule:nonzero;stroke:none"
             d="m 0,0 0.44,-0.468 c -1.251,-1.253 -0.667,-2.245 -0.058,-2.374 1.537,-0.324 2.4,1.311 2.501,2.16 C 3.086,1.026 2.747,2.163 2.668,3.554 1.824,2.508 1.027,1.661 0,0 m -17.344,-5.122 c -0.483,0.302 -0.854,0.636 -1.158,1.033 -0.294,-0.362 -1.892,-1.898 -3.804,-1.682 -3.525,0.487 -3.167,5.922 -1.025,9.271 0.979,1.939 0.97,2.045 -0.36,0.175 -2.125,-2.989 -4.736,-7.768 -5.963,-9.375 l -3.93,0 c 0.941,1.482 2.234,5.862 2.819,9.31 0.134,0.912 0.36,1.821 -0.408,0.041 -1.928,-4.479 -6.064,-11.437 -10.605,-9.386 -2.793,1.262 -0.992,5.918 0.808,7.902 l 3.013,1.081 c -1.103,-1.587 -2.474,-4.577 -1.212,-4.943 3.327,-0.958 8.167,15.614 11.169,19.229 l 4.85,0.036 c -1.339,-2.504 -2.62,-9.267 -3.479,-12.342 -0.282,-1.007 -0.243,-0.928 0.313,-0.086 1.976,3.099 5.612,9.715 8.273,12.392 l 5.291,0 c -3.9,-7.115 -9.289,-17.331 -7.862,-19.697 0.404,-0.613 1.249,0.235 1.249,0.235 -0.401,3.239 2.122,7.276 5.778,8.545 3.925,1.361 6.916,-1.531 4.399,-4.903 -0.94,-1.261 -2.917,-2.413 -6.288,-2.712 0.099,-0.835 0.452,-1.474 1.402,-1.527 3.083,-0.166 5.788,3.084 6.927,5.286 l 2.601,5.65 -3.796,-0.149 1.469,2.994 3.75,0.064 1.946,4.122 4.373,0.036 -1.96,-4.11 6.989,0.108 L 7.013,8.517 -0.205,8.405 -0.295,8.191 c 0,0 -3.565,-7.611 -3.822,-8.118 C -4.372,-0.431 -4.742,-1.37 -4.372,-1.549 -4.007,-1.73 3.159,8.299 4.003,7.937 4.85,7.578 6.319,6.748 6.319,6.748 4.687,4.505 7.335,3.108 6.524,-1.193 6.293,-2.422 4.439,-6.084 -0.088,-5.275 c -0.736,0.131 -1.504,0.582 -2.375,1.199 -2.058,-1.984 -5.549,-2.092 -6.541,0.614 -0.082,0.126 -0.14,0.359 -0.147,0.356 -0.008,0 -0.11,-0.103 -0.22,-0.213 -2.756,-2.849 -6.614,-2.595 -7.973,-1.803 m 5.745,8.219 c 0.857,1.072 -0.196,1.859 -1.378,1.156 -1.136,-0.673 -1.969,-1.98 -2.141,-2.769 0.776,-0.048 2.648,0.52 3.519,1.613" />
        </g>
        <g
           transform="translate(190.8612,533.5842)"
           id="g51234">
          <path
             id="path51236"
             style="fill:#ffffff;fill-opacity:1;fill-rule:nonzero;stroke:none"
             d="m 0,0 -0.518,-0.63 c -0.664,-0.798 -1.35,-1.624 -2.18,-2.963 l -0.159,-0.255 c 0,0 0.308,-0.327 0.409,-0.433 -0.463,-0.563 -0.608,-1.055 -0.608,-1.419 0,-0.171 0.028,-0.315 0.06,-0.425 0.136,-0.455 0.501,-0.809 0.932,-0.901 0.615,-0.128 1.21,-0.003 1.721,0.362 0.749,0.537 1.173,1.484 1.251,2.135 0.142,1.205 0.026,2.137 -0.086,3.037 L 0.6,0.71 0,0 Z m 0.009,-1.221 c 0.015,-0.148 0.038,-0.368 0.038,-0.368 0.074,-0.596 0.145,-1.171 0.145,-1.819 0,-0.321 -0.019,-0.66 -0.062,-1.03 -0.057,-0.488 -0.404,-1.213 -0.93,-1.59 -0.332,-0.239 -0.703,-0.315 -1.102,-0.231 -0.127,0.028 -0.281,0.147 -0.343,0.356 -0.019,0.065 -0.028,0.13 -0.028,0.201 0,0.341 0.22,0.75 0.625,1.158 l 0.268,0.269 c 0,0 -0.375,0.399 -0.49,0.52 0.699,1.092 1.301,1.838 1.879,2.534" />
        </g>
        <g
           transform="translate(165.3448,547.7474)"
           id="g51238">
          <path
             id="path51240"
             style="fill:#ffffff;fill-opacity:1;fill-rule:nonzero;stroke:none"
             d="m 0,0 -5.032,-0.039 -0.116,-0.14 c -1.186,-1.426 -2.614,-4.732 -4.126,-8.232 -2.074,-4.797 -4.913,-11.366 -6.634,-10.87 -0.079,0.022 -0.14,0.061 -0.181,0.177 -0.257,0.721 0.639,2.776 1.605,4.165 l 0.699,1.007 -4.258,-1.529 -0.065,-0.073 c -1.418,-1.562 -2.69,-4.489 -2.273,-6.494 0.196,-0.943 0.747,-1.644 1.593,-2.027 1.136,-0.512 2.317,-0.538 3.512,-0.074 3.149,1.219 5.634,5.493 6.971,8.265 -0.66,-3.115 -1.708,-6.41 -2.459,-7.588 l -0.38,-0.601 4.836,0 0.118,0.153 c 0.595,0.778 1.476,2.236 2.5,3.925 0.662,1.095 1.376,2.267 2.083,3.373 -0.366,-1.083 -0.58,-2.198 -0.58,-3.229 0,-0.901 0.149,-1.732 0.459,-2.406 0.497,-1.074 1.368,-1.726 2.522,-1.885 1.688,-0.192 3.163,0.843 3.852,1.501 0.276,-0.291 0.58,-0.561 0.955,-0.796 l 0.009,-0.005 c 1.404,-0.819 5.339,-1.142 8.258,1.691 0.45,-1.061 1.291,-1.794 2.415,-2.051 1.454,-0.336 3.151,0.167 4.423,1.258 0.703,-0.485 1.497,-0.958 2.289,-1.1 4.516,-0.805 6.743,2.681 7.067,4.395 0.116,0.626 0.164,1.193 0.164,1.71 0,1.303 -0.304,2.299 -0.563,3.145 -0.188,0.614 -0.343,1.119 -0.343,1.604 0,0.434 0.127,0.856 0.468,1.324 l 0.257,0.356 -0.382,0.216 c -0.05,0.028 -1.068,0.6 -1.9,0.999 1.07,0.017 2.664,0.041 2.664,0.041 l 1.537,3.746 c 0,0 -5.907,-0.089 -6.951,-0.106 0.403,0.845 1.958,4.106 1.958,4.106 l -5.245,-0.043 c 0,0 -1.761,-3.729 -1.947,-4.126 -0.425,-0.006 -3.746,-0.062 -3.746,-0.062 l -1.862,-3.798 c 0,0 2.929,0.114 3.813,0.149 -0.429,-0.934 -2.335,-5.07 -2.335,-5.07 -0.938,-1.81 -3.526,-5.22 -6.55,-5.058 -0.522,0.028 -0.809,0.28 -0.953,0.804 3.798,0.436 5.475,1.927 6.133,2.808 0.663,0.893 1.001,1.817 1.001,2.673 0,0.64 -0.188,1.24 -0.569,1.762 -1.012,1.386 -3.134,1.816 -5.275,1.072 -3.453,-1.199 -6.084,-4.827 -6.084,-8.198 0,-0.181 0.017,-0.358 0.032,-0.537 -0.166,-0.136 -0.362,-0.255 -0.466,-0.244 -0.009,0 -0.024,0.002 -0.052,0.045 -1.414,2.341 5.338,14.657 7.878,19.294 l 0.316,0.58 -6.113,0 -0.114,-0.116 c -2.04,-2.049 -4.57,-6.259 -6.604,-9.641 0,0 -0.491,-0.802 -0.968,-1.58 0.24,0.966 0.509,2.049 0.509,2.049 0.74,3.133 1.659,7.03 2.579,8.747 L 0.658,0.004 0,0 Z m -0.615,-0.789 c -0.862,-1.956 -1.663,-5.33 -2.378,-8.355 l -0.861,-3.485 c -0.112,-0.397 -0.185,-0.658 -0.185,-0.842 0,-0.176 0.067,-0.28 0.237,-0.357 0.341,-0.154 0.487,0.066 0.919,0.722 l 0.045,0.069 1.736,2.838 c 1.978,3.289 4.43,7.357 6.384,9.379 l 4.46,0 C 5.588,-8.426 1.919,-15.7 1.919,-19.054 c 0,-0.526 0.091,-0.954 0.285,-1.275 0.16,-0.244 0.377,-0.381 0.636,-0.407 0.57,-0.057 1.12,0.465 1.225,0.569 l 0.134,0.134 -0.024,0.19 c -0.392,3.172 2.187,6.97 5.519,8.126 1.814,0.63 3.576,0.312 4.385,-0.794 0.688,-0.94 0.532,-2.217 -0.429,-3.505 -0.604,-0.81 -2.187,-2.217 -6.009,-2.555 l -0.401,-0.035 0.047,-0.401 c 0.177,-1.477 1.061,-1.833 1.769,-1.87 3.42,-0.185 6.194,3.367 7.296,5.494 l 2.877,6.247 c 0,0 -2.881,-0.112 -3.778,-0.148 0.34,0.692 0.933,1.898 1.074,2.191 0.42,0.006 3.754,0.064 3.754,0.064 0,0 1.758,3.721 1.945,4.118 0.372,0.004 2.642,0.023 3.501,0.028 -0.401,-0.839 -1.963,-4.113 -1.963,-4.113 0,0 6.033,0.093 7.027,0.108 C 30.521,-7.544 30.032,-8.735 29.9,-9.058 29.419,-9.065 22.682,-9.17 22.682,-9.17 l -0.186,-0.453 c -0.028,-0.06 -3.558,-7.596 -3.81,-8.09 -0.184,-0.362 -0.453,-0.974 -0.453,-1.462 0,-0.108 0.013,-0.213 0.045,-0.304 l 0.328,-0.386 c 0.399,-0.196 0.431,-0.211 3.364,3.5 1.676,2.12 4.449,5.629 5.135,5.933 0.567,-0.252 1.361,-0.675 1.816,-0.927 -0.274,-0.486 -0.386,-0.947 -0.386,-1.4 0,-0.606 0.185,-1.203 0.38,-1.846 0.254,-0.826 0.53,-1.73 0.53,-2.911 0,-0.473 -0.045,-0.992 -0.153,-1.568 -0.177,-0.934 -1.825,-4.542 -6.159,-3.77 -0.73,0.131 -1.53,0.647 -2.217,1.136 l -0.264,0.186 -0.233,-0.224 c -1.106,-1.068 -2.661,-1.564 -3.962,-1.264 -0.651,0.149 -1.516,0.571 -1.941,1.729 l -0.04,0.078 -0.082,0.211 c -0.03,0.085 -0.078,0.229 -0.251,0.298 l -0.178,0.069 0.036,-0.043 -0.414,-0.244 -0.08,-0.08 c -2.694,-2.786 -6.399,-2.383 -7.496,-1.747 -0.436,0.272 -0.77,0.57 -1.051,0.936 l -0.301,0.391 -0.313,-0.384 c -0.304,-0.373 -1.78,-1.728 -3.455,-1.54 -0.878,0.123 -1.523,0.606 -1.907,1.438 -0.813,1.762 -0.302,4.939 1.165,7.234 0.828,1.633 0.932,1.838 0.558,2.062 -0.373,0.226 -0.509,0.036 -1.565,-1.45 -1.126,-1.585 -2.388,-3.67 -3.501,-5.506 -0.955,-1.576 -1.775,-2.928 -2.346,-3.702 l -3.073,0 c 0.968,1.962 2.055,5.932 2.549,8.853 l 0.06,0.371 c 0.045,0.278 0.082,0.5 0.082,0.672 0,0.246 -0.075,0.391 -0.298,0.456 -0.411,0.12 -0.569,-0.251 -0.996,-1.24 -0.783,-1.819 -3.614,-7.859 -7.179,-9.242 -1.005,-0.39 -1.956,-0.371 -2.905,0.06 -0.627,0.283 -1.002,0.764 -1.15,1.471 -0.044,0.214 -0.066,0.442 -0.066,0.682 0,1.648 0.987,3.798 2.096,5.059 0.12,0.043 1.013,0.363 1.858,0.667 -0.56,-0.986 -1.187,-2.338 -1.187,-3.337 0,-0.207 0.027,-0.399 0.088,-0.569 0.12,-0.338 0.363,-0.569 0.7,-0.666 2.218,-0.639 4.437,4.063 7.57,11.311 1.445,3.345 2.811,6.494 3.908,7.904 0.311,0.001 3.134,0.022 4.033,0.029 m 14.396,-20.771 0.037,-0.073 0.002,-0.005 -0.039,0.078 z m 12.735,11.667 c -0.802,-0.586 -2.212,-2.255 -5.161,-5.987 -0.791,-1 -1.647,-2.083 -2.195,-2.724 0.06,0.164 0.121,0.335 0.226,0.536 0.255,0.504 3.662,7.778 3.824,8.124 0.227,0.002 1.654,0.025 3.306,0.051" />
        </g>
        <g
           transform="translate(175.3202,534.3748)"
           id="g51242">
          <path
             id="path51244"
             style="fill:#ffffff;fill-opacity:1;fill-rule:nonzero;stroke:none"
             d="m 0,0 c -1.195,-0.712 -2.12,-2.094 -2.323,-3.021 l -0.097,-0.447 0.455,-0.028 c 0.949,-0.062 2.92,0.595 3.848,1.758 0.565,0.705 0.448,1.322 0.151,1.663 C 1.602,0.423 0.764,0.453 0,0 m 0.399,-0.673 c 0.509,0.302 0.917,0.231 1.044,0.084 0.037,-0.043 0.056,-0.099 0.056,-0.164 0,-0.135 -0.078,-0.312 -0.226,-0.496 -0.615,-0.768 -1.816,-1.246 -2.628,-1.399 0.316,0.66 0.945,1.494 1.754,1.975" />
        </g>
      </g>
    </g>
  </g>
</svg>
