<svg xmlns="http://www.w3.org/2000/svg" viewBox="0 0 250 222" width="250" height="222">
	<style>
		tspan { white-space:pre }
		.shp0 { fill: #013b73 } 
		.shp1 { fill: #c81e3b } 
	</style>
	<g >
		<path class="shp0" d="M121.56 0.11C121.5 0.17 119.39 1.42 116.87 2.89L112.28 5.56L64.25 5.56C62.64 7.07 61.16 8.46 59.93 9.63C58.69 10.8 57.35 12.08 56.94 12.47L56.19 13.18L56.14 45.69C52.09 45.75 52.06 45.75 52 46.01C51.96 46.16 51.95 51.55 51.97 57.98L52 69.69L80.72 69.69C81.32 67.94 81.79 66.53 82.15 65.43C82.51 64.32 83.65 60.81 84.7 57.63C85.74 54.44 86.69 51.55 86.81 51.2C86.92 50.84 87.07 50.54 87.14 50.52C87.2 50.5 92.93 50.43 99.86 50.37C109.57 50.28 112.48 50.29 112.54 50.39C112.59 50.47 112.66 50.72 112.7 50.95C112.74 51.18 112.94 51.71 113.14 52.13C113.37 52.63 113.76 53.15 114.22 53.61C114.62 54 115.24 54.46 115.59 54.63C115.95 54.81 116.56 55.03 116.95 55.13C117.35 55.23 117.93 55.32 118.26 55.32C118.58 55.32 118.97 55.35 119.11 55.38L119.38 55.44L119.32 64.37L111.63 64.49C109.61 65.18 108.5 65.64 107.84 65.96C107.19 66.28 106.13 66.87 105.48 67.28C104.83 67.69 104.24 68.06 104.18 68.11C104.11 68.16 103.69 68.48 103.23 68.82C102.77 69.15 101.87 69.89 101.23 70.44C100.59 71 99.61 71.94 99.06 72.52C98.5 73.11 97.67 74.07 97.21 74.65C96.74 75.24 96.28 75.83 96.19 75.96C96.09 76.1 95.74 76.61 95.41 77.09C95.08 77.57 94.58 78.36 94.3 78.85C94.02 79.33 93.54 80.21 93.24 80.8C92.94 81.38 92.5 82.31 92.27 82.87C92.03 83.42 91.7 84.24 91.53 84.7C91.36 85.15 91.02 86.22 90.76 87.06C90.51 87.91 90.16 89.26 90 90.08C89.83 90.89 89.61 92.11 89.52 92.8C89.42 93.48 89.28 94.65 89.21 95.4C89.13 96.14 89.09 96.97 89.11 97.23L89.15 97.7C91.9 97.75 93.82 97.72 95.18 97.67L97.67 97.58C98.25 95.84 98.84 94.03 99.36 92.44C99.88 90.85 100.48 89 100.7 88.33C100.92 87.66 101.14 87.13 101.2 87.15C101.25 87.17 101.47 87.71 101.68 88.36C101.9 89.01 102.49 90.82 102.99 92.38C103.49 93.94 104.08 95.75 104.3 96.4C104.69 97.58 104.7 97.58 105.15 97.68C105.39 97.73 107.35 97.75 109.5 97.72C111.65 97.69 113.42 97.66 113.43 97.65C113.45 97.65 113.46 95.78 113.46 93.5C113.46 90.45 113.51 89.07 113.64 88.21C113.74 87.58 113.91 86.72 114.03 86.29C114.15 85.87 114.45 85.13 114.68 84.64C114.92 84.15 115.34 83.41 115.62 82.99C115.9 82.57 116.53 81.81 117.01 81.32C117.5 80.82 118.35 80.12 118.91 79.76C119.46 79.4 120.29 78.93 120.74 78.72C121.2 78.51 122.07 78.22 122.69 78.06C123.33 77.9 124.38 77.75 125.12 77.71C126.09 77.65 126.69 77.69 127.48 77.83C128.07 77.94 128.82 78.11 129.14 78.22C129.47 78.32 130.05 78.56 130.44 78.74C130.83 78.91 131.53 79.31 131.98 79.62C132.44 79.92 133.2 80.55 133.67 81.02C134.15 81.48 134.77 82.18 135.04 82.57C135.32 82.96 135.74 83.6 135.96 83.99C136.19 84.38 136.47 84.94 136.59 85.23C136.71 85.52 136.9 86.03 137.03 86.35C137.15 86.68 137.35 87.37 137.48 87.89C137.6 88.41 137.74 89.1 137.78 89.43C137.82 89.75 137.88 90.16 137.9 90.34C137.95 90.63 137.98 90.65 138.13 90.49C138.23 90.39 138.28 90.22 138.25 90.11C138.22 89.99 138.24 89.37 138.31 88.72C138.37 88.07 138.56 87.06 138.73 86.47C138.9 85.89 139.19 85.09 139.37 84.7C139.56 84.31 139.99 83.56 140.33 83.04C140.67 82.52 141.3 81.75 141.73 81.33C142.16 80.9 142.8 80.34 143.16 80.07C143.52 79.81 144.16 79.4 144.58 79.16C145 78.93 145.72 78.6 146.18 78.43C146.63 78.26 147.38 78.04 147.83 77.94C148.29 77.85 149.25 77.74 149.96 77.71C150.97 77.66 151.53 77.7 152.45 77.88C153.1 78 154.08 78.29 154.64 78.51C155.19 78.73 156.04 79.18 156.53 79.5C157.02 79.82 157.78 80.43 158.23 80.86C158.68 81.28 159.27 81.92 159.55 82.27C159.82 82.63 160.26 83.27 160.51 83.69C160.77 84.12 161.15 84.86 161.35 85.35C161.56 85.84 161.81 86.49 161.91 86.8C162.01 87.11 162.17 87.72 162.27 88.16C162.37 88.59 162.53 89.54 162.62 90.25C162.72 90.97 162.86 92.91 162.94 94.57C163.03 96.43 163.13 97.62 163.21 97.67C163.28 97.72 164.51 97.73 165.94 97.69C167.63 97.64 168.59 97.57 168.67 97.48C168.74 97.41 169.06 96.55 169.36 95.57C169.67 94.6 170.26 92.79 170.66 91.55C171.06 90.32 171.55 88.82 171.74 88.22C171.93 87.62 172.14 87.13 172.21 87.13C172.27 87.13 172.6 87.99 172.94 89.04C173.28 90.1 174.03 92.47 174.62 94.3L175.7 97.64C180.33 97.75 182.02 97.76 182.44 97.74L183.21 97.7C183.27 97.06 183.23 96.21 183.15 95.4C183.08 94.58 182.91 93.25 182.79 92.44C182.67 91.63 182.46 90.48 182.34 89.9C182.21 89.31 182.03 88.54 181.93 88.19C181.83 87.83 181.6 87.03 181.41 86.41C181.22 85.79 180.81 84.65 180.49 83.87C180.18 83.09 179.66 81.89 179.33 81.21C179 80.53 178.41 79.44 178.03 78.79C177.64 78.14 177 77.15 176.6 76.6C176.21 76.05 175.49 75.09 174.99 74.48C174.5 73.86 173.67 72.91 173.15 72.36C172.63 71.82 171.7 70.93 171.08 70.4C170.47 69.87 169.53 69.11 169.01 68.72C168.49 68.33 167.61 67.73 167.06 67.38C166.51 67.03 165.44 66.44 164.69 66.07C163.95 65.69 162.75 65.19 162.03 64.94L160.73 64.49L153.04 64.37C152.99 57.77 153 55.75 153.03 55.62C153.08 55.42 153.2 55.38 153.89 55.35C154.34 55.33 154.94 55.25 155.23 55.18C155.52 55.11 156.16 54.87 156.65 54.65C157.28 54.36 157.73 54.04 158.19 53.57C158.55 53.2 158.98 52.61 159.16 52.25C159.33 51.89 159.55 51.31 159.65 50.95L159.81 50.3C172.35 50.37 178.09 50.43 180.65 50.46L185.31 50.54C185.55 51.18 186.07 52.75 186.62 54.44C187.17 56.13 188.27 59.5 189.07 61.94C189.86 64.38 190.76 67.12 191.07 68.03L191.63 69.69L220.36 69.69C220.42 48.21 220.39 45.75 220.27 45.74C220.19 45.74 219.25 45.73 218.17 45.71L216.22 45.69L216.17 13.18C214.93 12 213.64 10.78 212.51 9.7C211.37 8.62 210.39 7.69 210.31 7.62C210.24 7.56 209.73 7.07 209.18 6.54L208.18 5.57L160.08 5.56C157.38 3.98 156.3 3.35 155.94 3.13C155.58 2.92 155.1 2.65 154.87 2.52C154.65 2.4 153.93 1.99 153.28 1.61C152.63 1.22 151.95 0.81 151.77 0.69C151.59 0.57 151.4 0.47 151.35 0.47C151.31 0.47 151.13 0.36 150.97 0.24C150.68 0.01 150.38 0.01 136.17 0C127.62 0 121.63 0.04 121.56 0.11Z" />
		<path fill-rule="evenodd" class="shp1" d="M112.75 5.2C112.78 5.2 112.74 5.27 112.65 5.35C112.54 5.47 107.45 5.51 88.33 5.56C75.03 5.59 64.17 5.58 64.2 5.53C64.22 5.48 75.07 5.44 88.29 5.44C103.61 5.43 112.4 5.39 112.52 5.32C112.62 5.26 112.72 5.2 112.75 5.2ZM159.81 5.31C160.01 5.4 166.58 5.44 184.1 5.44C197.31 5.44 208.14 5.48 208.16 5.53C208.19 5.58 197.33 5.59 184.03 5.56C163.75 5.51 159.83 5.47 159.7 5.33C159.57 5.2 159.59 5.19 159.81 5.31ZM64 5.67C64.03 5.67 63.66 6.07 63.18 6.56C62.69 7.05 62.27 7.45 62.23 7.45C62.2 7.45 62.57 7.05 63.06 6.56C63.55 6.07 63.97 5.67 64 5.67ZM208.51 5.79C208.56 5.79 208.96 6.17 209.39 6.62C209.83 7.08 210.16 7.45 210.13 7.45C210.1 7.45 209.7 7.08 209.24 6.62C208.78 6.16 208.45 5.79 208.51 5.79ZM61.49 8.04C61.51 8.04 61.52 8.05 61.53 8.07C61.53 8.08 61.17 8.44 59.93 9.63L60.69 8.84C61.11 8.4 61.47 8.04 61.49 8.04ZM59.12 10.28C59.14 10.28 59.16 10.3 59.16 10.31C59.16 10.33 58.8 10.69 57.56 11.88L58.33 11.08C58.75 10.64 59.11 10.28 59.12 10.28ZM213.24 10.28C213.29 10.28 213.67 10.63 214.07 11.05C214.47 11.48 214.77 11.82 214.74 11.82C214.71 11.82 214.34 11.48 213.91 11.05C213.49 10.63 213.19 10.28 213.24 10.28ZM56.17 21.16C56.19 25.55 56.19 32.76 56.17 37.18C56.15 41.6 56.14 38.01 56.14 29.2C56.14 20.39 56.15 16.77 56.17 21.16ZM216.22 13.18L216.28 45.63L220.07 45.69L216.22 45.69L216.22 29.43M56.14 45.42C56.17 45.47 56.17 45.56 56.14 45.63C56.1 45.7 55.29 45.75 54.07 45.75C52.96 45.75 52.04 45.79 52.02 45.84C52 45.89 51.99 45.87 52 45.81C52.01 45.73 52.81 45.68 54.05 45.66C55.58 45.64 56.08 45.59 56.08 45.48C56.08 45.4 56.1 45.37 56.14 45.42ZM110.27 50.29C111.34 50.29 111.8 50.31 111.28 50.33C110.75 50.35 109.88 50.35 109.32 50.33C108.77 50.31 109.2 50.29 110.27 50.29ZM164.16 50.29L162 50.33C160.04 50.35 159.84 50.38 159.85 50.56C159.85 50.68 159.81 50.73 159.76 50.68C159.71 50.64 159.7 50.52 159.75 50.42C159.82 50.27 160.17 50.24 164.16 50.29ZM97.96 50.41C99.88 50.41 100.66 50.43 99.68 50.45C98.7 50.47 97.13 50.47 96.19 50.45C95.25 50.43 96.05 50.41 97.96 50.41ZM174.46 50.41C176.34 50.41 177.14 50.43 176.23 50.45C175.32 50.47 173.78 50.47 172.8 50.45C171.82 50.43 172.57 50.41 174.46 50.41ZM92.58 50.53L89.83 50.56C87.09 50.59 87.08 50.6 87.01 50.86C86.98 51.01 86.92 51.09 86.89 51.04C86.87 50.99 86.9 50.84 86.97 50.71C87.08 50.49 87.19 50.48 92.58 50.53ZM179.54 50.53L182.43 50.53C184.9 50.53 185.33 50.56 185.37 50.71C185.4 50.84 185.39 50.85 185.32 50.75C185.25 50.64 184.44 50.59 182.38 50.57M117.78 55.36L118.32 55.34C118.61 55.33 118.97 55.35 119.38 55.44L119.32 64.37L112.22 64.37L119.26 64.31L119.26 55.56L119 55.5C118.85 55.47 118.52 55.43 118.26 55.4M153.76 55.35C154.15 55.34 154.41 55.36 154.34 55.38C154.28 55.41 153.98 55.45 153.16 55.51L153.1 64.31L160.02 64.37L153.04 64.37L153.01 60.11C152.99 57.77 153 55.74 153.02 55.61C153.06 55.39 153.16 55.36 153.76 55.35ZM32.68 66.8C34.54 66.79 36.04 66.85 37.12 66.97C38.02 67.08 39.31 67.26 39.99 67.38C40.67 67.5 41.9 67.77 42.71 67.97C43.53 68.18 44.91 68.61 45.79 68.94C46.67 69.27 47.86 69.78 48.45 70.07C49.04 70.36 49.97 70.88 50.52 71.23C51.07 71.57 52.01 72.22 52.59 72.67C53.18 73.12 54.14 73.99 54.72 74.61C55.31 75.22 56.14 76.25 56.58 76.9C57.01 77.55 57.59 78.56 57.86 79.14C58.12 79.73 58.5 80.71 58.69 81.33C58.88 81.95 59.12 82.93 59.23 83.52C59.39 84.3 59.44 85.16 59.43 86.83C59.43 88.37 59.37 89.42 59.23 90.19C59.12 90.81 58.95 91.66 58.85 92.09C58.75 92.51 58.57 93.17 58.45 93.56C58.33 93.95 58.09 94.65 57.91 95.1C57.74 95.56 57.34 96.43 57.02 97.05C56.7 97.67 56.08 98.68 55.64 99.29C55.2 99.9 54.25 101 53.54 101.73C52.82 102.45 51.86 103.34 51.41 103.7C50.95 104.05 50.07 104.69 49.46 105.11C48.84 105.53 47.85 106.15 47.27 106.48C46.68 106.81 45.27 107.53 44.13 108.08C42.99 108.63 41.13 109.45 39.99 109.91C38.85 110.37 37.39 110.94 36.74 111.18C36.09 111.42 35.48 111.68 35.4 111.75C35.28 111.86 35.25 114.45 35.25 125.21C35.26 136.43 35.23 138.67 35.09 139.34C34.99 139.78 34.8 140.46 34.67 140.85C34.53 141.24 34.2 141.96 33.94 142.44C33.68 142.93 33.2 143.65 32.89 144.04C32.58 144.43 31.96 145.1 31.52 145.52C31.07 145.94 30.36 146.53 29.93 146.81C29.51 147.1 28.71 147.55 28.16 147.8C27.61 148.06 26.73 148.4 26.21 148.55C25.69 148.71 24.78 148.89 24.2 148.96C23.61 149.03 22.68 149.06 22.12 149.02C21.57 148.98 20.8 148.86 20.41 148.77C20.02 148.67 19.38 148.43 18.99 148.24C18.6 148.05 18.01 147.64 17.68 147.33C17.35 147.02 16.93 146.49 16.74 146.17C16.55 145.84 16.3 145.23 16.18 144.81C16.05 144.33 15.97 143.63 15.97 142.98C15.97 142.39 16.05 141.51 16.15 141.03C16.25 140.54 16.48 139.77 16.65 139.31C16.82 138.86 17.23 137.93 17.57 137.24C17.91 136.56 18.55 135.47 19 134.82C19.44 134.17 20.23 133.13 20.75 132.51C21.28 131.9 21.83 131.26 22.24 130.8L22.24 105.77C22.24 85.82 22.21 80.74 22.1 80.74C22.01 80.74 21.63 80.91 21.24 81.11C20.85 81.32 20.16 81.73 19.7 82.03C19.25 82.33 18.39 83.05 17.79 83.63C17.2 84.22 16.5 85.02 16.24 85.41C15.98 85.8 15.66 86.33 15.53 86.59C15.39 86.85 15.2 87.39 15.1 87.8C14.98 88.25 14.94 88.73 14.98 89.04C15.02 89.32 15.18 89.73 15.33 89.96C15.48 90.19 15.76 90.46 15.94 90.57C16.12 90.68 16.5 90.81 16.79 90.87C17.07 90.92 17.32 91 17.35 91.05C17.37 91.1 17.53 91.14 17.69 91.14C17.96 91.14 17.98 91.18 17.97 91.64C17.96 91.92 17.77 92.7 17.55 93.39C17.32 94.07 16.97 95 16.76 95.46C16.55 95.91 16.12 96.68 15.81 97.17C15.5 97.66 14.89 98.42 14.45 98.86C14.02 99.3 13.37 99.85 13.01 100.07C12.66 100.29 11.99 100.6 11.54 100.76C11.08 100.92 10.39 101.08 10 101.13C9.61 101.17 8.84 101.15 8.28 101.07C7.73 101 6.8 100.78 6.21 100.58C5.63 100.38 4.85 100.06 4.5 99.88C4.14 99.69 3.58 99.31 3.25 99.05C2.93 98.78 2.4 98.23 2.08 97.83C1.76 97.44 1.3 96.68 1.06 96.16C0.82 95.64 0.54 94.87 0.43 94.45C0.32 94.03 0.19 93.15 0.13 92.5C0.06 91.77 0.06 90.88 0.13 90.19C0.19 89.58 0.27 88.89 0.31 88.66C0.35 88.43 0.48 87.87 0.6 87.42C0.72 86.96 0.98 86.14 1.18 85.58C1.38 85.03 1.85 83.97 2.23 83.22C2.61 82.47 3.25 81.36 3.67 80.74C4.08 80.12 4.69 79.27 5.02 78.85C5.34 78.42 5.8 77.87 6.03 77.61C6.26 77.35 6.87 76.69 7.39 76.15C7.92 75.6 8.87 74.73 9.52 74.2C10.18 73.68 11.19 72.94 11.77 72.55C12.36 72.17 13.61 71.47 14.55 70.99C15.5 70.51 16.8 69.91 17.45 69.65C18.1 69.39 19.25 68.98 20 68.74C20.74 68.5 21.99 68.15 22.78 67.96C23.56 67.77 24.67 67.53 25.26 67.43C25.85 67.32 27.12 67.14 28.1 67.03C29.28 66.89 30.82 66.81 32.68 66.8ZM35.67 78.43L35.61 100.12C36.48 100.02 37.27 99.88 37.92 99.75C38.57 99.62 39.48 99.41 39.93 99.27C40.39 99.13 41.16 98.85 41.65 98.65C42.13 98.44 42.99 97.99 43.54 97.65C44.09 97.3 44.88 96.72 45.3 96.36C45.71 95.99 46.31 95.35 46.63 94.92C46.95 94.5 47.42 93.76 47.67 93.27C47.92 92.78 48.24 92.04 48.37 91.61C48.5 91.19 48.67 90.31 48.75 89.66C48.87 88.72 48.87 88.25 48.75 87.36C48.67 86.74 48.5 85.78 48.36 85.23C48.23 84.68 47.95 83.85 47.75 83.4C47.54 82.94 47.21 82.33 47.01 82.04C46.81 81.75 46.39 81.24 46.07 80.9C45.75 80.57 45.15 80.08 44.72 79.81C44.3 79.53 43.61 79.18 43.19 79.03C42.76 78.87 42.04 78.65 41.59 78.55C41.13 78.45 40.07 78.34 39.22 78.32C38.38 78.3 37.23 78.32 36.68 78.36L35.67 78.43ZM66.37 69.8C74.22 69.8 77.41 69.82 73.47 69.83C69.54 69.85 63.12 69.85 59.22 69.83C55.31 69.82 58.53 69.8 66.37 69.8ZM205.99 69.8C213.83 69.8 217.02 69.82 213.09 69.83C209.15 69.85 202.73 69.85 198.83 69.83C194.92 69.82 198.15 69.8 205.99 69.8ZM125.71 77.71C126.36 77.71 126.65 77.73 126.36 77.75C126.07 77.78 125.54 77.78 125.18 77.75C124.82 77.73 125.06 77.71 125.71 77.71ZM150.44 77.71C151.09 77.71 151.38 77.73 151.09 77.75C150.8 77.78 150.26 77.78 149.91 77.75C149.55 77.73 149.79 77.71 150.44 77.71ZM63.65 79.22C63.88 79.21 64.4 79.28 64.81 79.38C65.21 79.48 65.81 79.69 66.14 79.85C66.46 80.01 66.99 80.4 67.3 80.71C67.62 81.02 68.03 81.51 68.21 81.8C68.39 82.09 68.64 82.63 68.76 82.98C68.97 83.6 68.98 84.27 68.98 96.67C68.98 103.83 69 109.7 69.04 109.7C69.07 109.7 69.51 109.46 70.01 109.17C70.52 108.88 71.3 108.5 71.76 108.33C72.21 108.16 73.08 107.92 73.68 107.8C74.28 107.67 75.24 107.57 75.81 107.57C76.38 107.57 77.27 107.65 77.79 107.75C78.31 107.85 79 108.02 79.33 108.12C79.66 108.23 80.27 108.48 80.69 108.67C81.11 108.87 81.75 109.22 82.11 109.45C82.47 109.68 83.2 110.29 83.75 110.82C84.29 111.34 84.96 112.11 85.24 112.54C85.52 112.96 85.89 113.57 86.05 113.9C86.21 114.22 86.45 114.78 86.58 115.14C86.71 115.49 86.87 116.03 86.94 116.32C87.01 116.61 87.1 116.98 87.15 117.15C87.2 117.31 87.27 121.57 87.38 135.77L87.75 136.47C87.95 136.86 88.3 137.36 88.52 137.58C88.73 137.8 89.15 138.14 89.45 138.32C89.74 138.51 90.35 138.75 90.81 138.85C91.48 139 91.77 139.01 92.35 138.9C92.74 138.83 93.32 138.65 93.65 138.5C93.97 138.34 94.43 138.04 94.66 137.82C94.9 137.6 95.22 137.23 95.39 137.01C95.55 136.78 95.78 136.33 95.91 136C96.11 135.45 96.13 134.81 96.19 126.25C96.24 118.77 96.28 117.01 96.42 116.67C96.51 116.45 96.75 115.99 96.96 115.67C97.17 115.34 97.57 114.87 97.86 114.61C98.14 114.36 98.73 113.99 99.15 113.79C99.72 113.53 100.14 113.42 100.8 113.39C101.4 113.35 101.95 113.4 102.46 113.53C102.88 113.64 103.44 113.86 103.7 114.01C103.96 114.16 104.41 114.52 104.7 114.8C104.98 115.08 105.35 115.55 105.52 115.85C105.69 116.14 105.9 116.62 106 116.91C106.16 117.36 106.19 118.8 106.31 135.77L106.72 136.52C106.95 136.94 107.32 137.46 107.55 137.68C107.78 137.9 108.19 138.21 108.47 138.37C108.74 138.53 109.33 138.75 109.77 138.85C110.43 139 110.69 139.01 111.28 138.9C111.67 138.82 112.2 138.67 112.46 138.56C112.72 138.45 113.14 138.2 113.39 138.01C113.64 137.81 114.02 137.42 114.24 137.12C114.45 136.83 114.71 136.33 114.81 136C114.98 135.47 115.01 133.1 115.04 112C115.07 91.56 115.1 88.5 115.26 87.83C115.36 87.41 115.58 86.66 115.75 86.18C115.93 85.69 116.28 84.94 116.53 84.52C116.78 84.1 117.21 83.47 117.47 83.13C117.74 82.79 118.37 82.16 118.88 81.74C119.43 81.27 120.26 80.73 120.98 80.38C121.63 80.05 122.59 79.68 123.11 79.54C123.82 79.36 124.44 79.3 125.59 79.29C126.81 79.28 127.33 79.34 128.08 79.54C128.6 79.68 129.4 79.97 129.85 80.2C130.31 80.42 131 80.84 131.39 81.13C131.78 81.42 132.38 81.94 132.73 82.29C133.08 82.64 133.6 83.24 133.88 83.63C134.16 84.02 134.6 84.77 134.86 85.29C135.11 85.81 135.46 86.63 135.63 87.12C135.79 87.61 136.04 88.62 136.17 89.37C136.3 90.12 136.49 91.82 136.59 93.15C136.69 94.48 136.77 96.16 136.77 96.87C136.77 97.59 136.69 99.18 136.59 100.42C136.5 101.66 136.33 103.2 136.23 103.85C136.13 104.5 135.94 105.56 135.82 106.21C135.7 106.86 135.44 108.03 135.24 108.81C135.03 109.59 134.73 110.66 134.56 111.18C134.4 111.7 133.99 112.81 133.67 113.66C133.34 114.5 132.75 115.89 132.35 116.73C131.94 117.58 131.18 119.01 130.65 119.92C130.12 120.84 129.26 122.19 128.72 122.94C128.19 123.69 127.47 124.64 127.13 125.07C126.78 125.49 126.21 126.15 125.19 127.25L125.18 129.65C125.18 131.43 125.23 132.26 125.37 132.9C125.47 133.37 125.75 134.13 125.98 134.58C126.27 135.14 126.72 135.72 127.36 136.37C128.13 137.15 128.5 137.42 129.32 137.8C129.87 138.07 130.56 138.34 130.86 138.41C131.15 138.47 131.74 138.56 132.16 138.6C132.66 138.65 133.26 138.61 133.87 138.49C134.42 138.39 135.22 138.11 135.77 137.85C136.43 137.52 136.94 137.16 137.48 136.62C137.91 136.2 138.44 135.54 138.66 135.16C138.89 134.78 139.2 134.13 139.34 133.73C139.49 133.32 139.66 132.52 139.73 131.95C139.8 131.31 139.85 122.94 139.85 109.67C139.85 91.46 139.87 88.32 140.02 87.68C140.12 87.28 140.28 86.7 140.38 86.41C140.48 86.12 140.77 85.45 141.04 84.93C141.3 84.41 141.8 83.64 142.14 83.22C142.48 82.8 143.16 82.12 143.64 81.72C144.13 81.31 144.97 80.75 145.53 80.46C146.08 80.17 146.88 79.83 147.3 79.7C147.73 79.57 148.55 79.4 149.14 79.32C149.79 79.23 150.54 79.2 151.09 79.26C151.58 79.3 152.35 79.43 152.8 79.55C153.26 79.67 154 79.93 154.46 80.14C154.92 80.35 155.61 80.75 156 81.03C156.39 81.31 157.06 81.9 157.48 82.35C157.91 82.8 158.4 83.35 158.57 83.58C158.74 83.8 159.07 84.33 159.31 84.76C159.55 85.18 159.9 85.9 160.08 86.35C160.26 86.81 160.52 87.61 160.65 88.13C160.78 88.65 160.98 89.76 161.09 90.61C161.2 91.45 161.32 93.21 161.37 94.51C161.41 95.81 161.41 97.94 161.37 99.24C161.32 100.54 161.2 102.21 161.09 102.96C160.99 103.71 160.82 104.8 160.71 105.38C160.61 105.97 160.32 107.3 160.07 108.34C159.82 109.38 159.37 110.95 159.07 111.83C158.77 112.71 158.45 113.58 158.37 113.78C158.28 113.97 158.02 114.61 157.77 115.2C157.53 115.78 157.09 116.74 156.8 117.32C156.5 117.91 155.99 118.87 155.67 119.45C155.34 120.04 154.65 121.15 154.13 121.93C153.61 122.71 152.75 123.91 152.23 124.58C151.7 125.26 150.96 126.15 149.91 127.31L149.9 129.17C149.9 130.68 149.95 131.23 150.16 132.04C150.29 132.59 150.57 133.37 150.76 133.76C150.96 134.15 151.27 134.68 151.45 134.94C151.62 135.2 152.08 135.72 152.47 136.09C152.85 136.46 153.35 136.89 153.57 137.05C153.8 137.2 154.23 137.47 154.52 137.63C154.81 137.8 155.53 138.08 156.12 138.25C156.99 138.51 157.41 138.57 158.48 138.57C159.46 138.57 160.02 138.51 160.73 138.32C161.25 138.18 162.02 137.88 162.45 137.65C162.87 137.43 163.52 137 163.9 136.71C164.27 136.42 164.86 135.84 165.2 135.42C165.54 135.01 166.01 134.28 166.25 133.8C166.49 133.32 166.78 132.61 166.89 132.22C167.08 131.59 167.11 130.75 167.17 124.42C167.24 118.25 167.27 117.25 167.44 116.73C167.55 116.41 167.87 115.82 168.16 115.43C168.44 115.04 168.88 114.57 169.14 114.37C169.4 114.18 169.9 113.89 170.26 113.72C170.83 113.46 171.06 113.42 172.21 113.42C173.39 113.42 173.58 113.45 174.22 113.76C174.61 113.94 175.16 114.29 175.45 114.53C175.74 114.76 176.12 115.17 176.3 115.43C176.47 115.69 176.75 116.2 177.18 117.21L177.3 135.65L177.6 136.3C177.76 136.65 178.14 137.21 178.43 137.52C178.71 137.84 179.24 138.25 179.6 138.43C179.96 138.61 180.6 138.82 181.02 138.89C181.61 139 181.95 139 182.44 138.89C182.8 138.81 183.33 138.64 183.62 138.5C183.91 138.36 184.39 138.03 184.68 137.76C184.98 137.49 185.37 137.02 185.54 136.7C185.72 136.38 185.9 135.88 185.94 135.59C186 135.21 185.95 134.76 185.78 134.05C185.64 133.5 185.44 132.43 185.33 131.69C185.18 130.65 185.15 129.85 185.2 128.32C185.23 127.21 185.35 125.83 185.46 125.24C185.56 124.66 185.73 123.89 185.83 123.53C185.93 123.17 186.09 122.64 186.18 122.35C186.28 122.06 186.4 121.71 186.45 121.58C186.51 121.45 186.76 120.87 187.01 120.28C187.26 119.7 187.74 118.76 188.07 118.21C188.39 117.66 189 116.75 189.42 116.2C189.84 115.65 190.63 114.74 191.19 114.19C191.75 113.64 192.6 112.89 193.09 112.53C193.58 112.17 194.14 111.76 194.33 111.63C194.53 111.49 195.14 111.15 195.69 110.85C196.25 110.56 197.2 110.13 197.82 109.9C198.44 109.67 199.4 109.38 199.95 109.25C200.51 109.11 201.68 108.94 202.56 108.86C203.81 108.74 204.4 108.74 205.28 108.85C205.9 108.93 206.88 109.13 207.47 109.3C208.05 109.47 208.9 109.79 209.36 110.01C209.81 110.24 210.56 110.7 211.01 111.03C211.46 111.37 212.12 112 212.47 112.42C212.81 112.84 213.31 113.61 213.57 114.13C213.83 114.65 214.14 115.42 214.27 115.85C214.39 116.27 214.55 117.03 214.62 117.53C214.69 118.04 214.74 118.93 214.74 119.51C214.74 120.1 214.68 120.99 214.61 121.49C214.54 122 214.35 122.86 214.19 123.41C214.03 123.96 213.77 124.76 213.6 125.19C213.43 125.61 213.13 126.27 212.94 126.66C212.74 127.05 212.31 127.8 211.98 128.32C211.65 128.84 211.08 129.64 210.71 130.09C210.34 130.55 209.57 131.37 208.99 131.92C208.41 132.48 207.47 133.27 206.9 133.7C206.33 134.12 205.48 134.7 205.01 134.99C204.54 135.28 203.54 135.81 202.79 136.18C202.04 136.55 200.97 137.03 200.4 137.25C199.83 137.48 199.37 137.7 199.36 137.75C199.36 137.79 199.72 138.01 200.16 138.23C200.6 138.45 201.36 138.76 201.85 138.91C202.61 139.15 202.96 139.19 204.39 139.19C205.5 139.18 206.38 139.11 207.05 138.97C207.6 138.86 208.51 138.62 209.06 138.45C209.62 138.28 210.71 137.82 211.49 137.43C212.27 137.03 213.36 136.37 213.91 135.95C214.47 135.54 215.48 134.63 216.17 133.94C216.85 133.25 217.71 132.29 218.07 131.81C218.43 131.32 219.06 130.36 219.47 129.68C219.89 128.99 220.48 127.9 220.79 127.25C221.1 126.6 221.51 125.59 221.71 125.01C221.9 124.42 222.14 123.62 222.24 123.23C222.34 122.84 222.51 122.1 222.6 121.58C222.7 121.06 222.83 119.97 222.89 119.16C222.95 118.34 222.95 117.09 222.9 116.38C222.85 115.66 222.77 114.68 222.72 114.19C222.64 113.33 222.65 113.29 222.98 112.9C223.17 112.68 224.23 111.86 225.33 111.06C226.44 110.27 227.7 109.38 228.14 109.07C228.87 108.56 228.98 108.53 229.38 108.61C229.75 108.69 229.9 108.82 230.29 109.41C230.54 109.8 231.24 110.6 231.83 111.19C232.52 111.87 233.48 112.65 234.5 113.34C235.38 113.94 236.66 114.86 237.36 115.4C238.05 115.94 239.14 116.84 239.78 117.4C240.42 117.96 241.59 119.08 242.37 119.88C243.16 120.69 244.24 121.9 244.79 122.58C245.33 123.27 246.03 124.2 246.33 124.65C246.64 125.11 247.16 125.96 247.49 126.54C247.82 127.13 248.27 128.03 248.5 128.55C248.72 129.07 249.04 129.93 249.22 130.45C249.39 130.97 249.64 131.92 249.77 132.57C249.91 133.3 250 134.23 250 135C250 135.68 249.92 136.72 249.81 137.3C249.71 137.89 249.49 138.76 249.33 139.25C249.16 139.74 248.86 140.46 248.67 140.85C248.48 141.24 248.02 142.01 247.65 142.56C247.28 143.11 246.56 143.99 246.04 144.51C245.52 145.04 244.69 145.77 244.2 146.13C243.71 146.49 242.81 147.06 242.19 147.39C241.57 147.72 240.56 148.15 239.94 148.36C239.33 148.56 238.29 148.83 237.64 148.96C236.79 149.12 235.96 149.19 234.74 149.19C233.44 149.19 232.75 149.13 231.9 148.94C231.28 148.8 230.43 148.55 230 148.37C229.58 148.2 228.86 147.84 228.41 147.59C227.95 147.33 227.13 146.74 226.57 146.28C226.02 145.82 225.36 145.2 225.1 144.92C224.85 144.63 224.21 143.93 223.68 143.35C223.16 142.78 222.68 142.21 222.61 142.09C222.52 141.92 222.56 141.8 222.81 141.54C222.99 141.35 223.43 140.83 223.8 140.38C224.16 139.92 224.87 138.94 225.37 138.19C225.88 137.44 226.46 136.54 226.66 136.18C226.86 135.82 227.16 135.37 227.61 134.82L228.04 135.17C228.27 135.37 228.77 135.89 229.15 136.33C229.52 136.77 230.07 137.34 230.36 137.58C230.65 137.83 231.18 138.22 231.54 138.46C231.9 138.7 232.57 139.03 233.02 139.21C233.75 139.5 234.01 139.54 235.21 139.54C236.37 139.54 236.67 139.5 237.22 139.26C237.58 139.11 238.1 138.84 238.38 138.65C238.65 138.46 239.09 138 239.36 137.63C239.62 137.25 239.94 136.6 240.07 136.18C240.23 135.64 240.3 135.07 240.3 134.26C240.3 133.49 240.22 132.78 240.05 132.13C239.92 131.59 239.73 130.92 239.63 130.62C239.53 130.33 239.29 129.75 239.09 129.32C238.89 128.9 238.53 128.26 238.3 127.9C238.07 127.55 237.58 126.88 237.21 126.43C236.85 125.97 236.15 125.25 235.67 124.82C235.19 124.4 234.56 123.87 234.27 123.64C233.98 123.42 233.15 122.9 232.43 122.49C231.72 122.09 231.04 121.75 230.92 121.76C230.78 121.76 230.69 121.88 230.64 122.14C230.61 122.35 230.47 122.9 230.34 123.35C230.21 123.81 229.92 124.74 229.71 125.42C229.49 126.1 229.07 127.3 228.78 128.08C228.49 128.86 227.97 130.16 227.61 130.98C227.26 131.79 226.64 133.07 226.23 133.81C225.82 134.56 225.09 135.81 224.6 136.59C224.12 137.37 223.43 138.41 223.07 138.9C222.71 139.39 221.95 140.31 221.39 140.94C220.82 141.58 219.84 142.57 219.2 143.13C218.56 143.7 217.47 144.55 216.77 145.02C216.08 145.5 214.95 146.17 214.27 146.52C213.59 146.87 212.6 147.32 212.08 147.53C211.56 147.74 210.81 148.01 210.42 148.13C210.03 148.26 209.29 148.46 208.77 148.58C208.25 148.71 207.29 148.88 206.64 148.95C205.99 149.03 204.95 149.09 204.33 149.08C203.71 149.07 202.65 149.01 201.96 148.94C201.28 148.87 200.22 148.68 199.6 148.52C198.98 148.36 198.13 148.09 197.7 147.92C197.28 147.75 196.46 147.37 195.87 147.08C195.29 146.79 194.49 146.34 194.1 146.07C193.71 145.81 192.99 145.27 192.5 144.86C192.01 144.46 191.17 143.67 189.66 142.09L189.22 142.95C188.98 143.42 188.55 144.1 188.26 144.45C187.97 144.81 187.43 145.39 187.07 145.75C186.7 146.1 185.93 146.7 185.34 147.08C184.76 147.46 183.9 147.92 183.45 148.11C182.99 148.3 182.19 148.57 181.67 148.7C181.15 148.84 180.17 148.98 179.48 149.02C178.72 149.07 177.79 149.04 177.06 148.95C176.4 148.87 175.4 148.64 174.81 148.43C174.22 148.23 173.29 147.79 172.75 147.47C172.17 147.12 171.36 146.48 170.79 145.93C170.26 145.41 169.73 144.85 169.6 144.69C169.47 144.53 169.18 144.11 168.54 143.13L168.01 143.76C167.72 144.11 167.19 144.68 166.83 145.02C166.47 145.37 165.83 145.91 165.4 146.23C164.98 146.56 164.13 147.08 163.51 147.4C162.89 147.72 161.96 148.11 161.44 148.27C160.92 148.44 160.04 148.67 159.49 148.78C158.71 148.95 157.97 149 156.24 149C154.93 148.99 153.66 148.93 153.22 148.84C152.8 148.76 152.02 148.57 151.5 148.41C150.98 148.26 150.13 147.94 149.61 147.7C149.09 147.46 148.24 146.99 147.72 146.64C147.2 146.3 146.4 145.68 145.95 145.26C145.5 144.85 144.79 144.09 144.37 143.57C143.95 143.05 143.56 142.54 143.5 142.44C143.41 142.29 143.39 142.29 143.29 142.44C143.23 142.54 142.98 142.89 142.73 143.23C142.48 143.56 142.01 144.13 141.68 144.5C141.36 144.87 140.72 145.48 140.26 145.85C139.81 146.22 139.22 146.67 138.96 146.84C138.7 147.02 137.98 147.4 137.36 147.69C136.75 147.99 135.73 148.36 135.12 148.52C134.5 148.68 133.43 148.88 132.75 148.96C132.02 149.04 130.87 149.07 129.97 149.03C129.12 148.99 128.01 148.87 127.48 148.77C126.96 148.66 126.14 148.44 125.65 148.28C125.16 148.11 124.34 147.77 123.82 147.5C123.3 147.24 122.47 146.75 121.98 146.42C121.5 146.09 120.65 145.36 120.09 144.8C119.54 144.25 118.87 143.49 118.61 143.12C118.35 142.75 118.1 142.45 118.05 142.45C118 142.45 117.9 142.59 117.82 142.77C117.74 142.95 117.43 143.47 117.13 143.92C116.82 144.38 116.26 145.09 115.88 145.5C115.49 145.92 114.89 146.48 114.53 146.76C114.17 147.03 113.53 147.44 113.11 147.68C112.69 147.91 111.86 148.26 111.28 148.46C110.69 148.65 109.73 148.88 109.15 148.95C108.51 149.04 107.58 149.07 106.84 149.02C106.16 148.98 105.17 148.84 104.65 148.7C104.13 148.56 103.33 148.28 102.88 148.07C102.42 147.86 101.74 147.49 101.37 147.25C100.99 147.01 100.27 146.43 99.77 145.95C99.26 145.47 98.69 144.85 98.14 144.07L97.93 144.35C97.81 144.51 97.43 144.95 97.1 145.33C96.76 145.72 96.14 146.3 95.72 146.64C95.29 146.98 94.6 147.44 94.18 147.68C93.76 147.91 92.93 148.26 92.35 148.46C91.76 148.65 90.8 148.88 90.22 148.95C89.58 149.04 88.65 149.07 87.91 149.02C87.22 148.98 86.24 148.84 85.72 148.7C85.2 148.56 84.4 148.28 83.94 148.07C83.49 147.86 82.8 147.48 82.41 147.23C82.02 146.97 81.28 146.36 80.77 145.87C80.26 145.38 79.59 144.64 79.29 144.22C78.99 143.79 78.55 143.02 78.31 142.5C78.07 141.98 77.75 141.16 77.6 140.67C77.33 139.79 77.33 139.74 77.2 121.34L76.91 120.63C76.72 120.15 76.42 119.71 75.97 119.26C75.5 118.79 75.1 118.53 74.6 118.34C74.03 118.12 73.7 118.08 72.94 118.11C72.17 118.14 71.86 118.22 71.3 118.51C70.92 118.7 70.39 119.1 70.12 119.39C69.86 119.69 69.5 120.22 69.04 121.23L68.98 133.11C68.93 143.38 68.89 145.05 68.74 145.46C68.64 145.72 68.42 146.17 68.25 146.46C68.08 146.76 67.7 147.23 67.41 147.53C67.12 147.82 66.62 148.2 66.3 148.38C65.98 148.55 65.4 148.78 65.01 148.88C64.62 148.98 64.01 149.07 63.65 149.07C63.3 149.07 62.68 148.98 62.29 148.88C61.9 148.78 61.32 148.55 61.01 148.38C60.69 148.2 60.18 147.81 59.88 147.51C59.58 147.21 59.17 146.66 58.96 146.27C58.75 145.89 58.5 145.16 58.4 144.66C58.23 143.84 58.21 141.28 58.21 98L58.67 97.08C58.92 96.58 59.32 95.63 59.55 94.98C59.77 94.33 60.1 93.24 60.26 92.56C60.43 91.88 60.65 90.69 60.75 89.93C60.85 89.16 60.93 87.7 60.93 86.68C60.93 85.57 60.86 84.36 60.75 83.69C60.65 83.08 60.47 82.15 60.36 81.63C60.15 80.7 60.15 80.69 60.39 80.41C60.53 80.26 60.96 79.98 61.35 79.79C61.74 79.61 62.32 79.4 62.65 79.34C62.97 79.28 63.43 79.22 63.65 79.22ZM125.97 88.75C125.78 88.93 125.53 89.27 125.4 89.52C125.19 89.94 125.18 90.39 125.18 102.34C125.18 113.47 125.2 114.7 125.37 114.49C125.47 114.36 125.85 113.64 126.23 112.89C126.61 112.14 127.14 110.89 127.41 110.11C127.69 109.33 128.07 108.06 128.25 107.28C128.44 106.5 128.7 105.25 128.83 104.5C128.96 103.75 129.17 102.34 129.28 101.37C129.45 99.94 129.5 98.69 129.49 95.04C129.49 90.62 129.48 90.47 129.23 89.81C129.08 89.44 128.79 88.97 128.58 88.78C128.37 88.58 128.01 88.37 127.78 88.3C127.55 88.24 127.29 88.19 127.19 88.2C127.09 88.2 126.85 88.25 126.66 88.31C126.46 88.37 126.15 88.57 125.97 88.75ZM150.64 88.81C150.43 89.02 150.17 89.4 150.08 89.66C149.92 90.07 149.9 91.77 149.93 102.49L149.96 114.84C151.38 112 151.96 110.7 152.16 110.11C152.36 109.53 152.68 108.46 152.86 107.75C153.05 107.03 153.28 106.02 153.39 105.5C153.49 104.98 153.65 104 153.75 103.32C153.86 102.63 154.02 101.14 154.11 100.01C154.2 98.87 154.28 96.61 154.27 94.98C154.27 93.36 154.23 91.6 154.18 91.08C154.12 90.44 153.99 89.93 153.78 89.49C153.59 89.11 153.3 88.73 153.07 88.58C152.86 88.43 152.47 88.29 152.21 88.26C151.95 88.22 151.58 88.25 151.38 88.31C151.19 88.37 150.85 88.6 150.64 88.81ZM201.49 118.52C201.13 118.63 200.57 118.85 200.25 119.01C199.92 119.17 199.27 119.59 198.8 119.94C198.32 120.3 197.62 120.98 197.21 121.49C196.81 122 196.25 122.89 195.98 123.47C195.7 124.06 195.35 124.99 195.2 125.54C194.97 126.38 194.93 126.84 194.93 128.34C194.93 129.37 194.97 130.2 195.04 130.27C195.13 130.37 195.5 130.31 196.46 130.03C197.18 129.83 198.27 129.44 198.89 129.18C199.51 128.92 200.07 128.67 200.13 128.62C200.2 128.57 200.57 128.35 200.96 128.14C201.35 127.93 202.04 127.46 202.48 127.09C202.93 126.73 203.48 126.24 203.71 126.01C203.93 125.79 204.37 125.2 204.7 124.71C205.02 124.22 205.45 123.4 205.65 122.88C205.85 122.36 206.05 121.62 206.1 121.23C206.14 120.82 206.13 120.28 206.05 119.96C205.97 119.59 205.78 119.26 205.45 118.93C205.19 118.66 204.82 118.39 204.63 118.34C204.43 118.28 204.11 118.2 203.92 118.17C203.72 118.14 203.24 118.17 202.85 118.22C202.46 118.28 201.85 118.42 201.49 118.52ZM113.52 88.95L113.55 93.21C113.57 95.55 113.56 97.53 113.52 97.61C113.49 97.69 113.4 97.76 113.32 97.75C113.2 97.74 113.2 97.73 113.32 97.69C113.43 97.65 113.47 96.65 113.49 93.3" />
		<path class="shp0" d="M126.86 90.19C126.75 90.37 126.72 92.38 126.72 98.23C126.72 103.36 126.76 106.04 126.83 106.04C126.9 106.04 127 105.84 127.06 105.59C127.13 105.35 127.26 104.62 127.37 103.97C127.48 103.32 127.64 102.01 127.73 101.07C127.82 100.13 127.93 98.05 127.97 96.46C128.01 94.79 127.99 92.89 127.92 91.97C127.82 90.7 127.75 90.33 127.58 90.16C127.46 90.05 127.28 89.95 127.18 89.95C127.08 89.96 126.94 90.06 126.86 90.19ZM151.62 90.22C151.44 90.46 151.42 91.21 151.43 98.14C151.44 104.18 151.47 105.8 151.59 105.8C151.68 105.8 151.81 105.4 151.94 104.71C152.05 104.1 152.2 103.24 152.27 102.78C152.34 102.33 152.47 101.11 152.56 100.07C152.64 99.03 152.72 96.9 152.73 95.34C152.74 93.78 152.69 92.02 152.63 91.44C152.54 90.71 152.44 90.31 152.3 90.16C152.19 90.05 152.03 89.95 151.95 89.95C151.87 89.96 151.72 90.08 151.62 90.22Z" />
		<path class="shp1" d="M152.59 91.2C152.62 91.59 152.66 91.96 152.69 92.03C152.71 92.09 152.73 91.85 152.73 91.5C152.74 91.14 152.69 90.77 152.64 90.67C152.57 90.56 152.55 90.76 152.59 91.2ZM126.65 98.35C126.65 102.54 126.67 104.25 126.69 102.13C126.7 100.02 126.7 96.59 126.69 94.51C126.67 92.43 126.65 94.16 126.65 98.35Z" />
		<path class="shp0" d="M100.27 95.01C99.84 96.36 99.34 97.89 99.16 98.41L98.83 99.36C93.41 99.36 91.79 99.4 91.73 99.45C91.68 99.5 91.71 99.62 91.81 99.71C91.91 99.8 92.35 100.14 92.78 100.45C93.22 100.76 94.39 101.6 95.37 102.31C96.36 103.03 97.21 103.68 97.27 103.76C97.34 103.85 97.01 105.05 96.36 107.07C95.8 108.81 95.3 110.32 95.24 110.44C95.17 110.57 95.17 110.67 95.24 110.7C95.31 110.74 95.69 110.52 96.1 110.23C96.51 109.93 97.79 109 98.94 108.16C100.1 107.32 101.09 106.63 101.16 106.63C101.22 106.63 101.9 107.08 102.67 107.63C103.43 108.18 104.16 108.71 104.29 108.8C104.42 108.9 105.08 109.38 105.74 109.87C106.41 110.36 107.01 110.74 107.08 110.7C107.15 110.67 107.15 110.53 107.09 110.32C107.03 110.14 106.55 108.69 106.03 107.1C105.51 105.51 105.05 104.12 105 104.03C104.95 103.9 105.27 103.59 106.12 102.96C106.77 102.47 108.08 101.52 109.03 100.83C109.97 100.15 110.75 99.54 110.74 99.47C110.74 99.4 109.51 99.37 107.22 99.38C105.29 99.4 103.65 99.36 103.58 99.31C103.52 99.25 103.01 97.71 102.44 95.88C101.69 93.41 101.38 92.56 101.24 92.56C101.11 92.56 100.85 93.22 100.27 95.01ZM170.96 95.96L169.84 99.36C167.18 99.4 165.57 99.41 164.55 99.41C163.39 99.41 162.68 99.46 162.68 99.53C162.68 99.6 163.04 99.9 163.48 100.21C163.92 100.52 165.19 101.43 166.29 102.23C167.4 103.03 168.32 103.73 168.34 103.77C168.36 103.81 168.28 104.19 168.14 104.62C168.01 105.04 167.53 106.56 167.07 107.99C166.6 109.42 166.27 110.63 166.32 110.68C166.37 110.73 166.57 110.65 166.77 110.5C166.96 110.34 168.2 109.44 169.52 108.48C170.83 107.53 171.99 106.72 172.09 106.69C172.19 106.65 172.57 106.84 172.95 107.09C173.32 107.35 174.27 108.02 175.05 108.59C175.83 109.15 176.81 109.87 177.24 110.19C177.66 110.5 178.05 110.72 178.1 110.67C178.14 110.63 177.97 109.92 177.7 109.11C177.44 108.3 176.96 106.81 176.64 105.8C176.31 104.79 176.08 103.89 176.12 103.79C176.15 103.69 177.43 102.71 178.96 101.6C180.49 100.5 181.74 99.53 181.74 99.44C181.73 99.33 180.99 99.31 178.21 99.38C175.22 99.45 174.67 99.43 174.57 99.29C174.51 99.2 174.09 98 173.65 96.64C173.21 95.27 172.76 93.8 172.64 93.36C172.5 92.8 172.39 92.56 172.25 92.56C172.12 92.56 171.79 93.42 170.96 95.96Z" />
		<path class="shp1" d="M152.79 95.04C152.79 96.05 152.81 96.45 152.83 95.93C152.86 95.41 152.86 94.58 152.83 94.1C152.81 93.61 152.79 94.03 152.79 95.04ZM162.96 96.28C162.96 97 162.98 97.26 163.01 96.87C163.03 96.48 163.03 95.9 163.01 95.57C162.98 95.25 162.96 95.57 162.96 96.28ZM97.69 97.46C97.62 97.61 97.3 97.65 95.86 97.68L94.12 97.71C97.27 97.77 97.58 97.74 97.73 97.59C97.83 97.48 97.88 97.37 97.84 97.34C97.81 97.31 97.74 97.36 97.69 97.46ZM168.65 97.52C168.59 97.58 167.82 97.65 166.94 97.67L165.35 97.71C168.26 97.77 168.57 97.74 168.7 97.59C168.78 97.49 168.83 97.41 168.81 97.41C168.78 97.41 168.71 97.46 168.65 97.52ZM175.61 97.52C175.65 97.67 175.93 97.7 177.19 97.71L178.72 97.71C176.26 97.65 175.72 97.58 175.66 97.49C175.59 97.39 175.58 97.4 175.61 97.52ZM152.65 98.82C152.64 99.12 152.6 99.62 152.57 99.95L152.51 100.54C152.7 99.62 152.74 99.12 152.71 98.82L152.67 98.29M174.35 98.82C174.39 98.99 174.49 99.19 174.56 99.27C174.66 99.39 175.27 99.42 177.24 99.39L179.78 99.36L174.61 99.24C174.31 98.59 174.29 98.58 174.35 98.82ZM103.41 99C103.4 99.07 103.47 99.19 103.55 99.27C103.66 99.37 104.14 99.4 105.24 99.38L106.78 99.35C103.86 99.3 103.63 99.27 103.53 99.09C103.47 98.98 103.41 98.94 103.41 99ZM96.25 99.3L93.65 99.36C97.85 99.41 98.81 99.37 98.85 99.3C98.88 99.23 98.89 99.19 98.88 99.2C98.86 99.22 97.68 99.26 96.25 99.3ZM168.13 99.3L166.41 99.37C169.13 99.41 169.8 99.37 169.84 99.3C169.87 99.23 169.88 99.19 169.87 99.2C169.85 99.22 169.07 99.26 168.13 99.3ZM108.2 99.38C108.59 99.41 109.26 99.41 109.68 99.38C110.1 99.36 109.78 99.34 108.97 99.34C108.15 99.34 107.81 99.36 108.2 99.38ZM163.69 99.38C164.21 99.41 165.03 99.41 165.52 99.38C166.01 99.36 165.59 99.34 164.58 99.34C163.57 99.34 163.17 99.36 163.69 99.38Z" />
		<path class="shp0" d="M110.21 102.03C108.52 103.26 107.08 104.32 107.02 104.38C106.94 104.46 106.99 104.75 107.16 105.24C107.3 105.64 107.98 107.73 108.67 109.88C109.37 112.02 110.04 114.06 110.16 114.4C110.29 114.74 110.39 115.05 110.39 115.08C110.39 115.11 110.31 115.11 110.21 115.08C110.11 115.05 109.43 114.58 108.7 114.04C107.97 113.5 106.81 112.65 106.13 112.16C105.45 111.67 104.06 110.67 103.05 109.94C101.51 108.82 101.19 108.63 101.01 108.74C100.9 108.81 99.41 109.88 97.7 111.12C95.99 112.36 94.05 113.77 93.38 114.25C92.71 114.74 92.14 115.12 92.1 115.11C92.06 115.09 92.09 114.89 92.15 114.66C92.22 114.44 92.92 112.26 93.71 109.82C94.5 107.38 95.21 105.21 95.28 105C95.39 104.71 95.39 104.56 95.29 104.41C95.22 104.29 94.58 103.79 93.87 103.28C93.16 102.77 91.88 101.85 91.01 101.24C90.15 100.63 89.38 100.1 89.3 100.06C89.18 100.02 89.13 102.14 89.04 110.26C88.97 115.9 88.92 123.84 88.92 127.9C88.91 135.06 88.92 135.31 89.15 135.76C89.28 136.02 89.57 136.41 89.8 136.62C90.03 136.84 90.43 137.1 90.69 137.2C90.99 137.32 91.42 137.37 91.88 137.34C92.43 137.31 92.74 137.22 93.18 136.94C93.54 136.72 93.9 136.36 94.12 136.01L94.47 135.43C94.59 117.72 94.61 117.05 94.81 116.5C94.93 116.17 95.2 115.59 95.4 115.2C95.61 114.81 96.12 114.14 96.55 113.72C96.97 113.29 97.63 112.78 98.02 112.57C98.41 112.37 99.08 112.11 99.5 112C99.93 111.89 100.64 111.8 101.1 111.8C101.56 111.8 102.25 111.86 102.64 111.94C103.03 112.02 103.69 112.26 104.11 112.46C104.53 112.67 105.19 113.12 105.58 113.48C105.97 113.84 106.46 114.4 106.66 114.72C106.87 115.05 107.19 115.69 107.38 116.14L107.73 116.97C107.82 131.88 107.89 135.38 107.96 135.53C108.03 135.66 108.19 135.94 108.32 136.16C108.45 136.37 108.79 136.7 109.09 136.9C109.46 137.14 109.83 137.27 110.33 137.32C110.88 137.38 111.17 137.35 111.63 137.18C111.96 137.06 112.38 136.82 112.57 136.66C112.76 136.49 113.04 136.09 113.19 135.77L113.46 135.17C113.46 107.74 113.42 99.77 113.38 99.78C113.33 99.78 111.9 100.8 110.21 102.03Z" />
		<path class="shp1" d="M89.27 99.97C89.33 100.03 89.68 100.28 90.04 100.53C90.52 100.86 90.59 100.89 90.31 100.64C90.11 100.45 89.76 100.2 89.54 100.08C89.33 99.96 89.2 99.91 89.27 99.97ZM113.52 117.5C113.52 127.22 113.54 131.18 113.55 126.31C113.57 121.43 113.57 113.48 113.55 108.64C113.54 103.79 113.52 107.78 113.52 117.5ZM89.03 107.34C89.03 111.4 89.04 113.05 89.06 111C89.08 108.95 89.08 105.63 89.06 103.61C89.04 101.6 89.03 103.27 89.03 107.34Z" />
		<path class="shp0" d="M182.68 100.97C182.52 101.1 181.5 101.85 180.43 102.62C179.36 103.39 178.36 104.12 178.21 104.26C178.07 104.39 177.97 104.56 178 104.65C178.03 104.73 178.7 106.79 179.49 109.23C180.28 111.66 181.03 113.98 181.15 114.37C181.27 114.76 181.35 115.09 181.32 115.11C181.28 115.12 181.01 114.96 180.7 114.74C180.39 114.52 178.36 113.06 176.2 111.49C174.04 109.92 172.24 108.64 172.21 108.64C172.18 108.64 171.36 109.2 170.4 109.9C169.44 110.59 167.49 112.01 166.06 113.05C164.62 114.09 163.39 114.98 163.3 115.04C163.22 115.09 163.13 115.1 163.1 115.05C163.08 115 163.23 114.43 163.44 113.78C163.66 113.13 164.25 111.32 164.75 109.76C165.25 108.2 165.84 106.39 166.05 105.74C166.26 105.09 166.41 104.5 166.39 104.44C166.36 104.37 165.65 103.82 164.79 103.2C163.94 102.58 163.17 102.03 163.08 101.98C162.99 101.92 162.89 101.89 162.86 101.92C162.83 101.94 162.72 102.6 162.62 103.38C162.52 104.16 162.27 105.59 162.08 106.57C161.88 107.54 161.56 108.93 161.36 109.64C161.17 110.36 160.79 111.58 160.53 112.36C160.27 113.14 159.83 114.34 159.55 115.02C159.27 115.7 158.79 116.79 158.48 117.44C158.17 118.09 157.55 119.29 157.09 120.1C156.64 120.91 155.89 122.14 155.43 122.82C154.97 123.5 154.22 124.57 153.75 125.19C153.28 125.8 152.57 126.68 152.17 127.14L151.45 127.96C151.44 130.27 151.51 131.07 151.62 131.51C151.72 131.9 151.89 132.43 152 132.69C152.11 132.95 152.38 133.44 152.59 133.79C152.81 134.13 153.31 134.73 153.72 135.12C154.21 135.59 154.78 135.99 155.41 136.29C155.93 136.54 156.63 136.81 156.97 136.88C157.32 136.95 158.01 137.01 158.51 137C159.02 137 159.78 136.92 160.2 136.82C160.62 136.72 161.34 136.44 161.79 136.2C162.25 135.96 162.94 135.47 163.33 135.1C163.72 134.74 164.27 134.07 164.54 133.63C164.81 133.18 165.15 132.44 165.3 131.98C165.57 131.17 165.57 131.04 165.64 124C165.7 117.98 165.74 116.77 165.9 116.32C166 116.03 166.19 115.57 166.32 115.31C166.45 115.05 166.8 114.55 167.08 114.19C167.37 113.83 167.98 113.29 168.43 112.99C168.88 112.68 169.57 112.31 169.96 112.17C170.45 111.99 171.03 111.89 171.85 111.85C172.57 111.82 173.29 111.86 173.69 111.95C174.04 112.03 174.63 112.22 174.99 112.38C175.35 112.54 175.94 112.92 176.32 113.23C176.69 113.53 177.18 114.02 177.4 114.31C177.62 114.6 177.92 115.05 178.07 115.31C178.21 115.57 178.43 116.13 178.55 116.56C178.76 117.27 178.77 117.88 178.77 126.01C178.77 133.3 178.8 134.8 178.95 135.29C179.04 135.62 179.3 136.1 179.52 136.36C179.75 136.64 180.18 136.94 180.56 137.11C181.07 137.33 181.34 137.38 181.91 137.34C182.38 137.3 182.78 137.19 183.09 137C183.35 136.84 183.66 136.6 183.78 136.47C183.9 136.34 184.1 136.04 184.23 135.79C184.45 135.35 184.45 135.35 184.16 134.02C184 133.29 183.81 132.11 183.73 131.39C183.65 130.56 183.63 129.23 183.68 127.73C183.72 126.42 183.7 124.46 183.63 123.35C183.57 122.25 183.49 120.89 183.45 120.34C183.42 119.79 183.36 115.14 183.32 110.02C183.26 103.33 183.2 100.72 183.11 100.72C183.03 100.72 182.84 100.83 182.68 100.97Z" />
		<path class="shp1" d="M183.33 107.87C183.33 111.83 183.34 113.43 183.36 111.41C183.38 109.4 183.38 106.15 183.36 104.2C183.34 102.25 183.33 103.9 183.33 107.87Z" />
		<path class="shp0" d="M137.93 103.33C137.88 103.49 137.79 104.04 137.72 104.56C137.64 105.08 137.51 105.9 137.41 106.39C137.31 106.88 137.05 108.02 136.82 108.93C136.59 109.84 136.17 111.28 135.89 112.12C135.61 112.97 135.21 114.06 135.02 114.55C134.82 115.03 134.36 116.1 133.99 116.91C133.62 117.72 133 118.97 132.6 119.69C132.21 120.4 131.62 121.41 131.29 121.93C130.96 122.45 130.19 123.57 129.57 124.42C128.96 125.26 128.06 126.42 127.59 126.99L126.72 128.02C126.72 131.31 126.77 132.07 126.91 132.57C127.01 132.96 127.2 133.5 127.33 133.76C127.46 134.02 127.77 134.47 128 134.76C128.24 135.05 128.54 135.39 128.67 135.5C128.8 135.62 129.14 135.88 129.44 136.09C129.73 136.29 130.24 136.56 130.56 136.68C130.9 136.81 131.61 136.94 132.22 136.97C133 137.02 133.49 136.98 134.05 136.84C134.47 136.73 135.11 136.47 135.45 136.26C135.8 136.05 136.35 135.59 136.68 135.23C137 134.88 137.42 134.26 137.6 133.87C137.79 133.48 137.99 132.85 138.06 132.46C138.14 132 138.21 126.72 138.25 117.62C138.3 106.22 138.29 103.45 138.17 103.27C138.02 103.06 138.01 103.06 137.93 103.33Z" />
		<path class="shp1" d="M107.72 126.19C107.72 131 107.74 132.94 107.76 130.5C107.77 128.07 107.77 124.13 107.76 121.76C107.74 119.38 107.72 121.38 107.72 126.19ZM133.25 118.27C133.04 118.69 132.89 119.04 132.93 119.04C132.96 119.04 133.15 118.72 133.34 118.33C133.54 117.94 133.68 117.59 133.66 117.56C133.64 117.53 133.45 117.85 133.25 118.27ZM94.59 126.37C94.59 131.15 94.6 133.09 94.62 130.68C94.64 128.28 94.64 124.37 94.62 121.99C94.6 119.62 94.59 121.59 94.59 126.37ZM88.9 119.39C88.9 120.08 88.92 120.34 88.94 119.98C88.97 119.63 88.97 119.07 88.94 118.74C88.92 118.42 88.9 118.71 88.9 119.39ZM138.25 125.89C138.25 129.18 138.26 130.51 138.28 128.85C138.3 127.19 138.3 124.51 138.28 122.88C138.26 121.25 138.25 122.61 138.25 125.89ZM88.77 127.85C88.76 131.75 88.79 135.03 88.83 135.14C88.88 135.25 88.9 132.78 88.88 129.64C88.87 126.51 88.84 123.23 88.82 122.35C88.8 121.47 88.78 123.94 88.77 127.85ZM126.64 129.68C126.64 130.62 126.66 131.02 126.69 130.56C126.71 130.11 126.71 129.34 126.69 128.85C126.66 128.36 126.64 128.73 126.64 129.68ZM132.16 137.09C132.39 137.12 132.79 137.12 133.05 137.09C133.31 137.07 133.12 137.05 132.63 137.05C132.14 137.05 131.93 137.07 132.16 137.09ZM158.07 137.09C158.36 137.12 158.79 137.12 159.02 137.09C159.24 137.07 159 137.05 158.48 137.05C157.96 137.05 157.78 137.07 158.07 137.09Z" />
		<path class="shp0" d="M142.68 145.73C142.32 146.1 141.6 146.76 141.06 147.2C140.52 147.64 140.06 148 140.03 148C139.99 148 139.79 148.13 139.58 148.28C139.37 148.44 138.75 148.78 138.19 149.04C137.64 149.3 136.76 149.65 136.24 149.82C135.72 149.99 134.89 150.21 134.41 150.31C133.92 150.41 132.88 150.53 132.1 150.58C131.32 150.62 130.09 150.62 129.38 150.58C128.66 150.53 127.65 150.4 127.13 150.3C126.61 150.19 125.78 149.98 125.3 149.82C124.81 149.66 123.98 149.32 123.46 149.08C122.94 148.84 122.12 148.38 121.63 148.07C121.14 147.76 120.45 147.26 120.09 146.96C119.73 146.66 119.17 146.16 118.85 145.84C118.52 145.53 118.23 145.27 118.2 145.27C118.16 145.28 117.92 145.55 117.66 145.89C117.4 146.22 116.87 146.79 116.48 147.15C116.09 147.51 115.45 148.03 115.06 148.3C114.67 148.58 113.85 149.05 113.23 149.34C112.61 149.63 111.85 149.95 111.54 150.06C111.23 150.16 110.49 150.33 109.89 150.44C109.06 150.58 108.35 150.61 107.02 150.57C105.72 150.52 104.99 150.44 104.29 150.25C103.77 150.11 102.98 149.84 102.52 149.65C102.06 149.46 101.21 148.99 100.63 148.61C100.04 148.23 99.26 147.64 98.88 147.31C98.51 146.97 98.17 146.7 98.14 146.7C98.11 146.7 97.7 147.03 97.23 147.43C96.75 147.83 96.1 148.33 95.78 148.54C95.45 148.74 94.81 149.1 94.36 149.33C93.9 149.56 93.1 149.88 92.58 150.04C92.06 150.21 91.18 150.41 90.63 150.49C89.99 150.58 89.04 150.61 88.03 150.57C87 150.52 86.07 150.41 85.42 150.25C84.87 150.11 84.13 149.86 83.77 149.7C83.41 149.54 83.04 149.42 82.94 149.44C82.84 149.46 82.47 150.04 82.11 150.72C81.75 151.4 81.35 152.14 81.22 152.36C81.09 152.58 80.54 153.46 80 154.31C79.45 155.16 78.71 156.26 78.34 156.75C77.98 157.24 77.31 158.09 76.87 158.64C76.42 159.19 75.73 159.99 75.33 160.41C74.93 160.83 74.1 161.71 73.48 162.36C72.86 163.01 71.84 164.1 71.21 164.79C70.58 165.47 69.85 166.29 69.58 166.62C69.32 166.94 68.5 168.01 67.77 168.98C67.03 169.96 66.21 171.07 65.95 171.46C65.68 171.85 65.09 172.81 64.63 173.59C64.17 174.37 63.51 175.6 63.15 176.31C62.79 177.03 62.29 178.12 62.02 178.73C61.76 179.35 61.38 180.36 61.17 180.98C60.97 181.6 60.67 182.61 60.52 183.23C60.36 183.84 60.15 184.83 60.05 185.41C59.95 186 59.82 187.09 59.76 187.84C59.7 188.65 59.7 189.77 59.76 190.62C59.82 191.46 59.93 192.1 60.01 192.19C60.14 192.31 66.4 192.34 93.68 192.33C112.11 192.33 127.21 192.29 127.24 192.24C127.27 192.19 127.16 191.62 127 190.97C126.72 189.86 126.63 189.69 125.56 188.13C124.93 187.22 124.19 186.13 123.92 185.71C123.5 185.08 123.35 184.69 123.1 183.58C122.93 182.83 122.48 180.95 122.1 179.38C121.72 177.82 121.25 175.88 121.05 175.07C120.86 174.26 120.56 173.02 120.39 172.32C120.13 171.21 120.01 170.93 119.42 170.08C119.06 169.54 118.13 168.17 117.37 167.03L115.98 164.96C115.74 155.16 115.67 152.08 115.66 151.78L115.65 151.25L118.61 151.25L118.73 161.65C119.46 162.75 119.7 163.1 119.74 163.13C119.77 163.16 120.46 164.17 121.27 165.38L122.74 167.56C123.35 170.13 123.69 171.51 123.88 172.29C124.06 173.07 124.38 174.38 124.57 175.19C124.77 176 125.14 177.6 125.41 178.73C125.67 179.87 125.93 180.96 125.99 181.16C126.04 181.35 126.82 182.6 127.72 183.94C129.18 186.1 129.37 186.45 129.57 187.25C129.68 187.73 129.95 188.85 130.15 189.73C130.36 190.61 130.57 191.48 130.63 191.68C130.69 191.87 130.74 192.69 130.74 193.48L130.74 194.93C129.32 195.97 128.58 196.59 128.18 196.99C127.78 197.38 127.19 198.05 126.87 198.48C126.55 198.9 126.1 199.59 125.86 200.01C125.62 200.44 125.29 201.15 125.13 201.61C124.97 202.06 124.78 202.86 124.7 203.38C124.62 203.95 124.59 204.68 124.64 205.21C124.69 205.7 124.86 206.53 125.02 207.05C125.19 207.57 125.5 208.35 125.72 208.79C125.94 209.23 126.3 209.87 126.52 210.21C126.74 210.55 127.24 211.23 127.62 211.72C128.01 212.2 128.88 213.15 129.56 213.82L130.8 215.04L130.92 221.94C140.16 221.99 141.35 221.96 141.41 221.85C141.46 221.77 141.5 220.22 141.5 218.39L141.51 215.08C143.1 213.53 143.88 212.7 144.28 212.25C144.68 211.79 145.25 211.07 145.55 210.65C145.85 210.23 146.29 209.48 146.54 209C146.78 208.51 147.08 207.82 147.2 207.46C147.33 207.1 147.51 206.48 147.6 206.07C147.7 205.66 147.78 204.96 147.78 204.5C147.78 204.05 147.72 203.42 147.65 203.12C147.58 202.81 147.41 202.21 147.27 201.79C147.14 201.36 146.85 200.67 146.62 200.25C146.4 199.83 145.97 199.14 145.66 198.72C145.36 198.3 144.82 197.64 144.46 197.25C144.1 196.86 143.31 196.17 142.69 195.71L141.56 194.87L141.56 192.39L212.38 192.33C212.49 191.92 212.56 191.27 212.61 190.62C212.65 189.96 212.64 188.74 212.59 187.9C212.54 187.05 212.41 185.91 212.3 185.35C212.2 184.8 211.99 183.84 211.84 183.23C211.68 182.61 211.38 181.57 211.16 180.92C210.93 180.27 210.55 179.26 210.31 178.68C210.07 178.09 209.6 177.08 209.28 176.43C208.95 175.78 208.52 174.96 208.32 174.6C208.12 174.24 207.61 173.39 207.19 172.71C206.77 172.02 206.24 171.2 206.01 170.87C205.78 170.55 205.3 169.88 204.94 169.4C204.57 168.91 203.83 167.95 203.27 167.27C202.72 166.59 202.06 165.79 201.79 165.5C201.53 165.21 200.94 164.57 200.49 164.08C200.04 163.59 198.95 162.45 198.08 161.54C197.21 160.62 195.94 159.19 195.26 158.34C194.58 157.5 193.53 156.06 192.93 155.15C192.32 154.24 191.58 153.1 191.29 152.61C190.99 152.12 190.3 150.82 189.75 149.71C189.19 148.61 188.67 147.5 188.58 147.26C188.49 147.01 188.38 146.82 188.33 146.82C188.28 146.82 187.93 147.08 187.56 147.4C187.18 147.71 186.59 148.16 186.23 148.38C185.87 148.61 185.19 148.99 184.72 149.23C184.25 149.46 183.45 149.79 182.94 149.96C182.44 150.13 181.58 150.35 181.02 150.44C180.47 150.53 179.4 150.6 178.66 150.6C177.91 150.6 176.83 150.52 176.26 150.42C175.69 150.33 174.91 150.14 174.51 150.01C174.12 149.88 173.5 149.63 173.12 149.46C172.75 149.28 171.99 148.85 171.44 148.49C170.88 148.13 169.98 147.38 169.4 146.8L168.36 145.75C167.31 146.74 166.63 147.29 166.17 147.61C165.72 147.94 165.11 148.34 164.81 148.5C164.52 148.66 163.88 148.97 163.39 149.18C162.91 149.39 162.19 149.66 161.8 149.79C161.41 149.92 160.58 150.13 159.96 150.26C159.34 150.39 158.23 150.54 157.48 150.58C156.73 150.63 155.48 150.63 154.7 150.57C153.92 150.52 152.72 150.34 152.04 150.18C151.35 150.02 150.5 149.77 150.14 149.64C149.78 149.51 149.04 149.18 148.49 148.9C147.93 148.63 147.13 148.17 146.71 147.88C146.29 147.59 145.79 147.22 145.59 147.06C145.39 146.89 144.83 146.37 144.34 145.9C143.86 145.43 143.42 145.04 143.39 145.04C143.35 145.04 143.03 145.35 142.68 145.73Z" />
		<path class="shp1" d="M144.34 145.93C144.77 146.36 145.14 146.7 145.17 146.7C145.21 146.7 144.9 146.36 144.5 145.93C144.1 145.51 143.72 145.16 143.67 145.16C143.62 145.16 143.92 145.51 144.34 145.93ZM169.31 146.74C169.6 147.05 170.05 147.47 170.31 147.68C170.58 147.88 170.71 147.96 170.61 147.86C170.51 147.77 170.06 147.35 169.6 146.93C168.97 146.35 168.9 146.31 169.31 146.74ZM115.64 151.34C115.61 151.42 115.6 151.65 115.63 151.84C115.67 152.16 115.68 152.15 115.69 151.75L115.71 151.31C117.99 151.36 118.63 151.33 118.6 151.28C118.57 151.23 117.91 151.19 117.13 151.19C116.1 151.19 115.69 151.23 115.64 151.34ZM118.58 156.84C118.56 159.45 118.59 161.62 118.64 161.64C118.69 161.67 118.72 160.3 118.7 158.6C118.68 156.9 118.65 154.74 118.64 153.79C118.62 152.85 118.59 154.22 118.58 156.84ZM115.76 153.67C115.76 154.49 115.78 154.81 115.8 154.38C115.82 153.96 115.82 153.3 115.8 152.91C115.78 152.52 115.76 152.86 115.76 153.67ZM115.88 158.88C115.88 159.69 115.9 160.01 115.92 159.58C115.94 159.16 115.94 158.5 115.92 158.11C115.9 157.72 115.88 158.06 115.88 158.88ZM75.95 159.61C75.53 160.09 75.29 160.39 75.41 160.29C75.54 160.2 75.9 159.81 76.22 159.44C76.54 159.06 76.78 158.76 76.75 158.76C76.72 158.76 76.36 159.14 75.95 159.61ZM115.97 164.25C115.95 164.75 116 165.03 116.13 165.2C116.24 165.33 116.28 165.36 116.22 165.26C116.17 165.16 116.09 164.74 116.06 164.31L115.99 163.54M212.65 188.31C212.65 188.8 212.67 189.01 212.7 188.78C212.72 188.56 212.72 188.16 212.7 187.9C212.67 187.64 212.65 187.82 212.65 188.31ZM76.61 192.42C85.65 192.43 100.48 192.43 109.56 192.42C118.64 192.4 111.24 192.39 93.11 192.39C74.99 192.39 67.56 192.4 76.61 192.42ZM159.55 192.42C169.18 192.43 184.97 192.43 194.63 192.42C204.29 192.4 196.41 192.39 177.12 192.39C157.82 192.39 149.92 192.4 159.55 192.42ZM141.53 193.57C141.5 194.73 141.51 194.76 141.83 195.05L142.16 195.34C141.67 194.79 141.63 194.59 141.59 193.57L141.55 192.39M142.33 214.29L141.56 215.08C142.8 213.89 143.16 213.53 143.16 213.52C143.16 213.5 143.15 213.49 143.13 213.49C143.11 213.49 142.75 213.85 142.33 214.29ZM130.79 218.51C130.79 220.4 130.81 221.14 130.83 220.17C130.85 219.19 130.85 217.65 130.83 216.74C130.81 215.83 130.79 216.63 130.79 218.51ZM141.48 218.51C141.46 220.37 141.49 221.88 141.53 221.88C141.58 221.88 141.62 220.37 141.62 218.51C141.62 216.66 141.6 215.14 141.57 215.14C141.54 215.14 141.5 216.66 141.48 218.51Z" />
	</g>
</svg>