<svg xmlns="http://www.w3.org/2000/svg" viewBox="0 0 171.746 241.484"><title>Pittsburgh Pirates Cap Logo on Dark</title><path d="M161.013 80.173c0-12.307 1.717-25.67 9.43-38.942C150.064 36.174 134.367 16.987 129.28 0c-8.443 8.255-16.713 10.186-29.836 10.186l-87.526-.12L0 39.86c7.174 3.116 11.918 9.927 11.918 18.14v136.5c0 8.184-4.744 15.004-11.918 18.12l11.918 28.866h33.41l11.92-28.865c-7.184-2.988-11.92-10.057-11.92-18.122V140.67l54.117.03c13.123 0 21.393 3.227 29.836 11.482 5.527-16.967 22.11-29.612 42.467-34.67-7.733-13.283-10.734-25.052-10.734-37.34zm-46.225 30.866h-69.29V38.82h69.29c10.982 0 17.853 6.92 17.853 16.1v41.262c0 9.618-5.446 14.855-17.852 14.855z" fill="#FDB827"/><g fill="#FDB827"><path d="M59.895 240.25v-7.41h2.714v-1.572h-7.26v1.573h2.694v7.41M74.88 240.25v-8.982h-3.155l-2.186 5.865h-.036l-2.1-5.865H64.23v8.982h1.847v-7.15h.034l2.53 7.15h1.746L73 233.1h.048v7.15"/></g></svg>