<?xml version="1.0" encoding="UTF-8" standalone="no"?>
<!-- Created with Inkscape (http://www.inkscape.org/) -->

<svg
   xmlns:dc="http://purl.org/dc/elements/1.1/"
   xmlns:cc="http://creativecommons.org/ns#"
   xmlns:rdf="http://www.w3.org/1999/02/22-rdf-syntax-ns#"
   xmlns:svg="http://www.w3.org/2000/svg"
   xmlns="http://www.w3.org/2000/svg"
   xmlns:sodipodi="http://sodipodi.sourceforge.net/DTD/sodipodi-0.dtd"
   xmlns:inkscape="http://www.inkscape.org/namespaces/inkscape"
   width="1000"
   height="618.90839"
   id="svg2"
   version="1.1"
   inkscape:version="0.48.5 r10040"
   sodipodi:docname="New document 1">
  <defs
     id="defs4" />
  <sodipodi:namedview
     id="base"
     pagecolor="#ffffff"
     bordercolor="#666666"
     borderopacity="1.0"
     inkscape:pageopacity="0.0"
     inkscape:pageshadow="2"
     inkscape:zoom="0.3833154"
     inkscape:cx="729.97433"
     inkscape:cy="370.89083"
     inkscape:document-units="px"
     inkscape:current-layer="layer1"
     showgrid="false"
     fit-margin-top="0"
     fit-margin-left="0"
     fit-margin-right="0"
     fit-margin-bottom="0"
     inkscape:window-width="1015"
     inkscape:window-height="990"
     inkscape:window-x="900"
     inkscape:window-y="25"
     inkscape:window-maximized="0" />
  <metadata
     id="metadata7">
    <rdf:RDF>
      <cc:Work
         rdf:about="">
        <dc:format>image/svg+xml</dc:format>
        <dc:type
           rdf:resource="http://purl.org/dc/dcmitype/StillImage" />
        <dc:title></dc:title>
      </cc:Work>
    </rdf:RDF>
  </metadata>
  <g
     inkscape:label="Layer 1"
     inkscape:groupmode="layer"
     id="layer1"
     transform="translate(-238.97394,235.90125)">
    <g
       transform="matrix(3.4407701,0,0,3.4407701,238.96024,-235.90125)"
       style="fill:none;stroke:#000000;stroke-width:1;stroke-linecap:square;stroke-linejoin:bevel"
       id="g8">
      <g
         style="fill:#000000;fill-opacity:1;stroke:#000000;stroke-width:1;stroke-linecap:square;stroke-linejoin:miter;stroke-miterlimit:2;stroke-opacity:1"
         stroke-miterlimit="2"
         id="g10" />
      <g
         style="fill:#000000;fill-opacity:1;stroke:#000000;stroke-width:1;stroke-linecap:square;stroke-linejoin:miter;stroke-miterlimit:2;stroke-opacity:1"
         stroke-miterlimit="2"
         id="g12" />
      <g
         style="fill:#000000;fill-opacity:1;stroke:#000000;stroke-width:1;stroke-linecap:square;stroke-linejoin:miter;stroke-miterlimit:2;stroke-opacity:1"
         stroke-miterlimit="2"
         id="g14" />
      <g
         style="fill:#000000;fill-opacity:1;stroke:#000000;stroke-width:1;stroke-linecap:square;stroke-linejoin:miter;stroke-miterlimit:2;stroke-opacity:1"
         stroke-miterlimit="2"
         id="g16" />
      <g
         style="fill:#000000;fill-opacity:1;stroke:#000000;stroke-width:1;stroke-linecap:square;stroke-linejoin:miter;stroke-miterlimit:2;stroke-opacity:1"
         stroke-miterlimit="2"
         transform="matrix(0.999972,0,0,0.999972,0.00398228,0)"
         id="g18" />
      <g
         style="fill:#ffffff;fill-opacity:1;stroke:none"
         transform="matrix(0.999972,0,0,0.999972,0.00398228,0)"
         id="g20">
        <path
           style="fill-rule:nonzero"
           inkscape:connector-curvature="0"
           vector-effect="none"
           d="M 63.24,40.4401 C 63.24,40.4401 87.96,0 138.6,0 c 50.64,0 74.28,39.36 74.28,39.36 l 68.64,0 -2.76,16.8 c 0,0 -1.92,6.72 -5.04,7.44 l 4.68,0 c 0,0 1.56,6 -7.8,26.4 l 20.04,0 c 0,0 0.72,35.76 -42.48,52.56 0,0 -22.32,7.08 -33.72,-5.04 0,0 -22.8,42.36 -75.84,42.36 -53.04,0 -76.92,-43.56 -76.92,-43.56 l -61.68,0 9.84,-17.64 -6.72,0 7.92,-14.52 13.32,0 2.28,-5.5199 -6.24,0 15.36,-28.3201 8.64,0 3.48,-8.64 -7.44,0 11.4,-21.24 11.4,1e-4"
           id="path22" />
      </g>
      <g
         style="fill:#000000;fill-opacity:1;stroke:#000000;stroke-width:1;stroke-linecap:square;stroke-linejoin:miter;stroke-miterlimit:2;stroke-opacity:1"
         stroke-miterlimit="2"
         transform="matrix(0.999972,0,0,0.999972,0.00398228,0)"
         id="g24" />
      <g
         style="fill:#fdb927;fill-opacity:1;stroke:none"
         transform="matrix(0.999972,0,0,0.999972,0.00398228,0)"
         id="g26">
        <path
           style="fill-rule:nonzero"
           inkscape:connector-curvature="0"
           vector-effect="none"
           d="m 139.32,170.4 c 43.32,0 78.48,-35.64 78.48,-79.68 0,-43.92 -35.16,-79.56 -78.48,-79.56 -43.32,0 -78.48,35.64 -78.48,79.56 0,44.04 35.16,79.68 78.48,79.68"
           id="path28" />
      </g>
      <g
         style="fill:#000000;fill-opacity:1;stroke:#000000;stroke-width:1;stroke-linecap:square;stroke-linejoin:miter;stroke-miterlimit:2;stroke-opacity:1"
         stroke-miterlimit="2"
         transform="matrix(0.999972,0,0,0.999972,0.00398228,0)"
         id="g30" />
      <g
         style="fill:#552583;fill-opacity:1;stroke:none"
         transform="matrix(0.999972,0,0,0.999972,0.00398228,0)"
         id="g32">
        <path
           style="fill-rule:nonzero"
           inkscape:connector-curvature="0"
           vector-effect="none"
           d="m 147.96,90.36 -3.36,0 c -0.258,0.0175 -0.462,0.2225 -0.48,0.48 0,0.24 0.24,0.36 0.48,0.36 l 3.48,0 c 1.2,0 2.28,0.12 1.92,0.6 l -9,17.28 c -0.308,0.811 -1.096,1.337 -1.963,1.31 -0.867,-0.027 -1.621,-0.602 -1.877,-1.43 l -4.44,-23.04 15.6,-12.12 c 1.56,-1.44 4.56,-3.6 6.12,-3.6 l 3.48,0 c 2.04,0 2.76,0.96 2.28,2.28 l -0.6,1.08 c -0.36,0.72 -1.68,0.84 -2.64,0.84 l -2.04,0 c -0.099,-0.0142 -0.199,0.0192 -0.27,0.09 -0.071,0.0708 -0.104,0.1708 -0.09,0.27 0,0.24 0.12,0.48 0.36,0.48 l 2.04,0 c 0.84,0 1.8,0 1.44,0.6 l -7.2,13.92 c -0.36,0.4801 -1.92,0.6 -3.24,0.6 m 27.12,8.52 c -7.32,9 -11.4,12 -18.84,12 -2.52,0 -3.84,-0.6 -3.24,-1.8 l 8.88,-17.7599 3.36,0 c 3.72,0 3.24,3.12 2.28,7.4399 -0.24,0.6 0.24,0.6 0.72,0.12 l 8.4,-14.76 c 0.36,-0.96 -0.72,-1.08 -1.2,-0.36 -4.2,5.64 -8.64,5.28 -10.56,5.28 l -1.44,0 9.36,-18 3.84,0 c 4.8,0.24 6.96,4.32 5.64,14.16 l 1.92,0 6.96,-13.68 c 0.6,-1.2 -0.6,-2.28 -1.92,-2.28 l -47.04,0.12 c -2.76,0 -2.88,2.04 -0.24,2.04 2.16,0 2.04,3 0.12,4.44 l -20.04,15.96 4.08,18.72 c 0.21,1.319 1.438,2.227 2.76,2.04 l 38.88,0 c 1.127,0.106 2.225,-0.397 2.88,-1.32 l 6.96,-12.12 c 0.96,-1.7999 -1.2,-1.6799 -2.52,-0.24 l 0,0"
           id="path34" />
      </g>
      <g
         style="fill:#000000;fill-opacity:1;stroke:#000000;stroke-width:1;stroke-linecap:square;stroke-linejoin:miter;stroke-miterlimit:2;stroke-opacity:1"
         stroke-miterlimit="2"
         transform="matrix(0.999972,0,0,0.999972,0.00398228,0)"
         id="g36" />
      <g
         style="fill:#552583;fill-opacity:1;stroke:none"
         transform="matrix(0.999972,0,0,0.999972,0.00398228,0)"
         id="g38">
        <path
           style="fill-rule:nonzero"
           inkscape:connector-curvature="0"
           vector-effect="none"
           d="m 89.04,93.84 -12.36,0 15.6,-20.64 -3.24,20.64 m -2.88,12.84 c -0.36,2.04 -2.52,3.48 -5.16,4.2 l -2.76,0.72 2.28,-4.08 c 0.6,-1.2 -0.72,-1.8 -2.16,-0.12 -9.6,11.16 -12.72,16.56 -27.6,16.56 l -3.96,0 c -1.2,0 -2.52,-0.48 -1.68,-1.56 l 5.28,-9.84 19.92,0 c 2.64,0 2.04,-2.04 0.36,-2.04 -1.2223,-0.198 -2.3082,-0.893 -3,-1.92 -0.5073,-0.906 -0.4609,-2.02 0.12,-2.88 l 7.56,-10.2 12.72,0 -1.92,11.16 m 29.52,3.84 c -0.859,-0.082 -1.601,-0.638 -1.92,-1.44 -0.389,-1.176 -0.346,-2.452 0.12,-3.6 L 132,73.32 c 0.24,-0.6 1.08,-1.92 1.92,-1.92 1.56,0 2.28,-2.04 -0.36,-2.04 l -14.64,0 c -2.64,0 -2.64,2.04 -0.12,2.04 0.42,-0.0291 0.825,0.1619 1.07,0.5045 0.244,0.3426 0.294,0.7876 0.13,1.1755 l -3.96,7.32 c -0.6,0.72 -1.68,0.84 -2.88,0.84 l -3.36,0 c -0.24,0 -0.48,0.12 -0.48,0.36 0.018,0.2575 0.222,0.4625 0.48,0.48 l 3.36,0 c 0.96,0 1.68,0.24 1.2,1.32 l -13.44,24.48 c -0.96,1.32 -2.88,1.56 -2.76,-0.96 l 4.68,-35.76 c 0.24,-1.08 0,-1.92 -1.2,-1.92 l -7.2,0 c -0.7516,0.0064 -1.4407,0.4198 -1.8,1.08 L 90,73.44 c -0.24,0.36 -1.08,0.36 -1.8,0.36 l -6,0 c -0.2575,0.0175 -0.4625,0.2225 -0.48,0.48 0,0.24 0.24,0.36 0.48,0.36 l 4.92,0 c 0.84,0 1.8,0.24 1.44,0.72 L 81.72,84 c -0.3962,0.2446 -0.8545,0.3696 -1.32,0.36 l -1.92,0 c -0.24,0 -0.48,0.12 -0.48,0.36 0.0175,0.2575 0.2225,0.4625 0.48,0.48 l 1.56,0 c 0.48,0 0.48,0.24 0.36,0.48 l -6.48,8.16 c -0.5212,0.2583 -1.0987,0.3821 -1.68,0.36 l -5.76,0 c -0.24,0 -0.36,0.24 -0.36,0.48 -0.0142,0.0992 0.0192,0.1992 0.09,0.27 0.0708,0.0708 0.1709,0.1042 0.27,0.09 l 4.92,0 c 0.84,0 1.32,0.12 0.96,0.72 l -9.24,11.52 c -1.68,2.28 -10.08,3.36 -11.76,3.36 L 82.68,52.2 c 0.5107,-0.9969 1.5207,-1.6396 2.64,-1.68 l 6.6,0 c 3.12,0 3.12,-2.16 0.36,-2.16 l -33.36,0 c -2.76,0 -2.88,2.16 0.36,2.16 l 6.12,0 c 1.8,0 2.28,0.96 1.8,1.92 L 66.36,54 c -0.24,0.48 -0.72,0.72 -2.4,0.72 l -10.92,0 c -0.24,0 -0.36,0.24 -0.36,0.48 -0.0142,0.0992 0.0192,0.1992 0.09,0.27 0.0708,0.0708 0.1709,0.1042 0.27,0.09 l 10.92,0 c 0.6,0 1.44,0.24 0.96,1.32 l -1.56,2.7599 c -0.24,0.48 -0.96,0.6 -1.68,0.6 l -5.04,0 c -0.24,0 -0.36,0.24 -0.36,0.48 0,0.24 0.12,0.48 0.36,0.48 l 4.92,0 c 0.72,0 0.84,0.48 0.36,1.08 l -3.48,6.48 c -0.36,0.6 -0.84,0.72 -2.04,0.72 l -1.92,0 C 54.24,69.4799 54,69.6 54,69.84 c 0.0175,0.2574 0.2225,0.4624 0.48,0.48 l 1.92,0 c 0.72,0 0.96,0.36 0.6,1.08 l -2.88,5.4 c -0.48,0.72 -1.08,1.08 -3,1.08 l -10.92,0 c -0.0991,-0.0142 -0.1992,0.0191 -0.27,0.09 -0.0708,0.0708 -0.1042,0.1708 -0.09,0.27 0,0.24 0.12,0.48 0.36,0.48 l 10.92,0 c 1.2,0 1.68,0.6 1.2,1.44 l -5.64,10.56 c -0.36,0.48 -1.2,0.6 -2.76,0.6 l -10.92,0 c -0.24,0 -0.48,0.12 -0.48,0.36 0.0175,0.2575 0.2225,0.4625 0.48,0.48 l 10.8,0 c 1.32,0 2.16,0 1.8,0.72 L 42.36,99 c -0.6,0.96 -2.28,0.96 -3,0.96 l -3.48,0 c -0.0991,-0.0142 -0.1992,0.0192 -0.27,0.09 -0.0708,0.071 -0.1042,0.171 -0.09,0.27 0,0.24 0.12,0.48 0.36,0.48 l 3.48,0 c 1.2,0 1.8,0.24 1.56,0.84 l -4.32,8.16 c -0.48,0.72 -2.16,0.72 -3.48,0.72 l -16.8,0 c -0.2575,0.017 -0.4625,0.223 -0.48,0.48 0,0.24 0.24,0.36 0.48,0.36 l 16.8,0 c 1.2,0 2.52,0.24 2.04,1.08 l -2.76,5.16 c -0.24,0.48 -1.2,0.48 -2.64,0.48 l -3.36,0 c -0.2575,0.018 -0.4625,0.223 -0.48,0.48 0,0.24 0.24,0.36 0.48,0.36 l 3.36,0 c 0.84,0 1.92,0.12 1.56,0.84 l -1.8,3.24 c -0.4074,0.96 -1.3568,1.578 -2.4,1.56 l -8.52,0 c -3.12,0 -3,2.16 -0.24,2.16 l 49.68,0 c 1.44,0 1.56,-0.24 2.16,-1.32 l 7.44,-12.84 37.68,0 c 2.64,0 2.04,-2.04 0.36,-2.04 l 0,0"
           id="path40" />
      </g>
      <g
         style="fill:#000000;fill-opacity:1;stroke:#000000;stroke-width:1;stroke-linecap:square;stroke-linejoin:miter;stroke-miterlimit:2;stroke-opacity:1"
         stroke-miterlimit="2"
         transform="matrix(0.999972,0,0,0.999972,0.00398228,0)"
         id="g42" />
      <g
         style="fill:#552583;fill-opacity:1;stroke:none"
         transform="matrix(0.999972,0,0,0.999972,0.00398228,0)"
         id="g44">
        <path
           style="fill-rule:nonzero"
           inkscape:connector-curvature="0"
           vector-effect="none"
           d="m 211.92,86.88 c -1.32,1.2 -3.48,2.4 -3.96,2.04 -1.032,-0.8826 -2.159,-1.6473 -3.36,-2.28 l 8.16,-14.88 c 0.344,-0.5131 0.946,-0.7909 1.56,-0.72 3.24,0 4.2,3.36 2.76,7.68 -1.08,3 -2.76,6.24 -5.16,8.16 m 65.52,13.32 c -0.24,-0.9599 -0.6,-0.3599 -1.2,0.84 -0.24,0.48 -0.84,0.48 -1.56,0.48 l -1.92,0 c -0.219,0.011 -0.409,0.153 -0.48,0.36 -0.013,0.131 0.034,0.26 0.127,0.353 0.093,0.093 0.222,0.14 0.353,0.127 l 1.92,0 c 0.72,0 0.72,0.48 0.36,1.2 -1.203,2.651 -2.779,5.116 -4.68,7.32 -0.413,0.41 -0.979,0.628 -1.56,0.6 l -2.04,0.12 c -0.24,0 -0.48,0.12 -0.48,0.36 0.017,0.258 0.222,0.463 0.48,0.48 l 1.92,0 c 1.08,0 0,0.6 -0.12,0.84 -2.399,3.28 -5.224,6.225 -8.4,8.76 -0.909,0.176 -1.839,0.217 -2.76,0.12 l -2.04,0 c -0.24,0 -0.36,0.24 -0.36,0.48 -0.014,0.099 0.019,0.199 0.09,0.27 0.071,0.071 0.171,0.104 0.27,0.09 l 2.04,0.12 c 1.44,0 0.36,0.84 0.12,0.96 -5.4,4.56 -13.56,6 -17.16,5.52 -12,-1.44 -14.52,-10.56 -15.36,-14.28 -0.407,-1.052 -0.729,-2.136 -0.96,-3.24 -0.36,-1.92 5.04,-2.4 6.48,-1.44 2.28,1.56 7.56,3.12 11.76,3.12 3.84,0 11.64,-2.76 13.92,-9.36 2.4,-6.84 -3.48,-14.28 -6.12,-16.92 -3.24,-3.24 -6.36,-8.52 -5.04,-12.36 0.96,-2.8799 2.64,-4.2 6.12,-4.2 4.68,0 7.92,2.88 7.92,7.08 0,0.36 -0.12,0.84 -0.48,0.84 l -1.56,0 c -0.258,0.0175 -0.463,0.2225 -0.48,0.48 0,0.24 0.24,0.36 0.48,0.36 l 1.44,0 c 0.21,-0.0141 0.412,0.0815 0.534,0.2526 0.123,0.1712 0.147,0.3935 0.066,0.5874 -0.24,1.44 -0.36,2.4 -0.72,3.84 -0.12,0.84 1.08,1.32 1.44,0.72 L 267,72.24 c 0.6,-0.96 -0.6,-1.2 -1.44,-0.96 -2.04,0.72 -5.16,1.2 -6.36,0.36 -2.511,-2.0332 -5.649,-3.1355 -8.88,-3.12 -6.36,0 -10.92,1.56 -13.8,6.84 -0.24,0.36 -0.84,0.36 -1.32,0.36 l -1.32,0 c -0.24,0 -0.36,0.24 -0.36,0.48 0,0.24 0.12,0.48 0.36,0.48 l 1.08,-0.12 c 0.48,0 0.72,0.24 0.48,0.72 -0.12,0.48 -0.36,0.96 -0.48,1.44 -0.683,2.7939 -0.473,5.7315 0.6,8.4 0.12,0.1201 -0.12,0.24 -0.6,0.24 l -1.92,0 c -0.257,0.0176 -0.463,0.2226 -0.48,0.48 0,0.24 0.24,0.3601 0.48,0.3601 l 1.92,0 c 0.96,0 1.08,0.12 1.44,0.5999 1.08,1.4401 2.16,2.52 3.36,4.2 0.48,0.48 -1.32,0.6 -2.28,0.6 l -7.68,0 c -0.172,-6e-4 -0.331,0.0907 -0.417,0.2395 -0.086,0.1488 -0.086,0.3323 0,0.4811 0.086,0.1488 0.245,0.2401 0.417,0.2395 l 7.8,-1e-4 c 1.32,0 3.48,-0.12 3.72,0.24 1.92,2.16 4.2,5.52 4.56,8.4 0.12,0.84 -0.24,1.2 -1.2,1.2 l -1.08,0 c -0.099,-0.014 -0.199,0.019 -0.27,0.09 -0.071,0.071 -0.104,0.171 -0.09,0.27 0,0.24 0.12,0.48 0.36,0.48 l 0.96,0 c 0.84,0 1.2,0.12 1.08,0.72 -1.08,3.24 -2.52,5.64 -8.76,5.52 -6.6,0 -7.92,-6.36 -6,-13.08 0.36,-1.32 0,-1.92 -0.6,-0.84 l -4.56,7.2 c -0.314,0.322 -0.75,0.497 -1.2,0.48 l -0.6,0 c -0.265,0 -0.48,0.215 -0.48,0.48 0,0.265 0.215,0.48 0.48,0.48 0.48,0 0.72,0.24 0.48,0.6 l -1.68,2.52 c -2.582,-5.956 -5.844,-11.5931 -9.72,-16.8 l 0,-0.12 c 6.12,-0.36 15,-6 16.44,-11.04 2.52,-8.88 -6,-12.12 -10.68,-12.12 l -20.4,0 c -2.76,0 -2.88,2.16 -0.36,2.16 1.44,0 2.64,1.2 2.04,2.4 l -4.56,8.16 c -0.36,0.72 -1.68,0.72 -3.6,0.72 l -1.92,0 c -0.24,0 -0.48,0.12 -0.48,0.36 0.018,0.2575 0.223,0.4625 0.48,0.48 l 1.92,0 c 1.32,0 2.76,0 2.28,0.96 l -5.4,9.72 c -0.24,0.48 -0.96,0.48 -2.76,0.48 l -1.92,0 c -0.257,0.0175 -0.462,0.2225 -0.48,0.48 0,0.24 0.24,0.36 0.48,0.36 l 1.92,0 c 1.44,0 1.92,0.24 1.56,0.96 l -7.2,12.96 c -0.84,0.96 -1.8,1.08 -3.6,1.08 -2.64,0 -2.52,2.04 0.12,2.04 l 17.52,0 c 2.76,0 2.04,-2.04 0.48,-2.04 -0.96,0 -1.92,-1.8 -1.32,-2.76 l 8.88,-17.04 0.96,0 c 3.96,0 4.92,6.6 5.64,13.68 0.12,0.48 -0.84,0.6 -2.88,0.6 l -4.92,0 c -0.24,0 -0.48,0.12 -0.48,0.36 0.017,0.258 0.222,0.463 0.48,0.48 l 4.92,0 c 1.32,0 3.12,0 3.12,0.48 0.23,2.782 0.631,5.547 1.2,8.28 0.24,0.84 -1.2,0.72 -2.64,0.72 l -6.36,0 c -0.257,0.018 -0.463,0.223 -0.48,0.48 0,0.24 0.24,0.36 0.48,0.36 l 6.36,0 c 1.92,0 3,0 3.12,0.48 2.64,9.96 14.4,17.88 25.68,17.4 9.84,-0.36 18,-5.64 22.2,-9.12 5.64,-4.44 13.92,-13.92 17.28,-20.76 0.6,-1.2 1.56,-2.88 1.32,-3.96 l 0,0"
           id="path46" />
      </g>
      <g
         style="fill:#000000;fill-opacity:1;stroke:#000000;stroke-width:1;stroke-linecap:square;stroke-linejoin:miter;stroke-miterlimit:2;stroke-opacity:1"
         stroke-miterlimit="2"
         transform="matrix(0.999972,0,0,0.999972,0.00398228,0)"
         id="g48" />
      <g
         style="fill:#552583;fill-opacity:1;stroke:none"
         transform="matrix(0.999972,0,0,0.999972,0.00398228,0)"
         id="g50">
        <path
           style="fill-rule:nonzero"
           inkscape:connector-curvature="0"
           vector-effect="none"
           d="m 113.28,56.16 c -1.54,1.8242 -3.858,2.8048 -6.24,2.64 l -0.72,0 4.32,-8.52 c 0.229,-0.4498 0.695,-0.7293 1.2,-0.72 0.6,0 0.48,-1.08 -0.24,-1.08 l -6.72,0 c -0.6,0 -0.84,1.08 -0.24,1.08 0.6,0 0.6,0.6 0.36,1.2 l -3.84,7.56 c -0.315,0.338 -0.741,0.551 -1.2,0.6 -0.6,0.24 -0.96,1.2 -0.24,1.2 l 10.8,0 c 0.84,0 1.08,-0.2401 1.2,-0.6 L 114,56.16 c 0.24,-0.36 -0.36,-0.48 -0.72,0"
           id="path52" />
      </g>
      <g
         style="fill:#000000;fill-opacity:1;stroke:#000000;stroke-width:1;stroke-linecap:square;stroke-linejoin:miter;stroke-miterlimit:2;stroke-opacity:1"
         stroke-miterlimit="2"
         transform="matrix(0.999972,0,0,0.999972,0.00398228,0)"
         id="g54" />
      <g
         style="fill:#552583;fill-opacity:1;stroke:none"
         transform="matrix(0.999972,0,0,0.999972,0.00398228,0)"
         id="g56">
        <path
           style="fill-rule:nonzero"
           inkscape:connector-curvature="0"
           vector-effect="none"
           d="m 145.92,48.72 c -0.433,0.3011 -1.007,0.3011 -1.44,0 -1.018,-0.7318 -2.228,-1.1491 -3.48,-1.2 -2.52,0 -4.32,0.48 -5.52,2.88 -0.84,2.04 0.12,3.84 2.28,4.8 1.08,0.48 2.28,1.08 1.8,2.28 -0.36,0.84 -1.32,0.96 -2.28,0.96 -1.2,-0.1201 -3,-0.96 -3.24,-2.64 -0.12,-0.6 -0.72,-0.48 -0.96,-0.12 l -1.56,3 c -0.24,0.48 0.36,0.84 0.72,0.6 0.562,-0.5837 1.439,-0.73 2.16,-0.36 1.173,0.8146 2.538,1.3108 3.96,1.44 2.275,0.1939 4.463,-0.9232 5.64,-2.88 1.32,-2.04 0.48,-4.08 -1.8,-5.16 -1.32,-0.6 -2.4,-1.68 -1.8,-2.7599 0.36,-0.7201 1.44,-0.6 2.04,-0.48 1.146,0.1761 2.109,0.9555 2.52,2.04 0.051,0.1756 0.2,0.305 0.381,0.3308 0.181,0.0259 0.361,-0.0566 0.459,-0.2109 l 0.72,-1.92 c 0.24,-0.36 -0.36,-0.72 -0.6,-0.6"
           id="path58" />
      </g>
      <g
         style="fill:#000000;fill-opacity:1;stroke:#000000;stroke-width:1;stroke-linecap:square;stroke-linejoin:miter;stroke-miterlimit:2;stroke-opacity:1"
         stroke-miterlimit="2"
         transform="matrix(0.999972,0,0,0.999972,0.00398228,0)"
         id="g60" />
      <g
         style="fill:#552583;fill-opacity:1;stroke:none"
         transform="matrix(0.999972,0,0,0.999972,0.00398228,0)"
         id="g62">
        <path
           style="fill-rule:nonzero"
           inkscape:connector-curvature="0"
           vector-effect="none"
           d="m 221.16,51.84 0.96,-1.8 c 0.48,-0.72 -0.24,-1.56 -1.32,-1.56 l -12.72,0 c -0.84,0 -0.6,0.96 -0.24,0.96 0.84,0 1.08,0.96 0.6,1.8 l -3.84,6.96 c -0.6,0.72 -0.96,0.96 -1.68,0.96 -0.72,0 -0.96,0.96 0,0.96 l 12.84,0 c 0.48,0 0.72,-0.1201 0.84,-0.48 l 1.8,-2.28 c 0.48,-0.48 -0.48,-0.48 -0.72,-0.24 -1.722,1.582 -4.031,2.366 -6.36,2.16 l -1.44,0 1.68,-3.96 0.36,0 c 1.2,0 2.52,0 2.76,0.84 0.118,0.1435 0.294,0.2266 0.48,0.2266 0.186,0 0.362,-0.0831 0.48,-0.2266 l 1.44,-3 c 0.24,-0.48 -0.36,-0.48 -0.6,-0.24 -0.6,1.08 -3.24,0.84 -3.84,0.84 l -0.36,0 2.16,-4.32 2.4,0 c 1.454,-0.0021 2.751,0.9111 3.24,2.28 0.12,0.24 0.96,0.48 1.08,0.12"
           id="path64" />
      </g>
      <g
         style="fill:#000000;fill-opacity:1;stroke:#000000;stroke-width:1;stroke-linecap:square;stroke-linejoin:miter;stroke-miterlimit:2;stroke-opacity:1"
         stroke-miterlimit="2"
         transform="matrix(0.999972,0,0,0.999972,0.00398228,0)"
         id="g66" />
      <g
         style="fill:#552583;fill-opacity:1;stroke:none"
         transform="matrix(0.999972,0,0,0.999972,0.00398228,0)"
         id="g68">
        <path
           style="fill-rule:nonzero"
           inkscape:connector-curvature="0"
           vector-effect="none"
           d="m 158.64,54 4.2,-3.36 0,3.36 -4.2,0 m 30.12,-5.52 -4.44,0 c -0.96,0 -0.72,0.96 -0.24,0.96 0.509,0.0105 0.973,0.2905 1.221,0.7353 0.247,0.4447 0.239,0.9873 -0.021,1.4247 l -1.8,3.36 -4.08,-6 c -0.425,-0.3901 -0.983,-0.6046 -1.56,-0.6 l -4.44,0 c -0.84,0 -0.72,0.96 -0.24,0.96 0.84,0 0.6,0.72 0.36,1.2 l -3.48,6.84 c -0.14,0.2874 -0.442,0.4592 -0.761,0.4326 -0.319,-0.0265 -0.588,-0.246 -0.679,-0.5526 l -2.76,-8.88 c -0.12,-0.36 -1.68,-0.36 -2.16,0 l -6.84,5.64 -3.48,0 c -0.72,0 -1.08,0.36 -1.08,0.72 0,0.36 0.36,0.72 1.08,0.72 l 1.8,0 -1.8,1.56 c -1.08,0.72 -2.16,1.8 -2.76,1.8 l -0.48,0 c -0.72,0 -1.08,0.12 -1.08,0.6 0,0.6 0.36,0.72 0.96,0.72 l 5.52,0 c 1.08,0 0.84,-1.32 0.36,-1.32 -0.43,0.0064 -0.819,-0.2531 -0.979,-0.6523 -0.16,-0.3993 -0.057,-0.8557 0.259,-1.1477 l 1.68,-1.5599 3.36,0 c 1.92,0 3.36,2.28 2.16,3 l -0.96,0.48 c -0.36,0.24 -0.6,1.2 0,1.2 l 10.8,0 c 0.84,0 0.72,-1.08 0.36,-1.08 -1.2,0 -0.6,-1.56 -0.36,-1.92 l 2.76,-5.4 3.96,7.68 c 0.36,0.48 0.6,0.72 0.96,0.72 l 1.56,0 c 0.389,0.0318 0.744,-0.2218 0.84,-0.6 l 4.56,-8.28 c 0.72,-1.4399 1.32,-1.7999 2.28,-1.7999 0.36,-10e-5 0.6,-0.9602 -0.36,-0.9602"
           id="path70" />
      </g>
      <g
         style="fill:#000000;fill-opacity:1;stroke:#000000;stroke-width:1;stroke-linecap:square;stroke-linejoin:miter;stroke-miterlimit:2;stroke-opacity:1"
         stroke-miterlimit="2"
         transform="matrix(0.999972,0,0,0.999972,0.00398228,0)"
         id="g72" />
      <g
         style="fill:#552583;fill-opacity:1;stroke:none"
         transform="matrix(0.999972,0,0,0.999972,0.00398228,0)"
         id="g74">
        <path
           style="fill-rule:nonzero"
           inkscape:connector-curvature="0"
           vector-effect="none"
           d="m 125.88,55.2 c -1.2,2.4 -3.24,3.84 -4.44,3.2401 -1.32,-0.6 -1.44,-3.12 -0.12,-5.52 1.2,-2.4 3.12,-3.84 4.44,-3.2401 1.32,0.72 1.32,3.12 0.12,5.52 m -1.08,-7.32 c -3.72,0 -7.68,1.92 -8.4,5.88 -0.39,1.7574 0.055,3.5964 1.205,4.9812 1.15,1.3848 2.876,2.1597 4.675,2.0988 4.08,0 7.8,-2.64 8.52,-6.48 0.72,-3.84 -2.04,-6.48 -6,-6.48 l 0,0"
           id="path76" />
      </g>
      <g
         style="fill:#000000;fill-opacity:1;stroke:#000000;stroke-width:1;stroke-linecap:square;stroke-linejoin:miter;stroke-miterlimit:2;stroke-opacity:1"
         stroke-miterlimit="2"
         transform="matrix(0.999972,0,0,0.999972,0.00398228,0)"
         id="g78" />
      <g
         style="fill:#552583;fill-opacity:1;stroke:none"
         transform="matrix(0.999972,0,0,0.999972,0.00398228,0)"
         id="g80">
        <path
           style="fill-rule:nonzero"
           inkscape:connector-curvature="0"
           vector-effect="none"
           d="m 201.6,53.76 -4.8,0 c -0.96,0 -0.72,0.96 -0.36,0.96 0.23,-0.0265 0.459,0.0534 0.623,0.217 0.164,0.1637 0.244,0.3931 0.217,0.623 0,1.92 -0.84,2.64 -2.64,2.64 -1.8,0 -2.52,-2.16 -1.2,-4.92 0.971,-2.1109 3.077,-3.4681 5.4,-3.48 1.56,0 2.88,0.36 3,1.8 0.12,0.36 0.6,0.36 0.84,0 l 1.08,-2.04 c 0.12,-0.2401 0,-0.48 -0.36,-0.48 -0.36,-0.12 -0.96,0.36 -1.44,0 -1.405,-0.886 -3.02,-1.3829 -4.68,-1.44 -3.634,-0.2286 -7.064,1.6977 -8.76,4.92 -2.28,3.84 0.96,7.92 3.96,7.92 1.68,0 3.72,-1.2 4.8,-1.68 l 1.2,0.84 c 0.249,0.2744 0.591,0.4456 0.96,0.48 l 0.48,0 c 0.48,0 0.6,-0.6 0.72,-0.96 l 1.92,-4.56 c 0.24,-0.4799 0.12,-0.84 -0.96,-0.84"
           id="path82" />
      </g>
      <g
         style="fill:#000000;fill-opacity:1;stroke:#000000;stroke-width:1;stroke-linecap:square;stroke-linejoin:miter;stroke-miterlimit:2;stroke-opacity:1"
         stroke-miterlimit="2"
         transform="matrix(0.999972,0,0,0.999972,0.00398228,0)"
         id="g84" />
      <g
         style="fill:#552583;fill-opacity:1;stroke:none"
         transform="matrix(0.999972,0,0,0.999972,0.00398228,0)"
         id="g86">
        <path
           style="fill-rule:nonzero"
           inkscape:connector-curvature="0"
           vector-effect="none"
           d="m 268.44,48.72 c -0.433,0.3011 -1.007,0.3011 -1.44,0 -1.018,-0.7318 -2.228,-1.1491 -3.48,-1.2 -2.52,0 -4.32,0.48 -5.52,2.88 -0.84,2.04 0.12,3.84 2.4,4.8 0.96,0.48 2.16,1.08 1.68,2.28 -0.36,0.84 -1.32,0.96 -2.28,0.96 -1.2,-0.1201 -3,-0.96 -3.24,-2.64 -0.12,-0.6 -0.72,-0.48 -0.96,-0.12 l -1.56,3 c -0.24,0.48 0.36,0.84 0.72,0.6 0.562,-0.5836 1.439,-0.73 2.16,-0.36 1.173,0.8146 2.538,1.3108 3.96,1.44 2.52,0 4.32,-0.72 5.64,-2.88 1.32,-2.04 0.6,-4.08 -1.8,-5.16 -1.32,-0.6 -2.28,-1.68 -1.8,-2.76 0.36,-0.72 1.44,-0.6 2.04,-0.48 1.146,0.1762 2.109,0.9556 2.52,2.04 0.051,0.1757 0.2,0.3051 0.381,0.3309 0.181,0.0259 0.361,-0.0566 0.459,-0.2109 l 0.72,-1.92 c 0.24,-0.36 -0.36,-0.72 -0.6,-0.6"
           id="path88" />
      </g>
      <g
         style="fill:#000000;fill-opacity:1;stroke:#000000;stroke-width:1;stroke-linecap:square;stroke-linejoin:miter;stroke-miterlimit:2;stroke-opacity:1"
         stroke-miterlimit="2"
         transform="matrix(0.999972,0,0,0.999972,0.00398228,0)"
         id="g90" />
      <g
         style="fill:#552583;fill-opacity:1;stroke:none"
         transform="matrix(0.999972,0,0,0.999972,0.00398228,0)"
         id="g92">
        <path
           style="fill-rule:nonzero"
           inkscape:connector-curvature="0"
           vector-effect="none"
           d="m 234.6,56.16 c -1.68,2.04 -3.84,2.64 -6.36,2.64 l -0.6,0 4.32,-8.52 c 0.179,-0.494 0.68,-0.7946 1.2,-0.72 0.48,0 0.48,-1.08 -0.24,-1.08 l -6.84,0 c -0.6,0 -0.72,1.08 -0.24,1.08 0.6,0 0.72,0.6 0.48,1.2 l -3.96,7.56 c -0.266,0.3352 -0.655,0.551 -1.08,0.6 -0.6,0.24 -0.96,1.2 -0.36,1.2 l 10.8,0 c 0.84,0 1.08,-0.2401 1.32,-0.6 l 2.16,-3.36 c 0.36,-0.36 -0.36,-0.48 -0.6,0"
           id="path94" />
      </g>
      <g
         style="fill:#000000;fill-opacity:1;stroke:#000000;stroke-width:1;stroke-linecap:square;stroke-linejoin:miter;stroke-miterlimit:2;stroke-opacity:1"
         stroke-miterlimit="2"
         transform="matrix(0.999972,0,0,0.999972,0.00398228,0)"
         id="g96" />
      <g
         style="fill:#552583;fill-opacity:1;stroke:none"
         transform="matrix(0.999972,0,0,0.999972,0.00398228,0)"
         id="g98">
        <path
           style="fill-rule:nonzero"
           inkscape:connector-curvature="0"
           vector-effect="none"
           d="m 250.92,49.4401 c 1.43,0.0684 2.693,0.9567 3.24,2.28 0.12,0.24 0.84,0.48 1.08,0.12 l 0.96,-1.8 c 0.36,-0.72 -0.24,-1.56 -1.32,-1.56 l -12.72,0 c -0.96,0 -0.6,0.96 -0.24,0.96 0.84,0 1.08,0.96 0.48,1.7999 l -3.72,6.96 c -0.378,0.6265 -1.069,0.9951 -1.8,0.96 -0.6,0 -0.84,0.96 0,0.96 l 12.84,0 c 0.6,0 0.84,-0.12 0.96,-0.48 l 1.8,-2.28 c 0.36,-0.48 -0.48,-0.48 -0.84,-0.2401 -1.668,1.5912 -3.945,2.3794 -6.24,2.16 l -1.56,0 1.8,-3.96 0.36,0 c 1.08,0 2.4,0 2.76,0.84 0.093,0.1417 0.251,0.2271 0.42,0.2271 0.169,0 0.327,-0.0854 0.42,-0.2271 l 1.56,-3 c 0.24,-0.48 -0.48,-0.48 -0.6,-0.24 -0.6,1.08 -3.24,0.84 -3.96,0.84 l -0.36,0 2.28,-4.3199 2.4,1e-4"
           id="path100" />
      </g>
      <g
         style="fill:#000000;fill-opacity:1;stroke:#000000;stroke-width:1;stroke-linecap:square;stroke-linejoin:miter;stroke-miterlimit:2;stroke-opacity:1"
         stroke-miterlimit="2"
         transform="matrix(0.999972,0,0,0.999972,0.00398228,0)"
         id="g102" />
      <g
         style="fill:#000000;fill-opacity:1;stroke:none"
         transform="matrix(0.999972,0,0,0.999972,0.00398228,0)"
         id="g104">
        <path
           style="fill-rule:nonzero"
           inkscape:connector-curvature="0"
           vector-effect="none"
           d="m 153,19.2 c -6,-0.36 -10.92,-0.6 -15.12,-0.12 1.18,-2.9072 3.13,-5.4379 5.64,-7.32 3.871,0.1906 7.722,0.672 11.52,1.44 10.68,2.04 27.24,8.64 34.44,18.12 C 179.88,24.96 164.16,20.04 153,19.2 m -17.88,0.2401 c -4.207,0.4776 -8.376,1.2393 -12.48,2.28 -0.6,-1.56 -2.16,-6.36 -2.76,-7.92 6.594,-1.8343 13.453,-2.5243 20.28,-2.0401 -1.68,1.32 -4.44,6.2401 -5.04,7.6801 l 0,0 M 105,28.32 c -0.72,-1.2 -4.2,-4.44 -6.12,-5.04 4.44,-3.36 14.64,-8.04 18.6,-8.88 0.6,1.2 2.4,6 3,7.92 -3.48,0.72 -12.6,4.08 -15.48,6 m 96,10.92 c -0.96,-1.2 -2.28,-3.6 -11.88,-12 C 174.84,14.88 156,9.24 138.36,9.24 125.4,9.24 114,12.12 101.28,19.08 85.2,27.96 78.6,38.16 76.92,40.2 c -1.2,1.56 -1.32,2.4 -0.6,2.88 0.6,0.36 1.68,-0.84 2.64,-2.16 4.8,-6.36 11.16,-12.6 17.76,-16.32 2.04,0.36 4.92,3.24 6,4.68 -4.8086,2.9915 -9.4552,6.2361 -13.92,9.72 -2.28,1.8 -3,2.76 -2.4,3.48 0.48,0.6 2.28,-0.48 3.72,-1.68 4.3736,-3.4775 8.9849,-6.6452 13.8,-9.48 2.64,3 1.8,8.52 0.84,9.6 -0.48,0.72 -0.48,1.32 0,1.68 0.6,0.36 1.08,-0.48 1.8,-1.56 1.8,-2.52 1.08,-8.52 -0.36,-10.68 4.56,-2.88 11.04,-4.8 15,-5.64 0.36,0.6 5.16,14.64 6.12,17.16 0.48,1.44 0.96,3.12 2.04,2.76 0.6,-0.12 0.24,-1.68 -0.36,-3.24 -0.72,-1.92 -4.32,-13.68 -5.52,-17.16 1.32,-0.72 9.24,-2.28 11.28,-2.28 -0.96,5.16 2.64,7.32 6.72,9.96 2.16,1.44 16.08,9.36 18.96,11.16 1.68,1.08 3,1.68 3.36,1.2 0.36,-0.48 -0.72,-1.68 -2.28,-2.52 -1.2,-0.72 -14.16,-8.28 -19.56,-11.64 -3.84,-2.52 -5.88,-5.04 -5.04,-8.52 1.32,-0.36 5.16,-0.36 9.24,-0.36 27.6,0.24 49.68,15.96 52.08,18.6 1.32,1.2 3,2.28 3.72,1.8 0.36,-0.36 -0.36,-1.8 -0.96,-2.3999 l 0,-10e-5"
           id="path106" />
      </g>
      <g
         style="fill:#000000;fill-opacity:1;stroke:#000000;stroke-width:1;stroke-linecap:square;stroke-linejoin:miter;stroke-miterlimit:2;stroke-opacity:1"
         stroke-miterlimit="2"
         transform="matrix(0.999972,0,0,0.999972,0.00398228,0)"
         id="g108" />
      <g
         style="fill:#000000;fill-opacity:1;stroke:none"
         transform="matrix(0.999972,0,0,0.999972,0.00398228,0)"
         id="g110">
        <path
           style="fill-rule:nonzero"
           inkscape:connector-curvature="0"
           vector-effect="none"
           d="m 207,133.44 c 1.08,-1.8 1.8,-2.88 0.96,-3.36 -0.72,-0.48 -1.56,1.32 -2.52,3 -3.24,5.52 -6.72,10.2 -14.64,17.4 -6.589,5.912 -14.191,10.587 -22.44,13.8 -3,-8.4 -14.4,-44.16 -14.76,-45.24 -0.36,-1.56 -0.84,-1.92 -1.32,-1.8 -0.6,0.24 -0.24,1.08 0.12,2.4 0.24,1.32 13.8,43.8 14.28,45.24 -2.64,1.32 -13.68,4.44 -21.24,4.68 -6.84,0.24 -14.88,0 -18.96,-0.96 -4.68,-3.84 -15.48,-19.08 -19.56,-27.12 -4.8,-9.6 -8.04,-18.36 -8.88,-22.08 -0.36,-1.8 -0.84,-3.12 -1.8,-2.88 -0.96,0.12 -0.36,1.56 0.24,3.48 2.2074,7.546 5.141,14.86 8.76,21.84 5.4,10.44 14.88,22.8 17.64,26.16 -10.595,-2.31 -20.577,-6.85 -29.28,-13.32 -8.64,-6.48 -16.08,-14.64 -19.8,-20.64 -0.6,-1.08 -1.32,-2.52 -2.28,-1.92 -0.48,0.36 0.12,1.44 0.72,2.64 5.4,9.72 18.6,23.52 35.64,31.08 19.68,8.76 41.16,8.28 60.48,0.84 16.8,-6.48 31.44,-19.92 38.64,-33.24"
           id="path112" />
      </g>
      <g
         style="fill:#000000;fill-opacity:1;stroke:#000000;stroke-width:1;stroke-linecap:square;stroke-linejoin:miter;stroke-miterlimit:2;stroke-opacity:1"
         stroke-miterlimit="2"
         transform="matrix(0.999972,0,0,0.999972,0.00398228,0)"
         id="g114" />
      <g
         style="fill:#000000;fill-opacity:1;stroke:#000000;stroke-width:1;stroke-linecap:square;stroke-linejoin:miter;stroke-miterlimit:2;stroke-opacity:1"
         stroke-miterlimit="2"
         transform="matrix(0.999972,0,0,0.999972,0.00398228,0)"
         id="g116" />
      <g
         style="fill:#000000;fill-opacity:1;stroke:#000000;stroke-width:1;stroke-linecap:square;stroke-linejoin:miter;stroke-miterlimit:2;stroke-opacity:1"
         stroke-miterlimit="2"
         id="g118" />
      <g
         style="fill:#000000;fill-opacity:1;stroke:#000000;stroke-width:1;stroke-linecap:square;stroke-linejoin:miter;stroke-miterlimit:2;stroke-opacity:1"
         stroke-miterlimit="2"
         id="g120" />
      <g
         style="fill:#000000;fill-opacity:1;stroke:#000000;stroke-width:1;stroke-linecap:square;stroke-linejoin:miter;stroke-miterlimit:2;stroke-opacity:1"
         stroke-miterlimit="2"
         id="g122" />
      <g
         style="fill:#000000;fill-opacity:1;stroke:#000000;stroke-width:1;stroke-linecap:square;stroke-linejoin:miter;stroke-miterlimit:2;stroke-opacity:1"
         stroke-miterlimit="2"
         id="g124" />
      <g
         style="fill:#000000;fill-opacity:1;stroke:#000000;stroke-width:1;stroke-linecap:square;stroke-linejoin:miter;stroke-miterlimit:2;stroke-opacity:1"
         stroke-miterlimit="2"
         transform="matrix(0.999972,0,0,0.999972,0.00398228,0)"
         id="g126" />
      <g
         style="fill:#000000;fill-opacity:1;stroke:#000000;stroke-width:1;stroke-linecap:square;stroke-linejoin:miter;stroke-miterlimit:2;stroke-opacity:1"
         stroke-miterlimit="2"
         id="g128" />
      <g
         style="fill:#000000;fill-opacity:1;stroke:#000000;stroke-width:1;stroke-linecap:square;stroke-linejoin:miter;stroke-miterlimit:2;stroke-opacity:1"
         stroke-miterlimit="2"
         id="g130" />
      <g
         style="fill:#000000;fill-opacity:1;stroke:#000000;stroke-width:1;stroke-linecap:square;stroke-linejoin:miter;stroke-miterlimit:2;stroke-opacity:1"
         stroke-miterlimit="2"
         id="g132" />
      <g
         style="fill:#000000;fill-opacity:1;stroke:#000000;stroke-width:1;stroke-linecap:square;stroke-linejoin:miter;stroke-miterlimit:2;stroke-opacity:1"
         stroke-miterlimit="2"
         id="g134" />
      <g
         style="fill:#000000;fill-opacity:1;stroke:#000000;stroke-width:1;stroke-linecap:square;stroke-linejoin:miter;stroke-miterlimit:2;stroke-opacity:1"
         stroke-miterlimit="2"
         id="g136" />
      <g
         style="fill:#000000;fill-opacity:1;stroke:#000000;stroke-width:1;stroke-linecap:square;stroke-linejoin:miter;stroke-miterlimit:2;stroke-opacity:1"
         stroke-miterlimit="2"
         id="g138" />
    </g>
  </g>
</svg>
