<?xml version="1.0" encoding="utf-8"?>
<!-- Generator: Adobe Illustrator 18.1.1, SVG Export Plug-In . SVG Version: 6.00 Build 0)  -->
<svg version="1.1" id="Layer_1" xmlns="http://www.w3.org/2000/svg" xmlns:xlink="http://www.w3.org/1999/xlink" x="0px" y="0px"
	 viewBox="52.9 0 395.7 396" enable-background="new 52.9 0 395.7 396" xml:space="preserve">
<g id="Layer_3" display="none">
	
		<image display="inline" overflow="visible" enable-background="new    " width="400" height="400" xlink:href="565072FDCF0EF2F3.png"  transform="matrix(0.99 0 0 0.99 52.8075 0)">
	</image>
</g>
<g id="Layer_1_1_" display="none">
	<path display="inline" fill="#DFCAA3" d="M250.5,388.9c-109,0-197.7-85.8-197.7-191.2C52.8,92.2,141.5,6.4,250.5,6.4
		c109,0,197.7,85.8,197.7,191.2C448.2,303.1,359.5,388.9,250.5,388.9"/>
	<path display="inline" fill="#2B5134" d="M440.1,197.7c0,101.3-84.9,183.5-189.6,183.5c-104.7,0-189.6-82.1-189.6-183.5
		S145.8,14.2,250.5,14.2C355.2,14.2,440.1,96.3,440.1,197.7"/>
	<path display="inline" fill="#FFFFFF" d="M156,75.8l-13.1-19.3l18.6-11.8l6.6,9.6l-5.7,3.6l-2.8-4.1l-7.2,4.6l5.7,8.3l12.9-8.1
		l14,20.7l-18.6,11.8l-6.6-9.7l5.7-3.6l2.8,4.2l7.2-4.6l-6.5-9.6L156,75.8z M151.9,103.6l-13-13l18.3,8.1l5.2-4.8l-25-11.3
		l-5.8-17.6l-5.2,4.9l4,12.3l-8.3-8.3l-4.9,4.6l29.9,29.9L151.9,103.6z M133.5,104.3l-3.9,5.4l5.1,3.5l-5,6.8l-23.7-16.3l5-6.8
		l5,3.5l3.9-5.4l-10.6-7.3l-12.9,17.5l34.8,23.9l12.9-17.5L133.5,104.3z M86.8,122.8l32.7,14.3l-3.5,7.6l-32.7-14.3l-2.8,6.1
		l38.8,17.2l9.3-19.9l-38.9-17L86.8,122.8z M113.1,157.6l3.5,5.4l-3.7,16.4L71,170.2l3.7-16.4l5.4-3.4l13.4,3l2.7,3.2l3.8-1.8
		L113.1,157.6z M91.1,159.4L81,157.1l-1.9,8.4l10.1,2.2L91.1,159.4z M109.5,163.5l-11.8-2.6l-1.8,8.4l11.8,2.6L109.5,163.5z
		 M353.4,61.7l-21.7,27.8l6,4.4L359.4,66l5.5,4l4.1-5.3l-17-12.4l-4.1,5.3L353.4,61.7z M327.7,85.8L331,80l-12.7-6.7l5.8-10.2
		l12.7,6.7l3.2-5.7l-12.7-6.7l5-8.7l12.7,6.7l3.3-5.8l-18.6-9.9L309,75.9L327.7,85.8z M343.2,97.9l30.8-29l12.2,12v6.2l-9.9,9.3
		l-4.3,0.4l-0.5,4.1l-9.6,9l-6.6-0.1L343.2,97.9z M366.1,85.1l6.3,6.1l7.4-7l-6.3-6.1L366.1,85.1z M361.3,89.6l-8.7,8.1l6.2,6
		l8.7-8.1L361.3,89.6z M285.1,42.1L269.9,40l1.4-9.9l8.5,1.1l-0.7,4.9l6.8,0.9l1.6-11.4l-22-2.9l-3.3,22.9l15.2,2.1l-1.6,11.4
		l-8.5-1.1L268,53l-6.8-0.9l-1.6,11.5l22,2.9L285.1,42.1z M292.4,70.1l6-17.2l0.9,19.4l6.8,2.2L305,47.8l13.6-13l-6.9-2.2l-9.4,9.1
		l3.8-10.9l-6.5-2.1l-13.8,39.4L292.4,70.1z M207.2,70.3l-11.1-40.2l16.8-4.5l5.6,3.1l3.6,12.9l-1.7,3.8l3.4,2.4l3.4,12.5l-3.3,5.5
		L207.2,70.3z M217.1,48.7l-8.5,2.3l3.1,11.3l8.5-2.3L217.1,48.7z M206.8,44.7l8.5-2.4l-2.6-9.7l-8.6,2.3L206.8,44.7z M354.2,319.3
		l10.8,14.7l-18.2,12.3L336,331.7l0.7-3.6l-3.8-0.5l-10.9-14.7l18.1-12.5l11,14.8l-1.1,3.9L354.2,319.3z M337.6,322.5l7-4.8l-6-8.1
		l-7,4.8L337.6,322.5z M355.5,332.5l-7-9.5l-7,4.8l7,9.5L355.5,332.5z M324.3,330.6l10.4,22.6l-20.3,8.7l-17.3-37.8l20.3-8.7
		l4.2,9.1l-6.2,2.7l-1.4-3l-7.8,3.4l4.2,9.1L324.3,330.6z M325.7,349.8l-4.9-10.6l-7.9,3.4l4.9,10.6L325.7,349.8z M409.3,111.7
		l-36,22.7l-3.7-5.5l15.7-9.9l-4.7-7l-15.8,9.9l-3.7-5.5L397,93.8l0.1-0.1L409.3,111.7z M391,115.4l8.8-5.5l-4.7-6.9l-8.8,5.5
		L391,115.4z M428,159.2l-1.4-6.5l-42,8.5l4.4,20.2l6.7-1.4l-3-13.7L428,159.2z M384.4,142.1l33.4-13.3l-2.6-6.1l-39.7,15.8
		l8.1,19.1l6.4-2.5L384.4,142.1z M292.6,325.7l9.4,40.4l-21.7,4.7l-2.2-9.7l6.7-1.4l0.8,3.3l8.4-1.8l-2.3-9.7l-15,3.3l-5.6-24.3
		L292.6,325.7z M290,345l-2.6-11.4l-8.4,1.8l2.6,11.3L290,345z M230,330.6l-20.7-4.6l-1.5,6.5l6.7,1.5l-8.1,34l7.3,1.6l8.1-34
		l6.7,1.5L230,330.6z M224.8,371.5l6.8,0.8l0.8-6.6l-6.8-0.8L224.8,371.5z M173.8,336.6l14,6.3l-4.9,10.5l-7.8-3.4l2.1-4.5l-6.2-2.7
		l-5,10.5l20.2,8.9l10.6-22.5l-14-6.2l4.3-9.1l7.8,3.4l-2.1,4.5l6.2,2.7l4.9-10.5l-20.2-8.9L173.8,336.6z M164.9,331.7l4-5.3
		l-11.7-8.2l6.1-8.1l11.7,8.2l4-5.3l-17.2-12.1l-25.1,33.4l17.2,12.1l4-5.3l-11.7-8.2l7.1-9.4L164.9,331.7z M253.5,331.7l0.5,8.5
		l3.4-0.2l1.8,32.8l6.8-0.3l-2.2-41.3L253.5,331.7z M254.9,63.5l-6.8,0.4l-1-18.1l-8.6,0.5l1,18.1l-6.8,0.4l-2.4-41.3l0-0.2
		l22.2-1.2l0,0.2L254.9,63.5z M246.7,39.2L246.1,29l-8.6,0.5l0.6,10.1L246.7,39.2z"/>
	<path display="inline" fill="#DFCAA3" d="M380.8,197.9c0.1-33.7-13.4-65.3-38-89.2c-24.6-23.8-57.2-37-92-37.1h-0.2
		c-71.7,0-130.1,56.4-130.3,125.8c-0.1,33.7,13.4,65.3,38,89.2c24.6,23.8,57.3,37,92,37.1h0.2C322.2,323.7,380.6,267.3,380.8,197.9"
		/>
	<path display="inline" fill="#2B5134" d="M374.2,197.9C374,264,318.6,317.4,250.3,317.3c-68.3-0.1-123.6-53.8-123.5-119.9
		c0.1-66.1,55.6-119.6,123.9-119.4C319,78.1,374.3,131.8,374.2,197.9"/>
	<path display="inline" fill="#FFFFFF" d="M277.6,126.8c-7.7-1.2-15.7-2-23.9-2.1l0.1-39.2C270.4,86,286.1,90.1,300,97
		C289.7,106.2,282.4,116.3,277.6,126.8 M216.9,127.9c-3.9-9.9-10.3-19.6-19.7-28.9c-26.3,14.4-45.8,39.1-52.6,68.4
		C160.4,148.6,186.2,134.1,216.9,127.9 M356.5,167.8c-6.7-29.3-26.1-54.1-52.3-68.6c-9.5,9.3-15.9,19-19.8,28.8
		C315,134.3,340.8,148.8,356.5,167.8 M223.6,126.7c7.7-1.2,15.7-1.9,23.9-2.1l0.1-39.2c-16.6,0.4-32.3,4.5-46.3,11.4
		C211.7,106.1,218.9,116.2,223.6,126.7 M218.7,133.1c-37.6,9.3-66,34.8-71.9,66c-1.4,9.7-0.6,19.8,2.6,29.7
		c4.5,11.2,11,21.4,19,30.3C169.8,257.7,238,194,218.7,133.1 M282.5,133.2C263,194,330.9,258,332.3,259.4c7.2-8,13.2-17.1,17.7-27
		c5-12.9,5.8-26.2,2.8-38.7C344.8,165.1,317.7,142,282.5,133.2 M313.2,276.1L313.2,276.1c-17.8,12.2-39.5,19.4-62.9,19.4
		c-23.4,0-45.1-7.3-62.8-19.6c0,0,62.5-79.5,38.1-144.3c7.1-1.3,14.4-2.1,21.9-2.3l-0.2,87.1l3.1,5.2l3.1-5.2l0.2-87.1
		c7.5,0.2,14.8,1,21.9,2.3C251,196.4,313.2,276.1,313.2,276.1 M289.3,258c-7-14.3-14.6-32.9-19-53l-4.3,0L250.6,232l-15.3-27.1
		l-4.5,0c-4.4,19.9-12,38.3-19,52.5l-0.1,0.4l33.5,31.5l-9.8-49.3l15.1,22.2l15.2-22.1l-9.9,49.2L289.3,258z"/>
</g>
<g id="Layer_2">
	<path fill="#F0EBD2" d="M250.8,396c-87.7,0-159-71.3-159-159c0-42.9,16.9-83.1,47.5-113.2c0.2-0.2,0.5-0.4,0.8-0.6
		c-10.6-15.9-16.5-34.5-12-57.1c8.3-41.5,41.8-54.1,43.3-54.6c0.5-0.2,1.1-0.3,1.7-0.3c1.8,0,3.5,1,4.3,2.6c0.5,1,0.7,2.2,0.5,3.3
		c11-9.2,21.4-13.3,25.8-14.7c0.5-0.2,1-0.2,1.5-0.2c1.9,0,3.7,1.1,4.5,2.9c1,2.3,0.2,4.9-1.9,6.2c-10,6-18.7,14.2-25.3,23.7
		c7.9-1.8,13.2-2,15.1-2c0.7,0,1,0,1,0c2.4,0.1,4.4,2,4.6,4.5c0.2,2.4-1.4,4.6-3.7,5.2c-0.1,0-13.3,3.4-27.8,13.8
		c-2.7,8.4-4.1,17.1-4.1,25.9c0,16.8,5.4,34.1,14.8,47.4c2.2,3.1,4.3,5.8,6.5,8.2c-0.8-17.3,4.3-44.1,35.4-56.6
		c0.6-0.2,1.2-0.4,1.8-0.4c1.8,0,3.5,1,4.4,2.7c1.1,2.3,0.3,5.1-1.8,6.4l-0.2,0.1c-4.7,3.1-8.7,7-11.7,11.6c3.3-1,6.1-1.3,8-1.5
		l0.4,0c0.2,0,0.4,0,0.6,0c2.1,0,3.9,1.3,4.6,3.3c0.8,2.2-0.1,4.6-2,5.8c0,0-0.3,0.2-0.4,0.2c-10,5.7-15.5,12.4-16.5,19.9
		c-1,8.1,3.4,15.7,6.6,20c8.3-9.7,13.8-26.2,15.3-32.4c0.5-2.2,2.5-3.7,4.8-3.7c0.2,0,0.4,0,0.6,0c2.5,0.3,4.3,2.4,4.3,4.8
		c0.1,20.4-5.3,34.3-10.9,43.2c8.4,4.2,16.5,4.4,18.3,4.4c0.2,0,0.5,0,0.5,0c0.1,0,0.1,0,0.2,0c0,0,0.2,0,0.4,0
		c1.8,0,9.9-0.2,18.3-4.4c-5.6-8.9-11.1-22.9-10.9-43.2c0-2.5,1.9-4.6,4.3-4.8c0.2,0,0.4,0,0.6,0c2.2,0,4.2,1.5,4.8,3.7
		c1.5,6.2,7,22.7,15.3,32.4c3.2-4.3,7.6-12,6.6-20c-1-7.4-6.5-14.1-16.5-19.9c-0.1,0-0.3-0.2-0.3-0.2c-1.9-1.2-2.8-3.7-2-5.8
		c0.7-2,2.5-3.3,4.6-3.3c0.2,0,0.4,0,0.6,0l0.4,0c1.9,0.2,4.7,0.6,8,1.5c-3.1-4.6-7-8.5-11.7-11.6L273,90c-2.2-1.3-3-4.1-1.8-6.4
		c0.9-1.7,2.6-2.7,4.4-2.7c0.6,0,1.2,0.1,1.8,0.4c31.1,12.5,36.2,39.3,35.4,56.6c2.2-2.4,4.4-5.1,6.5-8.2
		c9.4-13.3,14.8-30.5,14.8-47.4c0-8.9-1.4-17.6-4.1-25.9c-14.6-10.5-27.6-13.7-27.8-13.8c-2.4-0.6-3.9-2.8-3.7-5.2
		c0.2-2.4,2.2-4.3,4.6-4.5c0,0,0.3,0,1,0c1.9,0,7.2,0.2,15.1,2c-6.6-9.4-15.3-17.6-25.3-23.7c-2.1-1.3-3-4-1.9-6.2
		c0.8-1.8,2.6-2.9,4.5-2.9c0.5,0,1,0.1,1.5,0.2c4.4,1.4,14.9,5.5,25.8,14.7c-0.2-1.1-0.1-2.2,0.5-3.3c0.9-1.6,2.6-2.6,4.3-2.6
		c0.6,0,1.1,0.1,1.7,0.3c1.4,0.5,35,13,43.3,54.6c4.5,22.5-1.4,41.2-12,57.1c0.3,0.2,0.5,0.4,0.8,0.6
		c30.6,30.2,47.5,70.4,47.5,113.2C409.8,324.7,338.5,396,250.8,396"/>
	<path fill="#00471B" d="M358.9,127.3l-3.4,4.1c27.2,26.9,44.1,64.3,44.1,105.6c0,82.1-66.6,148.7-148.7,148.7
		c-82.1,0-148.7-66.6-148.7-148.7c0-41.3,16.9-78.7,44.1-105.6l-3.4-4.1c-28.4,28-46,66.8-46,109.7c0,85,69.1,154.1,154.1,154.1
		c85,0,154.1-69.1,154.1-154.1C404.9,194.1,387.3,155.2,358.9,127.3 M153.9,138.7c-25,25-41,60.3-41,98.3c0,8.8,0.8,17.4,2.4,25.7
		l41.6-11.2c6.9,45.3,46.1,80.2,93.3,80.2c47.4,0,86.7-35.1,93.4-80.7l42.7,11.7c1.6-8.3,2.4-16.9,2.4-25.7
		c0-38-15.8-72.8-40.7-97.8l3.7-3.9c26.3,26,42.5,61.9,42.5,101.7c0,79-64.3,143.3-143.3,143.3c-79,0-143.3-64.3-143.3-143.3
		c0-39.8,16.3-75.9,42.7-101.9L153.9,138.7z M132.9,67c7.8-39.3,40.1-50.9,40.1-50.9c-11.8,8.7-23.9,25.2-28.9,48.2
		c4.9-6,9.4-10.5,14.6-14.1C171.9,22,194.2,10.5,205.2,7c-14.2,8.6-26.1,21.4-33.3,36.1c16.4-5.9,26.4-5.3,26.4-5.3
		s-14.7,3.6-30.8,15.5c-3.2,9.1-4.9,18.8-4.9,29c0,17.9,5.8,36.2,15.7,50.2c5.6,7.9,11,13.4,17.7,18.3c-2.2-5.6-10.7-48.7,30.1-65
		l-0.3,0.2c-9.6,6.2-16.7,15.9-19.6,27.4c7.4-7.1,15.3-7.9,19.4-8.4c-0.1,0-0.1,0.1-0.2,0.1c-37.8,21.8-7.7,51.4-7.7,51.4
		c11.9-10,18.9-32.4,20.4-38.5c0.1,23.6-7.7,37.8-13.1,44.7c12.2,8.4,25.9,7.8,25.9,7.8h0h0c0,0,13.7,0.6,25.9-7.8
		c-5.3-6.9-13.2-21.1-13.1-44.7c1.5,6.1,8.4,28.5,20.4,38.5c0,0,30.1-29.6-7.7-51.4c-0.1,0-0.1-0.1-0.2-0.1c4.1,0.5,12,1.2,19.4,8.4
		c-2.9-11.4-10-21.1-19.6-27.4l-0.3-0.2c40.7,16.3,32.3,59.4,30.1,65c6.7-5,12.1-10.4,17.7-18.3c9.9-14,15.7-32.3,15.7-50.2
		c0-10.1-1.7-19.9-4.9-29c-16.1-11.9-30.8-15.5-30.8-15.5s9.9-0.5,26.4,5.3c-7.2-14.7-19.1-27.5-33.3-36.1
		c11,3.5,33.3,14.9,46.4,43.1c5.3,3.6,9.8,8.1,14.6,14.1c-5-23.1-17.1-39.5-28.9-48.2c0,0,32.3,11.6,40.1,50.9
		c9.1,45.7-27.4,74.3-56.9,98.7l22.5-9.2c1.5-0.6,2.6,0.8,2.3,2.6l-0.7,5.6c-0.4,3.1-2.6,18.5-11.1,23.2c-1.8,1-5,2.2-14.3,2.9
		l-16.9,1.1l2.8,9.5l-16.6,26.5l8.5-8.9l17.3,61.6l-47.5,39.1l14.8-67.3l-22.2,27l-22.2-27l14.8,67.3l-47.5-39.1l17.3-61.6l8.5,8.9
		l-16.6-26.5l2.8-9.5l-16.9-1.1c-9.3-0.7-12.5-1.9-14.3-2.9c-8.5-4.7-10.7-20.2-11.1-23.2l-0.7-5.6c-0.3-1.8,0.8-3.2,2.3-2.6
		l22.5,9.2C160.3,141.3,123.8,112.8,132.9,67 M346,116.2c0,0,18.6-29.4,5.9-45.9c-1.3-1.7-2.7-3.2-4.1-4.7
		C353,84.4,346,116.2,346,116.2 M155.6,116.2c0,0-7-31.8-1.8-50.6c-1.4,1.5-2.8,3-4.1,4.7C137,86.7,155.6,116.2,155.6,116.2"/>
	<path fill="#FFFFFF" d="M201.8,329.1l0.9-1.5l0.1-0.1l-14.2-9l-0.1,0.1l-17.9,28l4.3,2.8l7.9-12.3l5.5,3.5l-7.9,12.3l4.3,2.8
		L200,332L201.8,329.1z M191.2,336.1l-5.5-3.5l4.4-6.9l5.5,3.5L191.2,336.1z M186.2,316.6l-25.6,21.7l-3.5-3.5l6.2-9.3l-9.2,6.3
		l-3.5-3.5l21.4-25.8l3.4,3.4l-8.6,10.9l11.7-7.8l1.2,1.2L172,322l10.8-8.8L186.2,316.6z M161,285.6l-29.6,15.4l-2.4-4.6l29.6-15.4
		L161,285.6z M156.4,276.7l-31.6,10.9l-1.7-4.9l19.8-6.8l-9.2-0.3l7-5.9l-19.8,6.8l-1.7-4.9l31.6-10.9l1.7,4.9l-7,5.9l9.2,0.3
		L156.4,276.7z M143.5,310.7l6.4,8.9l-4.3,3.1l-9.4-13.1l27.2-19.5l3,4.2L143.5,310.7z M221.3,335.2l-11.9,31l-3.4-1.3l-8.9-3.4
		l-3.6-1.4l12.1-31l4.8,1.9l-10,26.1l6.1,2.3l10-26.1L221.3,335.2z M358.4,312.7l2.9,2.3l-8.2,10.2l-2.3,2.9l-23-18.4l-3-2.4
		l10.5-13.1l3,2.4l5,4l-3.2,4l-3.8-3l-4.1,5.1l17.7,14.1l4-5.1l-3.8-3l3.2-4L358.4,312.7z M352.9,289.8l21.3,2.8l-2.5,4.8l-15.5-2
		l12.9,6.8l-2.4,4.6l-29.5-15.6l2.4-4.6l8.2,4.3l-6.1-8.3l2.6-4.8L352.9,289.8z M382.3,269.2l-4.8,16.1l-3.6-1.1l-5.4-1.6l1.5-4.9
		l3.8,1.2l1.9-6.2l-8.9-2.7l-3.4,11.1l-3.6-1.1l-14.2-4.3l1.1-3.5l3.8-12.6l3.6,1.1l5.3,1.6l-1.5,4.9l-3.8-1.1l-1.9,6.2l7.7,2.3
		l3.4-11.1l3.6,1.1l11.9,3.6L382.3,269.2z M322.1,310.2l21.4,25.4l-2.8,2.3l-7.3,6.1l-3,2.5l-21.3-25.6l4-3.3l18,21.4l5-4.2
		l-18-21.4L322.1,310.2z M284.1,363.1l1,5.2l-15.8,3.1l-6.4-32.6l15.8-3.1l1,5.2l-10.7,2.1l1.5,7.9l10.7-2.1l1,5.2l-10.7,2.1
		l1.8,9.2L284.1,363.1z M259.7,366.9l0.1,5.3l-16.1,0.3l-0.5-33.3l16.1-0.3l0.1,5.3l-10.9,0.2l0.1,8l10.9-0.2l0.1,5.3l-10.9,0.2
		l0.2,9.4L259.7,366.9z M312,339.1l0.6-3.3l-5.1-9.4l-4.8-1.4l-11.5,6.2l15.8,29.2l11.5-6.2l1.4-4.9l-4.9-9.1L312,339.1z
		 M298.1,333.6l5.7-3.1l3.8,7.1l-5.7,3.1L298.1,333.6z M308.8,353.5l-4.4-8.2l5.7-3.1l4.4,8.2L308.8,353.5z M239.8,338.6l-8.7,12
		l3.9,21.1l-5.4-0.9l-2.9-15.3l-2.5,14.4l-5.1-0.9l5.8-32.9l5.1,0.9l-1.6,9.1l6-8.4L239.8,338.6z"/>
	<path fill="#FFFFFF" d="M235.4,190.8c-2.4-1.1-7-3.2-11.5-5.3c-0.9-0.4-1.9,0.1-2.1,1.1c-0.3,2-0.3,5,2.4,7.1
		c5,3.9,9.3,1.7,11.6-0.5C236.6,192.5,236.3,191.3,235.4,190.8"/>
	<path fill="#FFFFFF" d="M173,164.6c0,0,1.6,13.8,7.4,17c3.9,2.2,13.5,2,21.8,2.6C193,180.6,179.4,170.9,173,164.6L173,164.6
		L173,164.6z"/>
	<polygon fill="#FFFFFF" points="241.2,247.1 245.8,253.4 255.8,253.4 260.4,247.1 	"/>
	<path fill="#FFFFFF" d="M328.6,164.6c-6.4,6.2-20,16-29.2,19.6c8.3-0.6,17.9-0.4,21.8-2.6C326.9,178.4,328.6,164.6,328.6,164.6
		L328.6,164.6L328.6,164.6z"/>
	<path fill="#FFFFFF" d="M260.4,210.7l-4.4-14.6l-5.1,2.5l-5.1-2.5l-4.4,14.6c0,0-1.5,5.8-7.9,9.9l-2.7,12l6.7,9h7.1l-6.6-9.7l1-6
		c3,3.2,7.2,5.2,11.9,5.2c4.7,0,8.9-2,11.9-5.2l1,6l-6.6,9.7h7.1l6.7-9l-2.7-12C261.9,216.5,260.4,210.7,260.4,210.7"/>
	<path fill="#FFFFFF" d="M277.7,185.6c-4.5,2.1-9.1,4.2-11.5,5.3c-1,0.4-1.2,1.7-0.4,2.4c2.3,2.3,6.6,4.4,11.6,0.5
		c2.7-2.1,2.7-5.1,2.4-7.1C279.7,185.7,278.6,185.2,277.7,185.6"/>
</g>
</svg>
